<?xml version="1.0" encoding="utf-8"?>
<!-- Generator: Adobe Illustrator 26.0.0, SVG Export Plug-In . SVG Version: 6.00 Build 0)  -->
<svg version="1.1" xmlns="http://www.w3.org/2000/svg" xmlns:xlink="http://www.w3.org/1999/xlink" x="0px" y="0px"
	 viewBox="0 0 2494.6 2823.2" style="enable-background:new 0 0 2494.6 2823.2;" xml:space="preserve">
<style type="text/css">
	.st0{fill:#2F2F2F;}
	.st1{fill:#FF9900;}
</style>
<g id="substrate">
</g>
<g id="body">
	<path class="st0" d="M2153.9,532.3v-68.5c0-64.5-52.3-116.8-116.8-116.8h-68.5v-86.8c0-54.4-44.1-98.6-98.6-98.6H843.3
		c-25.8,0-50.5,10.2-68.7,28.5L406.5,558.2c-26.5,26.5-41.5,62.5-41.5,100.1v968.8c2.2-0.6,4.4-1.2,6.7-1.7
		c10.1-2.4,20.5-3.6,30.9-3.6c12.5,0,24.9,1.7,36.8,5.1V652.3h316.3c55.2,0,100-44.8,100-100V236h1002.1c20.1,0,36.4,16.3,36.4,36.4
		V2172c0,24.6-19.9,44.5-44.5,44.5h-561.6c-4,12-9.8,23.5-17.1,34.1c-11.4,16.6-26.4,30.3-43.7,40.3h652.7
		c48.9,0,88.5-39.6,88.5-88.5v-1781h56.3c30.2,0,54.6,24.5,54.6,54.6v1881.4c0,24.6-19.9,44.5-44.5,44.5h-847.4
		c3.7,25.5,0.1,51.3-10.1,74.4h887.9c48.9,0,88.5-39.6,88.5-88.5V606.7h56.4c30.2,0,54.6,24.5,54.6,54.6v1881.4
		c0,24.6-19.9,44.5-44.5,44.5H874.6l-3.9,22.4c-3.4,19-10.8,36.6-21.2,52h1401.3c48.9,0,88.5-39.6,88.5-88.5v-1924
		c0-64.5-52.3-116.8-116.8-116.8H2153.9z M728.3,577.9H492l289.3-289.3v236.3C781.3,554.2,757.6,577.9,728.3,577.9z M691.3,743.1
		h950.8c20.5,0,37.2,16.7,37.2,37.2v0c0,20.5-16.7,37.2-37.2,37.2H691.3c-20.5,0-37.2-16.7-37.2-37.2v0
		C654.2,759.8,670.8,743.1,691.3,743.1z M691.3,941.9h950.8c20.5,0,37.2,16.7,37.2,37.2v0c0,20.5-16.7,37.2-37.2,37.2H691.3
		c-20.5,0-37.2-16.7-37.2-37.2v0C654.2,958.5,670.8,941.9,691.3,941.9z M691.3,1140.6h950.8c20.5,0,37.2,16.7,37.2,37.2v0
		c0,20.5-16.7,37.2-37.2,37.2H691.3c-20.5,0-37.2-16.7-37.2-37.2v0C654.2,1157.2,670.8,1140.6,691.3,1140.6z M691.3,1339.3h950.8
		c20.5,0,37.2,16.7,37.2,37.2v0c0,20.5-16.7,37.2-37.2,37.2h-988v-37.2C654.2,1356,670.8,1339.3,691.3,1339.3z M1642.2,1612.5h-769
		c-4.2-12.3-10.1-24-17.6-34.6c-11.6-16.4-26.6-30-43.8-39.8h830.3c20.5,0,37.2,16.7,37.2,37.2v0
		C1679.4,1595.8,1662.7,1612.5,1642.2,1612.5z M1642.2,1811.2h-449c-0.5-4.3-1.3-8.6-2.2-12.9c-5-22.9-15.9-44.1-31.6-61.5h482.8
		c20.5,0,37.2,16.7,37.2,37.2v0C1679.4,1794.5,1662.7,1811.2,1642.2,1811.2z M1148.6,1935.6h493.6c20.5,0,37.2,16.7,37.2,37.2v0
		c0,20.5-16.7,37.2-37.2,37.2H1276c-14.6-24.3-36.7-43.9-64.1-55.3c-9.2-3.8-18.8-6.7-28.6-8.4l-32.7-5.7
		C1150,1938.8,1149.3,1937.2,1148.6,1935.6z"/>
	<path class="st1" d="M941.4,2119.1c-0.3-38.6-9.4-75.7-26.4-109.2c-11.9-23.5-27.7-45.2-47-64.2c-3.6-3.5-7.3-6.9-11-10.2
		c-45.3-39.6-102.8-60.9-163.4-60.5c-65.7,0.5-127.2,26.6-173.3,73.4c-28.6,29.1-49.2,64.1-60.5,102.1
		c-6.9,23.2-10.4,47.5-10.2,72.4c0.2,23.6,3.6,46.6,10.2,68.6c2.5,8.5,5.5,16.8,8.9,24.9c11.5,27.3,28,52.5,49,74.4
		c1.7,1.8,3.5,3.6,5.3,5.4c8.7,8.5,17.9,16.3,27.5,23.4c6.6,4.8,13.3,9.3,20.3,13.4c17,10.1,35.2,18,54.1,23.6
		c6.7,2,13.4,3.7,20.3,5.1c16.4,3.4,33.3,5.1,50.4,5.1c0.6,0,1.3,0,1.9,0c69.1-0.5,131.4-29.7,175.8-76.1
		c20.5-21.5,37.2-46.6,48.9-74.4C934.7,2186.5,941.6,2153.6,941.4,2119.1z M831.1,2216.5c-5.4,7.6-11.4,14.7-17.9,21.3
		c-29.8,30-71,48.8-116.5,49.1c-0.4,0-0.9,0-1.3,0c-3.4,0-6.8-0.1-10.2-0.3c0,0,0,0,0,0c-40-2.4-77.4-19-106.2-47.4
		c-7.2-7.1-13.7-14.7-19.4-22.8c-19.4-27.4-29.9-59.9-30.2-94.2c-0.3-44.3,16.6-86.1,47.7-117.7c26.4-26.9,60.4-43.6,97.2-48.2
		c3.6-0.5,7.2-0.8,10.8-1h0c3-0.2,5.9-0.3,8.9-0.3h1.3c48.8,0,92.8,21.2,123.2,54.9c26.3,29.1,42.4,67.6,42.8,109.8
		C861.6,2155.7,850.4,2189.1,831.1,2216.5z M942.7,2547.8l0.2,0.2c29.9,21.3,70.7,18.2,97-7.3l65.6-64.4l1-1
		c19.8-19.4,26.8-47.5,20-73.4c-2.2-8.2-5.8-16.2-10.8-23.6l-40.4-56.4c5.2-10,10.2-20.4,14.7-30.9c4.4-10.2,8.4-20.6,12-31.2
		l69.4-11.2l0.3,0c20.9-3.5,38.7-15.4,50.1-31.9c8.3-12.1,13.2-26.6,13.5-42.2l0.3-93.7c0.2-31.4-18.7-59-46.6-70.6
		c-5.1-2.1-10.4-3.7-16-4.7l-67.2-11.7c-5.8-19.4-13.2-38.5-22.6-57.9c-1.2-2.5-2.4-4.9-3.6-7.4l40.6-56.3l0.1-0.2
		c12.8-18.1,16.8-40.1,12.3-60.5c-2.9-13.4-9.5-26.1-19.7-36.5l-37.2-37.9l-28.2-28.7c-25.5-26.2-66.3-30-97-9.1l-54.2,37.9h-7.2
		c-19.2-9.8-38.8-17.9-58.3-24.3l-11.1-68.7c-1.9-11.6-6.4-22.2-12.9-31.4c-13.3-18.9-34.9-31.4-59-32.6l-0.9-0.1l-47.6-0.2h-0.3
		l-24.4,0.3l-20.3,0.2l-1.3,0c-37.3,0-68.7,26.5-74.8,63.2l-11.8,67.8c-22.1,7-43.2,15.6-63,25.6l-43.7-31.4l-12.9-9.3l-0.2-0.1
		c-2.4-1.7-4.8-3.2-7.2-4.5c-16.8-9.3-36.1-11.8-54.1-7.6c-7,1.6-13.9,4.3-20.3,7.9c-5.5,3.1-10.6,7-15.3,11.5l-66.6,65.4
		c-26.2,25.5-30.1,66.3-9.1,97l40,57.2c-10.7,20.5-19.6,41.5-26.4,62.5l-67.8,10.6l-0.5,0.1c-36.3,6.1-63,37.3-63.5,74.1l-0.2,47.1
		l-0.1,46.6c-0.2,37.1,26.2,68.8,62.6,75.4l68.2,11.9c6.8,21.7,14.9,41.9,24,60.2l-41.2,56.9l-0.2,0.2c-21.3,29.9-18.2,70.7,7.3,97
		l65.4,66.6c25.6,26.2,66.3,30,97,9.1l56.5-39.6c19.9,10.4,40.8,19.3,62.1,26.6l11.3,69.4l0,0.2c6.1,36.3,37.2,63,74,63.6l47.1,0.2
		l46,0.1h0.9c6.7,0,13.1-0.9,19.3-2.5c28.1-7.3,50.3-30.4,55.6-60.1l2.1-11.7l9.7-55.5c2.4-0.7,4.7-1.5,7-2.3
		c19.8-6.6,38.5-14.2,55.6-22.7L942.7,2547.8z M851,2434.9c-15.7,7.8-33.2,14.7-52,20.7c-18.1,5.7-33.2,17.3-43,32.5
		c-5.5,8.6-9.4,18.4-11.2,28.9l-9,51.8l-2.2,12.8l-86.6-0.3l-10.9-67.1l-0.1-0.6c-2.5-14-8.7-26.8-17.6-37.3
		c-9.2-10.8-21.2-19.2-35.2-23.8c-4.2-1.4-8.4-2.9-12.5-4.5c-13.3-5-26.2-10.9-38.7-17.4l-0.1-0.1c-26.1-13.6-57.4-11.7-81.6,4.9
		l-54.2,37.9l-60-61.2l39.5-54.6c14.2-19.3,18.5-43.7,12.2-66.6c-0.7-2.6-1.5-5.1-2.5-7.6c-0.9-2.4-2-4.8-3.1-7.2l-0.1-0.1
		c-7.4-14.8-14-31.3-19.6-49.3c-8.9-28.5-32.4-49.2-61.4-54.2l-65.7-11.4l0.3-86.6l65-10.2c29-4.3,52.9-24.6,62.4-52.9l0.1-0.4
		c5.6-17.2,12.9-34.5,21.8-51.5c0.1-0.1,0.1-0.3,0.2-0.4c11.9-23,11.7-50,0-72.5c-1.5-2.8-3.1-5.6-5-8.3l-38.5-55.1l43.5-42.7
		l9.1-8.9l8.6-8.4l36.4,26.2l17.8,12.8c0.8,0.6,1.7,1.2,2.5,1.8c23.2,15.7,53.1,17.6,78.8,4.8l0.3-0.2c16.1-8.2,33.5-15.2,51.8-21
		c28.2-8.5,49.5-32.6,54.4-61.5l11.4-65.7l42.8-0.5l41.8,0.1l10.7,66c0.6,3.8,1.4,7.4,2.5,11c7.3,23.9,25.8,43.1,50.4,51.3l0.4,0.1
		c17.2,5.6,34.5,12.9,51.5,21.8c0.7,0.4,1.4,0.7,2.1,1.1c22.1,10.7,47.4,10.5,69,0c3.5-1.7,6.8-3.6,10-5.9l55.1-38.5l43.6,44.4
		l16.5,16.8l-38.9,53.9c-11.5,15.8-16.5,34.8-14.6,53.6c0.9,9.7,3.7,19.4,8.4,28.5c7.9,15.7,14.2,30.8,19.1,45.9
		c0.7,2.3,1.4,4.6,2.1,6.9c8.4,28.6,32.6,50.3,61.7,55.3l64.6,11.3l-0.3,86.6l-67.1,10.9l-0.6,0.1c-22.1,3.9-41.1,17-52.9,35.5
		c-3.4,5.3-6.2,11.1-8.2,17.2c-6.1,18-13.3,34.8-22,51.3l-0.1,0.1c-1,1.9-1.9,3.8-2.7,5.8c-10.7,25.4-7.7,55,8.4,77l24.4,34
		l13.6,18.9l-56.5,55.5l-4.7,4.6l-6.3-4.6l-5.3-3.9l-43.1-31.2l-0.2-0.2c-16.3-11.6-36.2-16.4-55.5-13.9
		C867.6,2428.3,859,2430.8,851,2434.9z"/>
</g>
</svg>
