<?xml version="1.0" encoding="utf-8"?>
<!-- Generator: Adobe Illustrator 26.0.0, SVG Export Plug-In . SVG Version: 6.00 Build 0)  -->
<svg version="1.1" id="Layer_1" xmlns="http://www.w3.org/2000/svg" xmlns:xlink="http://www.w3.org/1999/xlink" x="0px" y="0px"
	 viewBox="0 0 15 15" style="enable-background:new 0 0 15 15;" xml:space="preserve">
<path d="M7.5,15c-0.5,0-1-0.2-1.4-0.6L0.3,7.6C0.1,7.4,0,7.1,0,6.8C0,6,0.7,5.4,1.5,5.4h12.1C14.3,5.4,15,6,15,6.8
	c0,0.3-0.1,0.7-0.4,1c-1.5,1.7-5.7,6.6-5.7,6.6C8.5,14.8,8,15,7.5,15z M1.6,6.9c0,0,4.2,4.9,5.6,6.5c0.1,0.1,0.4,0.1,0.5,0
	c1.5-1.6,5.6-6.5,5.6-6.5S1.6,6.9,1.6,6.9z"/>
</svg>
