<?xml version="1.0" encoding="utf-8"?>
<!-- Generator: Adobe Illustrator 26.0.0, SVG Export Plug-In . SVG Version: 6.00 Build 0)  -->
<svg version="1.1" id="Layer_1" xmlns="http://www.w3.org/2000/svg" xmlns:xlink="http://www.w3.org/1999/xlink" x="0px" y="0px"
	 viewBox="0 0 15 15" style="enable-background:new 0 0 15 15;" xml:space="preserve">
<path d="M6.8,15c-0.8,0-1.4-0.6-1.4-1.4V1.5C5.4,0.7,6,0,6.8,0c0.3,0,0.6,0.1,0.8,0.2c0.5,0.4,6.8,5.9,6.8,5.9C14.8,6.5,15,7,15,7.5
	s-0.2,1-0.6,1.4l-6.7,5.8C7.4,14.9,7.1,15,6.8,15z M6.8,1.6l0.1,11.8c0,0,4.9-4.1,6.5-5.6c0.1-0.1,0.1-0.1,0.1-0.2s-0.1-0.2-0.1-0.2
	C11.8,5.9,6.8,1.6,6.8,1.6z"/>
</svg>
