<?xml version="1.0" encoding="utf-8"?>
<!-- Generator: Adobe Illustrator 26.0.0, SVG Export Plug-In . SVG Version: 6.00 Build 0)  -->
<svg version="1.1" id="Layer_1" xmlns="http://www.w3.org/2000/svg" xmlns:xlink="http://www.w3.org/1999/xlink" x="0px" y="0px"
	 viewBox="0 0 15 15" style="enable-background:new 0 0 15 15;" xml:space="preserve">
<style type="text/css">
	.st0{fill:none;stroke:#000000;stroke-width:1.5;stroke-miterlimit:10;}
</style>
<path class="st0" d="M-14.8,11.7"/>
<path class="st0" d="M-5.1,11.7"/>
<path d="M13.3,10c-0.3-0.6-0.8-1-1.2-1.3c-0.1-0.1-0.2-0.2-0.2-0.2c-0.6-0.7-0.6-1.1-0.6-1.8c0-0.5-0.1-1.3-0.3-2.1
	c-0.1-0.5-0.8-1.6-1.8-2c0.1-0.2,0.1-0.5,0.1-0.7c-0.1-1.1-1-1.7-1.8-1.7c-0.9,0-1.8,0.5-1.9,1.7c0,0.3,0,0.4,0.1,0.7
	C4.8,3,4.2,3.7,3.9,4.5C3.7,5,3.6,6.4,3.6,6.8c0,0.7,0,1.1-0.6,1.8C2.9,8.7,2.8,8.8,2.7,8.9C2.4,9.2,2,9.5,1.7,10
	c-0.4,0.8-0.3,1.6-0.3,2v0.8l3.7,0C5.2,14,6.2,15,7.5,15s2.3-1,2.3-2.2l3.9,0c0,0,0-0.3,0-0.8C13.7,11.6,13.7,10.8,13.3,10z
	 M7.5,1.5c0.2,0,0.4,0.2,0.4,0.4S7.7,2.3,7.5,2.3S7.1,2.1,7.1,1.9S7.3,1.5,7.5,1.5z M7.5,13.5c-0.4,0-0.8-0.3-0.8-0.7h1.6
	C8.2,13.2,7.9,13.5,7.5,13.5z M2.9,11.4v-0.1c0-0.2,0-0.4,0.1-0.6s0.4-0.4,0.6-0.6C3.8,9.9,4,9.7,4.2,9.5c1-1.1,0.9-1.9,0.9-2.8
	c0-0.4,0-0.9,0.1-1.5s0.7-1.5,2.3-1.5c1.4,0,2.1,0.8,2.2,1.6c0.1,0.6,0.1,1.1,0.1,1.5c0,0.8,0,1.6,1,2.8c0.1,0.1,0.2,0.2,0.4,0.4
	c0.3,0.2,0.6,0.5,0.7,0.7c0.1,0.2,0.1,0.4,0.1,0.7C12,11.4,2.9,11.4,2.9,11.4z"/>
</svg>
