<svg xmlns="http://www.w3.org/2000/svg" xml:space="preserve" width="10px" height="10px" overflow="hidden"><defs><clipPath id="a"><path d="M1491 608h163v388h-163z"/></clipPath></defs><g clip-path="url(#a)" transform="translate(-1491 -608)"><path fill-rule="evenodd" d="M1647.27 996h-149.54v-13.483h68.04v-61.421h-68.04a6.73 6.73 0 0 1-6.73-6.741v-224.71a6.73 6.73 0 0 1 6.73-6.741h68.04v-61.421h-68.04V608h149.54v13.483h-68.04v61.421h68.04a6.73 6.73 0 0 1 6.73 6.741v224.71a6.73 6.73 0 0 1-6.73 6.741h-68.04v61.403h68.04Zm-142.81-88.386h136.08v-98.873h-136.08Zm0-112.355h136.08v-98.873h-136.08Z"/></g></svg>