<?xml version="1.0" encoding="utf-8"?>
<!-- Generator: Adobe Illustrator 26.0.0, SVG Export Plug-In . SVG Version: 6.00 Build 0)  -->
<svg version="1.1" id="Layer_1" xmlns="http://www.w3.org/2000/svg" xmlns:xlink="http://www.w3.org/1999/xlink" x="0px" y="0px"
	 viewBox="0 0 15 15" style="enable-background:new 0 0 15 15;" xml:space="preserve" color="currentColor">
<path d="M2.2,14.9c-1.1,0-2.1-0.9-2.1-2.1V8.9c0-1.1,0.9-2.1,2.1-2.1s2.1,0.9,2.1,2.1v3.9C4.3,14,3.3,14.9,2.2,14.9z M2.2,8.4
	c-0.3,0-0.6,0.3-0.6,0.6v3.9c0,0.3,0.3,0.6,0.6,0.6s0.6-0.3,0.6-0.6V8.9C2.8,8.6,2.5,8.4,2.2,8.4z"/>
<path d="M7.5,14.9c-1.1,0-2.1-0.9-2.1-2.1V5.5c0-1.1,0.9-2.1,2.1-2.1s2.1,0.9,2.1,2.1v7.3C9.6,14,8.6,14.9,7.5,14.9z M7.5,4.9
	c-0.3,0-0.6,0.3-0.6,0.6v7.3c0,0.3,0.3,0.6,0.6,0.6c0.3,0,0.6-0.3,0.6-0.6V5.5C8.1,5.2,7.8,4.9,7.5,4.9z"/>
<path d="M12.8,14.9c-1.1,0-2.1-0.9-2.1-2.1V2.2c0-1.1,0.9-2.1,2.1-2.1s2.1,0.9,2.1,2.1v10.7C14.9,14,14,14.9,12.8,14.9z M12.8,1.6
	c-0.3,0-0.6,0.3-0.6,0.6v10.7c0,0.3,0.3,0.6,0.6,0.6s0.6-0.3,0.6-0.6V2.2C13.4,1.9,13.1,1.6,12.8,1.6z"/>
</svg>
