<?xml version="1.0" encoding="utf-8"?>
<!-- Generator: Adobe Illustrator 26.0.0, SVG Export Plug-In . SVG Version: 6.00 Build 0)  -->
<svg version="1.1" id="Layer_1" xmlns="http://www.w3.org/2000/svg" xmlns:xlink="http://www.w3.org/1999/xlink" x="0px" y="0px"
	 viewBox="0 0 15 15" style="enable-background:new 0 0 15 15;" xml:space="preserve"  stroke="currentColor">
<path d="M9.8,9.7L6.9,8.3C6.6,8.2,6.5,7.9,6.5,7.6V3.4c0-0.4,0.3-0.8,0.7-0.8C7.8,2.6,8,3,8,3.4v3.8l2.4,1.2c0.4,0.2,0.5,0.6,0.3,1
	C10.5,9.7,10.2,9.8,9.8,9.7z"/>
<path d="M7.5,1.6c3.2,0,5.9,2.6,5.9,5.9s-2.6,5.9-5.9,5.9s-5.9-2.6-5.9-5.9S4.3,1.6,7.5,1.6 M7.5,0.1c-4.1,0-7.4,3.3-7.4,7.4
	s3.3,7.4,7.4,7.4s7.4-3.3,7.4-7.4S11.6,0.1,7.5,0.1L7.5,0.1z"/>
</svg>
