<?xml version="1.0" encoding="utf-8"?>
<!-- Generator: Adobe Illustrator 26.0.0, SVG Export Plug-In . SVG Version: 6.00 Build 0)  -->
<svg version="1.1" id="Layer_1" xmlns="http://www.w3.org/2000/svg" xmlns:xlink="http://www.w3.org/1999/xlink" x="0px" y="0px"
	 viewBox="0 0 15 15" style="enable-background:new 0 0 15 15;" xml:space="preserve" >
<path d="M7.5,0.1c-4.1,0-7.4,3.3-7.4,7.4s3.3,7.4,7.4,7.4s7.4-3.3,7.4-7.4S11.6,0.1,7.5,0.1z M7.5,1.6c1.4,0,2.7,0.5,3.7,1.3L8,5.7
	V3.4C8,3,7.8,2.6,7.3,2.6C6.7,2.6,6.5,3,6.5,3.4V7l-4,3.5C2,9.6,1.7,8.6,1.7,7.5C1.6,4.2,4.3,1.6,7.5,1.6z M7.5,13.4
	c-1.6,0-3.1-0.6-4.1-1.7l3.8-3.3l2.6,1.3c0.4,0.2,0.7,0,0.9-0.3c0.2-0.3,0.1-0.8-0.2-1l-2-1L12.2,4c0.7,1,1.2,2.2,1.2,3.5
	C13.4,10.7,10.7,13.4,7.5,13.4z"/>
</svg>
