<?xml version="1.0" encoding="utf-8"?>
<!-- Generator: Adobe Illustrator 26.0.0, SVG Export Plug-In . SVG Version: 6.00 Build 0)  -->
<svg version="1.1" id="Layer_1" xmlns="http://www.w3.org/2000/svg" xmlns:xlink="http://www.w3.org/1999/xlink" x="0px" y="0px"
	 viewBox="0 0 15 15" style="enable-background:new 0 0 15 15;" xml:space="preserve" fill="#000000">
<path d="M12.9,14.2H2.1C1,14.2,0,13.2,0,12.1V2.7C0,1.5,1,0.6,2.1,0.6h3.8c0.6,0,1.1,0.2,1.5,0.6l1.4,1.4h4.1C14,2.6,15,3.5,15,4.7
	v7.4C15,13.2,14,14.2,12.9,14.2z M5.9,2.1H2.1c-0.3,0-0.6,0.3-0.6,0.6v9.4c0,0.3,0.3,0.6,0.6,0.6h10.7c0.3,0,0.6-0.3,0.6-0.6V4.7
	c0-0.3-0.3-0.6-0.6-0.6H8.1L6.3,2.3C6.2,2.2,6,2.1,5.9,2.1z"/>
</svg>