<?xml version="1.0" encoding="utf-8"?>
<!-- Generator: Adobe Illustrator 26.0.0, SVG Export Plug-In . SVG Version: 6.00 Build 0)  -->
<svg version="1.1" id="Layer_1" xmlns="http://www.w3.org/2000/svg" xmlns:xlink="http://www.w3.org/1999/xlink" x="0px" y="0px"
	 viewBox="0 0 15 15" style="enable-background:new 0 0 15 15;" xml:space="preserve" fill="currentColor">
<g>
	<path d="M8.8,14.9H6.2c-0.6,0-1.2-0.5-1.2-1.2v-0.4l-0.3,0.3c-0.4,0.4-1.2,0.4-1.7,0l-1.8-1.8C1.1,11.7,1,11.4,1,11
		c0-0.3,0.1-0.6,0.3-0.8l0.3-0.3H1.2c-0.6,0-1.2-0.5-1.2-1.2V6.2c0-0.6,0.5-1.2,1.2-1.2h0.4L1.3,4.8C1.1,4.6,1,4.3,1,4
		c0-0.3,0.1-0.6,0.3-0.8l1.8-1.8c0.4-0.4,1.2-0.4,1.7,0l0.3,0.3V1.2c0-0.6,0.5-1.2,1.2-1.2h2.5c0.6,0,1.2,0.5,1.2,1.2v0.4l0.3-0.3
		c0.4-0.4,1.2-0.4,1.7,0l1.8,1.8c0.5,0.5,0.5,1.2,0,1.7l-0.3,0.3h0.4c0.6,0,1.2,0.5,1.2,1.2v2.5c0,0.6-0.5,1.2-1.2,1.2h-0.4l0.3,0.3
		c0.5,0.5,0.5,1.2,0,1.7l-1.8,1.8c-0.4,0.4-1.2,0.4-1.7,0l-0.3-0.3v0.4C9.9,14.4,9.4,14.9,8.8,14.9z M6.6,13.4h1.8v-0.9
		c0-0.6,0.5-1.2,1.2-1.2c0.3,0,0.6,0.1,0.8,0.3l0.6,0.6l1.3-1.3l-0.6-0.6c-0.3-0.3-0.4-0.8-0.3-1.3c0.2-0.4,0.6-0.7,1.1-0.7h0.9V6.6
		h-0.9c-0.5,0-0.9-0.3-1.1-0.7c-0.2-0.4-0.1-0.9,0.3-1.3l0.6-0.6L11,2.6l-0.6,0.6c-0.2,0.2-0.5,0.3-0.8,0.3c-0.6,0-1.2-0.5-1.2-1.2
		V1.6H6.6v0.9c0,0.6-0.5,1.2-1.2,1.2c-0.3,0-0.6-0.1-0.8-0.3L3.9,2.6L2.6,3.9l0.6,0.6c0.3,0.3,0.4,0.8,0.3,1.3S2.9,6.6,2.4,6.6H1.6
		v1.8h0.9c0.5,0,0.9,0.3,1.1,0.7s0.1,0.9-0.3,1.3L2.6,11l1.3,1.3l0.6-0.6c0.2-0.2,0.5-0.3,0.8-0.3c0.6,0,1.2,0.5,1.2,1.2V13.4z
		 M9.4,12.8C9.4,12.8,9.4,12.8,9.4,12.8L9.4,12.8z M5.6,12.8L5.6,12.8C5.6,12.8,5.6,12.8,5.6,12.8z M10.8,12.6
		C10.8,12.6,10.8,12.6,10.8,12.6L10.8,12.6z M3.7,12.6C3.7,12.6,3.7,12.6,3.7,12.6L3.7,12.6z M2.4,10.8L2.4,10.8
		C2.4,10.8,2.4,10.8,2.4,10.8z M10.8,2.4C10.8,2.4,10.8,2.4,10.8,2.4L10.8,2.4z"/>
	<path d="M7.5,10.8c-1.8,0-3.3-1.5-3.3-3.3s1.5-3.3,3.3-3.3s3.3,1.5,3.3,3.3S9.3,10.8,7.5,10.8z M7.5,5.7c-1,0-1.8,0.8-1.8,1.8
		s0.8,1.8,1.8,1.8s1.8-0.8,1.8-1.8S8.5,5.7,7.5,5.7z"/>
</g>
</svg>
