<svg
	viewBox="0 0 100 100"
	style="enable-background:new 0 0 100 100;"
	xml:space="preserve"
	xmlns="http://www.w3.org/2000/svg"
>
    <path
		d="M 29,8.789679 H 7 c -1.1,0 -2,0.822102 -2,1.826896 V 89.173104 C 5,90.177897 5.9,91 7,91 h 22 c 1.1,0 2,-0.822103 2,-1.826896 V 10.616575 C 31,9.611781 30.1,8.789679 29,8.789679 Z M 27,87.346208 H 9 V 12.443471 H 27 Z M 93,8.789679 H 71 c -1.1,0 -2,0.822102 -2,1.826896 V 89.173104 C 69,90.177897 69.9,91 71,91 h 22 c 1.1,0 2,-0.822103 2,-1.826896 V 10.616575 C 95,9.611781 94.1,8.789679 93,8.789679 Z M 91,87.346208 H 73 V 12.443471 H 91 Z M 61,8.789679 H 39 c -1.1,0 -2,0.822102 -2,1.826896 V 89.173104 C 37,90.177897 37.9,91 39,91 h 22 c 1.1,0 2,-0.822103 2,-1.826896 V 10.616575 C 63,9.611781 62.1,8.789679 61,8.789679 Z M 59,87.346208 H 41 V 12.443471 h 18 z"
		id="path4"
	/>
</svg>
