<?xml version="1.0" encoding="utf-8"?>
<!-- Generator: Adobe Illustrator 26.0.0, SVG Export Plug-In . SVG Version: 6.00 Build 0)  -->
<svg version="1.1" id="Layer_1" xmlns="http://www.w3.org/2000/svg" xmlns:xlink="http://www.w3.org/1999/xlink" x="0px" y="0px"
	 viewBox="0 0 15 15" style="enable-background:new 0 0 15 15;" xml:space="preserve">
<path d="M3.1,15H1.4c-0.7,0-1.3-0.6-1.3-1.3V1.4C0.1,0.6,0.7,0,1.4,0h1.7c0.7,0,1.3,0.6,1.3,1.3v12.2C4.4,14.4,3.8,15,3.1,15z
	 M1.6,13.5h1.4V1.5H1.6V13.5z"/>
<path d="M13.6,15H12c-0.7,0-1.3-0.6-1.3-1.3V1.4C10.6,0.6,11.2,0,12,0h1.7C14.4,0,15,0.6,15,1.4v12.2C15,14.4,14.4,15,13.6,15z
	 M12.1,13.5h1.4V1.5h-1.4V13.5z"/>
<path d="M8.4,15H6.7c-0.7,0-1.3-0.6-1.3-1.3V1.4C5.3,0.6,6,0,6.7,0h1.7c0.7,0,1.3,0.6,1.3,1.3v12.2C9.7,14.4,9.1,15,8.4,15z
	 M6.8,13.5h1.4V1.5H6.8V13.5z"/>
</svg>
