<?xml version="1.0" encoding="utf-8"?>
<!-- Generator: Adobe Illustrator 26.0.0, SVG Export Plug-In . SVG Version: 6.00 Build 0)  -->
<svg version="1.1" id="Layer_1" xmlns="http://www.w3.org/2000/svg" xmlns:xlink="http://www.w3.org/1999/xlink" x="0px" y="0px"
	 viewBox="0 0 15 15" style="enable-background:new 0 0 15 15;" xml:space="preserve">
<style type="text/css">
	.st0{fill:#FFFFFF;}
</style>
<path class="st0" d="M14.5,13.6L14.5,13.6 M13.3,12.4"/>
<path d="M14.5,13.6L14.5,13.6 M13.3,12.4"/>
<path d="M3,0H1.3C0.6,0,0,0.6,0,1.4v12.2c0,0.7,0.6,1.3,1.3,1.3H3c0.7,0,1.3-0.6,1.3-1.3V1.4C4.3,0.6,3.7,0,3,0z M2.9,13.5H1.5v-12
	h1.4V13.5z"/>
<path d="M13.4,12V1.5H12l0.1,5.1c-0.4-0.4-0.9-0.7-1.5-0.9V1.3c0-0.7,0.6-1.3,1.3-1.3h1.6c0.8,0,1.4,0.6,1.4,1.4v12.1"/>
<path d="M13.3,14.9h-1.5c-0.7,0-1.3-0.6-1.3-1.3v-0.4c0.2,0,0.7-0.2,0.9-0.3L13.3,14.9z"/>
<path d="M11,9.4c0,0.4-0.1,0.8-0.4,1V8.4C10.9,8.7,11,9,11,9.4z"/>
<path d="M8.1,5.7V1.5H6.7v5.1C5.9,7.3,5.5,8.3,5.5,9.4c0,1.1,0.5,2.1,1.2,2.9v1.2h1.4v-0.3c0.4,0.2,0.8,0.2,1.3,0.2c0,0,0,0,0,0
	c0.1,0,0.1,0,0.2,0v0.3C9.6,14.4,9,15,8.3,15H6.6c-0.7,0-1.4-0.7-1.4-1.4V1.4C5.2,0.6,5.9,0,6.6,0h1.7C9,0,9.6,0.6,9.6,1.4v4.1
	c-0.1,0-0.1,0-0.2,0C8.9,5.5,8.5,5.5,8.1,5.7z"/>
<path d="M9.6,7.8V11c-0.1,0-0.1,0-0.2,0c-0.5,0-0.8-0.1-1.2-0.6V8.4C8.5,8,9.1,7.8,9.4,7.8C9.5,7.8,9.5,7.8,9.6,7.8z"/>
<path class="st0" d="M14.9,13.5v-0.2l0,0l-1.5-1.4V12 M8.4,12.7C8.4,12.7,8.4,12.7,8.4,12.7c0.1,0,0.2,0.1,0.3,0.1
	C8.6,12.8,8.5,12.7,8.4,12.7z M8,12.6C8,12.6,8,12.6,8,12.6c0.2,0.1,0.3,0.1,0.4,0.1C8.3,12.7,8.1,12.6,8,12.6z"/>
<path d="M14.8,13.7l-2.3-2.4c0.3-0.5,0.5-1,0.5-1.6c0.1-2-1.4-3.7-3.3-3.8C7.7,5.7,6,7.2,5.9,9.2c-0.1,2,1.4,3.7,3.3,3.8
	c0.8,0.1,1.6-0.2,2.2-0.6l2.3,2.3c0.1,0.1,0.3,0.2,0.5,0.2c0.2,0,0.4-0.1,0.6-0.2C15.1,14.5,15.1,14,14.8,13.7z M9.3,11.5
	c-1.1-0.1-2-1.1-1.9-2.2c0.1-1.1,1.1-2,2.2-1.9c1.1,0.1,2,1.1,1.9,2.2C11.5,10.7,10.5,11.6,9.3,11.5z"/>
</svg>
