<?xml version="1.0" encoding="utf-8"?>
<svg version="1.1" id="Layer_1" xmlns="http://www.w3.org/2000/svg" xmlns:xlink="http://www.w3.org/1999/xlink" x="0px" y="0px"
	 viewBox="0 0 100 100" style="enable-background:new 0 0 100 100;" xml:space="preserve">
<path d="M29,5H7C5.9,5,5,5.9,5,7v86c0,1.1,0.9,2,2,2h22c1.1,0,2-0.9,2-2V7C31,5.9,30.1,5,29,5z M27,91H9V9h18V91z M93,5H71
	c-1.1,0-2,0.9-2,2v86c0,1.1,0.9,2,2,2h22c1.1,0,2-0.9,2-2V7C95,5.9,94.1,5,93,5z M91,91H73V9h18V91z M61,5H39c-1.1,0-2,0.9-2,2v86
	c0,1.1,0.9,2,2,2h22c1.1,0,2-0.9,2-2V7C63,5.9,62.1,5,61,5z M59,91H41V9h18V91z"/>
</svg>
