<?xml version="1.0" encoding="utf-8"?>
<!-- Generator: Adobe Illustrator 26.0.0, SVG Export Plug-In . SVG Version: 6.00 Build 0)  -->
<svg version="1.1" id="Layer_1" xmlns="http://www.w3.org/2000/svg" xmlns:xlink="http://www.w3.org/1999/xlink" x="0px" y="0px"
	 viewBox="0 0 15 15" style="enable-background:new 0 0 15 15;" xml:space="preserve">
<path d="M7.5,0.3c-4.2,0-6.8,1.4-6.8,2.6v9.3c0,1.6,3.1,2.6,6.7,2.7c3.3,0.1,7.1-1,7.1-2.7V2.8C14.4,1.4,11.1,0.3,7.5,0.3z M7.5,1.6
	C11,1.6,13,2.5,13,2.9s-2,1.4-5.5,1.4S2.2,3.3,2.2,3S4,1.6,7.5,1.6z M9,5.3L9,5.3L9,5.3L9,5.3z M11.4,4.9L11.4,4.9L11.4,4.9
	L11.4,4.9z M11.8,4.7L11.8,4.7L11.8,4.7L11.8,4.7z M7.6,7.3c-2.9,0-4.9-0.7-5.4-1V4.7C2.4,5,4.4,5.8,7.5,5.8c2.9,0,5.2-0.7,5.5-1.1
	c0,0,0,0.7,0,1.5C12.6,6.6,10.3,7.3,7.6,7.3z M7.6,10.3c-3.4,0-5.4-1-5.4-1V7.9c1.2,0.6,3.1,1,5.3,1s4.3-0.4,5.5-1c0,0,0,1.2,0,1.3
	C13,9.2,10.8,10.3,7.6,10.3z M3.3,4.8L3.3,4.8L3.3,4.8L3.3,4.8z M2.2,10.9c1.2,0.6,3.1,1,5.3,1s4.3-0.5,5.5-1.1V12
	c-0.4,0.5-2.2,1.4-5.5,1.4c-3.4,0-5.2-1-5.3-1.4l0,0C2.2,12,2.2,10.9,2.2,10.9z"/>
<path d="M11.2,6"/>
</svg>
