<?xml version="1.0" encoding="utf-8"?>
<!-- Generator: Adobe Illustrator 26.0.0, SVG Export Plug-In . SVG Version: 6.00 Build 0)  -->
<svg version="1.1" id="Layer_1" xmlns="http://www.w3.org/2000/svg" xmlns:xlink="http://www.w3.org/1999/xlink" x="0px" y="0px"
	 viewBox="0 0 15 15" style="enable-background:new 0 0 15 15;" xml:space="preserve">
<path d="M14.1,2.7H11V0.8C11,0.3,10.7,0,10.2,0H4.8C4.1,0,4,0.3,4,0.8v1.9H0.8C0.6,2.7,0,2.9,0,3.5c0,0.6,0.6,0.8,0.8,0.8h0.6
	l1.2,10c0,0.5,0.7,0.7,0.9,0.7h8c0.2,0,0.8-0.2,0.8-0.7l1.2-10h0.6c0.2,0,0.9-0.1,0.9-0.8C15,2.9,14.4,2.7,14.1,2.7z M5.6,2.7V1.6
	h3.8v1.1H5.6z M11.9,4.3l-1.1,9.1H4.2L3.1,4.3H11.9z"/>
</svg>

