<?xml version="1.0" encoding="utf-8"?>
<!-- Generator: Adobe Illustrator 26.0.0, SVG Export Plug-In . SVG Version: 6.00 Build 0)  -->
<svg version="1.1" id="Layer_1" xmlns="http://www.w3.org/2000/svg" xmlns:xlink="http://www.w3.org/1999/xlink" x="0px" y="0px"
	 viewBox="0 0 15 15" style="enable-background:new 0 0 15 15;" xml:space="preserve" fill="currentColor">
<g>
	<path d="M14.2,13.2H0.8c-0.4,0-0.7,0.3-0.7,0.8s0.3,0.8,0.7,0.8h13.5c0.4,0,0.8-0.3,0.8-0.8S14.6,13.2,14.2,13.2z"/>
	<path d="M7,11.5c0.1,0.1,0.3,0.2,0.5,0.2s0.4-0.1,0.5-0.2l2.4-2.4c0.3-0.3,0.3-0.8,0-1.1S9.6,7.7,9.3,8L8.2,9.1v-8
		c0-0.4-0.3-0.8-0.7-0.8S6.8,0.7,6.8,1.1v8L5.6,8C5.3,7.7,4.8,7.7,4.5,8s-0.3,0.8,0,1.1L7,11.5z"/>
</g>
</svg>
