<?xml version="1.0" encoding="utf-8"?>
<!-- Generator: Adobe Illustrator 26.0.0, SVG Export Plug-In . SVG Version: 6.00 Build 0)  -->
<svg version="1.1" id="Layer_1" xmlns="http://www.w3.org/2000/svg" xmlns:xlink="http://www.w3.org/1999/xlink" x="0px" y="0px"
	 viewBox="0 0 15 15" style="enable-background:new 0 0 15 15;" xml:space="preserve">
<path d="M14.7,7.4C14.5,7,14,6.7,13.5,6.7H5c-0.5,0-0.9,0.4-1.1,0.6c0,0-3.2,3.2-3.6,3.6c-0.3,0.4-0.4,1.4-0.1,1.8
	c0.3,0.4,0.8,0.4,1.3,0.4H10c0.4,0,0.7-0.2,1.1-0.6c0,0,3-3,3.6-3.6C15,8.5,15,7.9,14.7,7.4z M10.1,11.6H1.7l3.2-3.1
	C5,8.4,5,8.4,5.1,8.3h8.3C13.4,8.3,10.5,11.1,10.1,11.6z"/>
<path d="M0.5,9.7c0.4,0.1,0.7,0,0.9-0.3L4,6.9c0.2-0.2,0.5-0.4,0.9-0.4h5.6c0.9,0,0.4,0,0.9,0c0.2,0,0.4-0.7,0.4-1.1
	c0-1.1-0.9-2.1-2.1-2.1H7.2C7,3.3,6.9,3.2,6.8,3.1L6.2,2.5C5.8,2.1,5.3,1.9,4.7,1.9H2.2C1,1.9,0,2.8,0,4v5C0,9.3,0.1,9.6,0.5,9.7z
	 M1.6,4c0-0.3,0.3-0.6,0.6-0.6h2.5c0.1,0,0.3,0.1,0.4,0.2l0.6,0.6c0.4,0.4,0.9,0.6,1.5,0.6h2.5c0.2,0,0.3,0.1,0.5,0.2H4.9
	c-1.1,0-1.7,0.6-2,0.8L1.6,7.1V4z"/>
</svg>
