<?xml version="1.0" encoding="UTF-8" standalone="no"?>
<svg xmlns="http://www.w3.org/2000/svg" viewBox="0 0 64 64" fill="currentColor">
  <g id="Layer_60">
    <path
      d="M25,6.75H11A4.26,4.26,0,0,0,6.75,11V25A4.26,4.26,0,0,0,11,29.25H25A4.26,4.26,0,0,0,29.25,25V11A4.26,4.26,0,0,0,25,6.75ZM26.75,25A1.76,1.76,0,0,1,25,26.75H11A1.76,1.76,0,0,1,9.25,25V11A1.76,1.76,0,0,1,11,9.25H25A1.76,1.76,0,0,1,26.75,11Z"/>
    <path
      d="M53,6.75H39A4.26,4.26,0,0,0,34.75,11V25A4.26,4.26,0,0,0,39,29.25H53A4.26,4.26,0,0,0,57.25,25V11A4.26,4.26,0,0,0,53,6.75ZM54.75,25A1.76,1.76,0,0,1,53,26.75H39A1.76,1.76,0,0,1,37.25,25V11A1.76,1.76,0,0,1,39,9.25H53A1.76,1.76,0,0,1,54.75,11Z"/>
    <path
      d="M25,34.75H11A4.26,4.26,0,0,0,6.75,39V53A4.26,4.26,0,0,0,11,57.25H25A4.26,4.26,0,0,0,29.25,53V39A4.26,4.26,0,0,0,25,34.75ZM26.75,53A1.76,1.76,0,0,1,25,54.75H11A1.76,1.76,0,0,1,9.25,53V39A1.76,1.76,0,0,1,11,37.25H25A1.76,1.76,0,0,1,26.75,39Z"/>
    <path
      d="M53,34.75H39A4.26,4.26,0,0,0,34.75,39V53A4.26,4.26,0,0,0,39,57.25H53A4.26,4.26,0,0,0,57.25,53V39A4.26,4.26,0,0,0,53,34.75ZM54.75,53A1.76,1.76,0,0,1,53,54.75H39A1.76,1.76,0,0,1,37.25,53V39A1.76,1.76,0,0,1,39,37.25H53A1.76,1.76,0,0,1,54.75,39Z"/>
  </g>
</svg>