<?xml version="1.0" encoding="utf-8"?>
<!-- Generator: Adobe Illustrator 26.0.0, SVG Export Plug-In . SVG Version: 6.00 Build 0)  -->
<svg version="1.1" id="Layer_1" xmlns="http://www.w3.org/2000/svg" xmlns:xlink="http://www.w3.org/1999/xlink" x="0px" y="0px"
	 viewBox="0 0 15 15" style="enable-background:new 0 0 15 15;" xml:space="preserve">
<g id="Layer_60">
	<path d="M5.3,1.6c0.2,0,0.4,0.2,0.4,0.4v3.1c0,0.2-0.2,0.4-0.4,0.4H2.1c-0.2,0-0.4-0.2-0.4-0.4V2c0-0.2,0.2-0.4,0.4-0.4H5.3
		 M5.3,0.1L5.3,0.1H2.1c-1,0-1.9,0.9-1.9,1.9l0,3.2c0,1,0.9,1.9,1.9,1.9l3.2,0c1,0,1.9-0.9,1.9-1.9l0-3.2C7.2,0.9,6.3,0.1,5.3,0.1
		L5.3,0.1L5.3,0.1z"/>
</g>
<g id="Layer_60_00000052075516799213557960000006462212248390913710_">
	<path d="M12.9,1.6c0.2,0,0.4,0.2,0.4,0.4v3.1c0,0.2-0.2,0.4-0.4,0.4H9.7c-0.2,0-0.4-0.2-0.4-0.4V2c0-0.2,0.2-0.4,0.4-0.4H12.9
		 M12.9,0.1L12.9,0.1H9.7c-1,0-1.9,0.9-1.9,1.9l0,3.2c0,1,0.9,1.9,1.9,1.9l3.2,0c1,0,1.9-0.9,1.9-1.9l0-3.2
		C14.7,0.9,13.9,0.1,12.9,0.1L12.9,0.1L12.9,0.1z"/>
</g>
<g id="Layer_60_00000132065047325931421770000007738854003596249240_">
	<path d="M12.9,9.5c0.2,0,0.4,0.2,0.4,0.4V13c0,0.2-0.2,0.4-0.4,0.4H9.7c-0.2,0-0.4-0.2-0.4-0.4V9.9c0-0.2,0.2-0.4,0.4-0.4H12.9
		 M12.9,8L12.9,8H9.7c-1,0-1.9,0.9-1.9,1.9l0,3.2c0,1,0.9,1.9,1.9,1.9l3.2,0c1,0,1.9-0.9,1.9-1.9l0-3.2C14.7,8.8,13.9,8,12.9,8
		L12.9,8L12.9,8z"/>
</g>
<g id="Layer_60_00000029016341398951245380000013815611374943295892_">
	<path d="M5.3,9.5c0.2,0,0.4,0.2,0.4,0.4V13c0,0.2-0.2,0.4-0.4,0.4H2.1c-0.2,0-0.4-0.2-0.4-0.4V9.9c0-0.2,0.2-0.4,0.4-0.4H5.3
		 M5.3,8L5.3,8H2.1c-1,0-1.9,0.9-1.9,1.9l0,3.2c0,1,0.9,1.9,1.9,1.9l3.2,0c1,0,1.9-0.9,1.9-1.9l0-3.2C7.2,8.8,6.3,8,5.3,8L5.3,8
		L5.3,8z"/>
</g>
</svg>
