<?xml version="1.0" encoding="utf-8"?>
<!-- Generator: Adobe Illustrator 26.0.0, SVG Export Plug-In . SVG Version: 6.00 Build 0)  -->
<svg version="1.1" id="Layer_1" xmlns="http://www.w3.org/2000/svg" xmlns:xlink="http://www.w3.org/1999/xlink" x="0px" y="0px"
	 viewBox="0 0 15 15" style="enable-background:new 0 0 15 15;" xml:space="preserve">
<path d="M7.5,1.6c3.3,0,5.9,2.7,5.9,5.9s-2.7,5.9-5.9,5.9s-5.9-2.7-5.9-5.9S4.2,1.6,7.5,1.6 M7.5,0.1c-4.1,0-7.4,3.3-7.4,7.4
	s3.3,7.4,7.4,7.4s7.4-3.3,7.4-7.4S11.6,0.1,7.5,0.1L7.5,0.1z"/>
<path d="M7.8,10.3c-0.5,0-0.8,0.4-0.8,0.8c0,0.4,0.3,0.7,0.8,0.7s0.8-0.3,0.8-0.7C8.6,10.6,8.3,10.3,7.8,10.3z"/>
<path d="M9.4,4.1C8.6,3.2,7,3.2,6.3,3.9C5.7,4.5,5.5,5.2,5.5,6c0,0.4,0.4,0.7,0.8,0.7C6.7,6.7,7,6.3,7,5.9C7,5.5,7,5.2,7.2,5
	C7.4,4.7,8,4.7,8.3,5c0.2,0.2,0.2,0.4,0.2,0.6C8.5,5.9,8.3,6,8,6.3C7.8,6.5,7.6,6.7,7.3,7.1C7,7.5,6.8,8.1,6.9,8.8
	C7,9.2,7.2,9.5,7.6,9.5c0.5,0,0.8-0.3,0.8-0.8S8.5,8,8.6,7.9C9,7.3,9.9,6.7,9.9,5.6C9.9,5,9.8,4.5,9.4,4.1z"/>
</svg>
