<?xml version="1.0" encoding="utf-8"?>
<!-- Generator: Adobe Illustrator 26.0.0, SVG Export Plug-In . SVG Version: 6.00 Build 0)  -->
<svg version="1.1" id="Layer_1" xmlns="http://www.w3.org/2000/svg" xmlns:xlink="http://www.w3.org/1999/xlink" x="0px" y="0px"
	 viewBox="0 0 15 15" style="enable-background:new 0 0 15 15;" xml:space="preserve">
<path d="M11.8,14.2l-0.4,0c0,0-0.1,0-0.1,0H9.9c-0.9,0-1.7-0.8-1.7-1.7v-2.1l-1.5,0l0,2.1c0,0.9-0.8,1.7-1.7,1.7H3.2
	c-0.9,0-1.7-0.8-1.7-1.7l0-3.6C0.7,9,0,8.3,0,7.5c0-0.4,0.2-0.8,0.5-1.1l6-5.3c0.4-0.4,0.9-0.4,1-0.4c0.4,0,0.7,0.1,1,0.3l1.4,1.2
	c0.2-0.5,0.8-0.8,1.3-0.8H12c0.8,0,1.5,0.7,1.5,1.5v2.5l1,0.9C14.9,6.7,15,7.1,15,7.6C15,8.3,14.3,9,13.5,9l0,3c0,0.1,0,0.2,0,0.3
	l0,0.3C13.5,13.5,12.7,14.2,11.8,14.2z M6.8,9h1.5c0.8,0,1.5,0.7,1.5,1.5v2.1c0,0.1,0.1,0.2,0.2,0.2h1.9c0.1,0,0.2-0.1,0.2-0.2v-0.4
	c0-0.1,0-0.2,0-0.2l0-4.5h1.5L12,6.2V3l-0.7,0v2.5L7.5,2.2l-6,5.3l1.5,0l0,5.1c0,0.1,0.1,0.2,0.2,0.2h1.9c0.1,0,0.2-0.1,0.2-0.2
	v-2.1C5.3,9.7,5.9,9,6.8,9z"/>
</svg>
