<svg width="24" height="24" viewBox="0 0 24 24" fill="none" xmlns="http://www.w3.org/2000/svg">
<path fill-rule="evenodd" clip-rule="evenodd" d="M12 22C17.514 22 22 17.514 22 12C22 6.486 17.514 2 12 2C6.486 2 2 6.486 2 12C2 17.514 6.486 22 12 22ZM12 20.5C7.313 20.5 3.5 16.687 3.5 12C3.5 7.313 7.313 3.5 12 3.5C16.687 3.5 20.5 7.313 20.5 12C20.5 16.687 16.687 20.5 12 20.5ZM12.0039 9.2041C12.5569 9.2041 13.0039 8.7571 13.0039 8.2041C13.0039 7.6511 12.5569 7.2041 12.0039 7.2041C11.4509 7.2041 10.9989 7.6511 10.9989 8.2041C10.9989 8.7571 11.4419 9.2041 11.9939 9.2041H12.0039ZM11.9941 16.546C12.4081 16.546 12.7441 16.21 12.7441 15.796V11.377C12.7441 10.963 12.4081 10.627 11.9941 10.627C11.5801 10.627 11.2441 10.963 11.2441 11.377V15.796C11.2441 16.21 11.5801 16.546 11.9941 16.546Z" fill="currentColor"/>
</svg>
