<?xml version="1.0" encoding="utf-8"?>
<!-- Generator: Adobe Illustrator 26.0.0, SVG Export Plug-In . SVG Version: 6.00 Build 0)  -->
<svg version="1.1" id="Layer_1" xmlns="http://www.w3.org/2000/svg" xmlns:xlink="http://www.w3.org/1999/xlink" x="0px" y="0px"
	 viewBox="0 0 15 15" style="enable-background:new 0 0 15 15;" xml:space="preserve" height="24" width="24">
<path d="M7.5,11.5c-0.4,0-0.8-0.3-0.8-0.8V7.2c0-0.4,0.3-0.8,0.8-0.8s0.8,0.3,0.8,0.8c0,0,0,2.6,0,3.5C8.3,11.3,7.9,11.5,7.5,11.5z"
	/>
<path d="M7.5,1.6c3.2,0,5.9,2.6,5.9,5.9s-2.6,5.9-5.9,5.9s-5.9-2.6-5.9-5.9S4.3,1.6,7.5,1.6 M7.5,0.1c-4.1,0-7.4,3.3-7.4,7.4
	s3.3,7.4,7.4,7.4s7.4-3.3,7.4-7.4S11.6,0.1,7.5,0.1L7.5,0.1z"/>
<path d="M7.5,3.8c-0.4,0-0.8,0.3-0.8,0.8C6.7,5,7,5.4,7.5,5.4C8,5.4,8.3,5,8.3,4.6C8.3,4.2,8,3.8,7.5,3.8L7.5,3.8z"/>
</svg>
