<?xml version="1.0" encoding="utf-8"?>
<!-- Generator: Adobe Illustrator 26.0.0, SVG Export Plug-In . SVG Version: 6.00 Build 0)  -->
<svg version="1.1" id="Layer_1" xmlns="http://www.w3.org/2000/svg" xmlns:xlink="http://www.w3.org/1999/xlink" x="0px" y="0px"
	 viewBox="0 0 15 15" style="enable-background:new 0 0 15 15;" xml:space="preserve" fill="currentColor">
<g>
	<path d="M12.2,4.6V4.3c0-2.3-2-4.3-4.3-4.3C5.6,0,3.6,2,3.6,4.3v0.3c-0.9,0-1.7,0.8-1.7,1.7v6.8c0,1,0.8,1.8,1.8,1.8h8.5
		c1,0,1.8-0.8,1.8-1.8V6.4C13.9,5.4,13.1,4.7,12.2,4.6z M5.1,4.3c0-1.5,1.2-2.8,2.8-2.8c1.5,0,2.8,1.3,2.8,2.8v0.3H5.1V4.3z
		 M12.2,13.3H3.6c-0.1,0-0.2-0.1-0.2-0.2V6.4c0-0.1,0.1-0.2,0.2-0.2h8.5c0.1,0,0.2,0.1,0.2,0.2l0.1,6.7
		C12.4,13.2,12.3,13.3,12.2,13.3z"/>
	<path d="M7.8,7.9C7,7.9,6.5,8.6,6.5,9.2c0,0.6,0.4,1,0.8,1.1v1c0,0.3,0.2,0.5,0.5,0.5s0.5-0.2,0.5-0.5v-1c0.4-0.1,0.8-0.5,0.8-1.1
		C9.1,8.5,8.6,7.9,7.8,7.9z"/>
</g>
</svg>
