<?xml version="1.0" encoding="utf-8"?>
<!-- Generator: Adobe Illustrator 26.0.0, SVG Export Plug-In . SVG Version: 6.00 Build 0)  -->
<svg version="1.1" id="Layer_1" xmlns="http://www.w3.org/2000/svg" xmlns:xlink="http://www.w3.org/1999/xlink" x="0px" y="0px"
	 viewBox="0 0 15 15" style="enable-background:new 0 0 15 15;" xml:space="preserve" width="24" height="24">
<style type="text/css">
	.st0{fill-rule:evenodd;clip-rule:evenodd;}
</style>
<path class="st0" d="M6.6,11c0-0.6,0.4-1,1-1s1,0.4,1,1s-0.4,1-1,1S6.6,11.6,6.6,11z M6.6,7.5c0-0.6,0.4-1,1-1s1,0.4,1,1s-0.4,1-1,1
	S6.6,8.1,6.6,7.5z M6.6,4c0-0.6,0.4-1,1-1s1,0.4,1,1s-0.4,1-1,1S6.6,4.6,6.6,4z"/>
</svg>
