<?xml version="1.0" encoding="utf-8"?>
<!-- Generator: Adobe Illustrator 26.0.0, SVG Export Plug-In . SVG Version: 6.00 Build 0)  -->
<svg version="1.1" id="Layer_1" xmlns="http://www.w3.org/2000/svg" xmlns:xlink="http://www.w3.org/1999/xlink" x="0px" y="0px"
	 viewBox="0 0 15 15" style="enable-background:new 0 0 15 15;" xml:space="preserve">
<path d="M5.8,10.6C5.4,10.6,5,10.2,5,9.8V5.5c0-0.4,0.3-0.8,0.8-0.8s0.8,0.3,0.8,0.8v4.3C6.5,10.2,6.2,10.6,5.8,10.6z"/>
<path d="M9.2,10.6c-0.4,0-0.8-0.3-0.8-0.8V5.5c0-0.4,0.3-0.8,0.8-0.8S10,5.1,10,5.5v4.3C10,10.2,9.6,10.6,9.2,10.6z"/>
<path d="M7.5,1.6c3.2,0,5.9,2.6,5.9,5.9s-2.6,5.9-5.9,5.9s-5.9-2.6-5.9-5.9S4.3,1.6,7.5,1.6 M7.5,0.1c-4.1,0-7.4,3.3-7.4,7.4
	c0,4.1,3.3,7.4,7.4,7.4c4.1,0,7.4-3.3,7.4-7.4C14.9,3.4,11.6,0.1,7.5,0.1L7.5,0.1z"/>
</svg>
