<?xml version="1.0" encoding="utf-8"?>
<!-- Generator: Adobe Illustrator 26.0.0, SVG Export Plug-In . SVG Version: 6.00 Build 0)  -->
<svg version="1.1" id="Layer_1" xmlns="http://www.w3.org/2000/svg" xmlns:xlink="http://www.w3.org/1999/xlink" x="0px" y="0px"
	 viewBox="0 0 15 15" style="enable-background:new 0 0 15 15;" xml:space="preserve" fill="currentColor">
<path d="M6.5,10.6c-0.3,0-0.7-0.2-0.9-0.5C5.5,9.9,5.4,9.7,5.4,9.5c0-0.9,0-3.6,0-3.6c0-0.4,0.2-0.8,0.6-1l0,0
	C6.4,4.7,6.8,4.7,7.2,5c0,0,1.9,1.3,2.5,1.8c0.2,0.2,0.5,0.5,0.5,0.9c0,0.6-0.4,0.8-0.5,0.9c-0.6,0.5-2.5,1.8-2.5,1.8
	C7,10.5,6.8,10.6,6.5,10.6z M6.9,6.6v2.1l1.5-1L6.9,6.6z M8.8,7.3L8.8,7.3L8.8,7.3z M6.9,5.9L6.9,5.9L6.9,5.9z"/>
<path d="M7.5,1.6c3.2,0,5.9,2.6,5.9,5.9s-2.6,5.9-5.9,5.9s-5.9-2.6-5.9-5.9S4.3,1.6,7.5,1.6 M7.5,0.1c-4.1,0-7.4,3.3-7.4,7.4
	s3.3,7.4,7.4,7.4s7.4-3.3,7.4-7.4S11.6,0.1,7.5,0.1L7.5,0.1z"/>
</svg>
