<?xml version="1.0" encoding="utf-8"?>
<!-- Generator: Adobe Illustrator 26.0.0, SVG Export Plug-In . SVG Version: 6.00 Build 0)  -->
<svg version="1.1" id="Layer_1" xmlns="http://www.w3.org/2000/svg" xmlns:xlink="http://www.w3.org/1999/xlink" x="0px" y="0px"
	 viewBox="0 0 15 15" style="enable-background:new 0 0 15 15;" xml:space="preserve">
<path d="M7.5,7.8C7.3,7.8,7,7.7,6.8,7.6C5.2,6.8,0.7,4.8,0.7,4.8C0.3,4.6,0.1,4.3,0.1,4s0.2-0.6,0.5-0.8L7,0.3
	c0.4-0.1,0.7-0.1,1.1,0l6.3,2.9c0.3,0.2,0.5,0.5,0.5,0.8s-0.1,0.6-0.5,0.8c0,0-4.5,2-6.2,2.8C7.9,7.7,7.7,7.8,7.5,7.8z M2.5,4l5,2.3
	l5-2.3l-5-2.3L2.5,4z M1.3,3.4L1.3,3.4L1.3,3.4z"/>
<path d="M7.5,11.3c-0.2,0-0.5-0.1-0.7-0.2c-1.7-0.8-4.3-1.9-6.1-2.8C0.3,8.1,0.1,7.9,0.1,7.5s0.2-0.6,0.5-0.8C1,6.5,2.3,6,2.3,6
	c0.4-0.2,0.8,0,1,0.4s0,0.8-0.4,1L2.5,7.5l5,2.3l5-2.3l-0.4-0.2c-0.4-0.2-0.5-0.6-0.4-1c0.2-0.4,0.6-0.5,1-0.4c0,0,1.2,0.5,1.6,0.7
	c0.3,0.2,0.5,0.5,0.5,0.8S14.7,8,14.3,8.2c-1.7,0.9-4.5,2.1-6.2,2.9C7.9,11.2,7.7,11.3,7.5,11.3z"/>
<path d="M7.5,14.8c-0.2,0-0.5-0.1-0.7-0.2c-1.6-0.7-4.3-1.9-6.1-2.8c-0.4-0.3-0.5-0.5-0.5-0.8s0.2-0.6,0.5-0.8C1,10,2.1,9.5,2.1,9.5
	c0.4-0.2,0.8,0,1,0.4s0,0.8-0.4,1L2.5,11l5,2.3l5-2.3l-0.1-0.1c-0.4-0.2-0.5-0.6-0.4-1c0.2-0.4,0.6-0.5,1-0.4c0,0,1.1,0.4,1.4,0.6
	c0.3,0.2,0.5,0.5,0.5,0.8s0,0.5-0.5,0.8c-1.9,1-4.3,2-6.2,2.9C7.9,14.7,7.7,14.8,7.5,14.8z"/>
</svg>
