<?xml version="1.0" encoding="utf-8"?>
<!-- Generator: Adobe Illustrator 26.0.0, SVG Export Plug-In . SVG Version: 6.00 Build 0)  -->
<svg version="1.1" id="Layer_1" xmlns="http://www.w3.org/2000/svg" xmlns:xlink="http://www.w3.org/1999/xlink" x="0px" y="0px"
	 viewBox="0 0 15 15" style="enable-background:new 0 0 15 15;" xml:space="preserve">
<g>
	<path d="M11.1,5.8H6.4C6,5.8,5.6,5.5,5.6,5.1S6,4.3,6.4,4.3h4.7c0.4,0,0.8,0.3,0.8,0.8S11.5,5.8,11.1,5.8z"/>
	<path d="M3.9,4.3C3.5,4.3,3.1,4.6,3.1,5s0.3,0.8,0.8,0.8S4.7,5.4,4.7,5S4.3,4.3,3.9,4.3L3.9,4.3z"/>
</g>
<g>
	<path d="M11.1,8.3H6.4C6,8.3,5.6,8,5.6,7.6S6,6.8,6.4,6.8h4.7c0.4,0,0.8,0.3,0.8,0.8S11.5,8.3,11.1,8.3z"/>
	<path d="M3.9,6.8c-0.4,0-0.8,0.3-0.8,0.8s0.3,0.8,0.8,0.8s0.8-0.3,0.8-0.8S4.3,6.8,3.9,6.8L3.9,6.8z"/>
</g>
<g>
	<path d="M11.1,10.8H6.4c-0.4,0-0.8-0.3-0.8-0.8S6,9.3,6.4,9.3h4.7c0.4,0,0.8,0.3,0.8,0.8S11.5,10.8,11.1,10.8z"/>
	<path d="M3.9,9.3c-0.4,0-0.8,0.3-0.8,0.8s0.3,0.8,0.8,0.8s0.8-0.3,0.8-0.8S4.3,9.3,3.9,9.3L3.9,9.3z"/>
</g>
<path d="M13.3,13.9H1.7c-0.9,0-1.6-0.7-1.6-1.6V2.7c0-0.9,0.7-1.6,1.6-1.6h11.6c0.9,0,1.6,0.7,1.6,1.6v9.6
	C14.9,13.2,14.2,13.9,13.3,13.9z M1.7,2.6c-0.1,0-0.1,0.1-0.1,0.1v9.6c0,0.1,0.1,0.1,0.1,0.1h11.6c0.1,0,0.1-0.1,0.1-0.1V2.7
	c0-0.1-0.1-0.1-0.1-0.1H1.7z"/>
</svg>
