<?xml version="1.0" encoding="utf-8"?>
<!-- Generator: Adobe Illustrator 26.0.0, SVG Export Plug-In . SVG Version: 6.00 Build 0)  -->
<svg version="1.1" id="Layer_1" xmlns="http://www.w3.org/2000/svg" xmlns:xlink="http://www.w3.org/1999/xlink" x="0px" y="0px"
	 viewBox="0 0 15 15" style="enable-background:new 0 0 15 15;" xml:space="preserve">
<path d="M7.2,1.1L5.4,0.2C5,0,4.6,0.2,4.4,0.5c-0.2,0.4,0,0.8,0.3,1c0,0,0.2,0.1,0.2,0.1C3.2,2.3,1.8,3.7,1.2,5.4
	c-0.1,0.4,0.1,0.9,0.4,1c0.5,0.2,0.9-0.2,1-0.5c0.5-1.3,1.5-2.3,2.8-2.8L5.4,3.2c-0.2,0.3,0,0.8,0.4,1c0.3,0.1,0.8,0.1,1-0.3
	C7,3.5,7.5,2.1,7.5,2.1C7.7,1.7,7.6,1.3,7.2,1.1z"/>
<path d="M1.1,7.5L0.2,9.3c-0.2,0.4,0,0.8,0.3,1c0.4,0.2,0.8,0,1-0.3c0,0,0.1-0.2,0.1-0.2c0.7,1.7,2.1,3.1,3.8,3.7
	c0.4,0.1,0.9-0.1,1-0.4c0.2-0.5-0.2-0.9-0.5-1c-1.3-0.5-2.3-1.5-2.8-2.8l0.1,0.1c0.3,0.2,0.8,0,1-0.4c0.1-0.3,0.1-0.8-0.3-1
	C3.5,7.8,2.1,7.2,2.1,7.2C1.7,7,1.3,7.1,1.1,7.5z"/>
<path d="M7.5,13.9l1.8,0.9c0.4,0.2,0.8,0,1-0.3c0.2-0.4,0-0.8-0.3-1c0,0-0.2-0.1-0.2-0.1c1.7-0.7,3.1-2.1,3.7-3.8
	c0.1-0.4-0.1-0.9-0.4-1c-0.5-0.2-0.9,0.2-1,0.5c-0.5,1.3-1.5,2.3-2.8,2.8l0.1-0.1c0.2-0.3,0-0.8-0.4-1c-0.3-0.1-0.8-0.1-1,0.3
	c-0.2,0.4-0.8,1.8-0.8,1.8C7,13.3,7.1,13.7,7.5,13.9z"/>
<path d="M13.9,7.4l0.9-1.8c0.2-0.4,0-0.8-0.3-1c-0.4-0.2-0.8,0-1,0.3c0,0-0.1,0.2-0.1,0.2C12.7,3.4,11.3,2,9.6,1.4
	c-0.4-0.1-0.9,0.1-1,0.4c-0.2,0.5,0.2,0.9,0.5,1c1.3,0.5,2.3,1.5,2.8,2.8l-0.1-0.1c-0.3-0.2-0.8,0-1,0.4c-0.1,0.3-0.1,0.8,0.3,1
	c0.4,0.2,1.8,0.8,1.8,0.8C13.3,7.9,13.7,7.8,13.9,7.4z"/>
</svg>
