<?xml version="1.0" encoding="utf-8"?>
<!-- Generator: Adobe Illustrator 26.0.0, SVG Export Plug-In . SVG Version: 6.00 Build 0)  -->
<svg version="1.1" id="Layer_1" xmlns="http://www.w3.org/2000/svg" xmlns:xlink="http://www.w3.org/1999/xlink" x="0px" y="0px"
	 viewBox="0 0 15 15" style="enable-background:new 0 0 15 15;" xml:space="preserve">
<path d="M14.7,4c-0.9-0.9-2.8-2.7-3.7-3.7C10.8,0.1,10.7,0,10.4,0c-2,0-8,0-8,0C1,0,0,0.9,0,2.4v10.3c0,0.6,0.2,1.2,0.7,1.6
	c0.4,0.4,1,0.7,1.6,0.7h10.3c0.6,0,1.2-0.2,1.6-0.7c0.4-0.4,0.7-1,0.7-1.6c0,0,0-5.9,0-8.1C14.9,4.3,14.9,4.2,14.7,4z M5,8.9h5.2
	v4.3H5V8.9z M11,7.3H4.2c-0.4,0-0.8,0.4-0.8,0.8v5.1h-1c-0.2,0-0.3-0.1-0.4-0.2c-0.1-0.1-0.2-0.3-0.2-0.4V2.4c0-0.3,0.3-0.6,0.6-0.6
	h1v3c0,0.4,0.4,0.8,0.8,0.8h5.5c0.4,0,0.8-0.4,0.8-0.8S10.1,4,9.7,4H5V1.7h5.1l3.2,3.2v7.7c0,0.2-0.1,0.3-0.2,0.4
	c-0.1,0.1-0.3,0.2-0.4,0.2h-0.8V8.1C11.9,7.7,11.4,7.3,11,7.3z"/>
</svg>
