<?xml version="1.0" encoding="utf-8"?>
<!-- Generator: Adobe Illustrator 26.0.0, SVG Export Plug-In . SVG Version: 6.00 Build 0)  -->
<svg version="1.1" id="Layer_1" xmlns="http://www.w3.org/2000/svg" xmlns:xlink="http://www.w3.org/1999/xlink" x="0px" y="0px"
	 viewBox="0 0 15 15" style="enable-background:new 0 0 15 15;" xml:space="preserve">
<g>
	<circle cx="7.5" cy="13.8" r="0.6"/>
	<circle cx="9.1" cy="10.5" r="0.6"/>
	<circle cx="9.1" cy="13.8" r="0.6"/>
	<circle cx="9.1" cy="12.2" r="0.6"/>
	<circle cx="5.9" cy="13.8" r="0.6"/>
	<circle cx="5.9" cy="12.1" r="0.6"/>
	<circle cx="7.5" cy="10.5" r="0.6"/>
	<circle cx="5.9" cy="10.5" r="0.6"/>
	<path d="M14.4,9.9h-1.1V7.8c0-0.3-0.3-0.6-0.6-0.6H8.1V5.1h1.1c0.3,0,0.6-0.3,0.6-0.6V1.2c0-0.3-0.3-0.6-0.6-0.6H5.9
		c-0.3,0-0.6,0.3-0.6,0.6v3.3c0,0.3,0.3,0.6,0.6,0.6H7v2.1H2.3C2,7.2,1.7,7.4,1.7,7.8V10H0.6C0.3,10,0,10.3,0,10.6v3.3
		c0,0.3,0.3,0.6,0.6,0.6h3.3c0.3,0,0.6-0.3,0.6-0.6v-3.3c0-0.3-0.3-0.6-0.6-0.6H2.8V8.3h9.4v1.6h-1.1c-0.3,0-0.6,0.3-0.6,0.6v3.3
		c0,0.3,0.3,0.6,0.6,0.6h3.3c0.3,0,0.6-0.3,0.6-0.6v-3.3C15,10.2,14.7,9.9,14.4,9.9z M3.3,11v2.2H1.2V11H3.3z M6.4,4V1.8h2.2V4H6.4z
		 M13.8,11v2.2h-2.2V11H13.8z"/>
</g>
</svg>
