<?xml version="1.0" encoding="utf-8"?>
<!-- Generator: Adobe Illustrator 26.0.0, SVG Export Plug-In . SVG Version: 6.00 Build 0)  -->
<svg version="1.1" id="Layer_1" xmlns="http://www.w3.org/2000/svg" xmlns:xlink="http://www.w3.org/1999/xlink" x="0px" y="0px"
	 viewBox="0 0 15 15" style="enable-background:new 0 0 15 15;" xml:space="preserve" fill="currentColor">
<path d="M14.5,13.6L10,9.3c0.8-1,1.3-2.2,1.3-3.6c0-3.1-2.5-5.6-5.6-5.6S0.1,2.6,0.1,5.7s2.5,5.6,5.6,5.6c1.2,0,2.3-0.4,3.2-1
	l4.6,4.4c0.1,0.1,0.3,0.2,0.5,0.2s0.4-0.1,0.5-0.2C14.8,14.4,14.9,14,14.5,13.6z M1.6,5.7c0-2.3,1.8-4.1,4.1-4.1s4.1,1.8,4.1,4.1
	S8,9.8,5.8,9.8S1.6,7.9,1.6,5.7z"/>
</svg>
