<?xml version="1.0" encoding="utf-8"?>
<!-- Generator: Adobe Illustrator 26.0.0, SVG Export Plug-In . SVG Version: 6.00 Build 0)  -->
<svg version="1.1" id="Layer_1" xmlns="http://www.w3.org/2000/svg" xmlns:xlink="http://www.w3.org/1999/xlink" x="0px" y="0px"
	 viewBox="0 0 15 15" style="enable-background:new 0 0 15 15;" xml:space="preserve" fill="currentColor">
<path d="M7.5,14.9c-0.2,0-0.4-0.1-0.6-0.3l-3.6-4.3c-0.3-0.3-0.2-0.8,0.1-1.1C3.7,9,4.2,9.1,4.5,9.4l3,3.6l3-3.6
	c0.3-0.3,0.7-0.4,1.1-0.1c0.3,0.3,0.4,0.7,0.1,1.1l-3.6,4.3C7.9,14.8,7.7,14.9,7.5,14.9z"/>
<path d="M11.1,5.9c-0.2,0-0.4-0.1-0.6-0.3L7.5,2l-3,3.6C4.2,5.9,3.7,6,3.4,5.7C3.1,5.4,3.1,4.9,3.3,4.6l3.6-4.3C7.2,0,7.8,0,8.1,0.3
	l3.6,4.3c0.3,0.3,0.2,0.8-0.1,1.1C11.4,5.8,11.3,5.9,11.1,5.9z"/>
</svg>
