<?xml version="1.0" encoding="utf-8"?>
<!-- Generator: Adobe Illustrator 26.0.0, SVG Export Plug-In . SVG Version: 6.00 Build 0)  -->
<svg version="1.1" id="Layer_1" xmlns="http://www.w3.org/2000/svg" xmlns:xlink="http://www.w3.org/1999/xlink" x="0px" y="0px"
	 viewBox="0 0 15 15" style="enable-background:new 0 0 15 15;" xml:space="preserve" fill="currentColor">
<style type="text/css">
	.st0{display:none;fill:#CDBAE2;}
</style>
<circle class="st0" cx="5" cy="5.9" r="1.2"/>
<path d="M7.3,5.3H6.7C6.3,5.3,6,5,6,4.6s0.3-0.8,0.8-0.8h0.6c0.4,0,0.8,0.3,0.8,0.8S7.7,5.3,7.3,5.3z"/>
<path d="M11.9,15H2.1c-0.3,0-0.7-0.1-0.9-0.4C1,14.3,0.9,14,0.9,13.7L1.4,5c0-0.6,0.6-1.1,1.2-1.1h0.5c0.4,0,0.8,0.3,0.8,0.8
	S3.5,5.3,3.1,5.3H2.9l-0.5,8.1h9.2l-0.5-8.1H11c-0.4,0-0.8-0.3-0.8-0.8s0.3-0.8,0.8-0.8h0.4c0.6,0,1.2,0.5,1.2,1.1l0.5,8.7
	c0,0.3-0.1,0.7-0.3,0.9S12.3,15,11.9,15z M11.4,5.3L11.4,5.3L11.4,5.3z M11.1,5C11.1,5,11.1,5,11.1,5L11.1,5z"/>
<circle cx="4.9" cy="6.3" r="1.3"/>
<circle cx="9.1" cy="6.3" r="1.3"/>
<path d="M9.9,2.9H8.4c0-0.8-0.6-1.4-1.4-1.4S5.7,2.2,5.7,2.9H4.2C4.2,1.3,5.4,0,7,0C8.6,0,9.9,1.3,9.9,2.9z"/>
<rect x="4.2" y="2.9" width="1.5" height="2.4"/>
<rect x="8.4" y="2.8" width="1.5" height="2.6"/>
</svg>
