<svg version="1.1" id="Layer_1" xmlns="http://www.w3.org/2000/svg" x="0px" y="0px" viewBox="0 0 122.88 122.88" xml:space="preserve">
    <g>
        <path d="M58.76,44.64l-6.9-6.9l-0.58,8.81l7.48,7.48V44.64L58.76,44.64z M32.17,35.1l-12.8,0.48c-1.49,0.05-2.74-1.11-2.79-2.6 c-0.05-1.49,1.11-2.74,2.6-2.79l7.78-0.29l-8.81-8.81c-1.06-1.06-1.06-2.77,0-3.83c1.06-1.06,2.77-1.06,3.83,0l8.67,8.67l0.12-7.29 c0.02-1.49,1.25-2.68,2.74-2.66c1.49,0.02,2.68,1.25,2.66,2.74l-0.2,12.52l11.23,11.23l0.64-9.78c0.07-1.19,1.1-2.1,2.29-2.02 c0.55,0.03,1.03,0.27,1.39,0.63l0,0l7.22,7.22V20.82l-9-8.72c-1.07-1.04-1.09-2.75-0.05-3.82c1.04-1.07,2.75-1.09,3.82-0.05 l5.23,5.07V2.71c0-1.5,1.21-2.71,2.71-2.71c1.5,0,2.71,1.21,2.71,2.71v10.77l5.71-5.29c1.09-1.02,2.8-0.96,3.82,0.14 c1.02,1.09,0.96,2.8-0.14,3.82l-9.39,8.71v16.89l7.51-6.58c0.9-0.79,2.26-0.69,3.05,0.2c0.36,0.41,0.53,0.92,0.53,1.42h0.01v10.92 l13.07-13.07l-0.2-12.52c-0.02-1.49,1.17-2.72,2.66-2.74c1.49-0.02,2.72,1.17,2.74,2.66l0.12,7.29l7.49-7.49 c1.06-1.06,2.77-1.06,3.83,0c1.06,1.06,1.06,2.77,0,3.83l-7.62,7.62l7.78,0.29c1.49,0.05,2.66,1.3,2.6,2.79 c-0.05,1.49-1.3,2.66-2.79,2.6l-12.8-0.48L80.31,46.34l9.28,0.61c1.19,0.07,2.1,1.1,2.02,2.29c-0.03,0.55-0.27,1.03-0.63,1.39l0,0 l-7.28,7.28h18.34l8.72-9c1.04-1.07,2.75-1.09,3.82-0.05c1.07,1.04,1.09,2.75,0.05,3.82l-5.07,5.23h10.58 c1.5,0,2.71,1.21,2.71,2.71c0,1.5-1.21,2.71-2.71,2.71H109.4l5.29,5.71c1.02,1.09,0.96,2.8-0.14,3.82 c-1.09,1.02-2.8,0.96-3.82-0.14l-8.71-9.39H84.59l6.53,7.45c0.79,0.9,0.69,2.26-0.2,3.05c-0.41,0.36-0.92,0.53-1.42,0.53v0.01 H79.11L92.23,87.5l12.52-0.2c1.49-0.02,2.72,1.17,2.74,2.66c0.02,1.49-1.17,2.72-2.66,2.74l-7.29,0.12l7.49,7.49 c1.06,1.06,1.06,2.77,0,3.83c-1.06,1.06-2.77,1.06-3.83,0l-7.62-7.62l-0.29,7.78c-0.05,1.49-1.3,2.66-2.79,2.6 c-1.49-0.05-2.66-1.3-2.6-2.79l0.48-12.8l-12.4-12.4l-0.64,9.78c-0.07,1.19-1.1,2.1-2.29,2.02c-0.55-0.03-1.03-0.27-1.39-0.63l0,0 l-7.47-7.47v17.72l9.39,8.71c1.09,1.02,1.15,2.73,0.14,3.82c-1.02,1.09-2.73,1.15-3.82,0.14l-5.71-5.29v12.45 c0,1.5-1.21,2.71-2.71,2.71c-1.5,0-2.71-1.21-2.71-2.71v-12.26l-5.23,5.07c-1.07,1.04-2.78,1.02-3.82-0.05 c-1.04-1.07-1.02-2.78,0.05-3.82l9-8.72V83.86l-7.26,6.36c-0.9,0.79-2.26,0.69-3.05-0.2c-0.36-0.41-0.53-0.92-0.53-1.42h-0.01 v-9.85L35.94,90.71l0.48,12.8c0.05,1.49-1.11,2.74-2.6,2.79c-1.49,0.05-2.74-1.11-2.79-2.6l-0.29-7.78l-8.81,8.81 c-1.06,1.06-2.77,1.06-3.83,0c-1.06-1.06-1.06-2.77,0-3.83l8.67-8.67l-7.29-0.12c-1.49-0.02-2.68-1.25-2.66-2.74 c0.02-1.49,1.25-2.68,2.74-2.66l12.52,0.2l11.8-11.8l-10.28-0.68c-1.19-0.07-2.1-1.1-2.02-2.29c0.03-0.55,0.27-1.03,0.63-1.39l0,0 l7.4-7.41H22.54l-8.71,9.39c-1.02,1.09-2.73,1.15-3.82,0.14c-1.09-1.02-1.15-2.73-0.14-3.82l5.29-5.71H2.71 c-1.5,0-2.71-1.21-2.71-2.71c0-1.5,1.21-2.71,2.71-2.71h12.26l-5.07-5.23c-1.04-1.07-1.02-2.78,0.05-3.82 c1.07-1.04,2.78-1.02,3.82,0.05l8.72,9h15.99l-6.41-7.32c-0.79-0.9-0.69-2.26,0.2-3.05c0.41-0.36,0.92-0.53,1.42-0.53v-0.01h10.38 L32.17,35.1L32.17,35.1z M48.41,51.35h-9.95l5.76,6.57h10.76L48.41,51.35L48.41,51.35z M71.91,74.84l-7.73-7.73v9.39l7.15,7.15 L71.91,74.84L71.91,74.84z M68.07,63.34l6.7,6.7h9.95l-5.87-6.7H68.07L68.07,63.34z M45.73,63.34l-7.09,7.09l9.31,0.61l7.71-7.71 H45.73L45.73,63.34z M68.73,57.92h8.85l6.97-6.97l-8.31-0.55L68.73,57.92L68.73,57.92z M52.25,74.4v9.41l6.51-5.71V67.89 L52.25,74.4L52.25,74.4z M64.18,54.81l6.76-6.76V37.57l-6.76,5.93V54.81L64.18,54.81z" fill="currentColor"/>
    </g>
</svg>