<?xml version="1.0" encoding="utf-8"?>
<!-- Generator: Adobe Illustrator 26.0.0, SVG Export Plug-In . SVG Version: 6.00 Build 0)  -->
<svg version="1.1" id="Layer_1" xmlns="http://www.w3.org/2000/svg" xmlns:xlink="http://www.w3.org/1999/xlink" x="0px" y="0px"
	 viewBox="0 0 15 15" style="enable-background:new 0 0 15 15;" xml:space="preserve">
<g>
	<path d="M7.5,2.5l1.3,2.6l0.3,0.7L9.9,6l2.9,0.4l-2.1,2.1L10.1,9l0.1,0.8l0.5,2.9l-2.6-1.4L7.5,11l-0.7,0.4l-2.6,1.4l0.5-2.9L4.9,9
		L4.3,8.5L2.2,6.4L5.1,6l0.8-0.1l0.3-0.7L7.5,2.5 M7.5,0.3c-0.3,0-0.7,0.2-0.8,0.5L4.9,4.5L0.8,5.1C0.5,5.2,0.2,5.4,0.1,5.7
		s0,0.7,0.2,0.9l2.9,2.9l-0.7,4.1c-0.1,0.3,0.1,0.7,0.4,0.9c0.2,0.1,0.3,0.2,0.5,0.2c0.1,0,0.3,0,0.4-0.1l3.6-1.9l3.6,1.9
		c0.1,0.1,0.3,0.1,0.4,0.1c0.2,0,0.4-0.1,0.5-0.2c0.3-0.2,0.4-0.5,0.4-0.9l-0.7-4.1l2.9-2.9C14.9,6.4,15,6,14.9,5.7
		s-0.4-0.6-0.7-0.6l-4.1-0.6L8.3,0.8C8.2,0.5,7.8,0.3,7.5,0.3L7.5,0.3z"/>
</g>
</svg>
