<?xml version="1.0" encoding="utf-8"?>
<!-- Generator: Adobe Illustrator 26.0.0, SVG Export Plug-In . SVG Version: 6.00 Build 0)  -->
<svg version="1.1" id="Layer_1" xmlns="http://www.w3.org/2000/svg" xmlns:xlink="http://www.w3.org/1999/xlink" x="0px" y="0px"
	 viewBox="0 0 15 15" style="enable-background:new 0 0 15 15;" xml:space="preserve">
<path d="M6.6,10.2L6.6,10.2c-0.3,0-0.4-0.1-0.6-0.3L4.3,7.4c-0.2-0.3-0.1-0.8,0.2-1c0.3-0.2,0.8-0.1,1,0.2l1.2,1.8L10,5.3
	c0.3-0.3,0.7-0.3,1,0s0.3,0.8,0,1.1L7.1,10C6.9,10.2,6.8,10.2,6.6,10.2z"/>
<path d="M7.5,1.6c3.2,0,5.9,2.6,5.9,5.9s-2.6,5.9-5.9,5.9s-5.9-2.6-5.9-5.9S4.3,1.6,7.5,1.6 M7.5,0.1c-4.1,0-7.4,3.3-7.4,7.4
	s3.3,7.4,7.4,7.4s7.4-3.3,7.4-7.4S11.6,0.1,7.5,0.1L7.5,0.1z"/>
</svg>
