<?xml version="1.0" encoding="utf-8"?>
<!-- Generator: Adobe Illustrator 26.0.0, SVG Export Plug-In . SVG Version: 6.00 Build 0)  -->
<svg version="1.1" id="Layer_1" xmlns="http://www.w3.org/2000/svg" xmlns:xlink="http://www.w3.org/1999/xlink" x="0px" y="0px"
	 viewBox="0 0 15 15" style="enable-background:new 0 0 15 15;" xml:space="preserve">
<style type="text/css">
	.st0{display:none;fill:#EA9898;}
	.st1{fill:#FFFFFF;}
</style>
<path class="st0" d="M13.2,0.1H1.7c-0.9,0-1.6,0.7-1.6,1.6v11.5c0,0.9,0.7,1.6,1.6,1.6h11.5c0.9,0,1.6-0.7,1.6-1.6V1.8
	C14.8,0.9,14.1,0.1,13.2,0.1z M6,9.7V7.4h2.8v2.3H6z M8.7,11.2v2.2H6v-2.2H8.7z M1.6,3.7h2.9v2.2H1.6V3.7z M6,3.7h2.8v2.2H6V3.7z
	 M10.3,3.7l3,0v2.2h-3C10.3,5.9,10.3,3.7,10.3,3.7z M1.6,7.4h2.9v2.3H1.6V7.4z M10.3,7.4h3v2.3h-3C10.3,9.7,10.3,7.4,10.3,7.4z
	 M1.6,13.2v-2.1h2.9v2.2H1.7C1.7,13.4,1.6,13.3,1.6,13.2z M13.2,13.4h-2.9v-2.2h3v2.1C13.3,13.3,13.3,13.4,13.2,13.4z"/>
<path d="M9.9,12.8c0.1,0,0.1,0,0.2,0l0,0C10,12.8,10,12.8,9.9,12.8z M13.1,0.1H1.7c-0.9,0-1.6,0.7-1.6,1.6v11.5
	c0,0.9,0.7,1.6,1.6,1.6l11.2,0l-1.2-1.4h-1.4l0-0.3c-0.2,0.1-0.5,0.2-0.8,0.2c-0.2,0-0.6,0-0.8,0v0.1l-2.7,0l0-1.8
	c-0.3-0.6-0.6-1.3-0.7-2C5.2,7.4,6.9,6.2,7.5,5.9L6,5.9V3.7l2.8,0v1.8c0.3-0.1,0.5-0.1,0.7-0.1s0.5,0,0.8,0.1V3.7l3,0v2.2h-2.2
	c0.7,0.3,1.2,0.9,1.6,1.5h0.6v2.3h-0.1c0,0.5-0.2,1-0.4,1.5h0.5v0.5l1.5,1.5l0,0V1.8C14.8,0.9,14,0.1,13.1,0.1z M1.6,13.3v-2.2h2.9
	v2.2 M4.5,9.7H1.6V7.4h2.9V9.7z M4.5,5.9H1.6V3.7h2.9V5.9z M9.9,12.8c0.1,0,0.1,0,0.2,0l0,0C10,12.8,10,12.8,9.9,12.8z M10.2,9.7
	l0-1.5c-0.3-0.3-0.7-0.4-1-0.4c-0.2,0-0.3,0-0.5,0.1l0,1.8H7.6c0,0.7,0.7,1.5,1.7,1.5c0.8,0,1.6-0.8,1.6-1.5H10.2z"/>
<path class="st1" d="M6.5,7.4C6.5,7.4,6.5,7.5,6.5,7.4C6.5,7.5,6.5,7.4,6.5,7.4L6.5,7.4z M12.1,7.4L12.1,7.4
	C12.1,7.4,12.1,7.5,12.1,7.4C12.1,7.5,12.1,7.4,12.1,7.4z M6.5,7.4C6.5,7.4,6.5,7.5,6.5,7.4C6.5,7.5,6.5,7.4,6.5,7.4L6.5,7.4z"/>
<path d="M6.5,7.4C6.5,7.4,6.5,7.5,6.5,7.4C6.5,7.5,6.5,7.4,6.5,7.4L6.5,7.4z M12.1,7.4L12.1,7.4C12.1,7.4,12.1,7.5,12.1,7.4
	C12.1,7.5,12.1,7.4,12.1,7.4z"/>
<path d="M14.6,13.7l-2.3-2.4c0.3-0.5,0.5-1,0.5-1.6c0.1-2-1.4-3.7-3.3-3.8c-2-0.1-3.7,1.4-3.8,3.3c-0.1,2,1.4,3.7,3.3,3.8
	c0.8,0.1,1.6-0.2,2.2-0.6l2.3,2.3c0.2,0.2,0.7,0.4,1.1,0C14.9,14.4,14.9,14,14.6,13.7z M9.1,11.6c-1.1-0.1-2-1.1-1.9-2.2
	s1.1-2,2.2-1.9s2,1.1,1.9,2.2C11.3,10.8,10.3,11.7,9.1,11.6z"/>
</svg>
