<?xml version="1.0" encoding="iso-8859-1"?>
<!-- Generator: Adobe Illustrator 19.0.0, SVG Export Plug-In . SVG Version: 6.00 Build 0)  -->
<svg version="1.1" id="Layer_1" xmlns="http://www.w3.org/2000/svg" xmlns:xlink="http://www.w3.org/1999/xlink" x="0px" y="0px"
	 viewBox="0 0 445 445" style="enable-background:new 0 0 445 445;" xml:space="preserve">
<path d="M0,37.215v55v15v300.57h445v-300.57v-15v-55H0z M276.667,277.595H168.333v-70.19h108.334V277.595z M306.667,207.405H415
	v70.19H306.667V207.405z M276.667,307.595v70.19H168.333v-70.19H276.667z M30,207.405h108.333v70.19H30V207.405z M168.333,177.405
	v-70.19h108.334v70.19H168.333z M138.333,107.215v70.19H30v-70.19H138.333z M30,307.595h108.333v70.19H30V307.595z M306.667,377.785
	v-70.19H415v70.19H306.667z M415,177.405H306.667v-70.19H415V177.405z"/>
<g>
</g>
<g>
</g>
<g>
</g>
<g>
</g>
<g>
</g>
<g>
</g>
<g>
</g>
<g>
</g>
<g>
</g>
<g>
</g>
<g>
</g>
<g>
</g>
<g>
</g>
<g>
</g>
<g>
</g>
</svg>
