<?xml version="1.0" encoding="utf-8"?>
<!-- Generator: Adobe Illustrator 26.0.0, SVG Export Plug-In . SVG Version: 6.00 Build 0)  -->
<svg version="1.1" id="Layer_1" xmlns="http://www.w3.org/2000/svg" xmlns:xlink="http://www.w3.org/1999/xlink" x="0px" y="0px"
	 viewBox="0 0 15 15" style="enable-background:new 0 0 15 15;" xml:space="preserve">
<path d="M13.2,0.1H1.7c-0.9,0-1.6,0.7-1.6,1.6v11.5c0,0.9,0.7,1.6,1.6,1.6h11.5c0.9,0,1.6-0.7,1.6-1.6V1.8
	C14.8,0.9,14.1,0.1,13.2,0.1z M6,9.7V7.4h2.8v2.3H6z M8.7,11.2v2.2H6v-2.2H8.7z M1.6,3.7h2.9v2.2H1.6V3.7z M6,3.7h2.8v2.2H6V3.7z
	 M10.3,3.7h3v2.2h-3V3.7z M1.6,7.4h2.9v2.3H1.6V7.4z M10.3,7.4h3v2.3h-3V7.4z M1.6,13.3v-2.2h2.9v2.2H1.6z M13.2,13.4h-2.9v-2.2h3
	v2.1C13.3,13.3,13.3,13.4,13.2,13.4z"/>
</svg>
