<svg
	viewBox="0 0 445 445"
	style="enable-background:new 0 0 445 445;"
	xml:space="preserve"
	xmlns="http://www.w3.org/2000/svg"
>
	<defs id="defs751" />
    <style
		type="text/css"
		id="style738"
	>
		.st0{fill:#FFFFFF;}
	</style>
    <path
		d="M0,37.2v55v15v300.6h445V107.2v-15v-55C445,37.2,0,37.2,0,37.2z M276.7,277.6H168.3v-70.2h108.3V277.6z M306.7,207.4H415  v70.2H306.7V207.4z M276.7,307.6v70.2H168.3v-70.2H276.7z M30,207.4h108.3v70.2H30V207.4z M168.3,177.4v-70.2h108.2l0.1,70.2H168.3z   M138.3,107.2v70.2H30v-70.2H138.3z M30,307.6h108.3v70.2H30V307.6z M306.7,377.8v-70.2H415v70.2H306.7z M415,177.4H306.7v-70.2H415  V177.4z"
		id="path740"
	/>
    <g
		id="g746"
		transform="translate(16.115628,-21.848345)">
		<path
            d="m 423,403.6 -73.3,-73.5 c 11,-15 17.5,-33.4 17.5,-53.4 0,-49.9 -40.6,-90.6 -90.6,-90.6 -50,0 -90.6,40.8 -90.6,90.7 0,49.9 40.6,90.6 90.6,90.6 19.3,0 37.2,-6.1 51.9,-16.4 l 73.5,73.7 c 2.9,2.9 6.7,4.4 10.5,4.4 3.8,0 7.6,-1.4 10.5,-4.3 5.8,-6 5.8,-15.4 0,-21.2 z M 215.7,276.8 c 0,-33.6 27.2,-60.9 60.9,-60.9 33.7,0 60.9,27.2 60.9,60.9 0,33.6 -27.2,60.9 -60.9,60.9 -33.7,0 -60.9,-27.3 -60.9,-60.9 z"
            id="path742"
		/>
        <path
			class="st0"
			d="m 276.6,186.2 c 49.9,0 90.6,40.6 90.6,90.6 0,19.9 -6.5,38.4 -17.5,53.4 l 73.3,73.5 c 5.8,5.8 5.8,15.2 0,21 -2.9,2.9 -6.7,4.3 -10.5,4.3 -3.8,0 -7.6,-1.5 -10.5,-4.4 l -73.5,-73.7 c -14.7,10.3 -32.6,16.4 -51.9,16.4 -49.9,0 -90.6,-40.6 -90.6,-90.6 0,-49.8 40.6,-90.5 90.6,-90.5 m 0,151.4 c 33.6,0 60.9,-27.2 60.9,-60.9 0,-33.6 -27.2,-60.9 -60.9,-60.9 -33.7,0 -60.9,27.2 -60.9,60.9 0,33.7 27.3,60.9 60.9,60.9 m 0,-163.4 c -56.6,0 -102.6,46 -102.6,102.6 0,56.6 46,102.6 102.6,102.6 17.7,0 34.9,-4.5 50.2,-13.1 l 63.71798,64.06096 c 8.15871,5.7e-4 15.87388,0.16037 23.07388,0.16037 7.2,0 9.3024,0.0446 15.87272,0.0954 -0.003,-7.73305 -0.13459,-9.92644 -0.15379,-17.12641 -0.0192,-7.2 -0.0775,-11.79426 -0.1249,-20.5343 L 365.2,328.7 c 9.2,-15.7 14.1,-33.4 14.1,-51.8 -0.2,-56.7 -46.2,-102.7 -102.7,-102.7 z m 1.75,91.4 c -26.9,0 -50.65,38.1 -50.65,11.1 0,-26.9 21.15,-0.9 48.15,-0.9 26.9,0 49.65,-26.1 49.65,0.9 -0.1,27 -20.25,-11.1 -47.15,-11.1 z"
			id="path744"
        />
	</g>
</svg>
