<?xml version="1.0" encoding="utf-8"?>
<!-- Generator: Adobe Illustrator 26.0.0, SVG Export Plug-In . SVG Version: 6.00 Build 0)  -->
<svg version="1.1" id="Layer_1" xmlns="http://www.w3.org/2000/svg" xmlns:xlink="http://www.w3.org/1999/xlink" x="0px" y="0px"
	 viewBox="0 0 15 15" style="enable-background:new 0 0 15 15;" xml:space="preserve" fill="currentColor">
<g>
	<path d="M14.2,13.2H0.8c-0.4,0-0.7,0.3-0.7,0.8s0.3,0.8,0.7,0.8h13.5c0.4,0,0.8-0.3,0.8-0.8S14.6,13.2,14.2,13.2z"/>
	<path d="M7.9,0.5C7.8,0.4,7.6,0.3,7.4,0.3S7,0.4,6.9,0.5L4.5,2.9C4.2,3.2,4.2,3.7,4.5,4s0.8,0.3,1.1,0l1.1-1.1v8
		c0,0.4,0.3,0.8,0.7,0.8s0.7-0.4,0.7-0.8v-8L9.3,4c0.3,0.3,0.8,0.3,1.1,0s0.3-0.8,0-1.1L7.9,0.5z"/>
</g>
</svg>
