<?xml version="1.0" encoding="utf-8"?>
<!-- Generator: Adobe Illustrator 26.0.0, SVG Export Plug-In . SVG Version: 6.00 Build 0)  -->
<svg version="1.1" id="Layer_1" xmlns="http://www.w3.org/2000/svg" xmlns:xlink="http://www.w3.org/1999/xlink" x="0px" y="0px"
	 viewBox="0 0 15 15" style="enable-background:new 0 0 15 15;" xml:space="preserve" fill="currentColor">
<g>
	<path d="M7.5,0.1c-4.1,0-7.4,3.3-7.4,7.4s3.3,7.4,7.4,7.4s7.4-3.3,7.4-7.4S11.5,0.1,7.5,0.1z M3.9,12.2c0.4-1.6,1.8-2.8,3.5-2.8
		s3.2,1.2,3.5,2.8c-1,0.8-2.2,1.2-3.5,1.2S4.9,12.9,3.9,12.2z M12.2,11c-0.8-1.8-2.6-3.1-4.7-3.1c-2.1,0-3.9,1.3-4.7,3.1
		C2,10,1.6,8.8,1.6,7.5c0-3.2,2.6-5.9,5.9-5.9s5.9,2.6,5.9,5.9C13.3,8.8,12.9,10,12.2,11z"/>
	<path d="M7.5,2.8c-1.2,0-2.2,1-2.2,2.2c0,1.2,1,2.2,2.2,2.2s2.2-1,2.2-2.2C9.7,3.8,8.7,2.8,7.5,2.8z M7.5,5.7
		C7.1,5.7,6.8,5.4,6.8,5c0-0.4,0.3-0.7,0.7-0.7c0.4,0,0.7,0.3,0.7,0.7C8.2,5.4,7.9,5.7,7.5,5.7z"/>
</g>
</svg>
