<?xml version="1.0" encoding="utf-8"?>
<!-- Generator: Adobe Illustrator 26.0.0, SVG Export Plug-In . SVG Version: 6.00 Build 0)  -->
<svg version="1.1" id="Layer_1" xmlns="http://www.w3.org/2000/svg" xmlns:xlink="http://www.w3.org/1999/xlink" x="0px" y="0px"
	 viewBox="0 0 15 15" style="enable-background:new 0 0 15 15;" xml:space="preserve" fill="currentColor">
<g>
	<path d="M5.2,7.8c-2.3,0-4.3,1.5-4.9,3.7C0.2,11.8,0,12.6,0,12.6s2,2.2,5,2.2c2.8,0,4.6-1.3,5.6-2.3c-0.1-0.2-0.3-0.6-0.5-1.2
		C9.4,9.3,7.5,7.8,5.2,7.8z M7.6,13c-0.7,0.2-1.5,0.4-2.3,0.4c-0.6,0-1.4-0.1-2.1-0.4c-1-0.4-1.4-0.8-1.4-0.8
		c0.4-1.6,1.8-2.8,3.6-2.8s3.2,1.2,3.6,2.8C9,12.2,8.5,12.6,7.6,13z"/>
	<path d="M5.3,7.2c1.2,0,2.2-1,2.2-2.2s-1-2.2-2.2-2.2c-1.2,0-2.2,1-2.2,2.2S4.1,7.2,5.3,7.2z M5.3,4.3C5.7,4.3,6,4.6,6,5
		S5.7,5.7,5.3,5.7C4.9,5.7,4.6,5.4,4.6,5S4.9,4.3,5.3,4.3z"/>
	<path d="M14.2,6.5h-1.5V5c0-0.4-0.3-0.8-0.8-0.8S11.3,4.6,11.3,5v1.5H9.8C9.4,6.5,9,6.8,9,7.2S9.4,8,9.8,8h1.5v1.5
		c0,0.4,0.3,0.8,0.8,0.8s0.8-0.3,0.8-0.8V8h1.5C14.6,8,15,7.6,15,7.2S14.6,6.5,14.2,6.5z"/>
</g>
</svg>
