<?xml version="1.0" encoding="utf-8"?>
<!-- Generator: Adobe Illustrator 26.0.0, SVG Export Plug-In . SVG Version: 6.00 Build 0)  -->
<svg version="1.1" id="Layer_1" xmlns="http://www.w3.org/2000/svg" xmlns:xlink="http://www.w3.org/1999/xlink" x="0px" y="0px"
	 viewBox="0 0 15 15" style="enable-background:new 0 0 15 15;" xml:space="preserve" fill="currentColor">
<path d="M10.5,11.3c-0.9-2-2.6-3.5-4.9-3.5s-4.3,1.5-4.9,3.7c-0.1,0.3-0.3,1.1-0.3,1.1s2,2.2,5,2.2c2.8,0,4.6-1.3,5.6-2.3
	C10.8,12.1,10.8,11.9,10.5,11.3z M5.7,13.4c-0.6,0-1.4-0.1-2.1-0.4c-1-0.4-1.4-0.8-1.4-0.8C2.6,10.6,4,9.4,5.8,9.4s3.2,1.2,3.6,2.8
	c0,0-0.5,0.4-1.4,0.8C7.3,13.2,6.5,13.4,5.7,13.4z"/>
<path d="M5.7,4.3c0.4,0,0.7,0.3,0.7,0.7S6.1,5.7,5.7,5.7S5,5.4,5,5S5.3,4.3,5.7,4.3 M5.7,2.8c-1.2,0-2.2,1-2.2,2.2s1,2.2,2.2,2.2
	s2.2-1,2.2-2.2S6.9,2.8,5.7,2.8L5.7,2.8z"/>
<path d="M14.6,11.5c-0.1-0.2-0.2-0.6-0.5-1.2c-0.9-2-2.6-3.5-4.9-3.5c-1.1,0-1.7,0.1-2.6,0.7c0.8,0,1.7,0.5,2.3,1c0.2,0,0.3,0,0.5,0
	c1.8,0,3.2,1.2,3.6,2.8c0,0-0.3,0.3-0.6,0.5c-0.4,0.2-0.8,0.4-0.8,0.4c0.1,0.2,0.3,0.5,0.3,0.5c-0.4,0.4-0.7,0.7-1.4,1.1
	C12.3,13.4,13.7,12.4,14.6,11.5z"/>
<path d="M9.3,1.8C8.5,1.8,7.7,2.3,7.4,3C8,3.3,8.5,4,8.5,4.9c0,0.4-0.1,0.7-0.3,1c0.3,0.2,0.6,0.3,1,0.3c1.2,0,2.2-1,2.2-2.2
	S10.5,1.8,9.3,1.8z M9.3,4.7C8.9,4.7,8.6,4.4,8.6,4s0.3-0.7,0.7-0.7S10,3.6,10,4S9.7,4.7,9.3,4.7z"/>
</svg>
