<?xml version="1.0" encoding="utf-8"?>
<!-- Generator: Adobe Illustrator 26.0.0, SVG Export Plug-In . SVG Version: 6.00 Build 0)  -->
<svg version="1.1" id="Layer_1" xmlns="http://www.w3.org/2000/svg" xmlns:xlink="http://www.w3.org/1999/xlink" x="0px" y="0px"
	 viewBox="0 0 15 15" style="enable-background:new 0 0 15 15;" xml:space="preserve" fill="currentColor">
<path d="M12.3,11.3c-0.8-2.1-2.6-3.5-4.9-3.5s-4.3,1.5-4.9,3.7c-0.1,0.3-0.3,1.1-0.3,1.1s2,2.2,5,2.2c2.8,0,4.6-1.3,5.6-2.3
	C12.6,12,12.4,11.6,12.3,11.3z M7.5,13.4c-0.6,0-1.4-0.1-2.1-0.4c-1-0.4-1.4-0.8-1.4-0.8c0.4-1.6,1.8-2.8,3.6-2.8s3.2,1.2,3.6,2.8
	c0,0-0.5,0.4-1.4,0.8C9.1,13.2,8.3,13.4,7.5,13.4z"/>
<path d="M7.5,4.3c0.4,0,0.7,0.3,0.7,0.7S7.9,5.7,7.5,5.7S6.8,5.4,6.8,5S7.1,4.3,7.5,4.3 M7.5,2.8c-1.2,0-2.2,1-2.2,2.2
	s1,2.2,2.2,2.2s2.2-1,2.2-2.2S8.7,2.8,7.5,2.8L7.5,2.8z"/>
</svg>
