<?xml version="1.0" encoding="utf-8"?>
<!-- Generator: Adobe Illustrator 26.0.0, SVG Export Plug-In . SVG Version: 6.00 Build 0)  -->
<svg version="1.1" id="Layer_1" xmlns="http://www.w3.org/2000/svg" xmlns:xlink="http://www.w3.org/1999/xlink" x="0px" y="0px"
	 viewBox="0 0 15 15" style="enable-background:new 0 0 15 15;" xml:space="preserve">
<path d="M10.5,6.1c-0.2-0.4-0.7-0.5-1.1-0.2L7.5,7.1L5.9,4c-0.2-0.4-0.7-0.5-1-0.3c-0.4,0.2-0.5,0.7-0.3,1l2.1,3.8
	C6.8,8.7,7,8.8,7.2,8.9C7.6,9,7.8,8.8,8,8.7l2.4-1.6C10.6,6.9,10.7,6.4,10.5,6.1z"/>
<path d="M0.9,6.2C1.5,6.4,1.8,5.9,2,5.3c0.2-0.6,0.4-1.1-0.2-1.4c-0.7-0.3-0.9,0.3-1.2,1l0,0l0,0l0,0l0,0l0,0l0,0l0,0l0,0l0,0l0,0
	l0,0l0,0l0,0l0,0l0,0l0,0l0,0l0,0l0,0l0,0l0,0l0,0l0,0l0,0l0,0l0,0l0,0l0,0l0,0l0,0l0,0l0,0l0,0l0,0l0,0l0,0l0,0l0,0l0,0l0,0l0,0
	l0,0l0,0l0,0l0,0l0,0l0,0l0,0l0,0l0,0l0,0l0,0l0,0C0.4,5.6,0.4,6.1,0.9,6.2z"/>
<path d="M1.3,9.8c0.6-0.1,0.6-0.7,0.5-1.3C1.7,7.9,1.6,7.3,0.9,7.4C0.2,7.5,0.3,8.1,0.4,8.9l0,0l0,0l0,0l0,0l0,0l0,0l0,0l0,0l0,0
	l0,0l0,0l0,0l0,0l0,0l0,0l0,0l0,0l0,0l0,0l0,0l0,0l0,0l0,0l0,0l0,0l0,0l0,0l0,0l0,0l0,0l0,0l0,0l0,0l0,0l0,0l0,0l0,0l0,0l0,0l0,0
	l0,0l0,0l0,0l0,0l0,0l0,0l0,0l0,0l0,0l0,0l0,0l0,0l0,0C0.5,9.6,0.7,10,1.3,9.8z"/>
<path d="M3.3,12.9c0.5-0.4,0.2-0.9-0.2-1.4c-0.4-0.5-0.7-1-1.3-0.6c-0.6,0.4-0.3,0.9,0.2,1.6l0,0l0,0l0,0l0,0l0,0l0,0l0,0l0,0l0,0
	l0,0l0,0l0,0l0,0l0,0l0,0l0,0l0,0l0,0l0,0l0,0l0,0l0,0l0,0l0,0l0,0l0,0l0,0l0,0l0,0l0,0l0,0l0,0l0,0l0,0l0,0l0,0l0,0l0,0l0,0l0,0
	l0,0l0,0l0,0l0,0l0,0l0,0l0,0l0,0l0,0l0,0l0,0l0,0l0,0C2.5,13,2.8,13.3,3.3,12.9z"/>
<path d="M10.1,13.3c-0.3-0.6-0.8-0.4-1.4-0.2c-0.6,0.3-1.1,0.5-0.9,1.1c0.2,0.7,0.8,0.5,1.6,0.2l0,0l0,0l0,0l0,0l0,0l0,0l0,0l0,0
	l0,0l0,0l0,0l0,0l0,0l0,0l0,0l0,0l0,0l0,0l0,0l0,0l0,0l0,0l0,0l0,0l0,0l0,0l0,0l0,0l0,0l0,0l0,0l0,0l0,0l0,0l0,0l0,0l0,0l0,0l0,0
	l0,0l0,0l0,0l0,0l0,0l0,0l0,0l0,0l0,0l0,0l0,0l0,0l0,0l0,0C10,14.1,10.3,13.8,10.1,13.3z"/>
<path d="M6.6,14.2c0.1-0.6-0.4-0.8-1-1c-0.6-0.2-1.2-0.4-1.4,0.2c-0.3,0.7,0.3,0.9,1.1,1.2l0,0l0,0l0,0l0,0l0,0l0,0l0,0l0,0l0,0l0,0
	l0,0l0,0l0,0l0,0l0,0l0,0l0,0l0,0l0,0l0,0l0,0l0,0l0,0l0,0l0,0l0,0l0,0l0,0l0,0l0,0l0,0l0,0l0,0l0,0l0,0l0,0l0,0l0,0l0,0l0,0l0,0
	l0,0l0,0l0,0l0,0l0,0l0,0l0,0l0,0l0,0l0,0l0,0l0,0C6.1,14.7,6.5,14.7,6.6,14.2z"/>
<path d="M13.3,12H13c0.3-0.4,0.6-0.8,0.9-1.2c1-1.6,1.2-3.6,0.6-5.5S12.7,1.9,11.1,1C8.3-0.6,4.8-0.1,2.5,2.1
	c-0.3,0.3-0.3,0.8,0,1.1s0.8,0.3,1.1,0c1.8-1.7,4.6-2.1,6.8-0.9c1.3,0.7,2.3,2,2.7,3.4s0.2,3-0.5,4.3c-0.2,0.4-0.3,0.5-0.5,0.7
	C12,10.3,11.7,10,11.4,10l0,0c-0.4,0-0.8,0.4-0.8,0.8v1.9c0,0.4,0.3,0.8,0.8,0.8h1.9l0,0c0.4,0,0.8-0.3,0.8-0.8S13.7,12,13.3,12z"/>
</svg>
