<?xml version="1.0" encoding="utf-8"?>
<!-- Generator: Adobe Illustrator 26.0.0, SVG Export Plug-In . SVG Version: 6.00 Build 0)  -->
<svg version="1.1" id="Layer_1" xmlns="http://www.w3.org/2000/svg" xmlns:xlink="http://www.w3.org/1999/xlink" x="0px" y="0px"
	 viewBox="0 0 15 15" style="enable-background:new 0 0 15 15;" xml:space="preserve" fill="currentColor">
<g>
	<path d="M7.5,0.1c-4.1,0-7.4,3.3-7.4,7.4s3.3,7.4,7.4,7.4s7.4-3.3,7.4-7.4S11.6,0.1,7.5,0.1z M7.5,13.4c-3.2,0-5.9-2.6-5.9-5.9
		s2.6-5.9,5.9-5.9s5.9,2.6,5.9,5.9S10.7,13.4,7.5,13.4z"/>
	<path d="M10,5C9.7,4.7,9.2,4.7,8.9,5L7.5,6.4L6.1,5C5.8,4.7,5.3,4.7,5,5S4.7,5.8,5,6.1l1.4,1.4L5,8.9C4.7,9.2,4.7,9.7,5,10
		c0.1,0.1,0.3,0.2,0.5,0.2s0.4-0.1,0.5-0.2l1.4-1.4L8.9,10c0.1,0.1,0.3,0.2,0.5,0.2S9.8,10.1,10,10c0.3-0.3,0.3-0.8,0-1.1L8.6,7.5
		L10,6.1C10.3,5.8,10.3,5.3,10,5z"/>
</g>
</svg>
