<?xml version="1.0" encoding="utf-8"?>
<!-- Generator: Adobe Illustrator 26.0.0, SVG Export Plug-In . SVG Version: 6.00 Build 0)  -->
<svg version="1.1" id="Layer_1" xmlns="http://www.w3.org/2000/svg" xmlns:xlink="http://www.w3.org/1999/xlink" x="0px" y="0px"
	 viewBox="0 0 1799.3 468.6" style="enable-background:new 0 0 1799.3 468.6;" xml:space="preserve">
<style type="text/css">
	.st0{fill:#1C182D;}
	.st1{display:none;fill:#FF9900;}
	.st2{fill:#FF9900;}
</style>
<path class="st0" d="M832.5,427.5l32-33.7c6.8-7.4,6.8-18.9-0.6-25.7l-103.8-99.2c-7.4-6.8-18.9-6.8-25.7,0.6l-32.1,33.7
	c-6.8,7.4-6.8,18.9,0.6,25.7l103.8,99.2C814,434.9,825.6,434.6,832.5,427.5z"/>
<ellipse class="st0" cx="598.7" cy="279.2" rx="82.9" ry="21"/>
<path class="st0" d="M515.6,167.3l32.6,13.4c15.2,3.5,82.3,5.1,97.5,1.6l35.9-15.1v111.9h-166V167.3z"/>
<path id="path845" class="st0" d="M150.5,37.8c-25.5,0-50.3,0-80.2,0c-16.8,0-24.2-3.7-24.2,18c0,117.5,0,225.6,0,338.1
	c0,22.4-3.1,26.1,28,26.1c46,0,67.8-0.6,120-0.6c37.9,0,103.2-20.5,146.7-75.2c24.2-30.5,44.8-87.6,39.2-134.3
	c-6.2-52.2-26.1-97-79.6-136.8c-26.7-19.3-69-35.4-101.9-36.1C180.9,37.8,165.4,37.8,150.5,37.8z M163.5,129.2
	c10.6,0,23,0.6,31.1,2.5c17.4,4.4,36.1,9.3,50.3,21.1c28.6,24.2,39.8,55.9,36.7,87s-20.5,58.4-53.5,77.1
	c-25.5,14.3-83.3,10.6-83.3,10.6l-0.6-197.7C144.3,129.8,153,129.2,163.5,129.2z"/>
<path id="path852" class="st0" d="M1080.5,43.8c-108.2,0-195.2,87.6-195.2,195.2s87.6,195.2,195.2,195.2s195.2-87.6,195.2-195.2
	C1275.7,131.5,1188,43.8,1080.5,43.8z M1078,136.4c1.9,0,3.1,0,5,0c64.6,2.5,96.3,54.7,95.1,105.7c-1.9,61.5-46,97-97.6,97.6
	c-44.8,0.6-93.2-32.9-96.3-92C979.8,176.8,1027.7,137.1,1078,136.4z"/>
<path id="path870" class="st1" d="M1885.9,38.2c-17.4,0-19.3,16.8-19.3,23.6c0,113.8,1.9,228.1,1.2,338.1c0,8.7,0,19.9,16.8,20.5
	c24.2,0.6,42.3-0.6,63.4,0c14.9,0.6,18.6-13.7,18.6-23.6c0-106.3-1.2-228.1-0.6-337.5c0-9.9-5-20.5-19.3-20.5
	C1922.6,38.8,1905.2,37.6,1885.9,38.2L1885.9,38.2z"/>
<path id="path870_1_" class="st1" d="M1320.7,332.3c-18,0-19.3,16.2-19.3,22.4c0,108.8,1.2-52.8,0.6,52.2c0,8.1,0,19.3,16.8,19.3
	c24.2,0.6,42.9-0.6,64,0c14.9,0.6,18.6-13.1,18.6-22.4c0-101.9-0.6,52.8,0-51.6c0-9.9-5-19.9-19.3-19.3
	C1357.3,332.9,1340.6,331.7,1320.7,332.3L1320.7,332.3z"/>
<path id="path852-3" class="st1" d="M1653.2,36.8c-13.7,0-27.4,0.6-40.4,0c-9.3-0.6-21.8,4.4-24.9,13.1
	c-43.5,111.3-97.6,250.5-139.9,355.6c-1.9,5-6.2,12.4,8.1,13.7c17.4,1.2,47.9,2.5,72.1,2.5c9.9,0,13.7-4.4,16.8-11.2
	c5-11.8,20.5-51.6,20.5-51.6s119.3-1.9,136.8-0.6c3.1,0,10.6,29.8,16.8,44.8c2.5,6.8,7.5,14.9,14.3,16.2c21.8,3.7,41.6,1.9,67.8,2.5
	c23,0,22.4-8.1,19.3-16.2c-52.2-131.2-92-241.2-138-353.1c-3.7-8.1-11.8-14.3-23-14.3C1656.9,36.8,1655.1,36.8,1653.2,36.8
	L1653.2,36.8z M1634.5,158.7l39.2,116.9h-81.4L1634.5,158.7z"/>
<ellipse class="st2" cx="598.7" cy="167.3" rx="82.9" ry="21"/>
<path class="st0" d="M598.7,87.2c35.2,0,68.3,13.7,93.2,38.6s38.6,58,38.6,93.2s-13.7,68.3-38.6,93.2c-24.9,24.9-58,38.6-93.2,38.6
	s-68.3-13.7-93.2-38.6c-24.9-24.9-38.6-58-38.6-93.2s13.7-68.3,38.6-93.2C530.4,100.9,563.5,87.2,598.7,87.2 M598.7,34.2
	c-102,0-184.8,82.7-184.8,184.8s82.7,184.8,184.8,184.8S783.4,321,783.4,219S700.7,34.2,598.7,34.2L598.7,34.2z"/>
<path class="st2" d="M1510,192.3C1510,192.3,1510,192.3,1510,192.3c-17.8-20.1-42.4-30.3-73-30.3h-107.3c-5.5,0-10,4.5-10,10v251.2
	c0,5.5,4.5,10,10,10h53.8c5.5,0,10-4.5,10-10v-61.1h43.5c30.3,0,54.7-9.8,72.6-29c17.7-19.1,26.7-42.5,26.7-69.6
	C1536.4,236.1,1527.5,212.1,1510,192.3z M1434.7,228.8c-3.5-0.7-6.9-3.7-7.6-8C1427.8,224.8,1430.9,227.9,1434.7,228.8z
	 M1427.1,220.7c0-0.2-0.1-0.5-0.1-0.7C1427.1,220.2,1427.1,220.5,1427.1,220.7z M1392.4,229.1h17.3c0,0,0.1,0,0.1,0
	c18.7-0.2,24-0.2,25.5-0.1c0.5,0.1,1.1,0.1,1.6,0.1c8.6,0,14.9,2.8,20,8.8c5.4,6.5,8.1,14.4,8.1,24.3c0,10.1-2.7,18.3-8.3,25
	c-5.2,6.2-11.5,9.1-19.8,9.1h-44.6V229.1z"/>
<path class="st2" d="M1773,309.1c-5.6-10.9-14.1-19.3-25.2-25.2c-10.1-5.3-20.6-9.3-31.2-11.7c-10.2-2.3-22.8-4.2-37.3-5.6
	c-13.5-1.5-23.7-3.9-30.5-7.3c-3.2-1.6-6.5-4.3-6.5-11.8c0-5.6,2.4-9.8,7.8-13.3c6.5-4.3,14.1-6.4,23.1-6.4c9.4,0,17.5,1.9,24.2,5.7
	c5.6,3.2,8.7,7.6,9.6,13.7c0.7,4.6,4.7,8.1,9.4,8.1h47.5c5.2,0,9.5-4.2,9.5-9.5c0-14.2-3-27-8.9-37.9c-6-11.1-14.2-19.8-24.4-26.1
	c-9.6-5.9-20.1-10.3-31.3-13.2c-11-2.8-22.9-4.2-35.4-4.2c-27.7,0-51.3,7-70.1,20.7c-19.7,14.4-29.7,35.7-29.7,63.5
	c0,23,8.5,41.3,25.3,54.4c15.8,12.4,39.4,20,69.9,22.6c0,0,0.1,0,0.1,0c5.9,0.4,10.6,0.9,13.9,1.3c3.2,0.4,7.3,1.3,12.3,2.5
	c5.4,1.4,8.3,2.7,9.7,3.7c1.8,1.2,3.5,3.1,5.1,5.7c1.5,2.3,2.2,5.2,2.2,8.6c0,6.1,0,20.4-36,20.4c-11,0-20.6-2.2-28.5-6.6
	c-6.5-3.6-9.6-8.3-9.9-15.2c-0.2-5.1-4.4-9-9.4-9h-48.5c-5.2,0-9.5,4.2-9.5,9.5c0,27.4,11,48.8,32.8,63.7
	c20.6,14,45.3,21.2,73.4,21.2c0.1,0,0.1,0,0.2,0c13.1-0.2,25.5-1.8,36.8-4.5c11.6-2.8,22.6-7.2,32.7-13.1
	c10.9-6.3,19.6-15.3,25.8-26.7c6.2-11.3,9.3-24.6,9.3-39.5C1781.2,332.4,1778.4,319.6,1773,309.1z"/>
</svg>
