<?xml version="1.0" encoding="utf-8"?>
<!-- Generator: Adobe Illustrator 26.0.0, SVG Export Plug-In . SVG Version: 6.00 Build 0)  -->
<svg version="1.1" id="Layer_1" xmlns="http://www.w3.org/2000/svg" xmlns:xlink="http://www.w3.org/1999/xlink" x="0px" y="0px"
	 viewBox="0 0 2012.6 468.6" style="enable-background:new 0 0 2012.6 468.6;" xml:space="preserve">
<style type="text/css">
	.st0{fill:#1C182D;}
	.st1{fill:#FF9900;}
</style>
<path class="st0" d="M832.5,427.5l32-33.7c6.8-7.4,6.8-18.9-0.6-25.7l-103.8-99.2c-7.4-6.8-18.9-6.8-25.7,0.6l-32.1,33.7
	c-6.8,7.4-6.8,18.9,0.6,25.7l103.8,99.2C814,434.9,825.6,434.6,832.5,427.5z"/>
<ellipse class="st0" cx="598.7" cy="279.2" rx="82.9" ry="21"/>
<path class="st0" d="M515.6,167.3l32.6,13.4c15.2,3.5,82.3,5.1,97.5,1.6l35.9-15.1v111.9h-166V167.3z"/>
<path id="path845" class="st0" d="M150.5,37.8c-25.5,0-50.3,0-80.2,0c-16.8,0-24.2-3.7-24.2,18c0,117.5,0,225.6,0,338.1
	c0,22.4-3.1,26.1,28,26.1c46,0,67.8-0.6,120-0.6c37.9,0,103.2-20.5,146.7-75.2c24.2-30.5,44.8-87.6,39.2-134.3
	c-6.2-52.2-26.1-97-79.6-136.8c-26.7-19.3-69-35.4-101.9-36.1C180.9,37.8,165.4,37.8,150.5,37.8z M163.5,129.2
	c10.6,0,23,0.6,31.1,2.5c17.4,4.4,36.1,9.3,50.3,21.1c28.6,24.2,39.8,55.9,36.7,87s-20.5,58.4-53.5,77.1
	c-25.5,14.3-83.3,10.6-83.3,10.6l-0.6-197.7C144.3,129.8,153,129.2,163.5,129.2z"/>
<path id="path852" class="st0" d="M1080.5,43.8c-108.2,0-195.2,87.6-195.2,195.2s87.6,195.2,195.2,195.2s195.2-87.6,195.2-195.2
	C1275.7,131.5,1188,43.8,1080.5,43.8z M1078,136.4c1.9,0,3.1,0,5,0c64.6,2.5,96.3,54.7,95.1,105.7c-1.9,61.5-46,97-97.6,97.6
	c-44.8,0.6-93.2-32.9-96.3-92C979.8,176.8,1027.7,137.1,1078,136.4z"/>
<path id="path870" class="st1" d="M1885.9,38.2c-17.4,0-19.3,16.8-19.3,23.6c0,113.8,1.9,228.1,1.2,338.1c0,8.7,0,19.9,16.8,20.5
	c24.2,0.6,42.3-0.6,63.4,0c14.9,0.6,18.6-13.7,18.6-23.6c0-106.3-1.2-228.1-0.6-337.5c0-9.9-5-20.5-19.3-20.5
	C1922.6,38.8,1905.2,37.6,1885.9,38.2L1885.9,38.2z"/>
<path id="path870_1_" class="st1" d="M1320.7,332.3c-18,0-19.3,16.2-19.3,22.4c0,108.8,1.2-52.8,0.6,52.2c0,8.1,0,19.3,16.8,19.3
	c24.2,0.6,42.9-0.6,64,0c14.9,0.6,18.6-13.1,18.6-22.4c0-101.9-0.6,52.8,0-51.6c0-9.9-5-19.9-19.3-19.3
	C1357.3,332.9,1340.6,331.7,1320.7,332.3L1320.7,332.3z"/>
<path id="path852-3" class="st1" d="M1653.2,36.8c-13.7,0-27.4,0.6-40.4,0c-9.3-0.6-21.8,4.4-24.9,13.1
	c-43.5,111.3-97.6,250.5-139.9,355.6c-1.9,5-6.2,12.4,8.1,13.7c17.4,1.2,47.9,2.5,72.1,2.5c9.9,0,13.7-4.4,16.8-11.2
	c5-11.8,20.5-51.6,20.5-51.6s119.3-1.9,136.8-0.6c3.1,0,10.6,29.8,16.8,44.8c2.5,6.8,7.5,14.9,14.3,16.2c21.8,3.7,41.6,1.9,67.8,2.5
	c23,0,22.4-8.1,19.3-16.2c-52.2-131.2-92-241.2-138-353.1c-3.7-8.1-11.8-14.3-23-14.3C1656.9,36.8,1655.1,36.8,1653.2,36.8
	L1653.2,36.8z M1634.5,158.7l39.2,116.9h-81.4L1634.5,158.7z"/>
<ellipse class="st1" cx="598.7" cy="167.3" rx="82.9" ry="21"/>
<path class="st0" d="M598.7,87.2c35.2,0,68.3,13.7,93.2,38.6c24.9,24.9,38.6,58,38.6,93.2s-13.7,68.3-38.6,93.2
	c-24.9,24.9-58,38.6-93.2,38.6s-68.3-13.7-93.2-38.6c-24.9-24.9-38.6-58-38.6-93.2s13.7-68.3,38.6-93.2
	C530.4,100.9,563.5,87.2,598.7,87.2 M598.7,34.2c-102,0-184.8,82.7-184.8,184.8s82.7,184.8,184.8,184.8S783.4,321,783.4,219
	S700.7,34.2,598.7,34.2L598.7,34.2z"/>
</svg>
