<?xml version="1.0" encoding="UTF-8" standalone="no"?>
<svg
   width="64px"
   height="64px"
   viewBox="0 0 230 230"
   fill="none"
   version="1.1"
   id="svg2264"
   sodipodi_docname="alloy-db.svg"
   inkscape_version="1.2.1 (9c6d41e410, 2022-07-14)"
   xmlns_inkscape="http://www.inkscape.org/namespaces/inkscape"
   xmlns_sodipodi="http://sodipodi.sourceforge.net/DTD/sodipodi-0.dtd"
   xmlns="http://www.w3.org/2000/svg"
   xmlns_svg="http://www.w3.org/2000/svg">
  <sodipodi_namedview
     id="namedview2266"
     pagecolor="#ffffff"
     bordercolor="#000000"
     borderopacity="0.25"
     inkscape_showpageshadow="2"
     inkscape_pageopacity="0.0"
     inkscape_pagecheckerboard="0"
     inkscape_deskcolor="#d1d1d1"
     showgrid="false"
     inkscape_zoom="4.5796213"
     inkscape_cx="63.760731"
     inkscape_cy="70.311491"
     inkscape_window-width="1920"
     inkscape_window-height="1009"
     inkscape_window-x="-8"
     inkscape_window-y="-8"
     inkscape_window-maximized="1"
     inkscape_current-layer="svg2264" />
  <g
     clip-path="url(#clip0_2108_3946)"
     id="g2257"
     transform="matrix(1.1848832,0,0,1.1848832,-33.1104,-32.517958)">
    <path
       fill-rule="evenodd"
       clip-rule="evenodd"
       d="m 124.669,58.8164 c 0,0.1216 -0.199,0.2205 -0.442,0.2205 -0.243,0 -0.442,0.0994 -0.442,0.221 0,0.1216 -0.198,0.2211 -0.441,0.2211 -0.244,0 -0.442,0.0995 -0.442,0.2205 0,0.1216 -0.199,0.221 -0.442,0.221 -0.243,0 -0.442,0.0752 -0.442,0.1669 0,0.2134 -1.163,0.7317 -1.738,0.7748 -0.242,0.0183 -0.391,0.1122 -0.332,0.2084 0.096,0.1542 -0.484,0.2625 -0.64,0.1199 -0.033,-0.0304 -0.298,0.1658 -0.588,0.436 -0.29,0.2708 -0.86,0.6013 -1.265,0.735 -0.406,0.1338 -0.737,0.3349 -0.737,0.4471 0,0.1116 -0.13,0.2034 -0.288,0.2034 -0.406,0 -1.475,0.5195 -1.477,0.7179 -0.001,0.0911 -0.201,0.1657 -0.444,0.1657 -0.243,0 -0.441,0.0995 -0.441,0.2205 0,0.1216 -0.199,0.2211 -0.442,0.2211 -0.243,0 -0.442,0.0995 -0.442,0.2205 0,0.1216 -0.254,0.221 -0.565,0.221 -0.311,0 -0.512,0.0868 -0.446,0.1935 0.066,0.1061 -0.265,0.2547 -0.736,0.3299 -0.474,0.0757 -0.914,0.2912 -0.988,0.483 -0.073,0.1907 -0.221,0.2918 -0.329,0.2255 -0.109,-0.0669 -0.432,0.0574 -0.72,0.2768 -0.586,0.4466 -1.98,1.0534 -2.234,0.9732 -0.092,-0.0293 -0.166,0.047 -0.166,0.168 0,0.1216 -0.153,0.2211 -0.341,0.2211 -0.187,0 -0.554,0.1989 -0.814,0.4415 -0.261,0.2432 -0.704,0.4416 -0.985,0.4416 -0.281,0 -0.51,0.0995 -0.51,0.2211 0,0.1215 -0.199,0.2205 -0.442,0.2205 -0.243,0 -0.442,0.0994 -0.442,0.221 0,0.1216 -0.199,0.2211 -0.441,0.2211 -0.243,0 -0.442,0.0746 -0.443,0.1652 -10e-4,0.0912 -0.547,0.4145 -1.214,0.7179 -0.667,0.3039 -1.213,0.6267 -1.214,0.7178 0,0.0912 -0.2492,0.1658 -0.5527,0.1658 -0.3034,0 -0.5521,0.099 -0.5521,0.2205 0,0.1216 -0.1492,0.2211 -0.3311,0.2211 -0.1824,0 -0.3316,0.0995 -0.3316,0.2205 0,0.1216 -0.1984,0.221 -0.4416,0.221 -0.2432,0 -0.4416,0.0995 -0.4416,0.2211 0,0.121 -0.199,0.2205 -0.4416,0.2205 -0.2432,0 -0.4422,0.0995 -0.4422,0.2211 0,0.121 -0.1984,0.2205 -0.4416,0.2205 -0.2426,0 -0.4416,0.0751 -0.4416,0.1669 0,0.1757 -0.8356,0.5697 -1.7669,0.8333 -0.3035,0.0862 -0.7263,0.309 -0.9385,0.4957 -0.2128,0.1868 -0.3864,0.2587 -0.3864,0.1603 0,-0.0984 -0.1989,0.0011 -0.4421,0.2211 -0.2427,0.2199 -0.4416,0.3221 -0.4416,0.2282 0,-0.0945 -0.1244,-0.0702 -0.2758,0.0542 -0.5886,0.4824 -5.5696,2.9333 -6.041,2.972 -0.2736,0.0227 -0.4493,0.1194 -0.3902,0.215 0.0912,0.1481 -0.0967,0.1934 -0.6959,0.1697 -0.063,-0.0028 -0.3305,0.1961 -0.5941,0.4415 -0.2631,0.2454 -0.5544,0.4465 -0.6467,0.4465 -0.0923,0 -1.0821,0.4969 -2.1997,1.1042 -1.1181,0.6074 -2.171,1.1042 -2.3401,1.1042 -0.1691,0 -0.5207,0.1984 -0.7815,0.4415 -0.2609,0.2426 -0.7036,0.4416 -0.9844,0.4416 -0.2808,0 -0.5107,0.0995 -0.5107,0.221 0,0.1216 -0.1492,0.2205 -0.331,0.2205 -0.1824,0 -0.3317,0.1056 -0.3317,0.2344 0,0.1282 -0.0912,0.1774 -0.2028,0.1083 -0.1116,-0.0691 -0.3355,0.0066 -0.4969,0.168 -0.1619,0.1619 -0.3675,0.3144 -0.4571,0.3393 -0.09,0.0254 -0.289,0.0868 -0.4421,0.137 -0.1531,0.0503 -0.477,0.1283 -0.7196,0.173 -0.2432,0.0442 -0.4146,0.2067 -0.3814,0.3603 0.0332,0.1537 -0.0331,0.2216 -0.1476,0.1504 -0.1149,-0.0708 -0.3432,-0.0034 -0.5079,0.1492 -0.1647,0.153 -0.441,0.31 -0.6151,0.3487 -0.3394,0.0751 -1.8903,0.7991 -2.4341,1.1362 -0.1824,0.1127 -1.1264,0.5825 -2.0981,1.0434 -2.2616,1.0732 -2.6883,1.4346 -2.2312,1.8916 0.1829,0.183 0.2714,0.3946 0.1962,0.4698 -0.0752,0.0751 -0.0039,0.1365 0.1586,0.1365 0.4251,0 3.3118,1.3899 3.3118,1.5943 0,0.0951 0.199,0.1725 0.4416,0.1725 0.2432,0 0.4416,0.0934 0.4416,0.2078 0,0.1149 0.199,0.1702 0.4422,0.1232 0.2426,-0.047 0.4416,0.0088 0.4416,0.1232 0,0.1144 0.1989,0.2084 0.4416,0.2084 0.2432,0 0.4416,0.0989 0.4416,0.2205 0,0.1215 0.199,0.221 0.4421,0.221 0.2427,0 0.4416,0.0995 0.4416,0.2205 0,0.1216 0.2045,0.2211 0.4544,0.2211 0.2503,0 0.3935,0.0995 0.3183,0.221 -0.0752,0.1211 0.0437,0.2238 0.2631,0.2277 0.488,0.0083 1.2209,0.5339 1.0219,0.7323 -0.079,0.079 0.0719,0.1442 0.335,0.1442 0.2631,0 0.4786,0.0989 0.4786,0.2205 0,0.1216 0.0741,0.2089 0.1653,0.1945 0.4836,-0.0762 0.9042,0.0719 1.3298,0.4681 0.2603,0.2432 0.6367,0.4416 0.8356,0.4416 0.199,0 0.6251,0.1774 0.9479,0.3945 0.3222,0.2167 0.8843,0.5278 1.2486,0.6914 0.8323,0.3736 1.9825,0.9544 2.9773,1.5037 l 0.7688,0.425 1.1861,-0.6239 c 0.6528,-0.3432 1.3254,-0.624 1.4951,-0.624 0.1702,0 0.3089,-0.0994 0.3089,-0.221 0,-0.121 0.199,-0.2205 0.4416,-0.2205 0.2432,0 0.4427,-0.0746 0.4439,-0.1658 0.0016,-0.2017 1.0744,-0.7179 1.4906,-0.7179 0.1652,0 0.2387,-0.0989 0.1641,-0.2205 -0.0751,-0.1216 0.068,-0.221 0.3178,-0.221 0.2504,0 0.4549,-0.0995 0.4549,-0.2205 0,-0.1216 0.199,-0.2211 0.4416,-0.2211 0.2432,0 0.4422,-0.0995 0.4422,-0.221 0,-0.1211 0.1785,-0.2206 0.3974,-0.2206 0.4935,0 1.5862,-0.4935 1.5884,-0.7178 0.0011,-0.0912 0.131,-0.1658 0.2891,-0.1658 0.4062,0 1.4757,-0.5189 1.4779,-0.7173 5e-4,-0.0912 0.2559,-0.1658 0.5665,-0.1658 0.3206,0 0.5063,-0.0956 0.4289,-0.2211 -0.1211,-0.1956 0.3432,-0.3282 0.8445,-0.2415 0.1,0.0177 0.1194,-0.0702 0.042,-0.1945 -0.0768,-0.1244 -0.0365,-0.226 0.0896,-0.226 0.126,0 1.0014,-0.362 1.9454,-0.8036 0.944,-0.4421 1.7167,-0.7654 1.7167,-0.7189 0,0.0469 0.3136,-0.1382 0.6966,-0.4112 0.383,-0.2724 0.905,-0.4957 1.159,-0.4957 0.255,0 0.463,-0.0995 0.463,-0.2211 0,-0.121 0.199,-0.2205 0.442,-0.2205 0.243,0 0.442,-0.0746 0.443,-0.1658 0.003,-0.1934 1.068,-0.7178 1.46,-0.7178 0.148,0 0.302,-0.0791 0.342,-0.1763 0.112,-0.2675 3.427,-2.0321 3.818,-2.0321 0.188,0 0.342,-0.0989 0.342,-0.2205 0,-0.1215 0.199,-0.221 0.441,-0.221 0.244,0 0.442,-0.0995 0.442,-0.2205 0,-0.1216 0.199,-0.2211 0.442,-0.2211 0.243,0 0.442,-0.0994 0.442,-0.221 0,-0.1211 0.19,-0.2205 0.423,-0.2205 0.233,0 0.457,-0.078 0.497,-0.1736 0.089,-0.2089 3.547,-1.9347 3.752,-1.8723 0.079,0.0243 0.265,-0.1017 0.413,-0.2802 0.148,-0.1779 0.362,-0.3238 0.475,-0.3238 0.114,0 0.79,-0.2896 1.502,-0.6433 0.713,-0.3531 1.354,-0.5852 1.423,-0.515 0.071,0.0701 0.128,0.0116 0.128,-0.1299 0,-0.142 0.199,-0.2581 0.442,-0.2581 0.243,0 0.442,-0.0989 0.442,-0.2205 0,-0.1216 0.198,-0.221 0.441,-0.221 0.243,0 0.443,-0.0746 0.444,-0.1658 0.002,-0.2012 1.074,-0.7174 1.491,-0.7174 0.165,0 0.239,-0.0994 0.163,-0.221 -0.075,-0.1216 0.063,-0.2205 0.306,-0.2205 0.243,0 0.503,-0.0995 0.578,-0.2211 0.075,-0.1215 0.335,-0.221 0.578,-0.221 0.243,0 0.381,-0.0995 0.305,-0.2205 -0.077,-0.1255 0.108,-0.2211 0.429,-0.2211 0.311,0 0.565,0.0995 0.565,0.2211 0,0.121 0.199,0.2205 0.442,0.2205 0.243,0 0.441,0.0995 0.441,0.221 0,0.1216 0.199,0.2211 0.443,0.2211 0.242,0 0.441,0.0989 0.441,0.2205 0,0.1216 0.199,0.221 0.442,0.221 0.243,0 0.441,0.0995 0.441,0.2205 0,0.1216 0.15,0.2211 0.332,0.2211 0.182,0 0.331,0.0995 0.331,0.2211 0,0.121 0.199,0.2205 0.442,0.2205 0.243,0 0.441,0.0994 0.441,0.221 0,0.1216 0.199,0.2205 0.442,0.2205 0.243,0 0.442,0.0995 0.442,0.2211 0,0.1215 0.146,0.221 0.326,0.221 0.443,0 2.324,0.9284 2.324,1.1478 0,0.0973 0.174,0.1774 0.387,0.1785 0.212,6e-4 0.671,0.1498 1.019,0.3311 0.348,0.1812 0.77,0.3299 0.938,0.3299 0.169,0 0.306,0.0995 0.306,0.221 0,0.1211 0.159,0.2206 0.353,0.2206 0.194,0 0.616,0.1834 0.938,0.4072 0.323,0.2239 0.91,0.546 1.305,0.7163 0.394,0.1702 0.717,0.3846 0.717,0.4763 0,0.0918 0.199,0.1669 0.442,0.1669 0.243,0 0.442,0.0995 0.442,0.2211 0,0.121 0.198,0.2205 0.442,0.2205 0.242,0 0.441,0.0995 0.441,0.221 0,0.1216 0.143,0.2205 0.318,0.2205 0.302,0 2.762,1.2545 2.995,1.527 0.061,0.0713 0.26,0.1613 0.442,0.2006 0.182,0.0392 1.247,0.5183 2.366,1.0649 1.12,0.5466 2.098,0.9798 2.174,0.9632 0.076,-0.0171 0.275,0.1498 0.442,0.3703 0.168,0.2205 0.308,0.3111 0.311,0.2017 0.004,-0.11 0.206,-0.0204 0.449,0.1995 0.243,0.22 0.442,0.3311 0.442,0.2476 0,-0.084 0.224,-0.0287 0.497,0.1227 0.273,0.152 0.571,0.2548 0.662,0.2288 0.092,-0.026 0.166,0.0525 0.166,0.1741 0,0.1215 0.1,0.2205 0.223,0.2205 0.336,0 2.306,0.9472 2.39,1.1489 0.041,0.0973 0.265,0.1763 0.497,0.1763 0.233,0 0.424,0.0995 0.424,0.221 0,0.1211 0.248,0.2205 0.552,0.2205 0.304,0 0.552,0.0995 0.552,0.2211 0,0.1216 0.199,0.2205 0.441,0.2205 0.244,0 0.443,0.0995 0.443,0.221 0,0.1216 0.198,0.2211 0.441,0.2211 0.243,0 0.442,0.0989 0.442,0.2205 0,0.1216 0.199,0.221 0.441,0.221 0.244,0 0.442,0.0995 0.442,0.2206 0,0.1215 0.199,0.221 0.442,0.221 0.243,0 0.442,0.0995 0.442,0.2211 0,0.121 0.204,0.2205 0.455,0.2205 0.25,0 0.393,0.0994 0.317,0.221 -0.074,0.1216 0.01,0.2205 0.188,0.2205 0.377,0 2.208,0.9163 2.316,1.1594 0.041,0.0912 0.264,0.1658 0.497,0.1658 0.233,0 0.423,0.0995 0.423,0.2211 0,0.121 0.199,0.2205 0.442,0.2205 0.243,0 0.442,0.0995 0.442,0.221 0,0.1216 0.19,0.2205 0.423,0.2205 0.233,0 0.456,0.0945 0.497,0.2095 0.04,0.1155 0.545,-0.0304 1.122,-0.3233 0.577,-0.2934 1.049,-0.4891 1.049,-0.4355 0,0.0542 0.467,-0.1978 1.038,-0.5592 0.57,-0.362 1.166,-0.6577 1.325,-0.6577 0.158,0 0.288,-0.0995 0.288,-0.221 0,-0.1216 0.193,-0.2211 0.429,-0.2211 0.235,0 0.49,-0.0989 0.564,-0.2205 0.076,-0.1216 0.33,-0.221 0.566,-0.221 0.236,0 0.429,-0.0995 0.429,-0.2205 0,-0.1216 0.204,-0.2211 0.454,-0.2211 0.25,0 0.394,-0.0995 0.318,-0.221 -0.075,-0.1211 0.069,-0.2206 0.319,-0.2206 0.25,0 0.455,-0.0994 0.455,-0.221 0,-0.1216 0.199,-0.2205 0.441,-0.2205 0.243,0 0.442,-0.0995 0.442,-0.2211 0,-0.1215 0.187,-0.221 0.415,-0.221 0.228,0 0.537,-0.1476 0.687,-0.3288 0.15,-0.1807 0.361,-0.2741 0.469,-0.2078 0.108,0.0669 0.196,0.016 0.196,-0.1128 0,-0.1287 0.155,-0.2337 0.344,-0.2337 0.19,0 0.283,-0.0995 0.208,-0.2211 -0.075,-0.121 0.068,-0.2205 0.318,-0.2205 0.25,0 0.455,-0.0873 0.455,-0.1934 0,-0.1061 0.286,-0.2503 0.636,-0.3205 0.35,-0.0697 0.775,-0.2559 0.944,-0.414 0.169,-0.1575 0.455,-0.3199 0.634,-0.3603 0.45,-0.1017 3.738,-1.7408 4.11,-2.0486 0.583,-0.4841 0.285,-0.8035 -1.631,-1.7507 -1.063,-0.5256 -1.982,-1.0119 -2.043,-1.081 -0.06,-0.0691 -0.259,-0.1575 -0.441,-0.1973 -0.183,-0.0392 -0.365,-0.1636 -0.405,-0.2757 -0.041,-0.1128 -0.259,-0.2045 -0.484,-0.2045 -0.226,0 -0.467,-0.0918 -0.537,-0.2039 -0.069,-0.1122 -0.423,-0.2692 -0.786,-0.3488 -0.363,-0.0795 -0.66,-0.2343 -0.66,-0.3437 0,-0.11 -0.248,-0.2614 -0.552,-0.3377 -0.304,-0.0762 -0.552,-0.2337 -0.552,-0.3498 0,-0.1155 -0.183,-0.1796 -0.408,-0.1414 -0.224,0.0381 -0.572,-0.0675 -0.773,-0.2338 -0.201,-0.1669 -0.365,-0.2343 -0.365,-0.1498 0,0.084 -0.157,-0.0038 -0.349,-0.1962 -0.192,-0.1917 -0.441,-0.2923 -0.552,-0.2232 -0.112,0.0691 -0.203,0.0199 -0.203,-0.1083 0,-0.1288 -0.149,-0.2344 -0.332,-0.2344 -0.181,0 -0.331,-0.0989 -0.331,-0.2205 0,-0.1215 -0.199,-0.221 -0.441,-0.221 -0.244,0 -0.442,-0.0995 -0.442,-0.2205 0,-0.1216 -0.255,-0.2211 -0.565,-0.2211 -0.321,0 -0.507,-0.0956 -0.429,-0.221 0.075,-0.121 -0.068,-0.2205 -0.319,-0.2205 -0.249,0 -0.454,-0.0995 -0.454,-0.2211 0,-0.1216 -0.199,-0.2205 -0.442,-0.2205 -0.243,0 -0.442,-0.0995 -0.442,-0.221 0,-0.1216 -0.198,-0.2211 -0.441,-0.2211 -0.243,0 -0.442,-0.0989 -0.442,-0.2205 0,-0.1216 -0.097,-0.221 -0.216,-0.221 -0.445,0 -4.18,-1.9354 -4.028,-2.0868 0.087,-0.0873 0.059,-0.1382 -0.062,-0.1138 -0.521,0.105 -1.01,-0.0249 -0.881,-0.2338 0.077,-0.1249 0.058,-0.2122 -0.042,-0.1951 -0.49,0.0851 -0.915,-0.0602 -1.346,-0.462 -0.261,-0.2431 -0.624,-0.4415 -0.808,-0.4415 -0.408,0 -1.942,-0.8395 -2.166,-1.1854 -0.089,-0.1376 -0.163,-0.173 -0.165,-0.0791 -0.002,0.0945 -0.327,-5e-4 -0.721,-0.2111 -0.396,-0.21 -0.793,-0.3619 -0.884,-0.3365 -0.091,0.0248 -0.165,-0.0476 -0.165,-0.1608 0,-0.2371 -0.86,-0.5687 -1.27,-0.4902 -0.152,0.0293 -0.277,-0.0509 -0.277,-0.1774 0,-0.1271 -0.248,-0.2305 -0.552,-0.2305 -0.303,0 -0.552,-0.0995 -0.552,-0.221 0,-0.1216 -0.199,-0.2205 -0.442,-0.2205 -0.242,0 -0.441,-0.0995 -0.441,-0.2211 0,-0.1216 -0.199,-0.221 -0.442,-0.221 -0.243,0 -0.442,-0.0995 -0.442,-0.2205 0,-0.1216 -0.199,-0.2211 -0.442,-0.2211 -0.242,0 -0.441,-0.0995 -0.441,-0.2205 0,-0.1216 -0.199,-0.2211 -0.442,-0.2211 -0.243,0 -0.442,-0.0994 -0.442,-0.221 0,-0.121 -0.204,-0.2205 -0.454,-0.2205 -0.25,0 -0.394,-0.0995 -0.319,-0.2211 0.075,-0.1215 0.002,-0.2205 -0.163,-0.2205 -0.417,0 -1.489,-0.5167 -1.492,-0.7178 0,-0.0912 -0.2,-0.1658 -0.443,-0.1658 -0.243,0 -0.441,-0.0995 -0.441,-0.2205 0,-0.1216 -0.199,-0.2211 -0.442,-0.2211 -0.243,0 -0.442,-0.0995 -0.442,-0.221 0,-0.1211 -0.199,-0.2205 -0.442,-0.2205 -0.242,0 -0.441,-0.0995 -0.441,-0.2211 0,-0.1216 -0.199,-0.221 -0.442,-0.221 -0.243,0 -0.442,-0.099 -0.442,-0.2205 0,-0.1216 -0.119,-0.2211 -0.265,-0.2211 -0.369,0 -5.653,-2.62 -5.816,-2.8842 -0.073,-0.1177 -0.218,-0.1625 -0.321,-0.0984 -0.103,0.0636 -0.326,-0.0221 -0.494,-0.1906 -0.169,-0.168 -0.624,-0.3758 -1.012,-0.4609 -0.388,-0.0851 -0.705,-0.2465 -0.705,-0.3581 0,-0.1122 -0.199,-0.2034 -0.442,-0.2034 -0.243,0 -0.442,-0.0995 -0.442,-0.2211 0,-0.121 -0.199,-0.2205 -0.441,-0.2205 -0.243,0 -0.442,-0.0994 -0.442,-0.221 0,-0.1216 -0.199,-0.2211 -0.442,-0.2211 -0.243,0 -0.442,-0.074 -0.443,-0.1652 -0.002,-0.1984 -1.072,-0.7179 -1.478,-0.7179 -0.158,0 -0.288,-0.0995 -0.288,-0.221 0,-0.1211 -0.198,-0.2205 -0.441,-0.2205 -0.243,0 -0.442,-0.0746 -0.443,-0.1658 0,-0.0912 -0.546,-0.4139 -1.214,-0.7179 -0.667,-0.3034 -1.213,-0.6261 -1.213,-0.7173 -0.001,-0.0912 -0.188,-0.1658 -0.416,-0.1658 -0.228,0 -1.161,-0.3974 -2.072,-0.8831 -1.704,-0.9085 -2.151,-1.0462 -2.151,-0.6626 z m -0.442,28.4872 c 0,0.1216 -0.199,0.2211 -0.442,0.2211 -0.242,0 -0.441,0.0994 -0.441,0.221 0,0.121 -0.199,0.2205 -0.442,0.2205 -0.243,0 -0.442,0.0995 -0.442,0.2211 0,0.1215 -0.199,0.2205 -0.442,0.2205 -0.242,0 -0.441,0.0994 -0.441,0.221 0,0.1216 -0.199,0.2211 -0.442,0.2211 -0.243,0 -0.442,0.0989 -0.442,0.2205 0,0.1216 -0.199,0.221 -0.441,0.221 -0.243,0 -0.442,0.0995 -0.442,0.2205 0,0.1216 -0.199,0.2211 -0.442,0.2211 -0.243,0 -0.442,0.0995 -0.442,0.221 0,0.1211 -0.2,0.2205 -0.445,0.2205 -0.423,0 -1.307,0.3957 -1.542,0.6908 -0.061,0.0763 -0.906,0.5029 -1.878,0.9489 -2.409,1.1047 -8.785,4.3249 -9.044,4.5681 -0.115,0.1078 -0.438,0.1967 -0.717,0.1967 -0.28,0 -0.508,0.0989 -0.508,0.2205 0,0.1216 -0.199,0.2211 -0.442,0.2211 -0.243,0 -0.443,0.0746 -0.444,0.1652 -0.002,0.1984 -1.071,0.7179 -1.478,0.7179 -0.158,0 -0.287,0.0746 -0.288,0.1658 0,0.0912 -0.546,0.4139 -1.213,0.7179 -0.668,0.3034 -1.214,0.6261 -1.2146,0.7173 -5e-4,0.0912 -0.1298,0.1658 -0.2879,0.1658 -0.4063,0 -1.4757,0.5195 -1.4779,0.7175 -0.0011,0.091 -0.2007,0.166 -0.4433,0.166 -0.2432,0 -0.4416,0.099 -0.4416,0.221 0,0.121 -0.199,0.221 -0.4422,0.221 -0.2426,0 -0.4416,0.099 -0.4416,0.22 0,0.122 -0.1741,0.222 -0.3863,0.222 -0.2128,10e-4 -0.6715,0.15 -1.0192,0.332 -0.3482,0.181 -0.7279,0.33 -0.8439,0.33 -0.1161,0 -0.3615,0.15 -0.545,0.333 -0.1829,0.183 -0.414,0.283 -0.5129,0.222 -0.0989,-0.061 -0.2366,0.036 -0.3051,0.215 -0.0713,0.185 -0.2719,0.27 -0.4648,0.196 -0.1868,-0.071 -0.3399,-0.02 -0.3399,0.114 0,0.135 -0.2045,0.245 -0.4549,0.245 -0.2498,0 -0.393,0.099 -0.3178,0.221 0.0746,0.121 -0.0602,0.22 -0.3001,0.22 -0.2399,0 -0.4737,0.112 -0.519,0.249 -0.0459,0.136 -0.3521,0.248 -0.6809,0.248 h -0.5986 v 8.679 8.679 l 1.2148,0.594 c 0.6683,0.327 1.2149,0.683 1.2149,0.789 0,0.108 0.1243,0.195 0.2758,0.194 0.3493,-0.002 4.0054,1.817 4.1043,2.042 0.0409,0.093 0.1945,0.168 0.3427,0.168 0.3918,0 1.4574,0.524 1.4596,0.718 6e-4,0.091 0.141,0.165 0.3118,0.165 0.3167,0 2.14,0.882 2.3396,1.132 0.061,0.076 0.434,0.208 0.828,0.294 0.396,0.085 0.718,0.247 0.718,0.358 0,0.112 0.142,0.204 0.316,0.204 0.174,0 0.468,0.152 0.655,0.339 0.186,0.186 0.392,0.334 0.458,0.327 0.354,-0.035 1.222,0.293 1.222,0.462 0,0.108 0.199,0.197 0.442,0.197 0.242,0 0.441,0.099 0.441,0.22 0,0.122 0.199,0.222 0.442,0.222 0.243,0 0.442,0.099 0.442,0.22 0,0.122 0.199,0.221 0.441,0.221 0.243,0 0.442,0.1 0.442,0.221 0,0.121 0.141,0.221 0.313,0.221 0.172,0 0.346,0.08 0.386,0.179 0.041,0.098 0.591,0.434 1.224,0.746 0.631,0.312 1.079,0.637 0.993,0.723 -0.085,0.085 -0.056,0.135 0.066,0.111 0.558,-0.113 1.009,0.025 0.862,0.262 -0.089,0.145 -0.062,0.196 0.064,0.118 0.24,-0.148 3.221,1.315 3.344,1.64 0.04,0.108 0.239,0.196 0.441,0.197 0.203,0 0.766,0.246 1.252,0.545 0.486,0.299 1.033,0.55 1.214,0.556 0.183,0.006 0.58,0.206 0.884,0.443 0.304,0.238 0.681,0.435 0.837,0.438 0.157,0.002 0.563,0.21 0.901,0.46 0.34,0.251 0.758,0.489 0.931,0.529 0.829,0.195 1.306,0.409 1.306,0.587 0,0.107 0.199,0.195 0.442,0.195 0.243,0 0.442,0.099 0.442,0.221 0,0.121 0.198,0.22 0.442,0.22 0.243,0 0.441,0.1 0.441,0.221 0,0.122 0.191,0.221 0.424,0.221 0.232,0 0.46,0.113 0.507,0.252 0.094,0.284 1.719,-0.204 1.719,-0.517 0,-0.097 0.181,-0.177 0.401,-0.177 0.219,0 0.613,-0.198 0.874,-0.441 0.261,-0.243 0.621,-0.442 0.801,-0.442 0.18,0 0.387,-0.095 0.458,-0.211 0.072,-0.116 0.277,-0.155 0.455,-0.087 0.178,0.069 0.324,0.015 0.324,-0.12 0,-0.134 0.199,-0.244 0.442,-0.244 0.246,0 0.442,-0.147 0.442,-0.331 0,-0.183 0.075,-0.315 0.166,-0.296 0.37,0.081 1.503,-0.354 1.911,-0.734 0.239,-0.223 0.616,-0.406 0.836,-0.406 0.22,0 0.4,-0.099 0.4,-0.221 0,-0.121 0.19,-0.221 0.423,-0.221 0.233,0 0.457,-0.074 0.497,-0.165 0.104,-0.234 2.834,-1.601 3.197,-1.601 0.165,0 0.3,-0.099 0.3,-0.221 0,-0.122 0.149,-0.221 0.331,-0.221 0.182,0 0.332,-0.1 0.332,-0.221 0,-0.121 0.248,-0.221 0.552,-0.221 0.303,0 0.552,-0.099 0.552,-0.221 0,-0.121 0.204,-0.22 0.454,-0.22 0.251,0 0.394,-0.1 0.319,-0.221 -0.076,-0.122 0.043,-0.228 0.263,-0.237 0.22,-0.009 0.697,-0.204 1.062,-0.434 0.965,-0.608 3.28,-1.754 3.509,-1.736 0.108,0.008 0.257,-0.067 0.331,-0.169 0.132,-0.181 1.684,-0.953 1.908,-0.95 0.062,0.001 0.329,-0.199 0.593,-0.444 0.263,-0.246 0.698,-0.447 0.965,-0.447 0.268,0 0.547,-0.155 0.62,-0.345 0.073,-0.19 0.221,-0.29 0.33,-0.224 0.108,0.068 0.319,-0.024 0.468,-0.203 0.149,-0.18 0.359,-0.272 0.467,-0.206 0.107,0.066 0.195,0.016 0.195,-0.113 0,-0.129 0.199,-0.234 0.442,-0.234 0.243,0 0.442,-0.075 0.442,-0.166 0,-0.179 1.212,-0.771 1.459,-0.714 0.082,0.019 0.209,-0.051 0.283,-0.155 0.191,-0.269 3.829,-2.06 4.179,-2.058 0.159,0.001 0.227,-0.098 0.152,-0.219 -0.075,-0.122 0.016,-0.221 0.203,-0.221 0.185,0 0.763,-0.239 1.282,-0.531 l 0.945,-0.53 0.057,-8.504 0.058,-8.504 -0.664,-0.295 c -0.366,-0.162 -0.666,-0.369 -0.666,-0.461 0,-0.092 -0.11,-0.167 -0.245,-0.167 -0.4,0 -2.405,-0.976 -2.405,-1.171 0,-0.099 -0.091,-0.123 -0.203,-0.054 -0.112,0.069 -0.361,-0.033 -0.554,-0.226 -0.193,-0.193 -0.474,-0.309 -0.625,-0.259 -0.151,0.051 -0.374,-0.041 -0.496,-0.205 -0.121,-0.164 -0.468,-0.346 -0.772,-0.404 -0.303,-0.058 -0.584,-0.206 -0.625,-0.329 -0.041,-0.122 -0.265,-0.222 -0.498,-0.222 -0.233,0 -0.424,-0.1 -0.424,-0.221 0,-0.122 -0.198,-0.221 -0.441,-0.221 -0.243,0 -0.442,-0.075 -0.444,-0.166 -0.002,-0.201 -1.074,-0.7175 -1.491,-0.7175 -0.164,0 -0.239,-0.0995 -0.163,-0.2211 0.076,-0.1243 -0.103,-0.2205 -0.41,-0.2205 -0.301,0 -0.58,-0.0746 -0.621,-0.1658 -0.106,-0.2387 -1.935,-1.1594 -2.303,-1.1594 -0.171,0 -0.31,-0.0995 -0.31,-0.2205 0,-0.1216 -0.149,-0.2211 -0.332,-0.2211 -0.182,0 -0.331,-0.116 -0.331,-0.2575 0,-0.142 -0.062,-0.1962 -0.138,-0.1205 -0.128,0.1288 -2.273,-0.8449 -2.512,-1.1417 -0.061,-0.0752 -0.26,-0.1658 -0.442,-0.2012 -0.542,-0.105 -2.209,-1.024 -2.209,-1.218 0,-0.0983 -0.105,-0.1133 -0.235,-0.0331 -0.13,0.0801 -0.386,-0.0387 -0.568,-0.2631 -0.184,-0.2249 -0.257,-0.2597 -0.165,-0.0774 0.187,0.3653 -0.507,-0.0851 -0.85,-0.552 -0.09,-0.1216 -0.164,-0.1459 -0.166,-0.0542 -0.002,0.0912 -0.475,-0.0752 -1.052,-0.3697 -2.191,-1.1191 -4.377,-2.1155 -4.64,-2.1155 -0.151,0 -0.274,-0.0995 -0.274,-0.221 0,-0.1216 -0.199,-0.2211 -0.442,-0.2211 -0.243,0 -0.442,-0.0989 -0.442,-0.2205 0,-0.1216 -0.129,-0.2211 -0.287,-0.2211 -0.406,0 -1.476,-0.5194 -1.478,-0.7178 -0.001,-0.0907 -0.201,-0.1653 -0.444,-0.1653 -0.242,0 -0.441,-0.0994 -0.441,-0.221 0,-0.1216 -0.199,-0.2205 -0.442,-0.2205 -0.243,0 -0.442,-0.0995 -0.442,-0.2211 0,-0.1216 -0.199,-0.221 -0.441,-0.221 -0.243,0 -0.442,-0.099 -0.442,-0.2205 0,-0.1216 -0.199,-0.2211 -0.442,-0.2211 -0.243,0 -0.442,-0.0995 -0.442,-0.2205 0,-0.1216 -0.199,-0.221 -0.441,-0.221 -0.243,0 -0.442,-0.0995 -0.442,-0.2211 0,-0.121 -0.348,-0.2205 -0.773,-0.2205 -0.425,0 -0.773,0.0995 -0.773,0.2205 z"
       fill="#acccfc"
       id="path2245" />
    <path
       fill-rule="evenodd"
       clip-rule="evenodd"
       d="m 62.166,127.953 c 0,32.903 -0.0414,31.563 0.9777,31.563 0.1913,0 0.3471,0.099 0.3471,0.221 0,0.121 0.199,0.221 0.4416,0.221 0.2432,0 0.4422,0.099 0.4422,0.22 0,0.122 0.1984,0.221 0.4416,0.221 0.2426,0 0.4416,0.1 0.4416,0.221 0,0.122 0.1454,0.221 0.3228,0.221 0.3764,0 3.949,1.798 4.0573,2.043 0.0409,0.091 0.2001,0.165 0.3537,0.165 0.1543,0 0.7174,0.23 1.2519,0.51 0.5339,0.28 1.3193,0.646 1.7443,0.814 0.425,0.168 1.1458,0.537 1.6012,0.819 0.4554,0.282 0.8285,0.442 0.8285,0.356 0,-0.087 0.1188,-0.038 0.2647,0.108 0.1459,0.145 0.4438,0.264 0.6627,0.264 0.2189,0 0.3974,0.1 0.3974,0.221 0,0.121 0.199,0.221 0.4422,0.221 0.2426,0 0.4416,0.099 0.4416,0.221 0,0.121 0.1984,0.22 0.4416,0.22 0.2426,0 0.4416,0.1 0.4416,0.221 0,0.122 0.1989,0.221 0.4416,0.221 0.2432,0 0.4421,0.106 0.4421,0.236 0,0.129 0.2504,0.204 0.5566,0.166 l 0.5566,-0.07 -0.0028,-30.586 c -0.0028,-28.919 -0.0243,-30.601 -0.3913,-30.877 -0.2134,-0.16 -1.8786,-1.031 -3.7009,-1.934 -1.8222,-0.903 -3.5616,-1.783 -3.865,-1.957 -0.304,-0.173 -0.8755,-0.445 -1.2701,-0.605 -0.3946,-0.159 -0.7174,-0.364 -0.7174,-0.455 0,-0.093 -0.199,-0.167 -0.4421,-0.167 -0.2427,0 -0.4416,-0.1 -0.4416,-0.221 0,-0.122 -0.199,-0.221 -0.4417,-0.221 -0.2431,0 -0.4416,-0.099 -0.4416,-0.221 0,-0.122 -0.1989,-0.221 -0.4421,-0.221 -0.2427,0 -0.4416,-0.081 -0.4416,-0.1797 0,-0.0989 -0.3477,-0.3161 -0.7727,-0.483 -0.4256,-0.1663 -0.7732,-0.384 -0.7732,-0.4824 0,-0.0989 -0.1404,-0.1796 -0.3123,-0.1796 -0.1719,0 -1.0628,-0.3979 -1.9803,-0.8837 -0.9169,-0.4857 -1.7206,-0.8831 -1.7852,-0.8831 -0.0652,0 -0.1183,13.9195 -0.1183,30.9325 z M 187.392,97.225 c 0,0.1304 -0.248,0.2371 -0.552,0.2371 -0.303,0 -0.552,0.0994 -0.552,0.221 0,0.121 -0.199,0.2205 -0.442,0.2205 -0.243,0 -0.441,0.0752 -0.441,0.1669 0,0.0917 -0.323,0.3062 -0.718,0.4764 -0.395,0.1702 -0.982,0.4924 -1.304,0.7168 -0.323,0.2238 -0.7,0.4067 -0.838,0.4067 -0.138,0 -0.464,0.1989 -0.725,0.4416 -0.261,0.243 -0.654,0.442 -0.874,0.442 -0.22,0 -0.4,0.099 -0.4,0.221 0,0.121 -0.134,0.221 -0.298,0.221 -0.387,0 -1.684,0.63 -2.225,1.081 -0.233,0.195 -0.352,0.229 -0.263,0.077 0.231,-0.394 0.058,-0.341 -0.522,0.162 -0.277,0.24 -0.59,0.383 -0.696,0.318 -0.106,-0.066 -0.193,-0.033 -0.193,0.073 0,0.105 -0.72,0.533 -1.601,0.951 -0.88,0.418 -1.651,0.821 -1.711,0.895 -0.061,0.074 -0.483,0.267 -0.939,0.43 -0.455,0.163 -0.828,0.376 -0.828,0.473 0,0.097 -0.18,0.177 -0.401,0.177 -0.22,0 -0.617,0.203 -0.883,0.451 l -0.484,0.451 0.055,30.521 0.056,30.521 0.497,0.07 c 0.274,0.039 0.497,-0.036 0.497,-0.166 0,-0.129 0.14,-0.236 0.311,-0.236 0.17,0 0.692,-0.191 1.159,-0.424 0.467,-0.234 1.172,-0.557 1.567,-0.717 0.395,-0.161 0.718,-0.377 0.718,-0.482 0,-0.105 0.141,-0.136 0.315,-0.07 0.173,0.067 0.434,-0.022 0.579,-0.197 0.146,-0.175 0.401,-0.318 0.568,-0.318 0.168,0 0.304,-0.116 0.304,-0.258 0,-0.141 0.056,-0.202 0.125,-0.133 0.068,0.068 0.888,-0.248 1.822,-0.703 0.933,-0.454 2.592,-1.258 3.685,-1.787 1.094,-0.53 2.022,-1.042 2.062,-1.139 0.04,-0.096 0.264,-0.176 0.497,-0.176 0.232,0 0.423,-0.077 0.423,-0.172 0,-0.095 0.447,-0.305 0.994,-0.466 0.547,-0.162 0.994,-0.364 0.994,-0.449 0,-0.086 0.348,-0.292 0.773,-0.459 l 0.774,-0.304 -0.056,-30.927 c -0.053,-29.2535 -0.076,-30.9313 -0.442,-31.0015 -0.213,-0.0409 -0.387,0.0321 -0.387,0.1625 z m -28.008,34.385 c -0.524,0.27 -1.191,0.647 -1.483,0.838 -0.291,0.191 -0.682,0.347 -0.869,0.347 -0.186,0 -0.339,0.1 -0.339,0.221 0,0.121 -0.124,0.221 -0.276,0.22 -0.27,0 -2.156,0.882 -2.374,1.111 -0.061,0.064 -0.906,0.519 -1.877,1.012 -2.095,1.062 -2.434,1.236 -3.338,1.705 -0.377,0.197 -0.75,0.293 -0.828,0.216 -0.077,-0.078 -0.141,-0.037 -0.141,0.09 0,0.229 -2.33,1.478 -2.51,1.346 -0.052,-0.038 -0.303,0.121 -0.559,0.352 -0.255,0.231 -0.468,0.331 -0.472,0.221 -0.004,-0.11 -0.157,-10e-4 -0.341,0.242 -0.183,0.242 -0.362,0.392 -0.397,0.331 -0.086,-0.148 -2.414,0.929 -2.62,1.212 -0.089,0.123 -0.163,0.142 -0.165,0.043 -0.002,-0.1 -0.292,0.025 -0.645,0.276 -0.353,0.251 -0.775,0.459 -0.939,0.462 -0.163,0.002 -0.546,0.199 -0.849,0.436 -0.304,0.238 -0.677,0.434 -0.829,0.437 -0.151,0.003 -0.275,0.104 -0.275,0.226 0,0.121 -0.157,0.22 -0.347,0.22 -0.191,0 -0.497,0.151 -0.681,0.334 -0.183,0.183 -0.425,0.276 -0.536,0.207 -0.112,-0.069 -0.203,-0.02 -0.203,0.109 0,0.128 -0.13,0.234 -0.288,0.234 -0.406,0 -1.475,0.519 -1.478,0.717 0,0.092 -0.2,0.166 -0.443,0.166 -0.243,0 -0.443,0.075 -0.443,0.166 -0.002,0.198 -1.072,0.717 -1.478,0.717 -0.158,0 -0.287,0.088 -0.287,0.195 0,0.21 -1.331,0.827 -1.602,0.741 -0.091,-0.028 -0.165,0.047 -0.165,0.168 0,0.122 -0.205,0.221 -0.455,0.221 -0.25,0 -0.393,0.1 -0.318,0.222 0.075,0.121 -0.069,0.22 -0.318,0.22 -0.251,0 -0.455,0.1 -0.455,0.221 0,0.122 -0.132,0.221 -0.294,0.221 -0.162,0 -0.764,0.238 -1.337,0.528 -0.987,0.499 -1.762,0.541 -2.03,0.108 -0.066,-0.107 -0.313,-0.194 -0.549,-0.194 -0.236,0 -0.429,-0.084 -0.429,-0.186 0,-0.102 -0.394,-0.316 -0.876,-0.475 -0.482,-0.159 -0.823,-0.373 -0.76,-0.477 0.065,-0.103 -0.088,-0.188 -0.338,-0.188 -0.25,0 -0.455,-0.099 -0.455,-0.221 0,-0.121 -0.074,-0.196 -0.165,-0.168 -0.271,0.086 -1.602,-0.531 -1.602,-0.741 0,-0.107 -0.074,-0.172 -0.165,-0.145 -0.248,0.073 -1.602,-0.574 -1.602,-0.766 0,-0.092 -0.198,-0.167 -0.441,-0.167 -0.243,0 -0.442,-0.087 -0.442,-0.193 0,-0.106 -0.286,-0.251 -0.636,-0.32 -0.35,-0.07 -0.785,-0.277 -0.967,-0.459 -0.183,-0.183 -0.378,-0.286 -0.435,-0.229 -0.055,0.056 -0.469,-0.148 -0.919,-0.453 -0.45,-0.304 -0.876,-0.554 -0.947,-0.554 -0.072,0 -1.707,-0.796 -3.635,-1.768 -1.927,-0.973 -3.507,-1.693 -3.51,-1.601 -0.004,0.092 -0.106,-0.003 -0.227,-0.211 -0.122,-0.207 -0.566,-0.442 -0.988,-0.521 -0.421,-0.079 -0.767,-0.214 -0.767,-0.299 0,-0.085 -0.347,-0.292 -0.772,-0.458 -0.425,-0.167 -0.774,-0.384 -0.774,-0.483 0,-0.099 -0.139,-0.18 -0.31,-0.18 -0.368,0 -2.1972,-0.921 -2.3028,-1.159 -0.0409,-0.092 -0.2051,-0.166 -0.3659,-0.166 -0.3543,0 -2.1815,-0.928 -2.2848,-1.159 -0.0404,-0.091 -0.188,-0.166 -0.3272,-0.166 -0.4217,0 -3.0222,-1.361 -3.0222,-1.581 0,-0.113 -0.1243,-0.183 -0.2763,-0.157 -0.3891,0.067 -1.4907,-0.497 -1.4907,-0.764 0,-0.122 -0.0624,-0.159 -0.1387,-0.083 -0.0757,0.076 -0.4189,-0.007 -0.7616,-0.184 -1.6376,-0.847 -1.5293,-1.559 -1.5293,10.012 0,10.765 0.0088,10.865 0.928,10.865 0.2183,0 0.3973,0.081 0.3973,0.18 0,0.099 0.3477,0.316 0.7733,0.483 0.425,0.167 0.7726,0.36 0.7726,0.429 0,0.069 0.3234,0.259 0.718,0.423 0.3946,0.163 1.0656,0.441 1.4906,0.616 0.425,0.176 0.9457,0.414 1.1568,0.53 0.2106,0.116 0.5339,0.21 0.7174,0.21 0.1841,0 0.3344,0.1 0.3344,0.221 0,0.121 0.1293,0.221 0.2874,0.221 0.1575,0 0.4112,0.124 0.5632,0.276 0.1514,0.152 0.3454,0.284 0.4306,0.294 0.5654,0.066 1.369,0.394 1.369,0.558 0,0.108 0.199,0.197 0.4421,0.197 0.2427,0 0.4417,0.099 0.4417,0.221 0,0.121 0.1984,0.221 0.4411,0.221 0.244,0 0.442,0.08 0.442,0.179 0,0.099 0.348,0.316 0.773,0.483 0.425,0.167 0.773,0.384 0.773,0.483 0,0.099 0.153,0.179 0.339,0.179 0.187,0 1.09,0.398 2.007,0.884 0.917,0.486 1.814,0.883 1.993,0.883 0.179,0 0.264,0.099 0.189,0.221 -0.076,0.122 0.068,0.221 0.318,0.221 0.25,0 0.455,0.116 0.455,0.258 0,0.141 0.064,0.193 0.142,0.114 0.122,-0.12 1.42,0.501 3.281,1.571 0.395,0.227 2.038,0.955 2.319,1.026 0.383,0.099 1.927,0.927 2.171,1.165 0.162,0.158 0.386,0.23 0.497,0.161 0.112,-0.069 0.203,-0.02 0.203,0.109 0,0.128 0.199,0.233 0.442,0.233 0.243,0 0.442,0.1 0.442,0.221 0,0.121 0.129,0.221 0.287,0.221 0.406,0 1.476,0.519 1.478,0.718 0.001,0.091 0.206,0.165 0.456,0.165 0.251,0 0.394,0.099 0.319,0.221 -0.078,0.125 0.108,0.221 0.428,0.221 0.311,0 0.565,0.1 0.565,0.221 0,0.121 0.199,0.221 0.442,0.221 0.243,0 0.442,0.099 0.442,0.221 0,0.121 0.193,0.22 0.428,0.22 0.236,0 0.491,0.1 0.566,0.221 0.075,0.122 0.329,0.221 0.565,0.221 0.236,0 0.429,0.074 0.43,0.165 0.007,0.697 2.292,0.902 3.09,0.277 0.304,-0.238 0.657,-0.435 0.785,-0.437 0.371,-0.008 1.421,-0.541 1.422,-0.723 0.001,-0.091 0.201,-0.165 0.444,-0.165 0.243,0 0.442,-0.1 0.442,-0.221 0,-0.121 0.254,-0.221 0.565,-0.221 0.32,0 0.506,-0.096 0.428,-0.221 -0.075,-0.122 0.068,-0.221 0.319,-0.221 0.25,0 0.455,-0.099 0.455,-0.221 0,-0.121 0.19,-0.221 0.423,-0.221 0.233,0 0.456,-0.078 0.497,-0.173 0.081,-0.192 2.218,-1.243 3,-1.475 0.273,-0.081 0.497,-0.241 0.497,-0.354 0,-0.113 0.124,-0.204 0.276,-0.203 0.337,0.005 3.332,-1.424 5.365,-2.559 0.51,-0.285 0.991,-0.456 1.066,-0.38 0.077,0.077 0.139,0.023 0.139,-0.118 0,-0.142 0.199,-0.258 0.442,-0.258 0.243,0 0.442,-0.099 0.442,-0.221 0,-0.122 0.198,-0.221 0.441,-0.221 0.243,0 0.443,-0.075 0.444,-0.165 0.002,-0.194 1.068,-0.718 1.459,-0.718 0.148,0 0.302,-0.075 0.342,-0.167 0.041,-0.091 0.77,-0.513 1.62,-0.937 0.85,-0.424 1.579,-0.846 1.62,-0.938 0.041,-0.091 0.264,-0.166 0.497,-0.166 0.233,0 0.423,-0.1 0.423,-0.221 0,-0.122 0.199,-0.221 0.442,-0.221 0.243,0 0.442,-0.099 0.442,-0.221 0,-0.122 0.153,-0.221 0.34,-0.221 0.187,0 0.733,-0.201 1.215,-0.446 0.48,-0.245 0.876,-0.37 0.877,-0.276 0.002,0.094 0.077,0.06 0.166,-0.074 0.142,-0.214 2.077,-1.167 2.383,-1.173 0.063,-0.001 0.272,-0.16 0.464,-0.353 0.193,-0.192 0.636,-0.407 0.986,-0.477 0.35,-0.07 0.636,-0.214 0.636,-0.32 0,-0.106 0.199,-0.194 0.442,-0.194 0.243,0 0.441,-0.099 0.441,-0.22 0,-0.122 0.15,-0.221 0.332,-0.221 0.182,0 0.331,-0.1 0.331,-0.221 0,-0.121 0.157,-0.221 0.347,-0.221 0.982,0 0.986,-0.042 0.925,-11.062 -0.064,-11.657 0.064,-10.893 -1.673,-9.998 z"
       fill="#649cf4"
       id="path2247" />
    <path
       fill-rule="evenodd"
       clip-rule="evenodd"
       d="m 122.82,29.7809 c -0.834,0.4228 -1.655,0.7687 -1.822,0.7687 -0.168,0 -0.305,0.0995 -0.305,0.2211 0,0.121 -0.199,0.2205 -0.441,0.2205 -0.243,0 -0.442,0.0879 -0.442,0.1951 0,0.1072 -0.224,0.268 -0.497,0.357 -0.273,0.089 -0.547,0.179 -0.608,0.2006 -0.06,0.0215 -0.42,0.2045 -0.799,0.4073 -0.38,0.2028 -0.753,0.3061 -0.829,0.2299 -0.076,-0.0763 -0.138,-0.0227 -0.138,0.1193 0,0.1415 -0.199,0.2576 -0.442,0.2576 -0.243,0 -0.442,0.0807 -0.442,0.1796 0,0.0989 -0.348,0.3161 -0.773,0.483 -0.425,0.1669 -0.773,0.3841 -0.773,0.483 0,0.0984 -0.15,0.1796 -0.334,0.1796 -0.361,0 -1.24,0.441 -1.453,0.7284 -0.071,0.0972 -0.342,0.1928 -0.601,0.2122 -0.259,0.0199 -0.523,0.1702 -0.586,0.3343 -0.063,0.1642 -0.215,0.2371 -0.337,0.1614 -0.123,-0.0757 -0.223,-0.0321 -0.223,0.0961 0,0.1288 -0.198,0.2338 -0.441,0.2338 -0.243,0 -0.442,0.0995 -0.442,0.2211 0,0.1215 -0.174,0.2232 -0.386,0.226 -0.213,0.0022 -0.635,0.1989 -0.939,0.4366 -0.304,0.2376 -0.726,0.4338 -0.939,0.4366 -0.213,0.0027 -0.386,0.0922 -0.386,0.1989 0,0.1619 -1.182,0.7753 -1.546,0.803 -0.061,0.0044 -0.383,0.1906 -0.716,0.4134 -0.334,0.2227 -0.761,0.3454 -0.95,0.273 -0.198,-0.0763 -0.287,-0.0398 -0.21,0.0856 0.125,0.2017 -0.183,0.3172 -0.632,0.2371 -0.103,-0.0188 -0.369,0.1752 -0.59,0.4299 -0.221,0.2554 -0.464,0.4471 -0.539,0.4267 -0.266,-0.073 -1.443,0.5067 -1.443,0.7107 0,0.1138 -0.085,0.1547 -0.188,0.0906 -0.104,-0.0641 -0.377,0.0265 -0.608,0.2006 -0.2302,0.1746 -0.5928,0.3205 -0.805,0.3244 -0.2128,0.0039 -0.3869,0.1061 -0.3869,0.2277 0,0.1216 -0.1487,0.221 -0.331,0.221 -0.1824,0 -0.3311,0.099 -0.3311,0.2205 0,0.1216 -0.1492,0.2211 -0.3316,0.2211 -0.1824,0 -0.3328,0.1243 -0.3344,0.2758 -0.0028,0.2166 -0.0409,0.2177 -0.1758,0.0049 -0.1265,-0.1989 -0.2559,-0.1553 -0.4869,0.1658 -0.1785,0.2476 -0.5704,0.4366 -0.9053,0.4366 -0.3245,0 -0.6472,0.1492 -0.7174,0.3316 -0.0697,0.1818 -0.2543,0.3343 -0.4101,0.3388 -0.4847,0.0127 -1.9549,0.7869 -1.7957,0.9455 0.0829,0.0829 -0.0647,0.1509 -0.3278,0.1509 -0.2631,0 -0.4786,0.0995 -0.4786,0.221 0,0.1211 -0.2543,0.2205 -0.5649,0.2205 -0.3205,0 -0.5063,0.0956 -0.4289,0.2211 0.0774,0.1249 -0.1083,0.2205 -0.4283,0.2205 -0.3112,0 -0.5654,0.0995 -0.5654,0.221 0,0.1216 -0.199,0.2211 -0.4416,0.2211 -0.2432,0 -0.4416,0.0989 -0.4416,0.2205 0,0.1216 -0.199,0.2211 -0.4422,0.2211 -0.2426,0 -0.4416,0.0994 -0.4416,0.2205 0,0.1215 -0.1918,0.221 -0.4261,0.221 -0.2338,0 -0.5748,0.1492 -0.7572,0.331 -0.1819,0.1824 -0.5864,0.3316 -0.8993,0.3316 -0.3122,0 -0.5676,0.0995 -0.5676,0.2205 0,0.1216 -0.1304,0.2211 -0.2896,0.2211 -0.1592,0 -0.5029,0.1989 -0.7638,0.4415 -0.2609,0.2432 -0.6815,0.4416 -0.9341,0.4416 -0.2531,0 -0.6737,0.1989 -0.9346,0.4421 -0.2609,0.2426 -0.6544,0.4415 -0.8744,0.4415 -0.2199,0 -0.3996,0.0995 -0.3996,0.2205 0,0.1216 -0.1989,0.2211 -0.4421,0.2211 -0.2427,0 -0.4416,0.0995 -0.4416,0.2211 0,0.121 -0.199,0.2205 -0.4416,0.2205 -0.2432,0 -0.4416,0.0994 -0.4416,0.221 0,0.1216 -0.199,0.2205 -0.4416,0.2205 -0.2432,0 -0.4422,0.0995 -0.4422,0.2211 0,0.1215 -0.1984,0.221 -0.4416,0.221 -0.2426,0 -0.4416,0.0989 -0.4416,0.2205 0,0.1216 -0.199,0.2211 -0.4416,0.2211 -0.2432,0 -0.4416,0.0995 -0.4416,0.2205 0,0.1216 -0.199,0.221 -0.4422,0.221 -0.2426,0 -0.4421,0.0746 -0.4432,0.1658 -0.0022,0.1984 -1.0717,0.7173 -1.478,0.7173 -0.158,0 -0.2874,0.0995 -0.2874,0.2211 0,0.1216 -0.1486,0.2211 -0.331,0.2211 -0.1824,0 -0.3322,0.0746 -0.3333,0.1652 -0.0017,0.1984 -1.0711,0.7179 -1.4779,0.7179 -0.1575,0 -0.2869,0.0994 -0.2869,0.221 0,0.121 -0.1989,0.2205 -0.4416,0.2205 -0.2432,0 -0.4421,0.0995 -0.4421,0.2211 0,0.1216 -0.1984,0.2205 -0.4416,0.2205 -0.2427,0 -0.4416,0.0995 -0.4416,0.221 0,0.1216 -0.1929,0.2211 -0.4289,0.2211 -0.2355,0 -0.4908,0.1006 -0.5671,0.2244 -0.0763,0.1232 -0.2316,0.1668 -0.3443,0.0972 -0.1133,-0.0696 -0.2056,-0.0215 -0.2056,0.1067 0,0.1287 -0.0918,0.2337 -0.204,0.2337 -0.4968,0 -2.4462,1.0224 -2.4462,1.2833 0,0.1586 -0.0934,0.2315 -0.2067,0.1613 -0.1791,-0.1105 -2.1379,0.6787 -2.4441,0.9848 -0.2636,0.2636 -1.1258,0.6626 -1.4325,0.6626 -0.1835,0 -0.3344,0.0995 -0.3344,0.2205 0,0.1216 -0.1984,0.2211 -0.4416,0.2211 -0.2427,0 -0.4422,0.0746 -0.4433,0.1658 -0.0022,0.1984 -1.0717,0.7173 -1.4779,0.7173 -0.1581,0 -0.2874,0.0995 -0.2874,0.2211 0,0.1215 -0.2045,0.221 -0.4549,0.221 -0.2498,0 -0.3929,0.0995 -0.3178,0.2205 0.0752,0.1216 -0.0685,0.2211 -0.3183,0.2211 -0.2504,0 -0.4555,0.0746 -0.4566,0.1658 -0.0022,0.1978 -1.0716,0.7173 -1.4779,0.7173 -0.158,0 -0.2874,0.0994 -0.2874,0.221 0,0.1216 -0.1901,0.2205 -0.4233,0.2205 -0.2327,0 -0.456,0.0989 -0.4969,0.2194 -0.0404,0.1205 -0.3394,0.2404 -0.6649,0.2675 -0.3256,0.0271 -0.5433,0.1271 -0.4842,0.2227 0.0592,0.0956 -0.0232,0.1741 -0.1829,0.1741 -0.1597,0 -1.7764,0.7455 -3.5931,1.6562 -1.8162,0.9108 -3.435,1.6563 -3.5964,1.6563 -0.1619,0 -0.5079,0.1989 -0.7683,0.4415 -0.4128,0.3847 -0.6135,0.4598 -1.1684,0.4372 -0.1066,-0.0045 -0.3913,0.2105 -1.0545,0.7952 -0.1487,0.131 -0.3935,0.1973 -0.5444,0.147 -0.1509,-0.0503 -0.2742,0.0166 -0.2742,0.1481 0,0.1315 -0.2028,0.2393 -0.451,0.2393 -0.2476,0 -0.6643,0.199 -0.9246,0.4416 -0.2609,0.2431 -0.6047,0.4415 -0.7638,0.4415 -0.1598,0 -0.2897,0.0995 -0.2897,0.2211 0,0.1216 -0.2487,0.221 -0.5521,0.221 -0.304,0 -0.5521,0.099 -0.5521,0.2205 0,0.1216 -0.1493,0.2211 -0.3317,0.2211 -0.1818,0 -0.331,0.0995 -0.331,0.2205 0,0.1216 -0.2487,0.221 -0.5522,0.221 -0.304,0 -0.5532,0.0746 -0.5538,0.1658 -0.0022,0.1736 -1.0507,0.7174 -1.3834,0.7174 -0.2233,0 -0.8235,0.5636 -0.8235,0.7731 0,0.2719 0.6334,0.7731 0.9777,0.7731 0.1913,0 0.3471,0.0989 0.3471,0.2205 0,0.1216 0.199,0.2211 0.4422,0.2211 0.2426,0 0.4416,0.0995 0.4416,0.2205 0,0.1216 0.2481,0.221 0.5521,0.221 0.3035,0 0.5522,0.0995 0.5522,0.2211 0,0.121 0.2233,0.2221 0.4968,0.2238 0.4019,0.0028 0.4334,0.0442 0.1659,0.2177 -0.2582,0.1669 -0.1974,0.2145 0.2757,0.2172 0.3344,0.0022 0.6075,0.1028 0.6075,0.2244 0,0.1216 0.1989,0.2211 0.4416,0.2211 0.2432,0 0.4416,0.0989 0.4416,0.2205 0,0.1215 0.1492,0.221 0.3316,0.221 0.1824,0 0.3311,0.0995 0.3311,0.2205 0,0.1216 0.1989,0.2211 0.4416,0.2211 0.2432,0 0.4421,0.0994 0.4421,0.221 0,0.121 0.1294,0.2205 0.2869,0.2205 0.4068,0 1.4762,0.5195 1.4779,0.7179 0.0011,0.0912 0.2006,0.1658 0.4438,0.1658 0.2426,0 0.4416,0.0989 0.4416,0.2205 0,0.1216 0.1907,0.221 0.4234,0.221 0.2327,0 0.4565,0.0746 0.4968,0.1653 0.0404,0.0912 0.5704,0.4001 1.1778,0.6869 0.6075,0.2868 1.3033,0.6278 1.5459,0.7582 1.505,0.8085 2.7873,1.3507 3.0531,1.2904 0.1006,-0.0226 0.1288,0.0459 0.063,0.152 -0.1221,0.1973 0.3051,0.4482 1.5774,0.9268 0.3947,0.1481 0.7174,0.357 0.7174,0.4636 0,0.1067 0.199,0.194 0.4422,0.194 0.2426,0 0.4416,0.0995 0.4416,0.2211 0,0.1215 0.1492,0.221 0.3311,0.221 0.1824,0 0.3316,-0.0995 0.3316,-0.221 0,-0.1216 0.1984,-0.2211 0.4416,-0.2211 0.2426,0 0.4416,-0.0989 0.4416,-0.2205 0,-0.1216 0.199,-0.2211 0.4416,-0.2211 0.2432,0 0.4416,-0.0994 0.4416,-0.2205 0,-0.1215 0.1741,-0.2227 0.3869,-0.2249 0.2122,-0.0022 0.9208,-0.2984 1.5735,-0.6587 0.6533,-0.3598 1.2674,-0.6046 1.3652,-0.5444 0.0978,0.0603 0.2338,0.0194 0.3023,-0.0917 0.1769,-0.2863 1.8438,-1.1307 2.2318,-1.1307 0.1785,0 0.3244,-0.0834 0.3244,-0.1851 0,-0.1023 0.398,-0.3167 0.8838,-0.477 0.4858,-0.1608 0.8832,-0.3536 0.8832,-0.4288 0,-0.0752 0.2736,-0.2548 0.6074,-0.3984 0.3339,-0.1437 0.7567,-0.3532 0.9385,-0.4659 0.1824,-0.1128 0.8285,-0.4383 1.4359,-0.7229 0.6074,-0.2846 1.1541,-0.5686 1.2143,-0.6311 0.0608,-0.0624 0.2261,-0.1354 0.3675,-0.1624 0.141,-0.0266 0.6191,-0.2946 1.0623,-0.5952 0.4427,-0.3007 0.9485,-0.4919 1.1237,-0.4245 0.1746,0.0669 0.3178,0.0122 0.3178,-0.1226 0,-0.1343 0.205,-0.2443 0.4548,-0.2443 0.2504,0 0.3936,-0.0995 0.3184,-0.2205 -0.1188,-0.1923 0.3288,-0.3261 0.8279,-0.247 0.0912,0.0143 0.1658,-0.0735 0.1658,-0.1951 0,-0.121 0.199,-0.2205 0.4416,-0.2205 0.2432,0 0.4422,-0.0873 0.4422,-0.194 0,-0.1072 0.3228,-0.3183 0.7174,-0.4697 1.5918,-0.6113 1.9328,-0.7765 1.9328,-0.9362 0,-0.0917 0.1547,-0.1669 0.3443,-0.1669 0.204,0 0.2802,-0.1039 0.1868,-0.2548 -0.1006,-0.1624 -0.0602,-0.195 0.1106,-0.0895 0.2962,0.1835 1.6155,-0.2813 1.4696,-0.5178 -0.0509,-0.0818 0.1741,-0.1702 0.4996,-0.1973 0.325,-0.0265 0.6246,-0.147 0.6649,-0.2675 0.0404,-0.1204 0.2642,-0.2188 0.4969,-0.2188 0.2327,0 0.4234,-0.1492 0.4234,-0.3316 0,-0.1818 0.0746,-0.3128 0.1658,-0.2901 0.2481,0.0613 1.8974,-0.6892 2.0477,-0.9318 0.0713,-0.116 0.398,-0.2332 0.7252,-0.2603 0.3272,-0.027 0.5952,-0.1271 0.5952,-0.2221 0,-0.0951 0.215,-0.1724 0.4787,-0.1724 0.263,0 0.4101,-0.068 0.3271,-0.1515 -0.1553,-0.1553 1.7339,-1.1378 2.2307,-1.161 0.152,-0.0072 0.2764,-0.1122 0.2764,-0.2338 0,-0.121 0.2045,-0.2205 0.4549,-0.2205 0.2498,0 0.3929,-0.0995 0.3178,-0.2211 -0.0774,-0.1249 0.1083,-0.2205 0.4288,-0.2205 0.3107,0 0.5655,-0.0994 0.5655,-0.221 0,-0.1216 0.1901,-0.2211 0.4228,-0.2211 0.2332,0 0.4565,-0.074 0.4974,-0.1652 0.1056,-0.2388 1.935,-1.1594 2.3031,-1.1594 0.1702,0 0.3101,-0.0995 0.3101,-0.2211 0,-0.121 0.1989,-0.2205 0.4416,-0.2205 0.2431,0 0.4421,-0.0928 0.4421,-0.2067 0,-0.1138 0.3477,-0.3321 0.7727,-0.4863 0.425,-0.1536 0.7732,-0.3647 0.7732,-0.4686 0,-0.1045 0.0873,-0.1354 0.194,-0.0697 0.2355,0.1454 1.573,-0.4935 1.573,-0.7521 0,-0.1011 0.1984,-0.1315 0.4416,-0.068 0.3117,0.0813 0.4416,0.0067 0.4416,-0.2547 0,-0.2034 0.0768,-0.3228 0.1708,-0.2648 0.0939,0.0581 0.7621,-0.1845 1.485,-0.5388 0.723,-0.3548 1.442,-0.6449 1.596,-0.6449 0.155,0 0.282,-0.0989 0.282,-0.2205 0,-0.1216 0.199,-0.2211 0.442,-0.2211 0.242,0 0.441,-0.0994 0.441,-0.2205 0,-0.1215 0.199,-0.221 0.442,-0.221 0.243,0 0.442,-0.0995 0.442,-0.2211 0,-0.121 0.149,-0.2205 0.331,-0.2205 0.182,0 0.331,-0.0994 0.331,-0.221 0,-0.121 0.199,-0.2205 0.442,-0.2205 0.243,0 0.442,-0.0995 0.442,-0.2211 0,-0.1216 0.198,-0.221 0.442,-0.221 0.242,0 0.441,-0.099 0.441,-0.2205 0,-0.1216 0.199,-0.2211 0.442,-0.2211 0.243,0 0.441,-0.0995 0.441,-0.2205 0,-0.1216 0.199,-0.221 0.443,-0.221 0.242,0 0.441,-0.0995 0.441,-0.2211 0,-0.121 0.156,-0.2205 0.347,-0.2205 0.191,0 0.497,-0.1503 0.681,-0.3332 0.183,-0.1835 0.424,-0.2769 0.536,-0.2078 0.111,0.069 0.203,0.0199 0.203,-0.1083 0,-0.1288 0.199,-0.2344 0.442,-0.2344 0.242,0 0.441,-0.0989 0.441,-0.2205 0,-0.1215 0.205,-0.221 0.455,-0.221 0.25,0 0.393,-0.0995 0.319,-0.2205 -0.078,-0.1255 0.107,-0.2211 0.428,-0.2211 0.311,0 0.565,-0.0994 0.565,-0.221 0,-0.1211 0.162,-0.2205 0.361,-0.2205 0.369,0 1.906,-0.855 2.024,-1.1269 0.036,-0.0828 0.26,-0.1005 0.497,-0.0386 0.237,0.0619 0.431,0.0022 0.431,-0.1338 0,-0.1359 0.199,-0.2464 0.442,-0.2464 0.243,0 0.441,-0.0995 0.441,-0.2211 0,-0.1216 0.109,-0.2211 0.243,-0.2211 0.133,0 0.507,-0.189 0.832,-0.42 0.324,-0.231 0.787,-0.4548 1.028,-0.4968 0.24,-0.042 0.574,-0.2056 0.74,-0.3636 0.166,-0.1575 0.589,-0.3443 0.939,-0.4139 0.349,-0.0702 0.636,-0.1957 0.636,-0.2791 0,-0.084 0.348,-0.2885 0.773,-0.4554 0.425,-0.1669 0.772,-0.3841 0.772,-0.483 0,-0.0989 0.199,-0.1796 0.443,-0.1796 0.242,0 0.441,-0.0995 0.441,-0.2211 0,-0.121 0.19,-0.2205 0.424,-0.2205 0.232,0 0.473,-0.1243 0.534,-0.2763 0.089,-0.2205 0.115,-0.2205 0.129,0 0.01,0.152 0.216,0.2763 0.459,0.2763 0.243,0 0.442,0.0995 0.442,0.2205 0,0.1216 0.247,0.2211 0.55,0.2211 0.311,0 0.67,0.1918 0.827,0.4416 0.151,0.2431 0.381,0.4415 0.512,0.4415 0.13,0 0.648,0.199 1.151,0.4421 0.503,0.2426 1.024,0.4416 1.159,0.4416 0.134,0 0.173,0.1144 0.086,0.2547 -0.087,0.1415 -0.061,0.1957 0.058,0.1216 0.119,-0.0729 0.493,0.0111 0.833,0.1868 0.339,0.1763 0.712,0.32 0.828,0.32 0.116,0 0.361,0.1503 0.545,0.3332 0.183,0.1835 0.425,0.2769 0.536,0.2078 0.112,-0.0691 0.203,-0.0199 0.203,0.1083 0,0.1288 0.149,0.2344 0.331,0.2344 0.183,0 0.332,0.1099 0.332,0.2448 0,0.1497 0.234,0.1962 0.607,0.1188 0.334,-0.0691 0.483,-0.0713 0.331,-0.0055 -0.378,0.1646 -0.351,0.6012 0.029,0.4553 0.167,-0.0641 0.43,0 0.584,0.1421 0.219,0.2022 0.246,0.1868 0.121,-0.0724 -0.088,-0.1824 0.037,-0.1078 0.279,0.1658 0.241,0.273 0.597,0.4968 0.79,0.4968 0.193,0 0.351,0.0994 0.351,0.2205 0,0.1216 0.199,0.221 0.441,0.221 0.243,0 0.442,0.0752 0.442,0.1669 0,0.0923 0.416,0.2968 0.924,0.4554 0.508,0.1586 1.194,0.4808 1.525,0.7162 0.33,0.2354 0.815,0.4283 1.077,0.4283 0.261,0 0.425,0.0823 0.362,0.1835 -0.062,0.1011 0.23,0.3183 0.65,0.483 0.42,0.1647 0.763,0.3907 0.763,0.5023 0,0.1117 0.135,0.152 0.299,0.0884 0.164,-0.063 0.557,0.1249 0.874,0.4184 0.316,0.2929 0.833,0.5327 1.149,0.5327 0.316,0 0.52,0.089 0.453,0.1973 -0.067,0.1083 0.119,0.2575 0.413,0.3316 0.295,0.0741 0.667,0.262 0.827,0.4178 0.16,0.1564 0.73,0.4134 1.265,0.5714 0.536,0.1581 1.116,0.4283 1.288,0.6013 0.172,0.1724 0.405,0.2575 0.517,0.1884 0.112,-0.069 0.203,-0.0326 0.203,0.0813 0,0.1144 0.298,0.331 0.663,0.4819 0.364,0.1508 0.662,0.3498 0.662,0.4426 0,0.0923 0.224,0.2216 0.497,0.2863 0.857,0.2039 2.039,0.6908 2.653,1.0931 0.324,0.2122 0.692,0.3863 0.818,0.3863 0.126,0 0.229,0.0995 0.229,0.2205 0,0.1216 0.193,0.2211 0.428,0.2211 0.236,0 0.49,0.0994 0.565,0.2204 0.076,0.1216 0.33,0.2211 0.566,0.2211 0.235,0 0.428,0.0995 0.428,0.2211 0,0.121 0.205,0.2205 0.455,0.2205 0.25,0 0.394,0.0994 0.318,0.221 -0.079,0.1288 0.145,0.2205 0.539,0.2205 0.372,0 0.676,0.0995 0.676,0.2211 0,0.1216 0.199,0.221 0.442,0.221 0.242,0 0.441,0.0995 0.441,0.2205 0,0.1216 0.199,0.2211 0.442,0.2211 0.243,0 0.442,0.0995 0.442,0.2205 0,0.1216 0.199,0.221 0.442,0.221 0.242,0 0.442,0.0746 0.443,0.1658 0.002,0.1984 1.072,0.7173 1.478,0.7173 0.158,0 0.287,0.0995 0.287,0.2211 0,0.1216 0.149,0.2211 0.331,0.2211 0.183,0 0.331,0.0994 0.331,0.2205 0,0.1215 0.117,0.221 0.259,0.221 0.399,0 3.275,1.4004 3.275,1.5944 0,0.095 0.199,0.1724 0.442,0.1724 0.243,0 0.442,0.0995 0.442,0.2205 0,0.1216 0.139,0.221 0.309,0.221 0.321,0 2.674,1.1799 3.164,1.5872 0.155,0.1288 0.282,0.152 0.282,0.052 0,-0.1001 0.118,-0.0625 0.264,0.0834 0.146,0.1459 0.444,0.2647 0.663,0.2647 0.219,0 0.397,0.0995 0.397,0.2211 0,0.1216 0.199,0.221 0.442,0.221 0.243,0 0.442,0.0989 0.442,0.2205 0,0.1216 0.199,0.2211 0.442,0.2211 0.242,0 0.441,0.0995 0.441,0.2205 0,0.1216 0.199,0.221 0.442,0.221 0.243,0 0.442,0.0995 0.442,0.2211 0,0.121 0.199,0.2205 0.442,0.2205 0.242,0 0.441,0.0995 0.441,0.221 0,0.1211 0.199,0.2205 0.442,0.2205 0.243,0 0.442,0.0995 0.442,0.2211 0,0.1216 0.19,0.2211 0.423,0.2211 0.233,0 0.457,0.0746 0.497,0.1663 0.041,0.0917 0.769,0.5134 1.62,0.9378 0.85,0.4239 1.579,0.8455 1.619,0.9373 0.041,0.0917 0.264,0.1669 0.497,0.1669 0.233,0 0.423,0.0989 0.423,0.2205 0,0.1216 0.199,0.221 0.442,0.221 0.243,0 0.442,0.0995 0.442,0.2205 0,0.1216 0.079,0.1962 0.176,0.1658 0.218,-0.0685 2.336,0.987 2.437,1.2147 0.041,0.0912 0.259,0.1658 0.485,0.1658 0.225,0 0.475,0.1061 0.556,0.2354 0.08,0.1299 0.289,0.1807 0.466,0.1133 0.176,-0.0679 0.266,-0.0353 0.2,0.0719 -0.146,0.2354 0.496,0.515 0.779,0.3398 0.111,-0.0685 0.202,0.0304 0.202,0.22 0,0.1895 0.074,0.3233 0.165,0.2973 0.091,-0.0254 0.392,0.0785 0.668,0.231 0.275,0.1531 0.614,0.2083 0.751,0.1232 0.154,-0.0945 0.19,-0.0558 0.093,0.1006 -0.099,0.1608 0.01,0.2548 0.297,0.2548 0.25,0 0.455,0.0995 0.455,0.221 0,0.1211 0.199,0.2205 0.442,0.2205 0.243,0 0.441,0.0752 0.441,0.1669 0,0.3294 1.419,0.6151 1.933,0.3885 0.273,-0.1199 0.497,-0.294 0.497,-0.3868 0,-0.0928 0.199,-0.1686 0.442,-0.1686 0.242,0 0.441,-0.0994 0.441,-0.2205 0,-0.1215 0.199,-0.221 0.442,-0.221 0.243,0 0.442,-0.1056 0.442,-0.2338 0,-0.1287 0.099,-0.1724 0.221,-0.0972 0.121,0.0746 0.221,0.0309 0.221,-0.0979 0,-0.1282 0.198,-0.2337 0.441,-0.2337 0.243,0 0.442,-0.0862 0.442,-0.1923 0,-0.1056 0.472,-0.3222 1.049,-0.4808 0.577,-0.1592 1.198,-0.446 1.381,-0.6378 0.181,-0.1917 0.629,-0.4852 0.993,-0.6521 0.365,-0.1669 1.024,-0.4891 1.466,-0.7162 0.442,-0.2266 0.963,-0.4123 1.159,-0.4123 0.196,0 0.357,-0.0928 0.357,-0.2066 0,-0.1139 0.348,-0.3322 0.773,-0.4858 0.425,-0.1542 0.773,-0.3592 0.773,-0.4565 0,-0.0967 0.149,-0.1763 0.331,-0.1763 0.182,0 0.331,-0.0995 0.331,-0.2205 0,-0.1216 0.205,-0.221 0.455,-0.221 0.25,0 0.394,-0.0995 0.318,-0.2211 -0.077,-0.1249 0.109,-0.2205 0.429,-0.2205 0.311,0 0.566,-0.0746 0.567,-0.1658 0.002,-0.1984 1.071,-0.7179 1.478,-0.7179 0.158,0 0.287,-0.0928 0.287,-0.2061 0,-0.1138 0.348,-0.3327 0.773,-0.4863 0.425,-0.1536 0.773,-0.3587 0.773,-0.4559 0,-0.0973 0.199,-0.1763 0.442,-0.1763 0.243,0 0.442,-0.0995 0.442,-0.2211 0,-0.1216 0.156,-0.2205 0.347,-0.2205 0.344,0 0.978,-0.5012 0.978,-0.7731 0,-0.2725 -0.634,-0.7731 -0.978,-0.7731 -0.191,0 -0.347,-0.0995 -0.347,-0.2206 0,-0.1215 -0.199,-0.221 -0.442,-0.221 -0.243,0 -0.442,-0.0995 -0.442,-0.2205 0,-0.1216 -0.149,-0.2211 -0.331,-0.2211 -0.182,0 -0.332,-0.0994 -0.332,-0.221 0,-0.121 -0.248,-0.2205 -0.552,-0.2205 -0.303,0 -0.552,-0.0813 -0.552,-0.1796 0,-0.0989 -0.348,-0.3161 -0.773,-0.483 -0.425,-0.1669 -0.773,-0.3841 -0.773,-0.483 0,-0.099 -0.198,-0.1796 -0.441,-0.1796 -0.244,0 -0.442,-0.0995 -0.442,-0.2205 0,-0.1216 -0.199,-0.2211 -0.442,-0.2211 -0.243,0 -0.442,-0.0995 -0.442,-0.221 0,-0.1211 -0.139,-0.2205 -0.31,-0.2205 -0.368,0 -2.197,-0.9213 -2.303,-1.1595 -0.041,-0.0912 -0.245,-0.1658 -0.455,-0.1658 -0.21,0 -0.583,-0.1873 -0.829,-0.4161 -0.245,-0.2288 -0.78,-0.4891 -1.188,-0.5786 -0.409,-0.0901 -0.869,-0.2752 -1.023,-0.4123 -0.791,-0.7013 -0.993,-0.8013 -1.619,-0.8013 -0.4,0 -0.731,-0.1359 -0.806,-0.331 -0.07,-0.1824 -0.315,-0.3316 -0.545,-0.3316 -0.23,0 -0.418,-0.0995 -0.418,-0.2205 0,-0.1216 -0.199,-0.2211 -0.442,-0.2211 -0.243,0 -0.442,-0.0994 -0.442,-0.221 0,-0.121 -0.199,-0.2205 -0.442,-0.2205 -0.243,0 -0.441,-0.0995 -0.441,-0.2211 0,-0.121 -0.13,-0.2205 -0.288,-0.2205 -0.406,0 -1.475,-0.5194 -1.478,-0.7178 -10e-4,-0.0912 -0.148,-0.1658 -0.327,-0.1658 -0.334,0 -2.707,-1.2048 -3.087,-1.5667 -0.115,-0.11 -0.444,-0.2001 -0.73,-0.2001 -0.291,0 -0.461,-0.0973 -0.385,-0.2205 0.075,-0.1216 -0.018,-0.2211 -0.208,-0.2211 -0.189,0 -0.344,-0.0994 -0.344,-0.2205 0,-0.1215 -0.261,-0.221 -0.581,-0.221 -0.321,0 -0.754,-0.199 -0.965,-0.4416 -0.211,-0.2431 -0.645,-0.4636 -0.964,-0.4902 -0.32,-0.0259 -0.582,-0.1072 -0.582,-0.1796 0,-0.1901 -1.751,-1.0969 -2.119,-1.0969 -0.171,0 -0.311,-0.0995 -0.311,-0.2211 0,-0.121 -0.15,-0.2205 -0.335,-0.2205 -0.185,0 -0.73,-0.2487 -1.21,-0.5521 -0.481,-0.3039 -1.026,-0.5521 -1.211,-0.5521 -0.184,0 -0.335,-0.0994 -0.335,-0.221 0,-0.1216 -0.13,-0.2205 -0.288,-0.2205 -0.406,0 -1.475,-0.5195 -1.478,-0.7179 -0.001,-0.0912 -0.141,-0.1658 -0.31,-0.1658 -0.17,0 -0.876,-0.2979 -1.569,-0.6626 -0.692,-0.3642 -1.358,-0.662 -1.478,-0.662 -0.12,0 -0.472,-0.199 -0.78,-0.4422 -0.309,-0.2426 -0.701,-0.4415 -0.873,-0.4415 -0.171,0 -0.524,-0.1984 -0.785,-0.4416 -0.261,-0.2426 -0.634,-0.4415 -0.83,-0.4415 -0.195,0 -0.45,-0.0862 -0.565,-0.1912 -0.381,-0.3465 -2.647,-1.5071 -3.479,-1.7817 -0.449,-0.1487 -0.817,-0.372 -0.817,-0.4968 0,-0.1255 -0.142,-0.173 -0.315,-0.1067 -0.173,0.0663 -0.434,-0.0221 -0.579,-0.1973 -0.145,-0.1746 -0.401,-0.3183 -0.569,-0.3183 -0.167,0 -0.304,-0.0785 -0.304,-0.1746 0,-0.0962 -0.452,-0.2963 -1.005,-0.4444 -0.693,-0.1851 -0.957,-0.3537 -0.848,-0.5427 0.086,-0.1503 0.079,-0.2033 -0.016,-0.1171 -0.095,0.0856 -0.554,-0.0387 -1.02,-0.2763 -0.467,-0.2377 -1.001,-0.4322 -1.188,-0.4322 -0.187,0 -0.34,-0.0995 -0.34,-0.221 0,-0.1211 -0.199,-0.2205 -0.442,-0.2205 -0.243,0 -0.442,-0.0995 -0.442,-0.2211 0,-0.1216 -0.198,-0.2205 -0.441,-0.2205 -0.243,0 -0.442,-0.0746 -0.444,-0.1658 -0.002,-0.1984 -1.071,-0.7179 -1.477,-0.7179 -0.159,0 -0.288,-0.0806 -0.288,-0.1796 0,-0.0989 -0.347,-0.3161 -0.773,-0.483 -0.425,-0.1663 -0.773,-0.3841 -0.773,-0.4824 0,-0.0989 -0.199,-0.1796 -0.441,-0.1796 -0.244,0 -0.442,-0.0995 -0.442,-0.2211 0,-0.1216 -0.255,-0.221 -0.565,-0.221 -0.321,0 -0.507,-0.0956 -0.429,-0.2205 0.075,-0.1216 -0.068,-0.2211 -0.318,-0.2211 -0.25,0 -0.455,-0.0995 -0.455,-0.2205 0,-0.1216 -0.199,-0.221 -0.442,-0.221 -0.243,0 -0.442,-0.0995 -0.442,-0.2211 0,-0.121 -0.198,-0.2205 -0.441,-0.2205 -0.243,0 -0.442,-0.0995 -0.442,-0.2211 0,-0.1215 -0.249,-0.2205 -0.552,-0.2205 -0.303,0 -0.552,-0.0878 -0.552,-0.195 0,-0.1973 -0.716,-0.5029 -1.326,-0.5648 -0.181,-0.0188 -0.306,-0.1537 -0.275,-0.2996 0.03,-0.1464 -0.138,-0.2658 -0.374,-0.2658 -0.235,0 -0.491,-0.1011 -0.567,-0.2243 -0.076,-0.1233 -0.232,-0.1675 -0.344,-0.0973 -0.114,0.0696 -0.206,-0.0282 -0.206,-0.2172 0,-0.1896 -0.153,-0.3443 -0.339,-0.3443 -0.186,0 -0.829,-0.2487 -1.428,-0.5521 -0.599,-0.3039 -1.242,-0.5521 -1.428,-0.5521 -0.186,0 -0.339,-0.0994 -0.339,-0.221 0,-0.1216 -0.199,-0.2211 -0.442,-0.2211 -0.243,0 -0.441,-0.0989 -0.441,-0.2205 0,-0.1215 -0.149,-0.221 -0.332,-0.221 -0.182,0 -0.331,-0.0884 -0.331,-0.1962 0,-0.1083 -0.447,-0.3288 -0.994,-0.4902 -0.546,-0.1614 -0.994,-0.3526 -0.994,-0.4244 0,-0.0724 -0.348,-0.268 -0.773,-0.4349 -0.425,-0.1669 -0.773,-0.3841 -0.773,-0.483 0,-0.099 -0.129,-0.1796 -0.287,-0.1796 -0.406,0 -1.476,-0.5195 -1.478,-0.7174 -10e-4,-0.0912 -0.2,-0.1658 -0.443,-0.1658 -0.243,0 -0.442,-0.0994 -0.442,-0.221 0,-0.1216 -0.129,-0.2205 -0.287,-0.2205 -0.407,0 -1.476,-0.5195 -1.478,-0.7179 -0.001,-0.0912 -0.195,-0.1658 -0.43,-0.1658 -0.236,0 -0.491,-0.0994 -0.566,-0.2205 -0.075,-0.1216 -0.329,-0.221 -0.565,-0.221 -0.236,0 -0.428,-0.0995 -0.428,-0.2211 0,-0.121 -0.154,-0.2205 -0.341,-0.2205 -0.187,0 -0.554,-0.1989 -0.815,-0.4421 -0.26,-0.2426 -0.629,-0.4167 -0.819,-0.3863 -0.189,0.0304 -0.32,-0.0691 -0.289,-0.2205 0.03,-0.152 -0.144,-0.2763 -0.387,-0.2763 -0.243,0 -0.442,-0.105 -0.442,-0.2338 0,-0.1287 -0.083,-0.1823 -0.184,-0.1199 -0.102,0.063 -0.644,-0.1299 -1.205,-0.4283 -0.561,-0.2984 -1.161,-0.5427 -1.334,-0.5427 -0.173,0 -0.438,-0.1492 -0.59,-0.3316 -0.479,-0.5775 -1.955,-0.3951 -3.615,0.446 z M 35.0004,129.273 c 0,48.964 -0.0503,46.585 0.9777,46.585 0.1913,0 0.3471,0.099 0.3471,0.221 0,0.121 0.199,0.22 0.4422,0.22 0.2426,0 0.4416,0.1 0.4416,0.221 0,0.122 0.2293,0.221 0.5101,0.221 0.2813,0 0.7241,0.199 0.9849,0.442 0.2609,0.243 0.6832,0.442 0.938,0.442 0.2553,0 0.4029,0.099 0.3277,0.22 -0.0752,0.122 0.0597,0.221 0.2996,0.221 0.2404,0 0.4709,0.104 0.5134,0.231 0.042,0.127 0.2946,0.247 0.561,0.267 0.2664,0.02 0.4372,0.084 0.3792,0.142 -0.1139,0.113 1.8515,1.093 2.2356,1.114 0.1288,0.007 0.4499,0.214 0.7136,0.459 0.2636,0.246 0.5339,0.438 0.6007,0.427 0.2095,-0.035 1.4343,0.52 3.7993,1.722 1.2546,0.637 2.4131,1.159 2.5739,1.159 0.1603,0 0.4554,0.181 0.6549,0.401 0.1996,0.221 0.8611,0.537 1.4697,0.703 0.609,0.165 1.107,0.382 1.107,0.482 0,0.1 0.199,0.181 0.4416,0.181 0.2432,0 0.4422,0.074 0.4427,0.166 0,0.09 0.5466,0.413 1.2137,0.717 0.6672,0.304 1.2138,0.627 1.2138,0.718 5e-4,0.091 0.2001,0.166 0.4427,0.166 0.2432,0 0.4416,0.099 0.4416,0.22 0,0.122 0.199,0.221 0.4416,0.221 0.2432,0 0.4422,0.1 0.4422,0.221 0,0.121 0.1984,0.221 0.4416,0.221 0.2426,0 0.4416,0.099 0.4416,0.221 0,0.121 0.1989,0.22 0.4416,0.22 0.2432,0 0.4416,0.1 0.4416,0.221 0,0.122 0.2487,0.221 0.5521,0.221 0.304,0 0.5522,0.099 0.5522,0.221 0,0.121 0.1492,0.221 0.3316,0.221 0.1824,0 0.331,0.099 0.331,0.22 0,0.122 0.1907,0.221 0.4234,0.221 0.2327,0 0.4565,0.076 0.4969,0.167 0.0409,0.091 0.7693,0.514 1.6199,0.938 0.8501,0.423 1.5791,0.846 1.6195,0.937 0.0403,0.092 0.2476,0.167 0.4603,0.167 0.2123,0 0.461,0.074 0.5522,0.166 0.0906,0.09 0.2316,0.169 0.3128,0.174 0.0807,0.005 0.4654,0.179 0.8539,0.386 0.3886,0.208 0.8606,0.378 1.0491,0.378 0.1884,0 0.3421,0.099 0.3421,0.221 0,0.121 0.1989,0.22 0.4421,0.22 0.2427,0 0.4416,0.1 0.4416,0.222 0,0.121 0.1902,0.22 0.4234,0.22 0.2327,0 0.456,0.075 0.4969,0.167 0.0403,0.092 0.7693,0.513 1.6194,0.937 0.8506,0.425 1.579,0.846 1.6199,0.938 0.0404,0.092 0.2637,0.166 0.4969,0.166 0.2327,0 0.4234,0.1 0.4234,0.221 0,0.122 0.2542,0.221 0.5648,0.221 0.3206,0 0.5063,0.096 0.4289,0.221 -0.0751,0.122 -0.0016,0.221 0.1636,0.221 0.4168,0 1.489,0.516 1.4912,0.717 6e-4,0.092 0.2001,0.166 0.4433,0.166 0.2426,0 0.4416,0.1 0.4416,0.221 0,0.122 0.1989,0.221 0.4416,0.221 0.2432,0 0.4421,0.099 0.4421,0.221 0,0.121 0.1487,0.221 0.3311,0.221 0.1824,0 0.3311,0.099 0.3311,0.22 0,0.122 0.2083,0.221 0.4631,0.221 0.2543,0 0.7263,0.178 1.0491,0.394 0.3222,0.218 0.8843,0.54 1.2485,0.718 0.3648,0.178 0.7124,0.373 0.7732,0.435 0.2504,0.254 1.7808,0.679 1.9864,0.552 0.1222,-0.075 0.2222,0.017 0.2222,0.207 0,0.189 0.0746,0.351 0.1658,0.361 0.7196,0.071 1.2817,0.251 1.3436,0.431 0.0404,0.118 0.2139,0.215 0.3863,0.215 0.1719,0 0.3129,0.099 0.3129,0.22 0,0.122 0.1492,0.221 0.331,0.221 0.1824,0 0.3317,0.1 0.3317,0.221 0,0.121 0.1519,0.221 0.3382,0.221 0.4952,0 3.4267,1.462 3.262,1.626 -0.0773,0.078 0.1747,0.141 0.5594,0.141 0.3846,0 0.6997,0.074 0.6997,0.166 5e-4,0.09 0.5472,0.413 1.2143,0.717 0.6671,0.304 1.2131,0.627 1.2137,0.718 5e-4,0.091 0.1498,0.165 0.3322,0.165 0.1823,0 0.331,0.1 0.331,0.221 0,0.122 0.1791,0.221 0.398,0.221 0.2183,0 0.4919,0.091 0.6074,0.203 0.4715,0.457 2.7505,1.497 2.7645,1.262 0.008,-0.138 0.124,-0.023 0.259,0.255 0.139,0.29 0.372,0.457 0.545,0.391 0.166,-0.064 0.358,0.031 0.427,0.21 0.069,0.18 0.219,0.269 0.333,0.199 0.114,-0.071 0.371,0.004 0.571,0.166 0.311,0.252 0.337,0.247 0.179,-0.036 -0.102,-0.182 0.034,-0.106 0.302,0.171 0.268,0.275 0.581,0.443 0.695,0.373 0.114,-0.07 0.208,-0.017 0.208,0.119 0,0.135 0.088,0.192 0.195,0.126 0.108,-0.067 0.319,0.027 0.469,0.207 0.15,0.181 0.41,0.329 0.577,0.329 0.168,0 0.304,0.116 0.304,0.258 0,0.141 0.065,0.193 0.144,0.114 0.149,-0.149 1.901,0.721 2.029,1.008 0.04,0.091 0.295,0.166 0.565,0.166 0.271,0 0.706,0.199 0.967,0.441 0.26,0.244 0.624,0.442 0.807,0.442 0.184,0 0.685,0.199 1.114,0.442 0.429,0.243 1.131,0.64 1.559,0.883 0.429,0.243 0.926,0.442 1.105,0.442 0.178,0 0.325,0.074 0.326,0.166 0.002,0.186 1.062,0.717 1.434,0.717 0.133,0 0.367,0.124 0.519,0.276 0.152,0.152 0.346,0.29 0.43,0.306 0.578,0.111 1.149,0.383 1.149,0.548 0,0.107 0.146,0.195 0.325,0.195 0.178,0 0.676,0.197 1.106,0.439 0.429,0.241 0.805,0.439 0.834,0.44 0.289,0.006 1.49,0.583 1.49,0.715 0,0.095 0.148,0.173 0.331,0.173 0.182,0 0.331,0.074 0.331,0.166 10e-4,0.415 1.819,0.284 2.202,-0.159 0.215,-0.247 0.538,-0.449 0.719,-0.449 0.182,0 0.684,-0.24 1.116,-0.533 0.432,-0.293 0.844,-0.475 0.914,-0.405 0.071,0.071 0.129,0.013 0.129,-0.129 0,-0.142 0.174,-0.258 0.387,-0.258 0.212,-0.001 0.711,-0.2 1.109,-0.443 0.398,-0.242 0.897,-0.44 1.111,-0.44 0.213,0 0.53,-0.199 0.705,-0.442 0.176,-0.243 0.446,-0.442 0.601,-0.442 0.156,0 0.283,-0.077 0.283,-0.172 0,-0.095 0.273,-0.195 0.608,-0.223 0.333,-0.027 0.64,-0.148 0.681,-0.269 0.04,-0.12 0.214,-0.219 0.386,-0.219 0.172,0 0.313,-0.099 0.313,-0.221 0,-0.121 0.24,-0.22 0.534,-0.22 0.293,0 0.566,-0.075 0.607,-0.166 0.106,-0.239 1.935,-1.16 2.303,-1.16 0.17,0 0.31,-0.099 0.31,-0.22 0,-0.122 0.199,-0.221 0.442,-0.221 0.243,0 0.442,-0.1 0.442,-0.221 0,-0.121 0.198,-0.221 0.442,-0.221 0.242,0 0.441,-0.099 0.441,-0.221 0,-0.121 0.205,-0.22 0.455,-0.22 0.25,0 0.393,-0.1 0.318,-0.221 -0.075,-0.122 0.068,-0.221 0.318,-0.221 0.251,0 0.455,-0.09 0.455,-0.2 0,-0.11 0.199,-0.148 0.442,-0.085 0.243,0.064 0.442,0.017 0.442,-0.104 0,-0.23 1.313,-0.859 1.601,-0.768 0.091,0.029 0.165,-0.046 0.165,-0.168 0,-0.122 0.157,-0.221 0.347,-0.221 0.192,0 0.497,-0.149 0.679,-0.331 0.181,-0.182 0.597,-0.396 0.923,-0.475 0.325,-0.08 0.641,-0.204 0.702,-0.277 0.218,-0.261 1.105,-0.684 1.433,-0.684 0.183,0 0.333,-0.099 0.333,-0.22 0,-0.122 0.189,-0.221 0.419,-0.221 0.23,0 0.475,-0.15 0.546,-0.334 0.07,-0.183 0.205,-0.321 0.299,-0.307 0.336,0.051 1.166,-0.297 1.166,-0.489 0,-0.108 0.199,-0.195 0.442,-0.195 0.243,0 0.442,-0.075 0.444,-0.166 0.001,-0.198 1.071,-0.718 1.477,-0.718 0.158,0 0.287,-0.099 0.287,-0.22 0,-0.122 0.191,-0.221 0.424,-0.221 0.232,0 0.456,-0.075 0.497,-0.166 0.103,-0.234 2.833,-1.601 3.196,-1.601 0.166,0 0.3,-0.1 0.3,-0.221 0,-0.121 0.199,-0.221 0.442,-0.221 0.243,0 0.442,-0.095 0.442,-0.211 0,-0.115 0.348,-0.275 0.773,-0.355 0.425,-0.08 0.773,-0.231 0.773,-0.336 0,-0.184 2.059,-1.162 2.317,-1.1 0.071,0.017 0.282,-0.123 0.469,-0.31 0.188,-0.188 0.433,-0.285 0.545,-0.216 0.111,0.069 0.202,0.02 0.202,-0.109 0,-0.128 0.199,-0.234 0.443,-0.234 0.242,0 0.442,-0.074 0.443,-0.165 0.002,-0.198 1.072,-0.718 1.478,-0.718 0.158,0 0.287,-0.083 0.287,-0.185 0,-0.245 1.011,-0.698 1.557,-0.698 0.237,0 0.431,-0.099 0.431,-0.221 0,-0.121 0.141,-0.221 0.313,-0.221 0.172,0 0.346,-0.074 0.386,-0.166 0.041,-0.09 0.968,-0.597 2.061,-1.124 1.094,-0.527 2.187,-1.068 2.43,-1.201 1.086,-0.594 3.008,-1.484 3.206,-1.484 0.12,0 0.217,-0.099 0.217,-0.22 0,-0.122 0.199,-0.222 0.442,-0.222 0.243,0 0.442,-0.105 0.442,-0.233 0,-0.129 0.088,-0.18 0.195,-0.113 0.108,0.066 0.315,-0.022 0.46,-0.197 0.145,-0.174 0.628,-0.437 1.074,-0.583 0.446,-0.147 1.181,-0.499 1.634,-0.785 0.454,-0.285 0.917,-0.517 1.031,-0.517 0.114,0 0.257,-0.125 0.318,-0.277 0.086,-0.211 0.116,-0.207 0.129,0.015 0.013,0.207 0.204,0.159 0.659,-0.165 0.353,-0.251 0.75,-0.457 0.883,-0.457 0.134,0 0.242,-0.1 0.242,-0.221 0,-0.121 0.193,-0.221 0.429,-0.221 0.236,0 0.49,-0.099 0.565,-0.221 0.075,-0.121 0.308,-0.22 0.516,-0.22 0.21,0 0.524,-0.199 0.699,-0.442 0.175,-0.243 0.551,-0.442 0.835,-0.442 0.288,0 0.456,-0.097 0.38,-0.22 -0.075,-0.122 0.068,-0.221 0.318,-0.221 0.25,0 0.455,-0.105 0.455,-0.234 0,-0.129 0.091,-0.178 0.203,-0.108 0.112,0.069 0.365,-0.037 0.564,-0.236 0.198,-0.198 0.598,-0.361 0.888,-0.361 0.29,0 0.582,-0.143 0.649,-0.318 0.067,-0.174 0.222,-0.255 0.345,-0.18 0.122,0.076 0.223,0.057 0.223,-0.041 0.003,-0.208 1.059,-0.731 1.478,-0.731 0.158,0 0.288,-0.099 0.288,-0.22 0,-0.122 0.248,-0.221 0.552,-0.221 0.303,0 0.552,-0.1 0.552,-0.221 0,-0.121 0.149,-0.221 0.331,-0.221 0.183,0 0.332,-0.099 0.332,-0.221 0,-0.121 0.19,-0.22 0.423,-0.22 0.233,0 0.462,-0.116 0.509,-0.256 0.047,-0.141 0.323,-0.293 0.616,-0.337 0.292,-0.045 0.606,-0.203 0.698,-0.352 0.093,-0.148 0.296,-0.282 0.452,-0.297 1.024,-0.096 1.733,-0.391 1.623,-0.677 -0.066,-0.172 -0.025,-0.254 0.092,-0.182 0.116,0.072 0.5,-0.018 0.853,-0.201 0.352,-0.182 0.703,-0.285 0.779,-0.229 0.076,0.055 0.091,0.037 0.033,-0.041 -0.123,-0.166 1.804,-1.183 2.241,-1.183 0.162,0 0.294,-0.099 0.294,-0.22 0,-0.122 0.199,-0.222 0.442,-0.222 0.243,0 0.442,-0.099 0.442,-0.22 0,-0.122 0.198,-0.221 0.441,-0.221 0.243,0 0.442,-0.1 0.442,-0.221 0,-0.121 0.199,-0.221 0.442,-0.221 0.243,0 0.441,-0.099 0.441,-0.221 0,-0.121 0.199,-0.221 0.442,-0.221 0.243,0 0.442,-0.099 0.442,-0.22 0,-0.122 0.198,-0.221 0.442,-0.221 0.243,0 0.442,-0.075 0.442,-0.166 0,-0.091 0.547,-0.414 1.214,-0.717 0.667,-0.304 1.214,-0.627 1.214,-0.718 0,-0.091 0.15,-0.166 0.332,-0.166 0.182,0 0.331,-0.099 0.331,-0.221 0,-0.121 0.249,-0.221 0.553,-0.221 0.303,0 0.552,-0.099 0.552,-0.22 0,-0.122 0.156,-0.221 0.347,-0.221 1.028,0 0.978,2.379 0.978,-46.58 0,-40.6967 -0.038,-45.949 -0.331,-45.949 -0.183,0 -0.332,0.105 -0.332,0.2338 0,0.1282 -0.091,0.1774 -0.203,0.1083 -0.112,-0.0691 -0.355,0.026 -0.54,0.2117 -0.186,0.1857 -0.417,0.3155 -0.515,0.2885 -0.098,-0.0266 -0.6,0.1724 -1.116,0.4421 -0.516,0.2702 -0.939,0.4321 -0.939,0.3603 0,-0.0719 -0.157,0.0265 -0.349,0.2183 -0.192,0.1923 -0.44,0.2929 -0.552,0.2238 -0.111,-0.0691 -0.203,-0.0205 -0.203,0.1083 0,0.1288 -0.199,0.2338 -0.442,0.2338 -0.242,0 -0.441,0.0873 -0.441,0.1939 0,0.1067 -0.299,0.3178 -0.663,0.4687 -0.364,0.1509 -0.663,0.3404 -0.663,0.4216 0,0.0807 -0.222,0.1636 -0.493,0.1841 -0.272,0.0204 -0.529,0.1409 -0.571,0.268 -0.042,0.1265 -0.273,0.2304 -0.513,0.2304 -0.24,0 -0.375,0.0995 -0.3,0.2211 0.077,0.1243 -0.102,0.2205 -0.41,0.2205 -0.301,0 -0.58,0.0807 -0.621,0.1796 -0.04,0.0989 -0.918,0.6035 -1.951,1.1207 -1.032,0.5173 -1.971,1.0329 -2.087,1.1451 -0.115,0.1127 -0.444,0.2045 -0.73,0.2045 -0.292,0 -0.461,0.0978 -0.385,0.221 0.075,0.1216 -0.018,0.2211 -0.208,0.2211 -0.189,0 -0.344,0.0989 -0.344,0.2205 0,0.1216 -0.199,0.221 -0.442,0.221 -0.243,0 -0.441,0.0995 -0.441,0.2205 0,0.1216 -0.199,0.2211 -0.442,0.2211 -0.243,0 -0.442,0.0995 -0.442,0.2211 0,0.121 -0.138,0.2205 -0.308,0.2205 -0.566,0 -0.575,0.5714 -0.579,35.8481 -0.002,19.332 -0.076,35.257 -0.165,35.388 -0.09,0.132 -0.478,0.376 -0.865,0.544 -0.386,0.168 -0.644,0.399 -0.573,0.513 0.071,0.115 0.032,0.148 -0.088,0.074 -0.119,-0.073 -0.698,0.11 -1.286,0.408 -0.589,0.298 -1.202,0.541 -1.363,0.541 -0.162,0 -0.294,0.1 -0.294,0.221 0,0.122 -0.193,0.221 -0.429,0.221 -0.236,0 -0.491,0.101 -0.567,0.225 -0.077,0.123 -0.214,0.178 -0.304,0.122 -0.092,-0.056 -0.434,0.146 -0.761,0.449 -0.327,0.304 -0.694,0.491 -0.815,0.416 -0.121,-0.074 -0.275,0.009 -0.343,0.185 -0.073,0.19 -0.297,0.276 -0.55,0.209 -0.235,-0.061 -0.428,-0.001 -0.428,0.135 0,0.136 -0.149,0.247 -0.331,0.247 -0.182,0 -0.331,0.099 -0.331,0.221 0,0.121 -0.193,0.22 -0.429,0.22 -0.236,0 -0.49,0.1 -0.565,0.221 -0.075,0.122 -0.287,0.221 -0.471,0.221 -0.183,0 -0.483,0.15 -0.667,0.334 -0.183,0.182 -0.424,0.276 -0.537,0.207 -0.111,-0.069 -0.203,-0.02 -0.203,0.109 0,0.128 -0.198,0.233 -0.441,0.233 -0.243,0 -0.442,0.1 -0.442,0.221 0,0.122 -0.199,0.221 -0.441,0.221 -0.243,0 -0.442,0.099 -0.442,0.221 0,0.121 -0.188,0.221 -0.418,0.221 -0.23,0 -0.475,0.147 -0.544,0.327 -0.071,0.186 -0.272,0.272 -0.466,0.198 -0.186,-0.072 -0.339,-0.021 -0.339,0.113 0,0.135 -0.149,0.245 -0.332,0.245 -0.182,0 -0.331,0.1 -0.331,0.221 0,0.121 -0.199,0.221 -0.442,0.221 -0.242,0 -0.441,0.099 -0.441,0.22 0,0.122 -0.199,0.221 -0.442,0.221 -0.243,0 -0.442,0.1 -0.442,0.221 0,0.121 -0.199,0.221 -0.441,0.221 -0.243,0 -0.442,0.099 -0.442,0.221 0,0.122 -0.199,0.22 -0.442,0.22 -0.243,0 -0.442,0.1 -0.442,0.222 0,0.121 -0.199,0.221 -0.441,0.221 -0.243,0 -0.442,0.099 -0.442,0.22 0,0.122 -0.199,0.221 -0.442,0.221 -0.243,0 -0.442,0.075 -0.443,0.166 -0.002,0.198 -1.072,0.717 -1.478,0.717 -0.158,0 -0.287,0.1 -0.287,0.221 0,0.122 -0.191,0.221 -0.423,0.221 -0.234,0 -0.457,0.074 -0.498,0.166 -0.1,0.227 -1.669,0.938 -2.068,0.938 -0.178,0 -0.324,0.099 -0.324,0.221 0,0.122 -0.19,0.221 -0.423,0.221 -0.233,0 -0.457,0.083 -0.498,0.185 -0.09,0.228 -4.623,2.465 -4.994,2.465 -0.148,0 -0.269,0.099 -0.269,0.221 0,0.121 -0.149,0.22 -0.332,0.22 -0.181,0 -0.331,0.1 -0.331,0.222 0,0.121 -0.199,0.22 -0.441,0.22 -0.243,0 -0.442,0.1 -0.442,0.221 0,0.122 -0.199,0.221 -0.442,0.221 -0.243,0 -0.442,0.099 -0.442,0.221 0,0.121 -0.19,0.221 -0.423,0.221 -0.233,0 -0.46,0.111 -0.506,0.248 -0.046,0.137 -0.352,0.249 -0.681,0.249 -0.329,0 -0.598,0.086 -0.598,0.192 0,0.107 -0.149,0.194 -0.331,0.194 -0.183,0 -0.332,0.099 -0.332,0.221 0,0.121 -0.129,0.22 -0.287,0.22 -0.406,0 -1.476,0.52 -1.478,0.718 -10e-4,0.091 -0.2,0.166 -0.443,0.166 -0.243,0 -0.442,0.1 -0.442,0.221 0,0.121 -0.248,0.221 -0.552,0.221 -0.304,0 -0.552,0.08 -0.552,0.178 0,0.199 -1.783,1.049 -2.043,0.974 -0.091,-0.027 -0.166,0.04 -0.166,0.148 0,0.109 -0.249,0.26 -0.552,0.336 -0.303,0.076 -0.552,0.242 -0.552,0.369 0,0.126 -0.089,0.174 -0.198,0.107 -0.108,-0.068 -0.254,0.025 -0.323,0.204 -0.071,0.185 -0.272,0.27 -0.465,0.196 -0.186,-0.072 -0.34,-0.021 -0.34,0.114 0,0.135 -0.074,0.228 -0.165,0.209 -0.272,-0.059 -1.39,0.454 -2.112,0.968 -0.388,0.276 -0.594,0.344 -0.487,0.16 0.102,-0.176 -0.06,-0.096 -0.361,0.177 -0.301,0.273 -0.792,0.497 -1.091,0.497 -0.3,0 -0.688,0.199 -0.863,0.442 -0.175,0.242 -0.551,0.441 -0.835,0.441 -0.288,0 -0.456,0.098 -0.38,0.221 0.075,0.121 -0.068,0.221 -0.318,0.221 -0.25,0 -0.455,0.099 -0.455,0.221 0,0.121 -0.204,0.221 -0.455,0.221 -0.25,0 -0.393,0.099 -0.318,0.221 0.075,0.121 0.002,0.221 -0.164,0.221 -0.416,0 -1.488,0.516 -1.49,0.717 -0.001,0.091 -0.255,0.166 -0.564,0.166 -0.309,0 -0.774,0.199 -1.035,0.441 -0.261,0.243 -0.654,0.442 -0.874,0.442 -0.22,0 -0.4,0.099 -0.4,0.221 0,0.121 -0.249,0.221 -0.552,0.221 -0.304,0 -0.553,0.099 -0.553,0.22 0,0.122 -0.199,0.222 -0.441,0.222 -0.243,0 -0.442,0.075 -0.442,0.166 0,0.092 -0.299,0.299 -0.664,0.461 -0.365,0.162 -0.608,0.383 -0.541,0.493 0.068,0.11 -0.03,0.141 -0.217,0.068 -0.205,-0.078 -0.398,0.018 -0.484,0.242 -0.099,0.257 -0.192,0.293 -0.301,0.117 -0.114,-0.184 -0.255,-0.159 -0.506,0.092 -0.191,0.191 -0.498,0.348 -0.681,0.348 -0.184,0 -0.396,0.099 -0.471,0.221 -0.075,0.121 -0.379,0.22 -0.676,0.22 -0.296,0 -0.539,0.1 -0.539,0.221 0,0.122 -0.129,0.221 -0.287,0.221 -0.158,0 -0.411,0.124 -0.563,0.276 -0.152,0.152 -0.346,0.28 -0.431,0.285 -0.327,0.02 -1.709,0.838 -1.866,1.105 -0.09,0.154 -0.364,0.228 -0.607,0.165 -0.247,-0.065 -0.442,-0.007 -0.442,0.131 0,0.136 -0.19,0.247 -0.424,0.247 -0.232,0 -0.473,0.124 -0.534,0.276 -0.089,0.221 -0.115,0.221 -0.129,0 -0.01,-0.152 -0.216,-0.276 -0.459,-0.276 -0.243,0 -0.442,-0.1 -0.442,-0.221 0,-0.122 -0.149,-0.221 -0.331,-0.221 -0.182,0 -0.331,-0.099 -0.331,-0.221 0,-0.121 -0.14,-0.221 -0.311,-0.221 -0.369,0 -2.197,-0.921 -2.303,-1.16 -0.041,-0.092 -0.157,-0.116 -0.259,-0.053 -0.101,0.062 -0.341,-0.044 -0.533,-0.236 -0.192,-0.192 -0.349,-0.29 -0.349,-0.218 0,0.072 -0.422,-0.09 -0.939,-0.361 -0.516,-0.269 -1.016,-0.469 -1.11,-0.444 -0.095,0.026 -0.23,-0.103 -0.3,-0.286 -0.07,-0.184 -0.291,-0.337 -0.491,-0.341 -0.199,-0.003 -0.555,-0.153 -0.791,-0.331 -0.236,-0.178 -0.609,-0.324 -0.829,-0.324 -0.219,0 -0.399,-0.099 -0.399,-0.221 0,-0.121 -0.199,-0.22 -0.442,-0.22 -0.242,0 -0.441,-0.1 -0.441,-0.222 0,-0.121 -0.199,-0.22 -0.442,-0.22 -0.243,0 -0.442,-0.1 -0.442,-0.221 0,-0.122 -0.129,-0.221 -0.287,-0.221 -0.406,0 -1.476,-0.52 -1.478,-0.717 -10e-4,-0.092 -0.201,-0.166 -0.443,-0.166 -0.243,0 -0.442,-0.1 -0.442,-0.221 0,-0.121 -0.249,-0.221 -0.552,-0.221 -0.304,0 -0.552,-0.099 -0.552,-0.221 0,-0.121 -0.205,-0.22 -0.455,-0.22 -0.25,0 -0.394,-0.1 -0.318,-0.221 0.075,-0.122 -0.068,-0.221 -0.319,-0.221 -0.25,0 -0.455,-0.1 -0.455,-0.221 0,-0.122 -0.204,-0.221 -0.454,-0.221 -0.25,0 -0.393,-0.1 -0.318,-0.221 0.075,-0.121 -0.069,-0.221 -0.319,-0.221 -0.25,0 -0.454,-0.099 -0.454,-0.221 0,-0.121 -0.199,-0.22 -0.442,-0.22 -0.243,0 -0.442,-0.1 -0.442,-0.221 0,-0.122 -0.15,-0.221 -0.334,-0.221 -0.374,0 -1.245,-0.446 -1.466,-0.75 -0.078,-0.108 -0.288,-0.142 -0.465,-0.074 -0.176,0.068 -0.579,-0.117 -0.896,-0.41 -0.316,-0.293 -0.727,-0.532 -0.915,-0.532 -0.188,0 -0.341,-0.1 -0.341,-0.222 0,-0.121 -0.074,-0.197 -0.166,-0.168 -0.27,0.086 -1.6008,-0.531 -1.6008,-0.742 0,-0.106 -0.1929,-0.194 -0.4289,-0.194 -0.2355,0 -0.4908,-0.101 -0.5671,-0.224 -0.0762,-0.123 -0.2315,-0.168 -0.3443,-0.097 -0.1133,0.069 -0.2056,0.021 -0.2056,-0.108 0,-0.128 -0.199,-0.233 -0.4416,-0.233 -0.2432,0 -0.4422,-0.1 -0.4422,-0.221 0,-0.121 -0.1984,-0.221 -0.4416,-0.221 -0.2426,0 -0.4416,-0.099 -0.4416,-0.22 0,-0.122 -0.1503,-0.221 -0.3344,-0.221 -0.184,0 -0.5068,-0.088 -0.7179,-0.195 -0.2106,-0.108 -0.6815,-0.332 -1.0457,-0.497 -0.3648,-0.166 -0.7124,-0.351 -0.7732,-0.412 -0.0608,-0.061 -0.6307,-0.359 -1.2663,-0.663 -0.6361,-0.304 -1.1579,-0.627 -1.1595,-0.718 -0.0022,-0.091 -0.2333,-0.165 -0.514,-0.165 -0.2808,0 -0.7241,-0.199 -0.9849,-0.442 -0.2604,-0.243 -0.5776,-0.442 -0.7042,-0.442 -0.1265,0 -0.2299,-0.099 -0.2299,-0.22 0,-0.122 -0.2299,-0.222 -0.5107,-0.222 -0.2808,0 -0.7235,-0.198 -0.9843,-0.441 -0.2609,-0.243 -0.6716,-0.442 -0.912,-0.442 -0.241,0 -0.4996,-0.099 -0.5748,-0.221 -0.0752,-0.121 -0.2869,-0.221 -0.4704,-0.221 -0.1834,0 -0.483,-0.148 -0.6648,-0.33 -0.1824,-0.183 -0.5975,-0.397 -0.9231,-0.477 -0.3255,-0.081 -0.7527,-0.33 -0.9489,-0.553 -0.1968,-0.223 -0.5196,-0.406 -0.718,-0.406 -0.1984,0 -0.3603,-0.096 -0.3603,-0.214 0,-0.118 -0.1393,-0.161 -0.309,-0.095 -0.1702,0.065 -0.3758,0.011 -0.4571,-0.121 -0.0812,-0.132 -0.2404,-0.183 -0.3537,-0.113 -0.1128,0.07 -0.2056,0.029 -0.2056,-0.09 0,-0.246 -1.2353,-0.913 -1.6902,-0.913 -0.1636,0 -0.2973,-0.099 -0.2973,-0.221 0,-0.121 -0.1503,-0.221 -0.3344,-0.221 -0.184,0 -0.5068,-0.091 -0.7179,-0.202 -0.2106,-0.111 -0.7064,-0.322 -1.101,-0.469 -0.3952,-0.146 -0.718,-0.353 -0.718,-0.459 0,-0.107 -0.1492,-0.194 -0.331,-0.194 -0.1824,0 -0.3317,-0.1 -0.3317,-0.221 0,-0.122 -0.0779,-0.197 -0.1735,-0.166 -0.1829,0.058 -3.1714,-1.383 -3.3599,-1.621 -0.0608,-0.076 -0.488,-0.274 -0.9484,-0.438 -0.4609,-0.166 -1.0286,-0.477 -1.2607,-0.694 -0.2327,-0.217 -0.6555,-0.394 -0.9401,-0.394 -0.2847,0 -0.6284,-0.111 -0.7639,-0.246 -0.294,-0.294 -0.9987,-0.703 -2.0427,-1.185 -0.4206,-0.194 -0.8202,-0.442 -0.8877,-0.551 -0.0668,-0.109 -0.3714,-0.231 -0.6765,-0.272 -0.305,-0.041 -0.9489,-0.314 -1.4314,-0.608 -0.4825,-0.293 -0.9938,-0.512 -1.1364,-0.486 -0.1426,0.026 -0.3228,-0.055 -0.3996,-0.179 -0.0768,-0.125 -0.2902,-0.227 -0.4742,-0.227 -0.1835,0 -0.4842,-0.15 -0.6671,-0.333 -0.1835,-0.184 -0.425,-0.277 -0.5367,-0.208 -0.1116,0.069 -0.2028,0.02 -0.2028,-0.108 0,-0.129 -0.1294,-0.235 -0.2874,-0.235 -0.4063,0 -1.4757,-0.519 -1.4779,-0.717 -0.0011,-0.091 -0.131,-0.166 -0.2891,-0.166 -0.4062,0 -1.4757,-0.519 -1.4779,-0.718 -6e-4,-0.09 -0.1752,-0.165 -0.388,-0.165 -0.367,0 -0.3836,-1.829 -0.3294,-35.775 0.0508,-31.8857 0.021,-35.7751 -0.2786,-35.7751 -0.4195,0 -2.4025,-0.9108 -2.5026,-1.149 -0.0403,-0.0967 -0.2144,-0.1757 -0.3863,-0.1757 -0.1719,0 -0.3128,-0.0995 -0.3128,-0.2211 0,-0.1215 -0.2764,-0.221 -0.6141,-0.221 -0.3604,0 -0.745,-0.1824 -0.9318,-0.4416 -0.1752,-0.2426 -0.4262,-0.4415 -0.5572,-0.4415 -0.3681,0 -1.427,-0.5317 -1.4292,-0.7179 -6e-4,-0.0912 -0.2001,-0.1652 -0.4433,-0.1652 -0.2432,0 -0.4416,-0.0995 -0.4416,-0.2211 0,-0.1216 -0.1492,-0.221 -0.3316,-0.221 -0.1819,0 -0.3311,-0.099 -0.3311,-0.2205 0,-0.1216 -0.199,-0.2211 -0.4416,-0.2211 -0.2432,0 -0.4416,-0.0995 -0.4416,-0.2205 0,-0.1216 -0.2526,-0.2211 -0.5615,-0.2211 -0.309,0 -0.7711,-0.195 -1.0275,-0.4338 -0.2559,-0.2387 -0.551,-0.3818 -0.655,-0.3177 -0.1039,0.0646 -0.2481,-0.0382 -0.3211,-0.2283 -0.0729,-0.1901 -0.2537,-0.3454 -0.4012,-0.3454 -0.1476,0 -0.8838,-0.2978 -1.6366,-0.662 -0.7522,-0.3648 -1.4652,-0.6626 -1.5851,-0.6626 -0.1194,0 -0.2172,-0.0995 -0.2172,-0.2211 0,-0.1216 -0.1421,-0.2205 -0.3156,-0.2205 -0.1735,0 -0.4466,-0.1299 -0.6074,-0.2885 -0.3278,-0.3244 -0.933,-0.5885 -1.6719,-0.7295 l -0.4969,-0.095 z"
       fill="#4484f4"
       id="path2249" />
    <path
       fill-rule="evenodd"
       clip-rule="evenodd"
       d="m 167.736,49.7681 c 0,0.1918 0.857,0.5355 0.995,0.3985 0.042,-0.0426 -0.164,-0.1918 -0.459,-0.3305 -0.295,-0.1393 -0.536,-0.1697 -0.536,-0.068 z m -32.451,5.2014 c 0.143,0.1724 0.417,0.3134 0.608,0.3134 0.448,0 -0.007,-0.5002 -0.523,-0.5764 -0.274,-0.0398 -0.292,0.0138 -0.085,0.263 z m -38.886,8.8466 c 0,0.1183 -0.2736,0.3299 -0.6074,0.4703 -0.5527,0.2321 -0.5577,0.2437 -0.0553,0.1282 0.6544,-0.1503 1.0241,-0.4521 0.8136,-0.6626 -0.0829,-0.0829 -0.1509,-0.0542 -0.1509,0.0641 z m 102.92,1.8458 c 0,0.1216 0.149,0.221 0.331,0.221 0.182,0 0.331,-0.0994 0.331,-0.221 0,-0.121 -0.149,-0.2205 -0.331,-0.2205 -0.182,0 -0.331,0.0995 -0.331,0.2205 z m -128.5707,11.0367 -0.5212,0.4366 0.6058,-0.2708 c 0.3332,-0.1493 0.6063,-0.3454 0.6074,-0.4366 0.0027,-0.2537 -0.1249,-0.2034 -0.692,0.2708 z m -8.7835,4.4382 c -1.1573,0.6267 -1.3657,0.9649 -0.2409,0.3907 1.2192,-0.6223 1.1987,-0.6085 1.086,-0.7135 -0.0503,-0.0469 -0.4311,0.0979 -0.8451,0.3228 z M 169.389,136.991 c 0,16.701 0.027,23.533 0.059,15.183 0.032,-8.351 0.032,-22.015 0,-30.365 -0.032,-8.35 -0.059,-1.518 -0.059,15.182 z M 60.9523,167.026 c 0.1934,0.313 1.6404,1.085 1.736,0.926 0.0514,-0.085 -0.3427,-0.367 -0.8755,-0.627 -0.5328,-0.261 -0.9202,-0.395 -0.8605,-0.299 z m 18.6613,9.507 c 0,0.129 0.0928,0.177 0.2056,0.107 0.1133,-0.07 0.268,-0.026 0.3443,0.098 0.0763,0.123 0.2515,0.224 0.3885,0.224 0.1377,0 0.0575,-0.146 -0.1785,-0.324 -0.5129,-0.388 -0.7599,-0.422 -0.7599,-0.105 z m -32.0228,5.22 c 0.0017,0.181 1.1275,0.778 1.2453,0.661 0.0359,-0.036 -0.2305,-0.239 -0.5909,-0.452 -0.3609,-0.213 -0.6555,-0.307 -0.6544,-0.209 z m 3.7716,1.915 c 0.445,0.389 1.1695,0.622 0.8932,0.287 -0.1669,-0.203 -0.4565,-0.368 -0.6445,-0.368 -0.1873,0 -0.2995,0.036 -0.2487,0.081 z m 82.8586,10.599 c -0.561,0.277 -0.624,0.483 -0.221,0.715 0.152,0.088 0.206,0.081 0.12,-0.014 -0.086,-0.095 0.063,-0.356 0.331,-0.58 0.546,-0.456 0.496,-0.482 -0.23,-0.121 z m -45.552,7.865 c 0,0.096 0.1984,0.226 0.4416,0.29 0.2426,0.063 0.4416,0.037 0.4416,-0.059 0,-0.096 -0.199,-0.226 -0.4416,-0.29 -0.2432,-0.063 -0.4416,-0.037 -0.4416,0.059 z m 53.889,9.243 c 0,0.142 -0.223,0.269 -0.497,0.284 -0.409,0.021 -0.424,0.044 -0.087,0.131 0.441,0.113 0.984,-0.272 0.735,-0.522 -0.083,-0.082 -0.151,-0.034 -0.151,0.107 z"
       fill="#4484fc"
       id="path2251" />
    <path
       fill-rule="evenodd"
       clip-rule="evenodd"
       d="m 80.6046,136.881 c 0,16.64 0.0259,23.414 0.058,15.054 0.032,-8.359 0.032,-21.974 0,-30.254 -0.0321,-8.28 -0.058,-1.44 -0.058,15.2 z"
       fill="#4884f4"
       id="path2253" />
    <path
       fill-rule="evenodd"
       clip-rule="evenodd"
       d="m 80.6046,136.881 c 0,16.64 0.0259,23.414 0.058,15.054 0.032,-8.359 0.032,-21.974 0,-30.254 -0.0321,-8.28 -0.058,-1.44 -0.058,15.2 z"
       fill="#4884f4"
       id="path2255" />
  </g>
  <defs
     id="defs2262">
    <clipPath
       id="clip0_2108_3946">
      <rect
         width="180"
         height="191"
         fill="white"
         transform="translate(35 29)"
         id="rect2259" />
    </clipPath>
  </defs>
</svg>
