<svg
	viewBox="0 0 100 100"
	style="enable-background:new 0 0 100 100;"
	xml:space="preserve"
	xmlns="http://www.w3.org/2000/svg"
>
	<path
		d="M 29,8.789679 H 7 c -1.1,0 -2,0.822102 -2,1.826896 V 89.173104 C 5,90.177897 5.9,91 7,91 h 22 c 1.1,0 2,-0.822103 2,-1.826896 V 10.616575 C 31,9.611781 30.1,8.789679 29,8.789679 Z M 27,87.346208 H 9 V 12.443471 H 27 Z M 93,8.789679 H 71 c -1.1,0 -2,0.822102 -2,1.826896 V 89.173104 C 69,90.177897 69.9,91 71,91 h 22 c 1.1,0 2,-0.822103 2,-1.826896 V 10.616575 C 95,9.611781 94.1,8.789679 93,8.789679 Z M 91,87.346208 H 73 V 12.443471 H 91 Z M 61,8.789679 H 39 c -1.1,0 -2,0.822102 -2,1.826896 V 89.173104 C 37,90.177897 37.9,91 39,91 h 22 c 1.1,0 2,-0.822103 2,-1.826896 V 10.616575 C 63,9.611781 62.1,8.789679 61,8.789679 Z M 59,87.346208 H 41 V 12.443471 h 18 z"
		id="path4"
		style="stroke-width:0.955745"
	/>
	<g id="g12" transform="translate(-1.1245377,-4.9193768)">
		<path d="M 94.5,89.9 78.2,73.6 c 2.4,-3.3 3.9,-7.4 3.9,-11.9 0,-11.1 -9,-20.1 -20.1,-20.1 -11.1,0 -20.1,9 -20.1,20.1 0,11.1 9,20.1 20.1,20.1 4.3,0 8.3,-1.4 11.5,-3.6 l 16.3,16.4 c 0.6,0.6 1.5,1 2.3,1 0.8,0 1.7,-0.3 2.3,-1 1.4,-1.3 1.4,-3.4 0.1,-4.7 z m -46,-28.2 c 0,-7.5 6.1,-13.5 13.5,-13.5 7.4,0 13.5,6.1 13.5,13.5 0,7.5 -6.1,13.5 -13.5,13.5 -7.4,0 -13.5,-6 -13.5,-13.5 z" id="path8" />
		<path
			class="st0"
			d="m 62,41.6 c 11.1,0 20.1,9 20.1,20.1 0,4.4 -1.4,8.5 -3.9,11.9 l 16.3,16.3 c 1.3,1.3 1.3,3.4 0,4.7 -0.6,0.6 -1.5,1 -2.3,1 -0.8,0 -1.7,-0.3 -2.3,-1 L 73.5,78.2 c -3.3,2.3 -7.2,3.6 -11.5,3.6 -11.1,0 -20.1,-9 -20.1,-20.1 0,-11.1 9,-20.1 20.1,-20.1 m 0,33.6 c 7.5,0 13.5,-6.1 13.5,-13.5 0,-7.4 -6,-13.5 -13.5,-13.5 -7.5,0 -13.5,6.1 -13.5,13.5 0,7.4 6,13.5 13.5,13.5 m 0,-36.3 c -12.6,0 -22.8,10.2 -22.8,22.8 0,12.6 10.2,22.8 22.8,22.8 3.9,0 7.8,-1 11.2,-2.9 L 88,96.5 c 1.1,1.1 2.6,1.8 4.2,1.8 1.6,0 3.1,-0.6 4.2,-1.7 1.1,-1.1 1.8,-2.6 1.8,-4.2 0,-1.6 -0.6,-3.1 -1.7,-4.2 L 81.7,73.2 C 83.8,69.7 84.8,65.8 84.8,61.7 84.8,49.2 74.6,38.9 62,38.9 Z m 1.071081,17.341675 c -6,0 0.881889,12.724148 0.881889,6.724148 0,-6 -4.350244,-4.373515 1.649756,-4.373515 6,0 0.870789,-2.792308 0.870789,3.207692 0,6 2.597566,-5.558325 -3.402434,-5.558325 z"
			id="path10"
			style="fill:#ffffff"
		/>
	</g>
</svg>
