 <svg xmlns="http://www.w3.org/2000/svg" viewBox="0 0 32 32">
      <g>
        <g fill="none" fillRule="evenodd" stroke="none" strokeWidth="1">
          <g fill="#000" transform="translate(-152 -255)">
            <path d="M168 281c-1.168 0-2.296-.136-3.38-.367l-4.708 2.83.063-4.639c-3.609-2.17-5.975-5.758-5.975-9.824 0-6.627 6.268-12 14-12s14 5.373 14 12c0 6.628-6.268 12-14 12zm0-26c-8.836 0-16 6.269-16 14 0 4.419 2.345 8.354 6 10.919V287l7.009-4.253c.97.16 1.968.253 2.991.253 8.836 0 16-6.268 16-14 0-7.731-7.164-14-16-14zm7 11h-14a1 1 0 000 2h14a1 1 0 100-2zm-2 6h-10a1 1 0 100 2h10a1 1 0 100-2z"></path>
          </g>
        </g>
      </g>
    </svg>