<?xml version="1.0" encoding="UTF-8" standalone="no"?>

<svg
   width="64px"
   height="64px"
   viewBox="0 0 113.85636 109.00834"
   version="1.1"
   id="svg1"
   version="1.3.2 (091e20e, 2023-11-25, custom)"
   xmlns="http://www.w3.org/2000/svg"><sodipodi_namedview
     id="namedview1"
     pagecolor="#ffffff"
     bordercolor="#000000"
     borderopacity="0.25"
     showpageshadow="2"
     pageopacity="0.0"
     pagecheckerboard="0"
     deskcolor="#d1d1d1"
     document-units="mm"
     zoom="0.70710678"
     cx="523.25902"
     cy="202.93965"
     window-width="2560"
     window-height="1369"
     window-x="-8"
     window-y="-8"
     window-maximized="1"
     current-layer="layer1" /><defs
     id="defs1"><style
       id="style1">.cls-1{fill:#2f2f2f;}</style></defs><g
     label="Warstwa 1"
     groupmode="layer"
     id="layer1"
     transform="translate(-48.148978,-93.995833)"><path
       class="cls-1"
       d="M 156.27889,154.08271 H 136.99871 V 133.9241 a 6.1224583,6.1224583 0 0 0 -1.82034,-4.33916 l -33.55975,-33.824336 -0.0318,-0.0291 a 6.0536667,6.0536667 0 0 0 -4.246559,-1.73567 H 61.314644 A 13.181542,13.181542 0 0 0 48.148978,107.17208 v 82.65584 a 13.181542,13.181542 0 0 0 13.165666,13.17625 h 62.515746 a 13.184187,13.184187 0 0 0 13.16832,-13.16831 v -3.63273 h 19.28018 a 5.7255833,5.7255833 0 0 0 5.72558,-5.72823 v -20.66661 a 5.7255833,5.7255833 0 0 0 -5.72558,-5.72558 z m -57.755892,-53.92738 32.162752,32.41675 h -24.28611 a 7.8845833,7.8845833 0 0 1 -7.876642,-7.88458 z m 33.184042,89.67259 a 7.8845833,7.8845833 0 0 1 -7.87665,7.88458 H 61.314644 a 7.8845833,7.8845833 0 0 1 -7.874,-7.88458 v -82.65584 a 7.8845833,7.8845833 0 0 1 7.874,-7.88458 h 31.916687 v 25.4 a 13.181542,13.181542 0 0 0 13.168309,13.17625 h 25.31005 v 16.21896 h -27.178 a 5.7255833,5.7255833 0 0 0 -5.725588,5.72558 v 20.66661 a 5.7255833,5.7255833 0 0 0 5.725588,5.72823 h 27.17535 z m -18.16365,-15.80621 a 3.4898542,3.4898542 0 0 0 2.8284,1.37054 q 1.76213,0 2.68288,-1.1774 a 5.1487917,5.1487917 0 0 0 0.83872,-1.90235 h 3.39725 a 7.3712917,7.3712917 0 0 1 -2.24631,4.35504 q -1.80446,1.67481 -4.63021,1.67746 -3.49514,0 -5.49539,-2.26748 -2.00025,-2.26748 -2.00025,-6.24152 0,-4.28625 2.27541,-6.61458 1.97644,-2.02142 5.02709,-2.01877 4.08781,0 5.97694,2.70933 a 5.9187292,5.9187292 0 0 1 1.13506,3.06123 h -3.43959 a 4.6460833,4.6460833 0 0 0 -0.83872,-1.77536 q -0.91282,-1.05833 -2.70934,-1.05833 a 3.33375,3.33375 0 0 0 -2.88131,1.50283 q -1.05833,1.50813 -1.05833,4.2598 0,2.75166 1.1377,4.11956 z m 23.54792,2.80987 q -1.73567,1.48167 -4.90008,1.48167 -3.23056,0 -5.08529,-1.4605 -1.85473,-1.4605 -1.85209,-4.01373 h 3.26496 a 3.3231667,3.3231667 0 0 0 0.62442,1.67481 q 0.84931,1.01071 2.91041,1.01071 a 6.2785625,6.2785625 0 0 0 2.00555,-0.26458 q 1.46579,-0.51065 1.46314,-1.89971 a 1.4022917,1.4022917 0 0 0 -0.71702,-1.25677 7.7813958,7.7813958 0 0 0 -2.27277,-0.76465 l -1.77271,-0.38893 q -2.61144,-0.57944 -3.58775,-1.25413 -1.65364,-1.13506 -1.65629,-3.54542 a 4.7069375,4.7069375 0 0 1 1.61925,-3.65389 q 1.61925,-1.45256 4.7625,-1.45256 a 7.286625,7.286625 0 0 1 4.47146,1.37054 q 1.85208,1.37319 1.93939,3.98198 h -3.29141 a 2.3389167,2.3389167 0 0 0 -1.32292,-2.09815 4.4979167,4.4979167 0 0 0 -2.03729,-0.41275 3.8655625,3.8655625 0 0 0 -2.16429,0.52917 1.68275,1.68275 0 0 0 -0.80963,1.48696 1.4102292,1.4102292 0 0 0 0.79375,1.32291 10.025062,10.025062 0 0 0 2.17488,0.67734 l 2.87337,0.67733 q 1.88648,0.4445 2.83104,1.18798 1.4658,1.15358 1.46315,3.34169 a 4.7016458,4.7016458 0 0 1 -1.72773,3.72268 z m 11.68664,1.05834 h -3.21998 l -5.55625,-16.36977 h 3.6539 l 3.55335,12.43541 3.58775,-12.43541 h 3.55336 z"
       id="path1"
       style="stroke-width:0.264583" /><path
       id="path2"
       style="fill:#053B06;fill-opacity:1;stroke-width:0.264583"
       class="cls-1"
       d="m 131.71054,154.03057 v 0.0517 h -27.17818 a 5.7255833,5.7255833 0 0 0 -5.725742,5.72524 v 20.66695 a 5.7255833,5.7255833 0 0 0 5.725742,5.72782 h 27.1756 v 0.0103 h 5.29167 v -0.0103 h 19.27996 a 5.7255833,5.7255833 0 0 0 5.72575,-5.72782 V 159.8075 a 5.7255833,5.7255833 0 0 0 -5.72575,-5.72523 h -19.27996 v -0.0517 z m 0.18759,7.0125 a 7.286625,7.286625 0 0 1 4.47156,1.37045 c 1.23472,0.91546 1.88121,2.24301 1.93942,3.98219 h -3.29127 a 2.3389167,2.3389167 0 0 0 -1.32292,-2.09806 4.4979167,4.4979167 0 0 0 -2.0376,-0.4129 3.8655625,3.8655625 0 0 0 -2.16421,0.52917 1.68275,1.68275 0 0 0 -0.80977,1.48725 1.4102292,1.4102292 0 0 0 0.79375,1.32291 10.025062,10.025062 0 0 0 2.17506,0.67697 l 2.87321,0.67747 c 1.25765,0.29633 2.20165,0.6924 2.83135,1.18805 0.9772,0.76905 1.46473,1.88318 1.46296,3.34191 a 4.7016458,4.7016458 0 0 1 -1.72754,3.72226 c -1.15711,0.98777 -2.79036,1.48208 -4.89996,1.48208 -2.15371,0 -3.84899,-0.48723 -5.08548,-1.46089 -1.23648,-0.97367 -1.85384,-2.31157 -1.85208,-4.01371 h 3.26491 a 3.3231667,3.3231667 0 0 0 0.62426,1.67483 c 0.5662,0.67381 1.53635,1.01079 2.91041,1.01079 a 6.2785625,6.2785625 0 0 0 2.00557,-0.26458 c 0.97716,-0.34044 1.46524,-0.97359 1.46347,-1.89963 a 1.4022917,1.4022917 0 0 0 -0.71727,-1.25677 7.7813958,7.7813958 0 0 0 -2.27273,-0.76481 l -1.7725,-0.38861 c -1.74096,-0.38629 -2.93702,-0.80439 -3.58789,-1.25418 -1.10243,-0.75671 -1.65447,-1.93863 -1.65623,-3.54553 a 4.7069375,4.7069375 0 0 1 1.61902,-3.65404 c 1.0795,-0.96837 2.667,-1.45262 4.7625,-1.45262 z m -15.67656,0.15916 c 2.72517,0 4.71747,0.90267 5.97689,2.70888 a 5.9187292,5.9187292 0 0 1 1.13533,3.06131 h -3.43958 a 4.6460833,4.6460833 0 0 0 -0.83871,-1.77509 c -0.60854,-0.70555 -1.51171,-1.05833 -2.70939,-1.05833 a 3.33375,3.33375 0 0 0 -2.88148,1.50275 c -0.70555,1.00542 -1.05833,2.42525 -1.05833,4.25969 0,1.83444 0.37945,3.20772 1.13791,4.11965 a 3.4898542,3.4898542 0 0 0 2.82825,1.37046 c 1.17475,0 2.06921,-0.39226 2.68304,-1.17719 a 5.1487917,5.1487917 0 0 0 0.83871,-1.90273 h 3.39721 a 7.3712917,7.3712917 0 0 1 -2.24637,4.35529 c -1.20298,1.11654 -2.74638,1.67565 -4.63021,1.67742 -2.33009,0 -4.16181,-0.75591 -5.49527,-2.26756 -1.3335,-1.51165 -2.0004,-3.59213 -2.0004,-6.24148 0,-2.8575 0.75841,-5.06237 2.27531,-6.61459 1.31763,-1.34761 2.99332,-2.02025 5.02709,-2.01848 z m 23.78097,0.31729 h 3.65405 l 3.55327,12.43542 3.58737,-12.43542 h 3.55379 l -5.57227,16.36955 h -3.21996 z" /></g></svg>
