<svg id="Layer_1" data-name="Layer 1" xmlns="http://www.w3.org/2000/svg" viewBox="0 0 500 500"><defs><style>.cls-1{fill:#312951;}</style></defs><path class="cls-1" d="M426.11,266.33H372.05q-.07-39.12-.34-78.25c-.14-21.82-8.3-40.91-24-56.52-22.45-22.34-45.18-44.43-67.17-67.22C263,46.12,241.86,37.54,216.87,37.51c-24.75,0-49.52,0-74.28,0a83.07,83.07,0,0,0-14.87,1.14c-44.1,7.8-74.49,44-74.51,88.81q-.06,122.61,0,245.25a98,98,0,0,0,2.53,22.19c8.16,35.12,40.63,63.92,75.42,66.88h0a.73.73,0,0,1,.08.74h161c.19-.66.7-.71,1.27-.77,36.66-3.94,67.33-31.27,75.86-65.79h56.76a15.15,15.15,0,0,0,15.15-15.16v-99.3A15.15,15.15,0,0,0,426.11,266.33Zm-192-191.11A46,46,0,0,1,252.62,86.5q35.14,35.18,70.35,70.34a46.23,46.23,0,0,1,11.36,19c.85,2.64.36,3.55-2.67,3.52-14-.16-27.92-.08-41.87-.08-13.26,0-26.54,0-39.8,0-12.5,0-19.78-7.33-19.8-19.87,0-27.07.07-54.16-.09-81.25C230.08,74.54,231.13,74.25,234.06,75.22ZM282.72,427q-70.1.19-140.21,0c-30.65-.08-53.72-23.18-53.8-53.82-.12-41.07,0-82.15,0-123.23q0-61.38,0-122.8c.06-27.4,18-48.72,44.84-53.53a56.84,56.84,0,0,1,9.51-.58c15.9-.06,31.81.09,47.71-.1,3.52,0,4.26,1,4.23,4.39q-.21,41.68-.05,83.39c.1,27.16,17.95,48.36,44.7,53.17a60.29,60.29,0,0,0,10.76.62q41.05.07,82.14,0c3,0,4,.57,4,3.81q-.06,24,0,48.06H215.15A15.15,15.15,0,0,0,200,281.49v99.3A15.15,15.15,0,0,0,215.15,396h116.5C323.39,414.52,305,426.91,282.72,427ZM248,350.36A14.18,14.18,0,0,0,259.54,356q7.15,0,10.92-4.79a21.12,21.12,0,0,0,3.44-7.73h13.83a30,30,0,0,1-9.14,17.71Q271.24,368,259.75,368q-14.22,0-22.36-9.22t-8.13-25.4q0-17.44,9.25-26.89,8.06-8.22,20.48-8.22,16.62,0,24.32,11a24.06,24.06,0,0,1,4.56,12.43H274a19,19,0,0,0-3.41-7.23q-3.72-4.33-11-4.34a13.59,13.59,0,0,0-11.74,6.13q-4.29,6.12-4.29,17.33T248,350.36ZM343.9,361.8q-7.06,6-19.94,6-13.15,0-20.69-5.94t-7.54-16.34H309a13.49,13.49,0,0,0,2.53,6.82q3.46,4.13,11.86,4.12a25.29,25.29,0,0,0,8.17-1.09q6-2.07,5.95-7.72a5.69,5.69,0,0,0-2.91-5.11,31.45,31.45,0,0,0-9.25-3.12l-7.21-1.58q-10.64-2.36-14.61-5.11-6.74-4.61-6.73-14.41a19.15,19.15,0,0,1,6.58-14.87q6.6-5.93,19.35-5.92,10.67,0,18.19,5.58t7.89,16.2H335.45a9.51,9.51,0,0,0-5.37-8.54,18.49,18.49,0,0,0-8.29-1.67c-3.68,0-6.61.72-8.81,2.17a6.86,6.86,0,0,0-3.29,6.05,5.74,5.74,0,0,0,3.25,5.34q2.08,1.17,8.85,2.75l11.69,2.76c5.12,1.2,9,2.82,11.52,4.83q6,4.71,5.95,13.61A19.12,19.12,0,0,1,343.9,361.8Zm47.54,4.31H378.29L355.77,299.5h14.86l14.46,50.57,14.6-50.57h14.46Z"/></svg>