<?xml version="1.0" encoding="utf-8"?>
<!-- Generator: Adobe Illustrator 26.0.0, SVG Export Plug-In . SVG Version: 6.00 Build 0)  -->
<svg version="1.1" id="Capa_1" xmlns="http://www.w3.org/2000/svg" xmlns:xlink="http://www.w3.org/1999/xlink" x="0px" y="0px"
	 viewBox="0 0 65 53" style="enable-background:new 0 0 65 53;" xml:space="preserve">
<path d="M41.7,22.3c0.3,0.8,0.8,1.4,1.4,1.8c0.8,0.5,1.6,0.5,3,0.5h13.6c1.5,0,2.3,0,3-0.5c0.6-0.4,1.1-1,1.4-1.8s0.3-1.8,0.3-3.6
	V10c0-1.9,0-2.8-0.3-3.6c-0.3-0.8-0.8-1.4-1.4-1.8c-0.8-0.5-1.6-0.5-3-0.5h-4.1c-0.4,0-0.7,0-0.8,0S54.6,4,54.4,3.9
	c-0.1-0.1-0.3-0.4-0.7-0.8l-0.1-0.2c-0.4-0.6-0.7-0.9-1-1.2c-0.3-0.2-0.6-0.4-1-0.5C51.3,1,50.9,1,50.2,1h-4.1c-1.5,0-2.3,0-3,0.5
	c-0.6,0.4-1.1,1-1.4,1.8c-0.3,0.8-0.3,1.8-0.3,3.6v3.2h-0.8c-2,0-3.5,2-3.5,4.6v8.5c0,1.5-0.8,2.6-1.5,2.6h-1.2h-0.2V12.3
	c0,0-0.1-0.8-0.1-0.9C33.4,8.1,28,4.7,17.7,4.7S1.9,8.2,1.1,11.5L1,40.7c0,0.2,0,0.3,0.1,0.5C1.9,45.1,8.9,48,17.6,48
	s15.6-2.8,16.5-6.8c0.1-0.1,0.1-12.5,0.1-12.5c0.8-0.1,2.3-0.4,2.3,1l0.1,9.2c0,2.6,1.2,4.9,4.6,5.1v2.7c0,1.9,0,2.8,0.3,3.6
	s0.8,1.4,1.4,1.8c0.8,0.5,1.6,0.5,3,0.5h13.6c1.5,0,2.3,0,3-0.5c0.6-0.4,1.1-1,1.4-1.8s0.3-1.8,0.3-3.6V38c0-1.9,0-2.8-0.3-3.6
	s-0.8-1.4-1.4-1.8C61.8,32,61,32,59.6,32h-4.1c-0.4,0-0.7,0-0.8,0s-0.2-0.1-0.4-0.2c-0.1-0.1-0.3-0.4-0.7-0.8l-0.1-0.2
	c-0.4-0.6-0.7-0.9-1-1.2c-0.3-0.2-0.6-0.4-1-0.5C51.1,29,50.7,29,50.1,29H46c-1.5,0-2.3,0-3,0.5c-0.6,0.4-1.1,1-1.4,1.8
	c-0.3,0.8-0.3,1.8-0.3,3.6v6.6c-0.7,0-2.6,0.3-2.6-2.6v-8.5c0-1.1-0.3-2.2-0.8-2.9c1.2-0.7,1.2-2.3,1.2-4.2v-8.5
	c0-1.5,0.8-2.6,1.5-2.6h0.8v6.6C41.4,20.5,41.4,21.5,41.7,22.3z M43.6,4c0.1-0.4,0.4-0.7,0.6-0.9C44.5,3,45.1,3,46.2,3h4.1
	c0.4,0,0.7,0,0.8,0s0.2,0.1,0.4,0.2c0.1,0.1,0.3,0.4,0.7,0.8l0.1,0.2c0.4,0.6,0.7,0.9,1,1.2c0.3,0.2,0.6,0.4,1,0.5
	C54.7,6,55.1,6,55.7,6h4.1c1,0,1.7,0,1.9,0.2c0.3,0.2,0.5,0.5,0.6,0.9c0.2,0.5,0.2,1.3,0.2,2.9v8.7c0,1.6,0,2.4-0.2,2.9
	c-0.2,0.4-0.4,0.7-0.6,0.9c-0.2,0.2-0.9,0.2-1.9,0.2H46.2c-1,0-1.7,0-1.9-0.2c-0.3-0.2-0.5-0.5-0.6-0.9c-0.2-0.5-0.2-1.3-0.2-2.9
	V6.9h-0.1C43.4,5.3,43.4,4.5,43.6,4z M17.7,6.7c9.2,0,14.8,3.3,14.8,5.6s-5.6,5.6-14.8,5.6S2.9,14.6,2.9,12.3S8.5,6.7,17.7,6.7z
	 M2.9,21c0-0.1,0-0.1,0-0.2c-0.1-1.6,0-2.7,0-4.7c0.7,0.3,1.4,0.8,2.1,1.1c0.7,0.4,1.5,0.7,2.3,1.1c1.6,0.6,3.2,1.1,4.9,1.3
	c1.6,0.2,3.2,0.3,4.8,0.3c2.7,0,5.4-0.2,8-0.7c2.7-0.6,4.9-1.8,7.3-3.1c0,5.1,0.3,6.1-0.9,7.4c-1,1.1-2.4,1.8-3.8,2.3
	c-3.5,1.2-7.2,1.7-10.9,1.6c-2.4-0.1-4.9-0.4-7.2-1C7.6,25.7,5.9,25,4,23.6C3.2,23,2.9,22.2,2.9,21z M32.5,40.3
	c-0.1,2.7-6.5,5.6-14.8,5.6S3.2,43.1,2.9,40.6v-6L3,34.7c2.9,2.6,8.3,4,14.7,4c6.5,0,11.8-1.4,14.7-3.9c0.1,0,0.1-0.1,0.1-0.1
	C32.6,34.6,32.5,39.7,32.5,40.3z M32.5,29.5c-0.1,2.1,0.2,2.8-1.4,4c-1.1,0.8-2.4,1.3-3.7,1.7c-6.5,2.1-13.9,2.2-20.3-0.4
	c-3.9-1.6-4.2-1.5-4.2-6c0-1.2,0-2,0-3.6c2.3,1.8,5,2.9,7.9,3.5s5.7,0.7,8.6,0.6c4.7-0.2,9.5-1.1,13.1-4
	C32.6,27.2,32.5,28.9,32.5,29.5z M43.5,35c0-1.6,0-2.4,0.2-2.9c0.1-0.4,0.4-0.7,0.6-0.9c0.2-0.2,0.9-0.2,1.9-0.2h4.1
	c0.4,0,0.7,0,0.8,0s0.2,0.1,0.3,0.2s0.3,0.4,0.7,0.8l0.1,0.2c0.4,0.6,0.7,0.9,1,1.2c0.3,0.2,0.6,0.4,1,0.5C54.6,34,55,34,55.6,34
	h4.1c1,0,1.7,0,1.9,0.2c0.3,0.2,0.5,0.5,0.6,0.9c0.2,0.5,0.2,1.3,0.2,2.9l-0.1,8.5c0,1.6,0,2.4-0.2,2.9c-0.1,0.4-0.4,0.7-0.6,0.9
	c-0.2,0.2-0.9,0.2-1.9,0.2H46.2c-1,0-1.7,0-1.9-0.2c-0.3-0.2-0.5-0.5-0.6-0.9c-0.2-0.5-0.2-1.3-0.2-2.9V35z"/>
</svg>
