<svg id="Capa_1" data-name="Capa 1" xmlns="http://www.w3.org/2000/svg" viewBox="0 0 58.79 53"><path d="M55.84,28.83a4.41,4.41,0,0,0-1.71-2.19,7.24,7.24,0,0,0-3.88-.73c-.46,0-1,0-1.46-.05l-1.59-.05c-.76,0-1.39,0-2.53,0-.33,0-.78-.67-1.2-1.3a5.11,5.11,0,0,0-1.13-1.34c-1.22-.8-3-.8-4.64-.8H34.31c-1.78,0-2.77,0-3.62.62A4.52,4.52,0,0,0,29,25.14a13.23,13.23,0,0,0-.36,4.32V43.63a12.9,12.9,0,0,0,.36,4.2A4.52,4.52,0,0,0,30.69,50c1,.61,2,.61,3.62.61h16.2c1.78,0,2.77,0,3.63-.61a4.44,4.44,0,0,0,1.7-2.19,13.23,13.23,0,0,0,.36-4.32V33.15C56.2,30.85,56.2,29.8,55.84,28.83ZM31.29,36.29c0-1.68,0-3.67,0-5.64,0-.29,0-.64,0-1a13.25,13.25,0,0,1,.27-3.91c.33-.72,1.16-.8,2-.8h.9c3.62-.08,6-.13,6.79.75a3.88,3.88,0,0,1,.4.62c.07.13.14.26.22.38,1.19,1.88,2,2,5.49,1.95l1.07,0c2.13-.06,3.1-.09,4.05.38a2,2,0,0,1,1.07,1.6c.27,3.41.25,6.63.23,10,0,1,0,1.92,0,2.9,0,.24,0,.49,0,.76a6,6,0,0,1-.36,3c-.53.95-1.47.95-2.47.93H34a2.55,2.55,0,0,1-2-.5c-.76-.74-.7-2.19-.65-3.36,0-.29,0-.57,0-.81C31.3,41.11,31.29,38.69,31.29,36.29Z"/><path d="M40.9,25.46l-.12-.06Z"/><path d="M40.42,25.25l-.13,0Z"/><path d="M44.64,28.62l-.11,0Z"/><path d="M25.32,39.12c-7.13-.67-12.13-3.53-12.41-6.14V25.27a19,19,0,0,0,8.21,4.08,27.7,27.7,0,0,0,4.2.66v-.5c0-.78,0-1.45,0-2.07a30.36,30.36,0,0,1-5.53-1A20.83,20.83,0,0,1,14,23.05,3.65,3.65,0,0,1,12.91,20v-.24c-.07-1.23-.05-2.23,0-3.38,0-.62,0-1.31,0-2.11.31.17.64.38.95.58a10.91,10.91,0,0,0,1.11.67c.44.28.91.52,1.41.78.33.17.68.35,1,.55a19.88,19.88,0,0,0,5.2,1.57,36.05,36.05,0,0,0,5.08.36,39.77,39.77,0,0,0,8.46-.84,27.34,27.34,0,0,0,7.58-3.65c0,1.09,0,2,0,2.83,0,1.33,0,2.31,0,3.07l.39.22a6.57,6.57,0,0,1,1.8,1.89V9.52c0-.39-.1-1-.1-1.09C45.07,4.37,39.4.28,28.42.28S11.66,4.57,10.81,8.56l-.1,23.62v0a5.46,5.46,0,0,0,.1,1.53c.77,4.25,6.68,7.47,14.51,8.13Zm3.1-36.23c9.62,0,15.52,3.87,15.52,6.64S38,16.16,28.42,16.16,12.91,12.3,12.91,9.53,18.81,2.89,28.42,2.89Z"/><path d="M45.56,25.85h0Z"/><path d="M45.37,28.67h0Z"/><path d="M44,28.5h0Z"/></svg>