<?xml version="1.0" encoding="UTF-8"?>
<svg width="64px" height="64px" viewBox="0 0 395 428" version="1.1" xmlns="http://www.w3.org/2000/svg" xmlns:xlink="http://www.w3.org/1999/xlink">
    <title>db-nav-logo-stacked-white-desktop</title>
    <g id="Page-1" stroke="none" stroke-width="1" fill="none" fill-rule="evenodd">
        <g id="db-nav-logo-stacked-white-desktop" fill="#FF3621" fill-rule="nonzero">
            <polygon id="Path" points="374.209708 176.201091 197.202491 276.206012 8.9097213 169.653015 0 174.414484 0 251.800317 197.202491 363.711726 374.209708 263.705397 374.209708 304.779048 197.202491 404.785376 8.9097213 298.230972 0 302.993849 0 316.089999 197.202491 428 395 316.089999 395 238.704166 386.090279 233.94129 197.202491 340.495694 20.7888786 240.489365 20.7888786 200.01125 197.202491 299.422043 395 187.510635 395 111.315873 384.901656 105.958446 197.202491 211.916329 30.2922044 117.268553 197.202491 23.2156091 335.006369 100.60102 347.480544 94.0529444 347.480544 84.5285992 197.202491 0 0 111.315873 0 123.221375 197.202491 235.132361 374.209708 135.126736"></polygon>
        </g>
    </g>
</svg>