    <svg
      version="1.1"
      id="Layer_1"
      x="0px"
      y="0px"
      viewBox="0 0 225 225"
      xmlSpace="preserve"
      width="225"
      height="225"
      xmlns="http://www.w3.org/2000/svg"
      xmlnsSvg="http://www.w3.org/2000/svg"
    >
      <defs id="defs1095" />
      <style type="text/css" id="style1076">{`
.st0{fill:#2F2F2F;}.st1{fill:#FFFFFF;}`}</style>
      <path
        className="st0"
        d="M 10.5,0.2 H 2.8 C 1.6,0.2 0.6,1.3 0.6,2.7 v 9.6 c 0,1.4 1,2.5 2.2,2.5 h 8.4 c 1.2,0 2.2,-1.1 2.2,-2.5 V 4.1 Z m 1.8,3.9 H 10.4 V 1.5 Z m -1.1,9.8 H 2.8 C 2,13.9 1.4,13.2 1.4,12.3 V 2.7 C 1.4,1.8 2,1.1 2.8,1.1 h 6.9 v 3.8 h 2.9 v 7.4 c 0,0.9 -0.6,1.6 -1.4,1.6 z"
        id="path1078"
        style="fill:#000"
      />
      <path
        className="st0"
        d="M 11.4,8.7 H 3.7 C 3.5,8.7 3.3,8.5 3.3,8.3 3.3,8.1 3.5,7.9 3.7,7.9 h 7.7 c 0.2,0 0.4,0.2 0.4,0.4 0,0.2 -0.2,0.4 -0.4,0.4 z"
        id="path1080"
        style="fill:#000"
      />
      <path
        className="st0"
        d="M 11.4,11.4 H 3.7 c -0.2,0 -0.4,-0.2 -0.4,-0.4 0,-0.2 0.2,-0.4 0.4,-0.4 h 7.7 c 0.2,0 0.4,0.2 0.4,0.4 0,0.2 -0.2,0.4 -0.4,0.4 z"
        id="path1082"
        style="fill:#000"
      />
      <path
        className="st0"
        d="M 8.9,5.9 H 3.7 C 3.5,5.9 3.3,5.7 3.3,5.5 3.3,5.3 3.5,5.1 3.7,5.1 h 5.2 c 0.2,0 0.4,0.2 0.4,0.4 0,0.2 -0.2,0.4 -0.4,0.4 z"
        id="path1090"
        style="fill:#000"
      />
      <rect
        style="fill:#ffffff;fill-rule:evenodd;stroke:#ffffff;stroke-width:1.29357"
        id="rect1785"
        width="6.3530383"
        height="7.1734123"
        x="7.1108155"
        y="7.1500731"
        rx="0.96071088"
        ry="1.6844622"
      />
      <path
        d="m 13.11699,8.3013586 c 0,0 -0.280898,0 -0.344332,0 -0.940805,0 -1.76074,-0.3668 -2.410626,-1.0330961 -0.6498522,0.6662717 -1.4697199,1.0330961 -2.410493,1.0330961 -0.063425,0 -0.3443644,0 -0.3443644,0 0,0 -3.25e-5,0.6887317 -3.25e-5,1.0902996 0,1.9606418 1.1706375,3.6080858 2.7549249,4.0751828 1.584289,-0.467097 2.754923,-2.114541 2.754923,-4.0751828 0,-0.4015679 0,-1.0902996 0,-1.0902996 z"
        stroke="#000"
        stroke-width="0.688732"
        stroke-linecap="round"
        stroke-linejoin="round"
        id="path1395-4"
        style="fill:#ffffff;stroke:#000;stroke-opacity:1"
      />
      <path
        d="M 9.3007907,10.515078 9.977552,11.191838 11.66945,9.4999402"
        stroke="#000"
        stroke-width="0.507569"
        stroke-linecap="round"
        stroke-linejoin="round"
        id="path2706"
        style="fill:#ffffff"
      />
    </svg>
