<?xml version="1.0" encoding="UTF-8" standalone="no"?>

<svg
   version="1.1"
   id="Layer_1"
   x="0px"
   y="0px"
   viewBox="0 0 225 225"
   xml_space="preserve"
   width="225"
   height="225"
   xmlns="http://www.w3.org/2000/svg"
   xmlns_svg="http://www.w3.org/2000/svg"><defs
   id="defs1095" />
<style
   type="text/css"
   id="style1076">
	.st0{fill:#2F2F2F;}
	.st1{fill:#FFFFFF;}
</style>


<g
   id="g1343"
   transform="translate(11.672923,2.7284945)"><path
     class="st0"
     d="M 147.48396,0.2 H 33.240878 C 15.436763,0.2 0.6,16.52044 0.6,37.291909 V 179.72484 c 0,20.77146 14.836763,37.0919 32.640878,37.0919 H 157.86969 c 17.80412,0 32.64088,-16.32044 32.64088,-37.0919 V 58.063376 Z m 26.70617,57.863376 H 146.00028 V 19.487792 Z M 157.86969,203.46365 H 33.240878 c -11.86941,0 -20.771467,-10.38573 -20.771467,-23.73881 V 37.291909 c 0,-13.353088 8.902057,-23.738822 20.771467,-23.738822 H 135.61455 v 56.3797 h 43.02661 V 179.72484 c 0,13.35308 -8.90206,23.73881 -20.77147,23.73881 z"
     id="path1078"
     style="fill:#000000;stroke-width:14.8368" /><path
     class="st0"
     d="M 160.83704,126.31249 H 46.593966 c -2.967352,0 -5.934706,-2.96735 -5.934706,-5.93471 0,-2.96735 2.967354,-5.9347 5.934706,-5.9347 H 160.83704 c 2.96736,0 5.93471,2.96735 5.93471,5.9347 0,2.96736 -2.96735,5.93471 -5.93471,5.93471 z"
     id="path1080"
     style="fill:#000000;stroke-width:14.8368" /><path
     class="st0"
     d="M 160.83704,166.37175 H 46.593966 c -2.967352,0 -5.934706,-2.96735 -5.934706,-5.93471 0,-2.96735 2.967354,-5.9347 5.934706,-5.9347 H 160.83704 c 2.96736,0 5.93471,2.96735 5.93471,5.9347 0,2.96736 -2.96735,5.93471 -5.93471,5.93471 z"
     id="path1082"
     style="fill:#000000;stroke-width:14.8368" /><path
     class="st0"
     d="M 123.74514,84.769551 H 46.593966 c -2.967352,0 -5.934706,-2.967353 -5.934706,-5.934705 0,-2.967354 2.967354,-5.934705 5.934706,-5.934705 h 77.151174 c 2.96735,0 5.9347,2.967351 5.9347,5.934705 0,2.967352 -2.96735,5.934705 -5.9347,5.934705 z"
     id="path1090"
     style="fill:#000000;stroke-width:14.8368" /><rect
     style="fill:#ffffff;fill-rule:evenodd;stroke:#ffffff;stroke-width:19.1924"
     id="rect1785"
     width="94.25853"
     height="106.43022"
     x="97.199425"
     y="103.31659"
     rx="14.25384"
     ry="24.991966" /><path
     d="m 186.31162,120.39794 c 0,0 -4.16762,0 -5.10877,0 -13.95851,0 -26.12369,-5.44213 -35.76589,-15.3278 -9.6417,9.88531 -21.80589,15.3278 -35.76392,15.3278 -0.94102,0 -5.10925,0 -5.10925,0 0,0 -4.8e-4,10.21855 -4.8e-4,16.17652 0,29.08958 17.36847,53.53231 40.87417,60.46252 23.50572,-6.93021 40.87414,-31.37294 40.87414,-60.46252 0,-5.95797 0,-16.17652 0,-16.17652 z"
     stroke="#000000"
     stroke-width="10.2186"
     stroke-linecap="round"
     stroke-linejoin="round"
     id="path1395-4"
     style="fill:#ffffff;stroke:#000000;stroke-opacity:1" /><path
     d="m 129.69157,153.24237 10.04095,10.04093 25.10229,-25.10229"
     stroke="#000000"
     stroke-width="7.53068"
     stroke-linecap="round"
     stroke-linejoin="round"
     id="path2706"
     style="fill:#ffffff" /></g></svg>
