<?xml version="1.0" encoding="utf-8"?>
<!-- Generator: Adobe Illustrator 26.0.0, SVG Export Plug-In . SVG Version: 6.00 Build 0)  -->
<svg version="1.1" id="Layer_1" xmlns="http://www.w3.org/2000/svg" xmlns:xlink="http://www.w3.org/1999/xlink" x="0px" y="0px"
	 viewBox="0 0 15 15" style="enable-background:new 0 0 15 15;" xml:space="preserve">
<style type="text/css">
	.st0{fill:#2F2F2F;}
	.st1{fill:#FFFFFF;}
</style>
<g>
	<path class="st0" d="M10.6,0.2H2.9c-1.2,0-2.2,1.1-2.2,2.5v9.6c0,1.4,1,2.5,2.2,2.5h8.4c1.2,0,2.2-1.1,2.2-2.5V4.1L10.6,0.2z
		 M12.4,4.1h-1.9V1.5L12.4,4.1z M11.3,13.9H2.9c-0.8,0-1.4-0.7-1.4-1.6V2.7c0-0.9,0.6-1.6,1.4-1.6h6.9v3.8h2.9v7.4
		C12.7,13.2,12.1,13.9,11.3,13.9z"/>
	<path class="st0" d="M10.8,8.7h-7c-0.2,0-0.4-0.2-0.4-0.4s0.2-0.4,0.4-0.4h7c0.2,0,0.4,0.2,0.4,0.4S11,8.7,10.8,8.7z"/>
	<path class="st0" d="M11.5,11.4H3.8c-0.2,0-0.4-0.2-0.4-0.4s0.2-0.4,0.4-0.4h7.7c0.2,0,0.4,0.2,0.4,0.4S11.7,11.4,11.5,11.4z"/>
</g>
<path class="st0" d="M9,6H3.8C3.6,6,3.4,5.8,3.4,5.6s0.2-0.4,0.4-0.4H9c0.2,0,0.4,0.2,0.4,0.4S9.2,6,9,6z"/>
<g>
	<g>
		<path class="st0" d="M8.2,8.9C8.3,8.2,8.7,7.4,9.1,7c0.7-0.6,1.1-0.6,1.5-0.6c0.3,0,0.6,0.4,0.6,0.6S11,7.5,10.8,7.5
			c-0.1,0-0.1,0-0.2,0c-0.2-0.3-0.5-0.3-0.7-0.3S9.5,7.8,9.2,8.9H10v0.4c-0.3,0-0.5,0-0.8,0C9.1,9.9,9,10.8,8.8,11.7
			c-0.4,1.7-0.8,2.1-1.4,2.6c-0.4,0.3-0.8,0.3-1,0.3c-0.3,0-0.7-0.1-0.7-0.4c0-0.2,0.3-0.7,0.6-0.5c0.3,0.4,0.5,0.4,0.7,0.4
			c0.4,0,0.4-0.5,0.7-1.9c0.2-1,0.4-1.9,0.6-2.9H7.6l0,0l0.1-0.4H8.2z"/>
		<path class="st1" d="M10.5,6.4c0.4,0,0.7,0.4,0.7,0.6c0,0.3-0.5,0.7-0.7,0.3C10.3,7,10.3,7,10.1,7S9.5,7.1,9.2,8.9H10L9.9,9.3
			c-0.3,0-0.4,0.1-0.7,0.1C9.1,9.9,9,10.8,8.8,11.7c-0.4,1.7-0.8,2.1-1.4,2.6c-0.4,0.3-0.8,0.3-1,0.3c-0.3,0-0.5-0.1-0.6-0.4
			c-0.1-0.2,0.3-0.7,0.5-0.5c0.3,0.4,0.5,0.4,0.7,0.4c0.4,0,0.4-0.5,0.7-1.9c0.2-1,0.4-1.9,0.6-2.9H7.6l0,0l0.1-0.4h0.6
			C8.5,8.1,8.8,7.4,9.2,7C9.6,6.5,10.1,6.4,10.5,6.4 M10.6,6.3c-0.5,0-1.2,0.3-1.7,0.8C8.5,7.4,8.2,8,8,8.7H7.8H7.6L7.4,8.8L7.3,9
			L7.1,9.2l0.1,0.2l0.1,0.2h0.3h0.2c-0.1,0.5-0.2,0.9-0.3,1.4l-0.2,1c0,0.2-0.1,0.4-0.1,0.6C7.1,13,7,13.5,7,13.6
			c-0.1,0-0.2-0.1-0.4-0.3c-0.1-0.1-0.2-0.1-0.3-0.1c-0.1,0-0.2,0-0.3,0.1c-0.3,0.1-0.6,0.5-0.6,0.9s0.4,0.8,1,0.8
			c0.4,0,1-0.2,1.4-0.5l0,0c0.7-0.6,0.9-1,1.3-2.7c0.1-0.5,0.2-0.9,0.2-1.3c0.1-0.3,0.1-0.6,0.2-0.8c0.1,0,0.3,0,0.4,0h0.2l0.1-0.2
			l0.1-0.2l0.3-0.6H9.9H9.8C9.9,8,10,7.6,10.1,7.5c0.1,0,0.2,0.1,0.3,0.3c0,0,0.5,0,0.6-0.1c0.4-0.1,0.6-0.3,0.6-0.7
			C11.6,6.6,11.2,6.3,10.6,6.3L10.6,6.3z"/>
	</g>
	<g>
		<path class="st0" d="M10.2,9.8c0,0,0.8-0.9,1.2-0.8c0.2,0,0.3,0.1,0.5,0.6c0.1,0.2,0.2,0.5,0.2,0.5c0.6-1,1.1-1.2,1.4-1.2
			c0.3,0,0.4,0.2,0.4,0.4s-0.2,0.5-0.4,0.5c-0.1,0-0.1-0.1-0.2-0.1c-0.1-0.1-0.1-0.2-0.3-0.2c-0.1,0-0.4,0.2-0.9,0.9l0.3,1
			c0.2,0.4,0.3,0.6,0.5,0.6c0.1,0,0.3-0.1,0.6-0.4l0.1,0.1c-0.5,0.7-1,1-1.3,1s-0.4-0.3-0.6-0.7c-0.1-0.2-0.2-0.7-0.2-0.7
			c-0.8,1.1-1.1,1.4-1.5,1.4c-0.2,0-0.4-0.2-0.4-0.4c0-0.3,0.3-0.5,0.5-0.5s0.2,0.3,0.4,0.3s0.5-0.3,1-1l-0.2-0.7
			c-0.2-0.5-0.2-0.5-0.3-0.6c-0.2-0.2-0.4-0.1-0.7,0.1L10.2,9.8z"/>
		<path class="st1" d="M13.5,8.9c0.3,0,0.4,0.2,0.4,0.4s-0.2,0.5-0.4,0.5c-0.4,0-0.3-0.3-0.5-0.3c-0.1,0-0.4,0.2-0.9,0.9l0.3,1
			c0.2,0.4,0.3,0.6,0.5,0.6c0.1,0,0.3-0.1,0.6-0.4l0.1,0.1c-0.5,0.7-1,1-1.3,1s-0.4-0.3-0.6-0.7c-0.1-0.2-0.2-0.7-0.2-0.7
			c-0.8,1.1-1.1,1.4-1.5,1.4c-0.2,0-0.4-0.2-0.4-0.4c0-0.3,0.3-0.5,0.5-0.5s0.2,0.3,0.4,0.3s0.5-0.3,1-1c0,0,0,0-0.2-0.7
			c-0.3-1.1-0.6-0.8-1-0.5l-0.1-0.1c0.5-0.6,0.9-0.9,1.2-0.9c0.2,0,0.6,0.6,0.7,1v0.2C12.6,9.2,13.2,8.9,13.5,8.9 M13.5,8.5
			c-0.4,0-0.7,0.3-1.2,0.8c-0.1-0.3-0.4-1.1-0.9-0.8c-0.3,0.2-1.1,0.6-1.5,1.1L9.7,9.8L9.9,10l0.1,0.1l0.3,0.4l0.3-0.3l0.1-0.1
			c0,0.1,0,0.1,0.1,0.2l0.2,0.5c-0.2,0.3-0.4,0.5-0.5,0.6c-0.1-0.1-0.2-0.2-0.4-0.2c-0.4,0-0.9,0.5-0.9,0.9c0,0.5,0.3,0.8,0.8,0.8
			s0.8-0.3,1.4-1l0,0c0.1,0.4,0.3,1.2,1,1.2c0.5,0,1.1-0.6,1.6-1.3l0.2-0.2L14,11.4l-0.1-0.1L13.7,11c0,0-0.4,0.6-0.7,0.5
			c-0.2-0.1-0.3-1-0.3-1c0.2-0.2,0.3-0.4,0.4-0.4c0.2,0.2,0.3,0.2,0.4,0.2c0.4,0,0.8-0.5,0.8-0.9C14.3,8.8,14,8.5,13.5,8.5L13.5,8.5
			z"/>
	</g>
</g>
</svg>
