<?xml version="1.0" encoding="utf-8"?>
<!-- Generator: Adobe Illustrator 26.0.0, SVG Export Plug-In . SVG Version: 6.00 Build 0)  -->
<svg version="1.1" id="Layer_1" xmlns="http://www.w3.org/2000/svg" xmlns:xlink="http://www.w3.org/1999/xlink" x="0px" y="0px"
	 viewBox="0 0 15 15" style="enable-background:new 0 0 15 15;" xml:space="preserve">
<style type="text/css">
	.st0{fill:#2F2F2F;}
	.st1{fill:#FFFFFF;}
</style>
<path class="st0" d="M10.5,0.2H2.8c-1.2,0-2.2,1.1-2.2,2.5v9.6c0,1.4,1,2.5,2.2,2.5h8.4c1.2,0,2.2-1.1,2.2-2.5V4.1L10.5,0.2z
	 M12.3,4.1h-1.9V1.5L12.3,4.1z M11.2,13.9H2.8c-0.8,0-1.4-0.7-1.4-1.6V2.7c0-0.9,0.6-1.6,1.4-1.6h6.9v3.8h2.9v7.4
	C12.6,13.2,12,13.9,11.2,13.9z"/>
<path class="st0" d="M11.4,8.7H3.7c-0.2,0-0.4-0.2-0.4-0.4s0.2-0.4,0.4-0.4h7.7c0.2,0,0.4,0.2,0.4,0.4S11.6,8.7,11.4,8.7z"/>
<path class="st0" d="M11.4,11.4H3.7c-0.2,0-0.4-0.2-0.4-0.4s0.2-0.4,0.4-0.4h7.7c0.2,0,0.4,0.2,0.4,0.4S11.6,11.4,11.4,11.4z"/>
<g>
	<path class="st0" d="M13.8,14.8c-0.1,0-0.3,0-0.4-0.1l-2.6-2.4c-0.6,0.4-1.3,0.7-2,0.7C7,13,5.5,11.5,5.5,9.7S7,6.4,8.8,6.4
		s3.3,1.5,3.3,3.3c0,0.7-0.2,1.4-0.6,2l2.6,2.3c0.1,0.1,0.2,0.2,0.2,0.4s0,0.3-0.1,0.4C14.1,14.8,13.9,14.8,13.8,14.8z M8.9,7.3
		c-1.3,0-2.3,1.1-2.3,2.3c0,1.3,1,2.3,2.3,2.3s2.3-1,2.3-2.3C11.2,8.4,10.1,7.3,8.9,7.3z"/>
	<path class="st1" d="M8.9,6.4c1.8,0,3.2,1.4,3.2,3.2c0,0.7-0.3,1.4-0.7,2l2.7,2.4c0.2,0.2,0.2,0.4,0,0.6c-0.2,0.2-0.5,0-0.6-0.1
		l-2.6-2.4l0,0c-0.5,0.4-1.2,0.7-2,0.7c-1.8,0-3.2-1.4-3.2-3.2C5.7,7.9,7.1,6.4,8.9,6.4 M8.9,12.1c1.4,0,2.4-1.1,2.4-2.4
		c0-1.4-1.1-2.4-2.4-2.4c-1.4,0-2.4,1.1-2.4,2.4C6.4,11,7.5,12.1,8.9,12.1 M8.9,6.1c-2,0-3.5,1.6-3.5,3.5s1.6,3.5,3.5,3.5
		c0.7,0,1.4-0.2,2-0.6l2.5,2.3c0.1,0.1,0.3,0.2,0.5,0.2s0.4-0.1,0.5-0.2c0.1-0.1,0.2-0.3,0.2-0.5s-0.1-0.3-0.2-0.5l-2.5-2.2
		c0.4-0.6,0.6-1.2,0.6-1.9C12.4,7.7,10.8,6.1,8.9,6.1L8.9,6.1z M8.9,11.8c-1.2,0-2.1-1-2.1-2.1c0-1.2,1-2.1,2.1-2.1
		c1.2,0,2.1,1,2.1,2.1S10.1,11.8,8.9,11.8L8.9,11.8z"/>
</g>
<path class="st0" d="M8.9,5.9H3.7c-0.2,0-0.4-0.2-0.4-0.4s0.2-0.4,0.4-0.4h5.2c0.2,0,0.4,0.2,0.4,0.4S9.1,5.9,8.9,5.9z"/>
</svg>
