<svg viewBox="0 0 24 24" fill="none" xmlns="http://www.w3.org/2000/svg">
<path d="M22 5H17V2C17 1.73478 16.8946 1.48043 16.7071 1.29289C16.5196 1.10536 16.2652 1 16 1H8C7.73478 1 7.48043 1.10536 7.29289 1.29289C7.10536 1.48043 7 1.73478 7 2V5H2C1.73478 5 1.48043 5.10536 1.29289 5.29289C1.10536 5.48043 1 5.73478 1 6C1 6.26522 1.10536 6.51957 1.29289 6.70711C1.48043 6.89464 1.73478 7 2 7H3.117L5.008 22.124C5.03822 22.3658 5.1557 22.5883 5.33836 22.7496C5.52103 22.9109 5.75631 22.9999 6 23H18C18.2437 22.9999 18.479 22.9109 18.6616 22.7496C18.8443 22.5883 18.9618 22.3658 18.992 22.124L20.883 7H22C22.2652 7 22.5196 6.89464 22.7071 6.70711C22.8946 6.51957 23 6.26522 23 6C23 5.73478 22.8946 5.48043 22.7071 5.29289C22.5196 5.10536 22.2652 5 22 5ZM9 3H15V5H9V3ZM17.117 21H6.883L5.133 7H18.867L17.117 21Z" fill="currentColor"/>
</svg>
