<?xml version="1.0" encoding="UTF-8"?>
<svg width="35px" height="35px" viewBox="0 0 35 35" version="1.1" xmlns="http://www.w3.org/2000/svg" xmlns:xlink="http://www.w3.org/1999/xlink">
    <title>delta-logo-rev</title>
    <g id="delta-logo-rev" stroke="none" stroke-width="1" fill="none" fill-rule="evenodd">
        <path d="M34.5592717,28.0928444 L18.5379045,0.69978358 C18.1796084,0.0873136379 17.2944486,0.0873136379 16.9361525,0.69978358 L3.32065957,23.9789316 C3.08139471,24.3884473 3.51327379,24.8612058 3.94250773,24.6599347 C4.11877018,24.5769735 4.32220543,24.4935314 4.54559945,24.4103298 L4.54103057,24.4194675 C4.54103057,24.4194675 4.91303332,24.2751872 5.54161457,24.0760804 C6.23440055,23.8632669 6.99355548,23.6617554 7.68081072,23.4915046 C9.60382686,23.0476022 12.1236826,22.68618 14.3958571,23.063473 C16.4869598,23.4104672 17.9432291,23.9709962 19.0039299,24.5219066 C19.4901546,24.774878 19.9494469,24.1400447 19.5562831,23.7579423 C18.0355685,22.2800309 15.6955823,20.4960048 12.1364273,19.7483923 C11.9806046,19.7156888 11.9024528,19.5399072 11.9830093,19.40236 L17.3432635,10.2374339 C17.5195259,9.93636895 17.9545311,9.93636895 18.1307935,10.2374339 L28.3679629,27.7408004 C28.583662,28.1094366 28.4028306,28.5802714 27.9978839,28.7158949 C27.1956853,28.9840158 26.2374236,29.1845654 25.1646994,29.1845654 C24.4822535,29.1845654 23.7957197,29.1040089 23.1075026,28.9440982 C23.1070216,28.9440982 21.1236482,28.63101 18.4720165,27.0489763 C15.8203847,25.4671831 10.7078117,23.4491824 4.97098592,26.7161697 C2.52663689,28.2869014 0.897952594,30.4352353 0.0397251804,31.7840158 C-0.0946959808,31.995146 0.137354861,32.2469151 0.358103744,32.1290862 C2.32921333,31.0760804 7.64377877,28.5891687 12.4326829,29.4832257 C15.2790931,30.0144177 18.5318928,32.1632326 21.9133425,33.3953865 C27.5070903,35.4682137 32.9911852,31.9953865 33.0029681,31.987932 C33.5827345,31.6048677 33.923236,31.313662 33.9811886,31.2631639 L34.0511645,31.2020852 C34.9449811,30.4220096 35.1582755,29.1167537 34.5592717,28.0928444" id="Glpyh" fill="#00ADD4"></path>
    </g>
</svg>