<svg width="64px" height="64px" xmlns="http://www.w3.org/2000/svg" xmlns:xlink="http://www.w3.org/1999/xlink" id="Ebene_1" x="0" y="0" version="1.1" 
  viewBox="250 7 270 340" style="enable-background:new 250 7 270 340" xml:space="preserve">
    <style type="text/css">.st0-duckdb{fill:#fff100}</style>
    <g>
        <path d="M384.8,344.4L384.8,344.4c-92.5,0-167.2-74.7-167.2-167.2l0,0C217.6,84.7,292.3,10,384.8,10l0,0 C477.3,10,552,84.7,552,177.2l0,0C552,269.6,477.3,344.4,384.8,344.4z"/>
        <path d="M474.2,152.2h-32.8v49.5h32.8c13.7,0,24.9-11.3,24.9-24.9S487.9,152.2,474.2,152.2" class="st0-duckdb"/>
        <path d="M280.7,177.1c0,38.2,31.1,69.3,69.3,69.3c38.2,0,69.3-31.1,69.3-69.3s-31.1-69.3-69.3-69.3 C311.8,107.8,280.7,138.9,280.7,177.1L280.7,177.1" class="st0-duckdb"/>
    </g>
</svg>