<svg id="Layer_1" data-name="Layer 1" xmlns="http://www.w3.org/2000/svg" viewBox="0 0 500 500"><defs><style>.cls-1{fill:#312951;}</style></defs><path class="cls-1" d="M443.31,266.34h-82.9q-.07-39.13-.34-78.26c-.14-21.82-8.3-40.91-24-56.51-22.45-22.35-45.17-44.43-67.16-67.23-17.59-18.21-38.73-26.8-63.71-26.82-24.75,0-49.52,0-74.28,0a83.07,83.07,0,0,0-14.87,1.14c-44.1,7.81-74.5,44-74.51,88.81q-.07,122.63,0,245.25a97.89,97.89,0,0,0,2.53,22.19c8.16,35.12,40.63,63.93,75.42,66.88h0a.71.71,0,0,1,.08.73h161c.19-.65.7-.71,1.27-.77,36.66-3.94,67.33-31.27,75.86-65.79h85.6a15.15,15.15,0,0,0,15.15-15.16v-99.3A15.15,15.15,0,0,0,443.31,266.34ZM222.42,75.23A46.08,46.08,0,0,1,241,86.5q35.15,35.18,70.34,70.34a46.21,46.21,0,0,1,11.37,19c.85,2.64.36,3.55-2.67,3.52-14-.16-27.92-.07-41.88-.07q-19.89,0-39.79,0c-12.5,0-19.79-7.34-19.8-19.88,0-27.07.07-54.16-.09-81.25C218.43,74.54,219.49,74.26,222.42,75.23ZM271.08,427q-70.09.19-140.21,0c-30.65-.09-53.72-23.19-53.8-53.82C77,332.1,77,291,77,249.94s-.06-81.87,0-122.81c.06-27.4,18-48.72,44.84-53.52a54.8,54.8,0,0,1,9.51-.58c15.9-.06,31.81.08,47.71-.11,3.52,0,4.25,1,4.23,4.39q-.21,41.7,0,83.39c.1,27.16,17.95,48.37,44.7,53.17a60.29,60.29,0,0,0,10.76.63q41.06.06,82.13,0c3,0,4,.57,4,3.81q-.06,24-.05,48.07H173.62a15.15,15.15,0,0,0-15.16,15.15v99.3A15.16,15.16,0,0,0,173.62,396H320C311.74,414.53,293.38,426.92,271.08,427Zm5.05-84.42a32.05,32.05,0,0,0-9.25-3.12l-7.21-1.58q-10.63-2.34-14.61-5.1-6.74-4.62-6.73-14.42a19.15,19.15,0,0,1,6.58-14.87q6.6-5.91,19.35-5.92,10.67,0,18.19,5.58t7.89,16.2H277a9.52,9.52,0,0,0-5.37-8.54,18.46,18.46,0,0,0-8.29-1.67c-3.68,0-6.61.72-8.81,2.17a6.87,6.87,0,0,0-3.28,6.05,5.72,5.72,0,0,0,3.24,5.34q2.09,1.17,8.85,2.75L275,328.2q7.68,1.82,11.52,4.84,6,4.69,5.95,13.6a19.12,19.12,0,0,1-7,15.16q-7.07,6-19.94,6-13.16,0-20.69-5.94t-7.54-16.34h13.29a13.44,13.44,0,0,0,2.54,6.83c2.3,2.74,6.26,4.11,11.85,4.11a25.6,25.6,0,0,0,8.17-1.08q6-2.09,6-7.73A5.71,5.71,0,0,0,276.13,342.57Zm-77.38,10.69q1.42,3.14,6.09,3.14T211,353c.6-1.36.89-3.65.89-6.87V299.51h13.92v46.36q0,8.49-2.87,13.47-4.86,8.4-17.54,8.4t-17-6.8Q184,354.15,184,342.39v-1.54h13.15v1.54Q197.33,350.12,198.75,353.26Zm154.77,6.94Q346,368,331.69,368t-21.83-7.77q-10.12-9.54-10.12-27.48,0-18.3,10.12-27.48,7.54-7.77,21.83-7.77t21.83,7.77q10.07,9.18,10.07,27.48Q363.59,350.66,353.52,360.2ZM428,366.12H414.07L387,318.85v47.27H374V299.51h14.59L415,346V299.51h13Z"/><path class="cls-1" d="M331.69,309.27a16.1,16.1,0,0,0-13.2,6.1q-4.92,6.09-4.92,17.35t4.92,17.35a16.1,16.1,0,0,0,13.2,6.1,15.9,15.9,0,0,0,13.13-6.1q4.86-6.09,4.86-17.35t-4.86-17.33A15.89,15.89,0,0,0,331.69,309.27Z"/></svg>