<svg height="200px" width="200px" version="1.1" id="_x32_" xmlns="http://www.w3.org/2000/svg" xmlns:xlink="http://www.w3.org/1999/xlink" viewBox="0 0 512 512" xml:space="preserve" fill="#000000"><g id="SVGRepo_bgCarrier" stroke-width="0"></g><g id="SVGRepo_tracerCarrier" stroke-linecap="round" stroke-linejoin="round"></g><g id="SVGRepo_iconCarrier"> <style type="text/css"> .st0{fill:#000000;} </style> <g> <path class="st0" d="M256,0c-80.076,0-145.222,65.146-145.222,145.222c0,31.671,10.018,61.773,28.974,87.04 c16.052,21.412,38.075,38.182,62.832,48.014v193.549c0,8.448,4.089,16.443,10.933,21.384l16.336,11.799 c4.522,3.266,9.862,4.991,15.435,4.991c8.221,0,16.088-3.911,21.05-10.464l39.864-52.728c7.078-9.372,7.078-22.464-0.014-31.828 l-8.612-11.366l8.598-11.353c7.106-9.371,7.106-22.478,0-31.856l-8.512-11.232l24.593-31.778c3.557-4.6,5.524-10.33,5.524-16.144 v-31.764c20.489-11.658,37.883-28.157,50.655-48.142c14.909-23.316,22.79-50.33,22.79-78.124C401.222,65.146,336.076,0,256,0z M312.754,262.428v40.823c0,2.52-0.838,4.962-2.379,6.95l-26.311,33.993c-3.146,4.061-3.174,9.719-0.071,13.809l10.209,13.468 c3.067,4.054,3.067,9.662,0,13.716l-15.463,20.411v0.021l15.47,20.426c3.066,4.054,3.066,9.649,0.007,13.702l-39.864,52.721 c-2.23,2.954-5.63,4.508-9.066,4.508c-2.308,0-4.636-0.702-6.638-2.151l-16.336-11.792c-2.953-2.138-4.707-5.56-4.707-9.208 v-204.17c-53.162-16.379-91.805-65.892-91.805-124.434c0-71.912,58.295-130.199,130.2-130.199 c71.912,0,130.199,58.288,130.199,130.199C386.199,196.786,356.224,241.343,312.754,262.428z"></path> <path class="st0" d="M256.852,67.488c-15.037,0-27.234,12.19-27.234,27.234c0,15.036,12.197,27.226,27.234,27.226 c15.037,0,27.234-12.19,27.234-27.226C284.086,79.679,271.889,67.488,256.852,67.488z"></path> <path class="st0" d="M242.319,455.693H256V275.421c-4.622,0-9.187-0.248-13.681-0.717V455.693z"></path> </g> </g></svg>