<svg fill="#ffffff" height="200px" width="200px" version="1.1" id="Layer_1" xmlns="http://www.w3.org/2000/svg" xmlns:xlink="http://www.w3.org/1999/xlink" viewBox="0 0 512 512" xml:space="preserve"><g id="SVGRepo_bgCarrier" stroke-width="0"></g><g id="SVGRepo_tracerCarrier" stroke-linecap="round" stroke-linejoin="round"></g><g id="SVGRepo_iconCarrier"> <g> <g> <path d="M500.599,157.899l-230.4-153.6c-8.6-5.731-19.801-5.731-28.401,0l-230.4,153.6C4.279,162.647,0,170.641,0,179.2v307.2 C0,500.538,11.462,512,25.6,512h460.8c14.138,0,25.6-11.462,25.6-25.6V179.2C512,170.641,507.721,162.647,500.599,157.899z M256,56.367l184.62,123.08L256,302.068L71.38,179.447L256,56.367z M460.8,460.8H51.2V227.508l190.636,126.616 c4.291,2.85,9.226,4.275,14.164,4.275s9.873-1.425,14.164-4.275L460.8,227.508V460.8z"></path> </g> </g> </g></svg>