<?xml version="1.0" encoding="UTF-8"?>
<svg width="64px" height="64px" version="1.1" viewBox="0 0 24 24" xmlns="http://www.w3.org/2000/svg">
 <path class="cls-1" d="m23.702 4.3897a0.33668 0.33668 0 0 0-0.22875-0.076518c-0.22794 0-0.52274 0.15465-0.68142 0.23761l-0.06283 0.032219a2.1635 2.1635 0 0 1-0.85137 0.21425c-0.30285 0.00966-0.56382 0.027386-0.90372 0.062826-2.0136 0.207-2.9117 1.7503-3.7768 3.2428-0.47119 0.8119-0.95769 1.6552-1.6246 2.2996a4.3817 4.3817 0 0 1-0.43897 0.37293c-0.69028 0.51308-1.5569 0.87956-2.2311 1.1389-0.6492 0.24808-1.358 0.47119-2.0426 0.68706-0.62745 0.19734-1.2195 0.3842-1.7639 0.58637-0.24566 0.09102-0.45428 0.16109-0.63873 0.22231-0.49616 0.16109-0.85378 0.28433-1.3765 0.64436-0.20378 0.13934-0.40837 0.28996-0.5469 0.40273a5.7687 5.7687 0 0 0-1.0914 1.1494 6.786 6.786 0 0 1-0.91661 1.1003c-0.11035 0.10793-0.30607 0.16109-0.59926 0.16109-0.34312 0-0.75955-0.07088-1.2001-0.14579-0.45428-0.08055-0.92386-0.15706-1.3266-0.15706-0.32702 0-0.57751 0.05316-0.76438 0.16109 0 0-0.31493 0.18364-0.44783 0.42125l0.13048 0.0588a2.6749 2.6749 0 0 1 0.55738 0.40273 2.7965 2.7965 0 0 0 0.57993 0.41239 0.49777 0.49777 0 0 1 0.17881 0.11357c-0.054776 0.08055-0.13532 0.18445-0.21989 0.2956-0.46475 0.60812-0.73619 0.99232-0.58073 1.2017a0.48891 0.48891 0 0 0 0.24164 0.05478c1.0133 0 1.5578-0.26338 2.2464-0.59684 0.19975-0.09666 0.40273-0.19573 0.64437-0.29802 0.40273-0.17478 0.83606-0.45347 1.296-0.74827 0.60168-0.39226 1.2307-0.79498 1.8413-0.9891a5.018 5.018 0 0 1 1.5489-0.21747c0.64436 0 1.3226 0.08618 1.9766 0.16995 0.4873 0.06283 0.99232 0.12726 1.4877 0.15706 0.1925 0.01127 0.37051 0.01692 0.54368 0.01692a6.2995 6.2995 0 0 0 0.6935-0.03624l0.05558-0.01933c0.34715-0.21345 0.50985-0.67175 0.66772-1.1148 0.10149-0.28513 0.18686-0.54127 0.32218-0.70397a0.20539 0.20539 0 0 1 0.02577-0.02175 0.032218 0.032218 0 0 1 0.03947 0.0064v0.01288c-0.08055 1.7325-0.77807 2.8328-1.4837 3.8106l-0.47119 0.50502s0.65967 0 1.035-0.14498c1.3693-0.40917 2.4027-1.3113 3.155-2.7498a11.736 11.736 0 0 0 0.49697-1.1349c0.01288-0.03222 0.13129-0.09182 0.12001 0.07491-0.0041 0.04913-0.0073 0.1039-0.01127 0.16109 0 0.03383 0 0.06846-0.0064 0.1031-0.01933 0.24164-0.07652 0.7523-0.07652 0.7523l0.42286-0.22633c1.0197-0.64436 1.8058-1.9444 2.4019-3.9669 0.24808-0.84251 0.43011-1.6794 0.5904-2.4164 0.1917-0.886 0.35682-1.6455 0.5461-1.9403 0.29721-0.46233 0.75069-0.77485 1.1897-1.0785 0.0596-0.041078 0.12001-0.080545 0.17881-0.12404 0.55174-0.38742 1.1003-0.83445 1.2211-1.6681v-0.018525c0.08779-0.62181 0.0137-0.78049-0.07088-0.85298z" fill="#003545" stroke-width=".080546"/>
</svg>
