<?xml version="1.0" encoding="utf-8"?>
<!-- Generator: Adobe Illustrator 26.0.0, SVG Export Plug-In . SVG Version: 6.00 Build 0)  -->
<svg version="1.1" id="Capa_1" xmlns="http://www.w3.org/2000/svg" xmlns:xlink="http://www.w3.org/1999/xlink" x="0px" y="0px"
	 viewBox="0 0 58.8 53" style="enable-background:new 0 0 58.8 53;" xml:space="preserve">
<style type="text/css">
	.st0{fill:#FFFFFF;}
</style>
<path d="M46.8-0.2H12c-2,0-3.7,1.6-3.7,3.7V38c0,2,1.7,3.6,3.7,3.6h34.8c2,0,3.7-1.6,3.7-3.6V3.5C50.5,1.4,48.8-0.2,46.8-0.2z
	 M11.3,11.3h16.6v12.2H11.3V11.3z M30.9,11.3h16.6v12.2H30.9L30.9,11.3z M11.3,38V26.5h16.6v12.2H12C11.6,38.7,11.3,38.4,11.3,38z
	 M46.8,38.7H30.9V26.5h16.6V38C47.5,38.4,47.2,38.7,46.8,38.7L46.8,38.7z"/>
<path d="M3.1,46.7h52.6c0.7,0,1.2,0.6,1.2,1.2l0,0c0,0.7-0.6,1.2-1.2,1.2H3.1c-0.7,0-1.2-0.6-1.2-1.2l0,0
	C1.9,47.2,2.4,46.7,3.1,46.7z"/>
<rect x="28.1" y="40.6" width="2.5" height="9.1"/>
<circle class="st0" cx="29.4" cy="47.9" r="3.1"/>
<path d="M29.4,52.2c-2.4,0-4.3-1.9-4.3-4.3s1.9-4.3,4.3-4.3s4.3,1.9,4.3,4.3c0,0,0,0,0,0C33.7,50.3,31.8,52.2,29.4,52.2
	C29.4,52.2,29.4,52.2,29.4,52.2z M29.4,46.1c-1,0-1.8,0.8-1.8,1.8s0.8,1.8,1.8,1.8c1,0,1.8-0.8,1.8-1.8
	C31.2,46.9,30.4,46.1,29.4,46.1C29.4,46.1,29.4,46.1,29.4,46.1z"/>
</svg>
