<?xml version="1.0" encoding="utf-8"?>
<!-- Generator: Adobe Illustrator 26.0.0, SVG Export Plug-In . SVG Version: 6.00 Build 0)  -->
<svg version="1.1" id="Layer_1" xmlns="http://www.w3.org/2000/svg" xmlns:xlink="http://www.w3.org/1999/xlink" x="0px" y="0px"
	 viewBox="0 0 445 445" style="enable-background:new 0 0 445 445;" xml:space="preserve">
<path d="M0,0v55v15v300.6h445V70V55V0C445,0,0,0,0,0z M276.7,240.4H168.3v-70.2h108.3V240.4z M306.7,170.2H415v70.2H306.7V170.2z
	 M276.7,270.4v70.2H168.3v-70.2H276.7z M30,170.2h108.3v70.2H30V170.2z M168.3,140.2V70h108.3v70.2H168.3z M138.3,70v70.2H30V70
	H138.3z M30,270.4h108.3v70.2H30V270.4z M306.7,340.6v-70.2H415v70.2H306.7z M415,140.2H306.7V70H415V140.2z"/>
<path d="M432.9,404.6H248.7c-2-5.2-5.5-9.9-10.4-13.3c-1.4-1-2.9-1.8-4.4-2.5v-18.1h-24v18.1c-4.6,2.1-8.7,5.5-11.7,9.8
	c-1.3,1.9-2.4,4-3.2,6.1H10.9c-6.6,0-12,5.4-12,12s5.4,12,12,12h185.6c2.1,3.9,5.1,7.3,8.9,10c4.9,3.4,10.5,5.2,16.4,5.2
	c9.4,0,18.3-4.6,23.7-12.4c0.6-0.9,1.2-1.8,1.7-2.8h185.6c6.6,0,12-5.4,12-12S439.5,404.6,432.9,404.6z M232.4,422.2
	c-2.5,3.6-6.5,5.5-10.5,5.5c-2.5,0-5.1-0.7-7.3-2.3c-4.9-3.4-6.7-9.7-4.7-15.1c0.4-1,0.9-1.9,1.5-2.8c0.8-1.2,1.8-2.2,3-3
	c2.2-1.6,4.9-2.5,7.6-2.5c2.5,0,5.1,0.7,7.3,2.3c0.1,0.1,0.2,0.1,0.2,0.2c2.1,1.5,3.6,3.6,4.5,5.8
	C235.3,414.2,234.9,418.7,232.4,422.2z"/>
</svg>
