<?xml version="1.0" encoding="UTF-8"?>
<svg width="64px" height="64px" version="1.1" viewBox="0 0 24 24" xml:space="preserve" xmlns="http://www.w3.org/2000/svg"><g transform="matrix(1.1838 0 0 1.1838 -2.2051 -2.2051)" fill="none"><path d="m20.422 17.196c-1.088-0.0295-1.932 0.079-2.6394 0.3687-0.2037 0.0796-0.5306 0.0796-0.5574 0.3292 0.1089 0.1047 0.122 0.2761 0.2174 0.4213 0.1631 0.2634 0.4492 0.6183 0.7074 0.8023l0.8706 0.6057c0.5305 0.3156 1.1291 0.5 1.6459 0.8159 0.2994 0.1844 0.5985 0.4213 0.898 0.6189 0.1524 0.1053 0.2448 0.2767 0.4354 0.3422v-0.0398c-0.0951-0.118-0.1226-0.2891-0.2174-0.4213l-0.4086-0.3814c-0.3943-0.5133-0.8843-0.9611-1.4148-1.3292-0.4354-0.2897-1.3874-0.6844-1.5642-1.1712l-0.0269-0.0295c0.2988-0.0295 0.6526-0.1318 0.9386-0.2109 0.4628-0.118 0.8842-0.092 1.3599-0.2103l0.6534-0.1844v-0.118c-0.2448-0.2369-0.4217-0.5528-0.6799-0.7764-0.6937-0.5791-1.456-1.1452-2.2451-1.6189-0.4217-0.2632-0.966-0.4345-1.4149-0.6579-0.1637-0.079-0.4354-0.1185-0.5305-0.2501-0.2455-0.2891-0.3812-0.6711-0.558-1.0136l-1.1154-2.29c-0.2448-0.5133-0.3949-1.0266-0.6937-1.5004-1.4014-2.2375-2.9254-3.593-5.2653-4.9225-0.50311-0.27641-1.1017-0.39529-1.738-0.53984l-1.0203-0.0531c-0.21802-0.09204-0.43542-0.34219-0.62599-0.46078-0.77541-0.47376-2.7754-1.5003-3.3471-0.14749-0.36742 0.85547 0.54428 1.6977 0.85377 2.1322 0.23174 0.30267 0.53056 0.64486 0.6943 0.98705 0.09147 0.22361 0.12196 0.46078 0.2174 0.69766 0.21741 0.57907 0.4217 1.2242 0.70741 1.7641 0.15246 0.2764 0.31254 0.56638 0.50311 0.81624 0.10886 0.1475 0.29943 0.21063 0.33998 0.44751-0.19057 0.2634-0.20368 0.6578-0.31253 0.9873-0.49001 1.4874-0.29943 3.3299 0.39425 4.4249 0.21802 0.3289 0.73181 1.0532 1.4288 0.7765 0.61227-0.2369 0.47567-0.9871 0.65252-1.6452 0.04116-0.1578 0.01372-0.2632 0.09513-0.3688v0.0295l0.558 1.0924c0.4217 0.6448 1.1566 1.3163 1.7685 1.7641 0.32623 0.2368 0.58483 0.6451 0.99283 0.7896v-0.0398h-0.0269c-0.0817-0.118-0.2042-0.1711-0.3131-0.2631-0.2449-0.2369-0.5168-0.5266-0.70741-0.7897-0.57111-0.7369-1.0742-1.5531-1.5234-2.3953-0.21801-0.408-0.40858-0.8555-0.58483-1.2635-0.08232-0.1581-0.08232-0.3953-0.21801-0.4738-0.2043 0.2891-0.50312 0.5399-0.65344 0.895-0.25857 0.5658-0.2854 1.2635-0.38054 1.9874-0.05488 0.0133-0.03049 0-0.05488 0.0295-0.43481-0.105-0.58483-0.5398-0.74796-0.908-0.40798-0.9345-0.47629-2.4348-0.12258-3.5142 0.09513-0.2764 0.50372-1.1452 0.34059-1.4083-0.08233-0.25016-0.3537-0.3947-0.50372-0.59235-0.17686-0.25015-0.36682-0.56579-0.48939-0.8422-0.32627-0.73748-0.4894-1.5531-0.8434-2.2903-0.16374-0.34219-0.44915-0.69766-0.68058-1.0133-0.25857-0.35546-0.54367-0.60562-0.74796-1.0266-0.068-0.1475-0.16313-0.38172-0.05428-0.53984 0.02684-0.10531 0.08172-0.1475 0.18997-0.1711 0.17685-0.14749 0.68057 0.03953 0.85742 0.118 0.50312 0.19765 0.92482 0.38172 1.3465 0.65784 0.19057 0.13156 0.39487 0.38172 0.63972 0.4478h0.286c0.43543 0.09203 0.92482 0.02949 1.3325 0.14749 0.72112 0.2242 1.374 0.55282 1.9594 0.90858 1.7819 1.0924 3.2516 2.6455 4.2444 4.5016 0.1631 0.3027 0.2311 0.5791 0.3812 0.895 0.286 0.6451 0.6397 1.303 0.9248 1.9352 0.286 0.6186 0.558 1.2507 0.9659 1.764 0.2043 0.2764 1.0203 0.421 1.3874 0.5658 0.2723 0.118 0.6937 0.2242 0.9392 0.3687 0.4622 0.2765 0.9248 0.5924 1.3599 0.8951 0.2174 0.1575 0.898 0.4867 0.9385 0.7492zm-13.874-11.438c-0.18797-0.00161-0.37534 0.02051-0.55739 0.06579v0.0295h0.02683c0.10885 0.21062 0.29943 0.35546 0.43542 0.53983l0.31315 0.63188 0.02683-0.0295c0.19058-0.13157 0.28602-0.34219 0.28602-0.65784-0.08172-0.09203-0.09514-0.18437-0.16314-0.2764-0.08171-0.13157-0.25856-0.19765-0.36772-0.30267z" clip-rule="evenodd" fill="#00678c" fill-rule="evenodd"/></g></svg>
