<svg version="1.2" baseProfile="tiny-ps" xmlns="http://www.w3.org/2000/svg" viewBox="0 0 1529 199" width="1529" height="199">
	<title>Oracle_logo-svg</title>
	<style>
		tspan { white-space:pre }
		.shp0 { fill: #c74634 } 
	</style>
	<path id="Layer" fill-rule="evenodd" class="shp0" d="M660.05 129.48L761.06 129.48L707.71 43.25L609.62 199L565.01 199L684.31 12.14C686.91 8.41 690.37 5.36 694.39 3.24C698.41 1.13 702.88 0 707.42 -0.03C711.97 -0.06 716.45 1 720.5 3.06C724.55 5.12 728.05 8.12 730.7 11.81L850.33 199L805.73 199L784.72 164.18L682.52 164.18L660.25 129.48M1123.53 164.37L1300.02 164.37L1277.56 199.2L1105.24 199.2C1103.96 199.2 1102.68 199.08 1101.42 198.83C1100.17 198.58 1098.94 198.21 1097.76 197.71C1096.58 197.22 1095.45 196.61 1094.39 195.89C1093.33 195.17 1092.35 194.34 1091.45 193.43C1090.56 192.57 1089.76 191.63 1089.06 190.61C1088.35 189.6 1087.76 188.51 1087.27 187.37C1086.79 186.24 1086.42 185.05 1086.18 183.84C1085.94 182.63 1085.81 181.4 1085.82 180.16L1085.82 1.86L1123.73 1.86L1123.73 164.18L1123.53 164.37ZM479.91 135.19L555.87 199L500.92 199L387.85 100.56L494.63 100.56C503.08 100.56 511.19 97.2 517.17 91.22C523.15 85.23 526.5 77.12 526.5 68.66C526.5 60.19 523.15 52.08 517.17 46.09C511.19 40.11 503.08 36.75 494.63 36.75L369.1 36.75L369.1 199L331.25 199L331.25 1.86L496.95 2.19C514.52 2.19 531.38 9.18 543.81 21.62C556.24 34.06 563.22 50.93 563.22 68.52C563.22 86.12 556.24 102.99 543.81 115.43C531.38 127.87 514.52 134.86 496.95 135.19L479.91 135.19ZM98.49 199C71.93 199.69 46.23 189.61 27.2 171.06C8.18 152.51 -2.55 127.05 -2.55 100.46C-2.55 73.88 8.18 48.42 27.2 29.86C46.23 11.31 71.93 1.23 98.49 1.92L212.95 1.92C238.62 2.59 263.01 13.26 280.93 31.67C298.85 50.08 308.88 74.76 308.88 100.46C308.88 126.16 298.85 150.85 280.93 169.25C263.01 187.66 238.62 198.33 212.95 199L98.49 199ZM210.36 164.31C227.62 164.86 244.37 158.39 256.77 146.37C269.17 134.35 276.18 117.81 276.18 100.53C276.18 83.25 269.17 66.71 256.77 54.68C244.37 42.66 227.62 36.19 210.36 36.75L101.01 36.75C84.46 37.28 68.77 44.24 57.26 56.14C45.74 68.04 39.3 83.96 39.3 100.53C39.3 117.1 45.74 133.01 57.26 144.92C68.77 156.82 84.46 163.77 101.01 164.31L210.36 164.31ZM929.4 199C902.85 199.69 877.14 189.61 858.12 171.06C839.09 152.51 828.36 127.05 828.36 100.46C828.36 73.88 839.09 48.42 858.12 29.86C877.14 11.31 902.85 1.23 929.4 1.92L1065.4 1.92L1043 36.75L931.99 36.75C914.73 36.19 897.99 42.66 885.58 54.68C873.18 66.71 866.17 83.25 866.17 100.53C866.17 117.81 873.18 134.35 885.58 146.37C897.99 158.39 914.73 164.86 931.99 164.31L1068.39 164.31L1046.25 199L929.4 199ZM1392.41 164.24L1528.95 164.24L1506.74 198.93L1389.9 198.93C1364.23 198.27 1339.83 187.59 1321.91 169.19C1303.99 150.78 1293.96 126.1 1293.96 100.4C1293.96 74.7 1303.99 50.01 1321.91 31.6C1339.83 13.2 1364.23 2.52 1389.9 1.86L1525.76 1.86L1503.56 36.68L1392.48 36.68C1385.58 36.67 1378.73 37.79 1372.19 39.98C1365.64 42.17 1359.5 45.41 1354 49.58C1348.5 53.74 1343.7 58.77 1339.81 64.47C1335.92 70.17 1332.98 76.47 1331.11 83.12L1515.23 83.12L1492.96 117.87L1331.11 117.87C1332.99 124.52 1335.93 130.81 1339.82 136.51C1343.72 142.21 1348.51 147.24 1354.01 151.4C1359.51 155.56 1365.65 158.8 1372.19 161C1378.73 163.19 1385.58 164.31 1392.48 164.31L1392.41 164.24Z" />
</svg>