<svg id="Layer_1" data-name="Layer 1" xmlns="http://www.w3.org/2000/svg" viewBox="0 0 500 500"><defs><style>.cls-1{fill:#312951;}</style></defs><path class="cls-1" d="M156.68,306.32c-1.76-1.48-4.23-2.21-7.41-2.21H136.73v19.61h12.54q4.77,0,7.41-2.4t2.65-7.59Q159.33,308.54,156.68,306.32Z"/><path class="cls-1" d="M291.67,319.92a9.54,9.54,0,0,0-7.86,3.76q-3,3.75-3,11.41a22.05,22.05,0,0,0,1.36,8.37q2.54,6.19,9.42,6.2,6.66,0,9.47-5.7a22,22,0,0,0,1.81-9.51,20.38,20.38,0,0,0-1.54-8.1A9.79,9.79,0,0,0,291.67,319.92Z"/><path class="cls-1" d="M338,266.34q-.08-39.13-.34-78.26c-.14-21.82-8.3-40.91-24-56.51-22.45-22.35-45.18-44.43-67.17-67.23-17.59-18.21-38.72-26.8-63.71-26.82-24.75,0-49.52,0-74.28,0a83.07,83.07,0,0,0-14.87,1.14c-44.1,7.81-74.5,44-74.51,88.81q-.06,122.63,0,245.25a97.89,97.89,0,0,0,2.53,22.19c8.16,35.12,40.63,63.93,75.42,66.88h0a.71.71,0,0,1,.08.73h161c.19-.65.7-.71,1.27-.77,36.66-3.94,67.33-31.27,75.86-65.79H465.72a15.15,15.15,0,0,0,15.15-15.15V281.49a15.15,15.15,0,0,0-15.15-15.15ZM200,75.23A46.08,46.08,0,0,1,218.57,86.5q35.15,35.18,70.35,70.34a46.3,46.3,0,0,1,11.36,19c.85,2.64.36,3.55-2.67,3.52-14-.16-27.92-.07-41.87-.07q-19.89,0-39.8,0c-12.5,0-19.79-7.34-19.8-19.88,0-27.07.07-54.16-.09-81.25C196,74.54,197.08,74.26,200,75.23ZM248.67,427q-70.09.19-140.21,0c-30.65-.09-53.72-23.19-53.8-53.82-.12-41.07,0-82.15,0-123.23s-.06-81.87,0-122.81c.06-27.4,17.95-48.72,44.84-53.52A54.8,54.8,0,0,1,109,73c15.9-.06,31.81.08,47.71-.11,3.52,0,4.25,1,4.23,4.39q-.21,41.7-.05,83.39c.1,27.16,18,48.37,44.7,53.17a60.29,60.29,0,0,0,10.76.63q41.05.06,82.13,0c3,0,4,.57,4,3.81q-.06,24,0,48.07H109.93a15.15,15.15,0,0,0-15.15,15.15V380.8A15.15,15.15,0,0,0,109.93,396H297.6C289.34,414.53,271,426.92,248.67,427Zm3.43-115.25a14.2,14.2,0,0,1,9.4-3,5.44,5.44,0,0,1,.61,0l1.11.07V322c-.81-.09-1.54-.15-2.17-.18s-1.14,0-1.54,0q-7.77,0-10.43,5.06-1.5,2.85-1.5,8.76v23.55h-13V309.89h12.3v8.59A27.23,27.23,0,0,1,252.1,311.74Zm-43.52,8.48a13.44,13.44,0,0,0-6.25-1.16c-3.09,0-5.27.76-6.56,2.26a9.49,9.49,0,0,0-1.83,4.52H181.52a18.86,18.86,0,0,1,3.63-10.62q5.11-6.51,17.61-6.5a31.53,31.53,0,0,1,14.43,3.2q6.3,3.21,6.31,12.12v22.59c0,1.57,0,3.47.09,5.69a7.06,7.06,0,0,0,.77,3.44,4.61,4.61,0,0,0,1.89,1.49v1.9h-14a14,14,0,0,1-.82-2.8c-.15-.88-.27-1.87-.36-3a26.77,26.77,0,0,1-6.18,4.93,18.66,18.66,0,0,1-9.46,2.39,16.33,16.33,0,0,1-11.11-3.81Q179.94,353,179.93,346q0-9.07,7.06-13.15,3.87-2.2,11.38-3.16l4.42-.54a20.42,20.42,0,0,0,5.14-1.13q2.77-1.19,2.78-3.66Q210.71,321.37,208.58,320.22Zm-35.42-6.58q0,11.79-5.85,16.68T150.6,335.2H136.73v23.95H122.9V292.54h28.6q9.9,0,15.77,5.15T173.16,313.64Zm142.12,65H302.54V353.05a13.76,13.76,0,0,1-5,5.31c-2.34,1.55-5.52,2.32-9.56,2.32a18.7,18.7,0,0,1-14.55-6.82q-6-6.84-6-18.23,0-12.3,6-19.68t14.89-7.37q6.15,0,9.94,3a19.81,19.81,0,0,1,4.52,5.66V310h12.43Zm56-19.52H358.8v-7c-.12.15-.42.6-.9,1.36a8.82,8.82,0,0,1-1.72,2,17.74,17.74,0,0,1-5.83,3.71,19.93,19.93,0,0,1-6.6,1q-10.9,0-14.69-7.86-2.13-4.33-2.12-12.79V309.89h13.19v29.69a15.64,15.64,0,0,0,1,6.33c1.17,2.5,3.47,3.75,6.88,3.75q6.57,0,9-5.33a19.41,19.41,0,0,0,1.26-7.64v-26.8h13.05Zm57.48-21H392.92q.29,7.42,5.15,10.4a13.1,13.1,0,0,0,7.1,1.85,10,10,0,0,0,9.8-5.65h13.15q-.53,4.39-4.78,8.9-6.61,7.2-18.53,7.19a26.86,26.86,0,0,1-17.35-6.06Q379.95,348.7,380,335q0-12.8,6.78-19.63t17.62-6.83a28,28,0,0,1,11.58,2.31,20,20,0,0,1,8.51,7.29,24.16,24.16,0,0,1,3.93,10.18A64.3,64.3,0,0,1,428.79,338.13Zm29.06-18.61h-8v26c0,2,.25,3.27.76,3.77s2.08.75,4.7.75l1.25,0c.43,0,.86,0,1.28-.07v9.63l-6.1.23q-9.12.32-12.47-3.17c-1.44-1.47-2.17-3.75-2.17-6.82V319.52h-6.87v-9.18h6.87V296.61h12.75v13.73h8Z"/><path class="cls-1" d="M204.71,337.32l-2.93.54a19.17,19.17,0,0,0-5.92,1.77,5.87,5.87,0,0,0-3.05,5.46q0,3.3,1.86,4.77a7.07,7.07,0,0,0,4.52,1.47,13.43,13.43,0,0,0,7.78-2.44q3.56-2.44,3.69-8.9V335.2a14.44,14.44,0,0,1-2.49,1.24A20.82,20.82,0,0,1,204.71,337.32Z"/><path class="cls-1" d="M412,321.86a11.29,11.29,0,0,0-7.64-2.66q-5,0-7.69,2.81a13.42,13.42,0,0,0-3.43,7.63h22.19C415.19,326.22,414,323.63,412,321.86Z"/></svg>