<?xml version="1.0" encoding="utf-8"?>
<!-- Generator: Adobe Illustrator 26.0.0, SVG Export Plug-In . SVG Version: 6.00 Build 0)  -->
<svg version="1.1" id="Capa_1" xmlns="http://www.w3.org/2000/svg" xmlns:xlink="http://www.w3.org/1999/xlink" x="0px" y="0px"
	 viewBox="0 0 58.8 53" style="enable-background:new 0 0 58.8 53;" xml:space="preserve">
<style type="text/css">
	.st0{fill:#FFFFFF;}
</style>
<path d="M22.4,0H6.8c-2,0-3.7,1.6-3.7,3.7v34.5c0,2,1.6,3.7,3.7,3.7c0,0,0,0,0,0h15.5c2,0,3.7-1.6,3.7-3.7V3.7
	C26.1,1.6,24.4,0,22.4,0z M6.1,11.5h16.6v12.2H6.1V11.5z M6.1,38.2V26.7h16.6v12.2H6.8C6.5,38.9,6.1,38.6,6.1,38.2z"/>
<path d="M52.1,0H36.5c-2,0-3.7,1.6-3.7,3.7c0,0,0,0,0,0v34.5c0,2,1.6,3.7,3.7,3.7h15.6c2,0,3.7-1.6,3.7-3.7V3.7
	C55.8,1.6,54.1,0,52.1,0z M35.8,11.5h16.6v12.2H35.8V11.5z M35.8,38.2V26.7h16.6v12.2H36.5C36.1,38.9,35.8,38.6,35.8,38.2
	C35.8,38.2,35.8,38.2,35.8,38.2z"/>
<path d="M3.1,46.9h52.6c0.7,0,1.2,0.6,1.2,1.2l0,0c0,0.7-0.6,1.2-1.2,1.2H3.1c-0.7,0-1.2-0.6-1.2-1.2l0,0
	C1.9,47.4,2.4,46.9,3.1,46.9z"/>
<rect x="13.4" y="40.8" width="2.5" height="9.1"/>
<circle class="st0" cx="14.6" cy="48.1" r="3.1"/>
<path d="M14.6,52.5c-2.4,0-4.3-2-4.3-4.4c0-2.4,2-4.3,4.4-4.3c2.4,0,4.3,2,4.3,4.3C19,50.5,17.1,52.5,14.6,52.5
	C14.6,52.5,14.6,52.5,14.6,52.5z M14.6,46.3c-1,0-1.8,0.8-1.8,1.8c0,1,0.8,1.8,1.8,1.8s1.8-0.8,1.8-1.8l0,0
	C16.5,47.1,15.6,46.3,14.6,46.3z"/>
<rect x="44.4" y="40.7" width="2.5" height="9.1"/>
<circle class="st0" cx="45.6" cy="48" r="3.1"/>
<path d="M45.6,52.3c-2.4,0-4.3-2-4.3-4.4c0-2.4,2-4.3,4.4-4.3c2.4,0,4.3,2,4.3,4.4C50,50.4,48,52.3,45.6,52.3
	C45.6,52.3,45.6,52.3,45.6,52.3z M45.6,46.2c-1,0-1.8,0.8-1.8,1.8s0.8,1.8,1.8,1.8c1,0,1.8-0.8,1.8-1.8C47.5,47,46.6,46.2,45.6,46.2
	C45.6,46.2,45.6,46.2,45.6,46.2z"/>
</svg>
