<?xml version="1.0" encoding="utf-8"?>
<!-- Generator: Adobe Illustrator 26.0.0, SVG Export Plug-In . SVG Version: 6.00 Build 0)  -->
<svg version="1.1" id="Layer_1" xmlns="http://www.w3.org/2000/svg" xmlns:xlink="http://www.w3.org/1999/xlink" x="0px" y="0px"
	 viewBox="0 0 445 445" style="enable-background:new 0 0 445 445;" xml:space="preserve">
<path d="M306.7,34.1v45.2v12.3v246.8h138.2V91.5V79.2V34.1C444.9,34.1,306.7,34.1,306.7,34.1z M331.4,173.8h88.9v57.6h-88.9V173.8z
	 M331.4,313.7V256h88.9v57.6H331.4z M420.3,149.2h-88.9V91.5h88.9V149.2z"/>
<path d="M0.1,34.1v45.2v12.3v246.8h138.2V91.5V79.2V34.1C138.3,34.1,0.1,34.1,0.1,34.1z M24.7,173.8h88.9v57.6H24.7V173.8z
	 M24.7,313.7V256h88.9v57.6H24.7z M113.6,149.2H24.7V91.5h88.9V149.2z"/>
<path d="M153.4,34.1v45.2v12.3v246.8h138.2V91.5V79.2V34.1C291.6,34.1,153.4,34.1,153.4,34.1z M178,173.8H267v57.6H178V173.8z
	 M178,313.7V256H267v57.6H178z M267,149.2H178V91.5H267V149.2z"/>
<path d="M432.9,371.8h-30.2c-2-5.2-5.5-9.9-10.4-13.3c-1.4-1-2.9-1.8-4.4-2.5v-18.1h-24v18.1c-4.6,2.1-8.7,5.5-11.7,9.8
	c-1.3,1.9-2.4,4-3.2,6.1h-17.6h-12.6h-69.3c-2-5.2-5.5-9.9-10.4-13.3c-1.4-1-2.9-1.8-4.4-2.5v-18.1h-24v18.1
	c-4.6,2.1-8.7,5.5-11.7,9.8c-1.3,1.9-2.4,4-3.2,6.1H178h-12.6H96.1c-2-5.2-5.5-9.9-10.4-13.3c-1.4-1-2.9-1.8-4.4-2.5v-18.1h-24v18.1
	c-4.6,2.1-8.7,5.5-11.7,9.8c-1.3,1.9-2.4,4-3.2,6.1H12.1c-6.6,0-12,5.4-12,12s5.4,12,12,12h31.7c2.1,3.9,5.1,7.3,8.9,10
	c4.9,3.4,10.5,5.2,16.4,5.2c9.4,0,18.3-4.6,23.7-12.4c0.6-0.9,1.2-1.8,1.7-2.8h70.8H178h19.1c2.1,3.9,5.1,7.3,8.9,10
	c4.9,3.4,10.5,5.2,16.4,5.2c9.4,0,18.3-4.6,23.7-12.4c0.6-0.9,1.2-1.8,1.7-2.8h70.8h12.6h19.1c2.1,3.9,5.1,7.3,8.9,10
	c4.9,3.4,10.5,5.2,16.4,5.2c9.4,0,18.3-4.6,23.7-12.4c0.6-0.9,1.2-1.8,1.7-2.8h31.7c6.6,0,12-5.4,12-12S439.5,371.8,432.9,371.8z
	 M79.7,389.4c-2.5,3.6-6.5,5.5-10.5,5.5c-2.5,0-5.1-0.7-7.3-2.3c-4.9-3.4-6.7-9.7-4.7-15.1c0.4-1,0.9-1.9,1.5-2.8
	c0.8-1.2,1.8-2.2,3-3c2.2-1.6,4.9-2.5,7.6-2.5c2.5,0,5.1,0.7,7.3,2.3c0.1,0.1,0.2,0.1,0.2,0.2c2.1,1.5,3.6,3.6,4.5,5.8
	C82.6,381.4,82.2,385.9,79.7,389.4z M233,389.4c-2.5,3.6-6.5,5.5-10.5,5.5c-2.5,0-5.1-0.7-7.3-2.3c-4.9-3.4-6.7-9.7-4.7-15.1
	c0.4-1,0.9-1.9,1.5-2.8c0.8-1.2,1.8-2.2,3-3c2.2-1.6,4.9-2.5,7.6-2.5c2.5,0,5.1,0.7,7.3,2.3c0.1,0.1,0.2,0.1,0.2,0.2
	c2.1,1.5,3.6,3.6,4.5,5.8C235.9,381.4,235.5,385.9,233,389.4z M386.4,389.4c-2.5,3.6-6.5,5.5-10.5,5.5c-2.5,0-5.1-0.7-7.3-2.3
	c-4.9-3.4-6.7-9.7-4.7-15.1c0.4-1,0.9-1.9,1.5-2.8c0.8-1.2,1.8-2.2,3-3c2.2-1.6,4.9-2.5,7.6-2.5c2.5,0,5.1,0.7,7.3,2.3
	c0.1,0.1,0.2,0.1,0.2,0.2c2.1,1.5,3.6,3.6,4.5,5.8C389.3,381.4,388.8,385.9,386.4,389.4z"/>
</svg>
