<?xml version="1.0" encoding="UTF-8" standalone="no"?>

<svg
   fill="#000000"
   width="800"
   height="800"
   viewBox="0 0 512 512"
   version="1.1"
   id="svg142"
   xmlns="http://www.w3.org/2000/svg"
   xmlns_svg="http://www.w3.org/2000/svg">
  <defs
     id="defs146" />
  <g
     id="Change_password">
    <path
       d="m 464.4326,147.54 a 9.8985,9.8985 0 0 0 -17.56,9.1406 214.2638,214.2638 0 0 1 -38.7686,251.42 c -83.8564,83.8476 -220.3154,83.874 -304.207,-0.009 a 9.8957,9.8957 0 0 0 -16.8926,7.0049 v 56.9 a 9.8965,9.8965 0 0 0 19.793,0 v -34.55 A 234.9509,234.9509 0 0 0 464.4326,147.54 Z"
       id="path133"
       style="fill:#ffffff" />
    <path
       d="m 103.8965,103.9022 c 83.8828,-83.874 220.3418,-83.8652 304.207,-0.009 a 9.8906,9.8906 0 0 0 16.8926,-6.9961 v -56.9 a 9.8965,9.8965 0 0 0 -19.793,0 v 34.55 C 313.0234,-1.3556 176.0547,3.7509 89.9043,89.9012 a 233.9561,233.9561 0 0 0 -42.3369,274.5528 9.8985,9.8985 0 0 0 17.56,-9.1406 214.2485,214.2485 0 0 1 38.7691,-251.4112 z"
       id="path135"
       style="fill:#ffffff" />
    <path
       d="m 256,290.11148 v 27.29764 m -68.24412,-88.32425 c 6.43433,-0.39309 14.36661,-0.39309 24.56788,-0.39309 h 87.35246 c 10.20113,0 18.13383,0 24.56788,0.39309 m -136.48822,0 c -8.02987,0.48998 -13.72676,1.59281 -18.58928,4.07007 -7.70462,3.9254 -13.96861,10.18885 -17.89428,17.89361 -4.4629,8.75981 -4.4629,20.22482 -4.4629,43.15758 v 19.10834 c 0,22.93276 0,34.39777 4.4629,43.15758 3.92567,7.70476 10.18966,13.9682 17.89428,17.8936 8.75886,4.46317 20.22496,4.46317 43.15716,4.46317 h 87.35246 c 22.93276,0 34.39777,0 43.15758,-4.46317 7.70476,-3.9254 13.9682,-10.18884 17.8936,-17.8936 4.46317,-8.75981 4.46317,-20.22482 4.46317,-43.15758 v -19.10834 c 0,-22.93276 0,-34.39777 -4.46317,-43.15758 -3.9254,-7.70476 -10.18884,-13.96821 -17.8936,-17.89361 -4.86308,-2.47726 -10.5601,-3.58009 -18.5897,-4.07007 m -136.48822,0 v -27.69074 c 0,-37.69013 30.55398,-68.24411 68.24412,-68.24411 37.68985,0 68.2441,30.55398 68.2441,68.24411 v 27.69074"
       stroke="#000000"
       stroke-width="27.2977"
       stroke-linecap="round"
       stroke-linejoin="round"
       id="path2"
       style="fill:#ffffff00;stroke:#ffffff" />
  </g>
</svg>
