<?xml version="1.0" encoding="UTF-8"?>
<svg width="64px" height="64px" version="1.1" viewBox="0 0 24 24" xmlns="http://www.w3.org/2000/svg">
 <defs>
  <linearGradient id="paint0_linear_552_15" x1="58.649" x2="444.58" y1="460.23" y2="74.302" gradientTransform="matrix(.045461 0 0 .045852 .18011 1.6767)" gradientUnits="userSpaceOnUse">
   <stop stop-color="#FC3519" offset="0"/>
   <stop stop-color="#F0D136" offset="1"/>
  </linearGradient>
 </defs>
 <path d="m19.439 14.67c2.5218-1.6626 3.3469-5.0539 1.8209-7.7193-0.7647-1.337-2.0008-2.2944-3.4796-2.6942-1.3701-0.37099-2.801-0.21928-4.0605 0.4225l-1.7196-3.0024-3.5695 6.2354-8.2504 14.411h23.64zm-2.0631-8.8862c1.0749 0.28876 1.9694 0.98488 2.5265 1.9542 1.095 1.9107 0.52617 4.3342-1.2497 5.5582l-4.1477-7.2449c0.89354-0.43337 1.9014-0.52789 2.8709-0.26749zm-5.3758-0.94282 9.1013 15.899h-5.3252l-6.4399-11.246 2.6633-4.6527zm-9.1013 15.899 5.5313-9.6607 5.5313 9.6607z" fill="url(#paint0_linear_552_15)" stroke-width=".045656"/>
</svg>
