<?xml version="1.0" encoding="utf-8"?>
<!-- Generator: Adobe Illustrator 26.0.0, SVG Export Plug-In . SVG Version: 6.00 Build 0)  -->
<svg version="1.1" id="Layer_1" xmlns="http://www.w3.org/2000/svg" xmlns:xlink="http://www.w3.org/1999/xlink" x="0px" y="0px"
	 viewBox="0 0 524 478" style="enable-background:new 0 0 524 478;" xml:space="preserve">
<style type="text/css">
	.st0{fill:#FFFFFF;}
</style>
<polygon class="st0" points="418,361 311,377.8 26,377.8 26,31 454.4,35 454.4,293 "/>
<g>
	<path d="M240.1,347.8h-62.4v-70.2H225c0.2-2.7,0.4-5.3,0.7-8c0.9-7.5,2.5-14.8,4.6-22h-52.7v-70.2h103.6
		c25.9-18.4,57.4-26.7,89-23.4l1,0.1c13.4,1.8,26.4,5.7,38.7,11.4l0.1,0.1c12,5.7,22.9,13,32.6,21.6c4.1,3.6,8,7.5,11.8,11.9V7.2
		c0,0-445,0-445,0v370.6H262c-2.3-2.3-4.5-4.7-6.5-7.2C249.5,363.5,244.3,355.9,240.1,347.8z M316,77.2h108.3v70.2H316V77.2z
		 M177.7,77.2H286v70.2H177.7V77.2z M147.7,347.8H39.4v-70.2h108.3V347.8z M147.7,247.6H39.4v-70.2h108.3V247.6z M147.7,147.4H39.4
		V77.2h108.3V147.4z"/>
	<path d="M509.9,437.4l-0.4-0.7l-55.2-61.9l-5.6-6.3h0.6l-10.8-12c1.8-2.3,3.7-4.9,5.8-7.9c3.8-5.5,7.2-11.1,10.1-16.8
		c1.8-3.5,3.3-7,4.7-10.5c2.9-7.3,4.8-14.6,5.6-21.6l0-0.1c1.7-16-0.3-32.6-5.7-47.8c-1.3-3.8-2.8-7.6-4.6-11.3
		c-3.3-7-7.5-13.8-12.4-20.2c-4.8-6.2-9.6-11.4-14.7-15.8c-1-0.9-1.9-1.7-2.9-2.5c-7.3-6.1-15.5-11.3-24.3-15.5
		c-9.1-4.3-18.7-7.3-28.6-8.9c-1.1-0.2-2.2-0.4-3.3-0.5l-0.3,0c-8.9-0.9-17.8-0.7-26.5,0.5c-8.7,1.3-17.2,3.6-25.4,6.9
		c-8.6,3.5-16.7,8.2-24.3,13.9c-14.9,11.2-26.9,26.2-34.7,43.4c-4.3,9.6-7.2,20-8.5,30.8c-1,8-1.1,15.9-0.3,23.5
		c2,22.4,10.6,43.1,24.8,59.9c7.3,8.7,15.9,16.1,25.5,22c13.5,8.3,28.9,13.7,45.4,15.7c10.3,1.2,20.8,1,31.3-0.8l0.1,0
		c2.3-0.4,4.6-0.8,7-1.4c8.5-2.1,16.4-5,23.6-8.7c0.7-0.3,1.4-0.7,2-1l27.4,32.1l40.1,46.9c4.9,6.1,12.2,10.5,19.3,10.5
		c3.7,0,7.4-1.1,10.8-3.8l0.2-0.2C515.9,458.5,517.4,447.7,509.9,437.4z M422.6,296.1l0,0.2c-0.5,5-1.7,10.2-3.8,16
		c-3.2,8.4-7.9,16-13.9,22.5c-1.6,1.7-3.2,3.1-4.8,4.5l-0.1,0.1c-3.8,3.3-8,6.1-12.4,8.4c-4.2,2.2-8.7,3.9-13.3,5.1
		c-8.1,2.2-16.9,2.7-25.9,1.7c-8.2-1-16-3.3-23.2-6.8l-9.1-5.3c-7.8-5.4-14.5-12.4-19.3-20.6c-7.4-12.6-9.8-26.7-7-40.9l0.1-0.6
		c1.1-9.4,4.1-18.3,8.8-26.6c2.3-4,5.2-7.9,8.5-11.5c2.7-3,5.7-5.6,8.8-8c7.9-5.9,17.1-9.9,27-11.8c4.1-0.7,8.4-1.1,12.6-1.1
		c1.3,0,2.6,0,4,0.1c0.6,0.1,1.1,0.1,1.5,0.1c0.2,0,0.3,0,0.4,0l0.3,0c0.7,0.1,1.3,0.2,1.7,0.2c0.1,0,0.2,0,0.3,0
		c0.6,0.1,1.1,0.1,1.5,0.2c0.1,0,0.2,0,0.3,0h0.1c6.4,1,12.6,2.7,18.5,5.3c10.2,4.6,19,11.6,25.6,20.2c1.8,2.4,3.5,4.9,5,7.5
		c3.9,7,6.5,14.6,7.6,22.5C423.3,283.6,423.4,289.8,422.6,296.1z"/>
</g>
</svg>
