<svg id="Capa_1" data-name="Capa 1" xmlns="http://www.w3.org/2000/svg" viewBox="0 0 58.79 53"><path d="M56.57,47.92l0-.08-6.18-6.93-.62-.7h.07l-1.21-1.34c.2-.26.41-.56.65-.89a16.14,16.14,0,0,0,1.13-1.88c.2-.4.36-.78.52-1.18a8.9,8.9,0,0,0,.62-2.42h0a12,12,0,0,0-.64-5.35,12.46,12.46,0,0,0-.51-1.27A12.73,12.73,0,0,0,49,23.61a11.84,11.84,0,0,0-1.66-1.77c-.1-.1-.21-.19-.32-.28a13.69,13.69,0,0,0-2.72-1.74,12,12,0,0,0-3.2-1l-.37-.05h0a11.85,11.85,0,0,0-5.81.83,11.89,11.89,0,0,0-2.71,1.56A12.5,12.5,0,0,0,28.25,26a11.85,11.85,0,0,0-.95,3.45,12.88,12.88,0,0,0,0,2.63,11.94,11.94,0,0,0,5.64,9.17A12.61,12.61,0,0,0,38,43a12.85,12.85,0,0,0,3.5-.09h0c.26,0,.52-.09.79-.16a12.11,12.11,0,0,0,2.63-1l.23-.11,3.06,3.6,4.49,5.25a2.94,2.94,0,0,0,2.16,1.17,1.9,1.9,0,0,0,1.21-.42l0,0A2.28,2.28,0,0,0,56.57,47.92ZM46.79,32.1v0a7.59,7.59,0,0,1-.42,1.78,7.75,7.75,0,0,1-1.57,2.52,6.32,6.32,0,0,1-.53.51h0a7.71,7.71,0,0,1-1.39.94,8.17,8.17,0,0,1-1.49.57,7.61,7.61,0,0,1-2.91.19,8.22,8.22,0,0,1-2.6-.76l-1-.6A7.41,7.41,0,0,1,32.69,35a6.38,6.38,0,0,1-.78-4.57v-.07a7.56,7.56,0,0,1,1-3,6.74,6.74,0,0,1,1-1.28,8.3,8.3,0,0,1,1-.9,7.52,7.52,0,0,1,3-1.33,9.36,9.36,0,0,1,1.41-.11H40l.19,0h0l.17,0h0a7.79,7.79,0,0,1,2.07.59,7.35,7.35,0,0,1,2.87,2.26,9.43,9.43,0,0,1,.56.84A7,7,0,0,1,46.75,30,7,7,0,0,1,46.79,32.1Z"/><path d="M27.31,38.91h-15a.72.72,0,0,1-.72-.72V26.67H25.22a15,15,0,0,1,1.14-3H11.59V11.48H28.23v9.45a14.88,14.88,0,0,1,2.95-2.65v-6.8H47.82v6.8a14.88,14.88,0,0,1,3,2.65V3.67A3.67,3.67,0,0,0,47.09,0H12.31A3.67,3.67,0,0,0,8.64,3.67V38.19a3.67,3.67,0,0,0,3.67,3.67H30A15,15,0,0,1,27.31,38.91Z"/></svg>