<svg version="1.1" id="Layer_1" xmlns="http://www.w3.org/2000/svg" x="0px" y="0px"
	 viewBox="0 0 24 24" style="enable-background:new 0 0 24 24;" xml:space="preserve" class="text-red-700">
<g>
	<path d="M20.2,3.4H3.8C2.3,3.4,1.1,4.6,1.1,6V18c0,1.5,1.2,2.7,2.7,2.7h16.4c1.5,0,2.7-1.2,2.7-2.7V6
		C22.9,4.6,21.7,3.4,20.2,3.4z M21.4,18c0,0.6-0.5,1.2-1.2,1.2H3.8c-0.6,0-1.2-0.5-1.2-1.2V6c0-0.6,0.5-1.2,1.2-1.2h16.4
		c0.6,0,1.2,0.5,1.2,1.2V18z" fill="currentColor" />
	<path d="M18.4,7.9H9.2c-0.4,0-0.8,0.3-0.8,0.8s0.3,0.8,0.8,0.8h9.2c0.4,0,0.8-0.3,0.8-0.8S18.8,7.9,18.4,7.9z" fill="currentColor" />
	<path d="M18.4,11.5H9.2c-0.4,0-0.8,0.3-0.8,0.8S8.8,13,9.2,13h9.2c0.4,0,0.8-0.3,0.8-0.8S18.8,11.5,18.4,11.5z" fill="currentColor" />
	<path d="M18.4,15.3H9.2c-0.4,0-0.8,0.3-0.8,0.8s0.3,0.8,0.8,0.8h9.2c0.4,0,0.8-0.3,0.8-0.8S18.8,15.3,18.4,15.3z" fill="currentColor" />
	<path d="M5.8,15c-0.6,0-1,0.4-1,1s0.4,1,1,1h0c0.6,0,1-0.4,1-1S6.4,15,5.8,15z" fill="currentColor" />
	<path d="M5.8,13.3L5.8,13.3c0.6,0,1-0.4,1-1s-0.4-1-1-1c-0.6,0-1,0.4-1,1S5.3,13.3,5.8,13.3z" fill="currentColor" />
	<path d="M5.8,9.6L5.8,9.6c0.6,0,1-0.4,1-1s-0.4-1-1-1c-0.6,0-1,0.4-1,1S5.3,9.6,5.8,9.6z" fill="currentColor" />
</g>
</svg>
