<?xml version="1.0" encoding="iso-8859-1"?>
<!-- Generator: Adobe Illustrator 19.1.0, SVG Export Plug-In . SVG Version: 6.00 Build 0)  -->
<svg version="1.1" id="Capa_1" xmlns="http://www.w3.org/2000/svg" xmlns:xlink="http://www.w3.org/1999/xlink" x="0px" y="0px"
	 viewBox="0 0 484.6 484.6" style="enable-background:new 0 0 484.6 484.6;" xml:space="preserve">
<g>
	<g>
		<path d="M297.2,396.6c-3.2,0-6.3,1.3-8.5,3.5s-3.5,5.3-3.5,8.5s1.3,6.3,3.5,8.5s5.3,3.5,8.5,3.5s6.3-1.3,8.5-3.5s3.5-5.3,3.5-8.5
			s-1.3-6.3-3.5-8.5C303.5,397.9,300.4,396.6,297.2,396.6z"/>
		<path d="M242.3,396.6c-6.6,0-12,5.4-12,12s5.4,12,12,12s12-5.4,12-12C254.3,402,248.9,396.6,242.3,396.6z"/>
		<path d="M187.4,396.6c-3.2,0-6.3,1.3-8.5,3.5s-3.5,5.3-3.5,8.5c0,3.1,1.3,6.3,3.5,8.5s5.3,3.5,8.5,3.5s6.3-1.3,8.5-3.5
			s3.5-5.3,3.5-8.5s-1.3-6.3-3.5-8.5C193.6,397.9,190.5,396.6,187.4,396.6z"/>
		<path d="M187.4,341.7c-6.6,0-12,5.4-12,12s5.4,12,12,12s12-5.4,12-12S194,341.7,187.4,341.7z"/>
		<path d="M187.4,286.8c-3.2,0-6.3,1.3-8.5,3.5s-3.5,5.3-3.5,8.5s1.3,6.3,3.5,8.5s5.3,3.5,8.5,3.5s6.3-1.3,8.5-3.5s3.5-5.3,3.5-8.5
			s-1.3-6.3-3.5-8.5C193.6,288.1,190.5,286.8,187.4,286.8z"/>
		<path d="M242.3,286.8c-6.6,0-12,5.4-12,12s5.4,12,12,12s12-5.4,12-12S248.9,286.8,242.3,286.8z"/>
		<path d="M297.2,286.8c-3.2,0-6.3,1.3-8.5,3.5s-3.5,5.3-3.5,8.5s1.3,6.3,3.5,8.5s5.3,3.5,8.5,3.5s6.3-1.3,8.5-3.5s3.5-5.3,3.5-8.5
			s-1.3-6.3-3.5-8.5C303.5,288.1,300.4,286.8,297.2,286.8z"/>
		<path d="M297.2,341.7c-6.6,0-12,5.4-12,12s5.4,12,12,12s12-5.4,12-12S303.8,341.7,297.2,341.7z"/>
		<path d="M472.6,286.8h-42.9v-43.6c0-6.6-5.4-12-12-12H254.3v-33.4h42.9c6.6,0,12-5.4,12-12V76c0-6.6-5.4-12-12-12H187.4
			c-6.6,0-12,5.4-12,12v109.8c0,6.6,5.4,12,12,12h42.9v33.4H66.9c-6.6,0-12,5.4-12,12v43.6H12c-6.6,0-12,5.4-12,12v109.8
			c0,6.6,5.4,12,12,12h109.8c6.6,0,12-5.4,12-12V298.8c0-6.6-5.4-12-12-12H78.9v-31.6h326.8v31.6h-42.9c-6.6,0-12,5.4-12,12v109.8
			c0,6.6,5.4,12,12,12h109.8c6.6,0,12-5.4,12-12V298.8C484.6,292.2,479.3,286.8,472.6,286.8z M109.8,310.8v85.8H24v-85.8H109.8z
			 M199.4,173.8V88h85.8v85.8H199.4z M460.6,396.6h-85.8v-85.8h85.8V396.6z"/>
	</g>
</g>
<g>
</g>
<g>
</g>
<g>
</g>
<g>
</g>
<g>
</g>
<g>
</g>
<g>
</g>
<g>
</g>
<g>
</g>
<g>
</g>
<g>
</g>
<g>
</g>
<g>
</g>
<g>
</g>
<g>
</g>
</svg>
