<?xml version="1.0" encoding="utf-8"?>
<!-- Generator: Adobe Illustrator 26.0.3, SVG Export Plug-In . SVG Version: 6.00 Build 0)  -->
<svg version="1.0" id="katman_1" xmlns="http://www.w3.org/2000/svg" xmlns:xlink="http://www.w3.org/1999/xlink" x="0px" y="0px"
	 viewBox="0 0 779.1 565.2" style="enable-background:new 0 0 779.1 565.2;" xml:space="preserve">
<style type="text/css">
	.st0{fill:url(#SVGID_1_);}
	.st1{fill:url(#SVGID_00000120527068036965426220000004748529751377957041_);}
	.st2{fill:#1D1D1B;}
</style>
<linearGradient id="SVGID_1_" gradientUnits="userSpaceOnUse" x1="215.0564" y1="303.6254" x2="87.326" y2="234.779" gradientTransform="matrix(1 0 0 -1 -20.9449 568.8202)">
	<stop  offset="0" style="stop-color:#FF7BFF"/>
	<stop  offset="0.3502" style="stop-color:#AA00FF"/>
	<stop  offset="0.9989" style="stop-color:#8800CC"/>
</linearGradient>
<path class="st0" d="M127.4,227.1c15,4.2,28.7,14.7,34.4,27.6c8.7,20.9,6.7,47.3-2.8,63.1c-8,12.9-20.4,19.7-34.6,19.6
	c-22.1-0.2-39.9-17.7-40.1-39.8c0-22.1,17.4-40.3,40.1-40.3c3.7,0,9,0.5,15,3c0,0-4.3-2.6-15.4-4.3c-31.9-4.2-69.6,20-60.9,75.7
	c12,21.4,35.1,36,61.3,35.8c38.6-0.2,70.2-31.8,70-70.6C194.4,259.7,164.2,228.1,127.4,227.1L127.4,227.1z"/>
<linearGradient id="SVGID_00000105417597123332452640000009860399367129402753_" gradientUnits="userSpaceOnUse" x1="79.4726" y1="318.5861" x2="158.0327" y2="251.4193" gradientTransform="matrix(1 0 0 -1 -20.9449 568.8202)">
	<stop  offset="3.543580e-02" style="stop-color:#FF7BFF"/>
	<stop  offset="0.5765" style="stop-color:#8800CC"/>
	<stop  offset="1" style="stop-color:#311B92"/>
</linearGradient>
<path style="fill:url(#SVGID_00000105417597123332452640000009860399367129402753_);" d="M153.7,256.7
	c-5.3-11.2-16.4-20.1-29.9-23.6c-3-0.8-6.2-1.2-9.7-1.3c-5.2,0-10.2,0.7-15.4,2c-12.9,3.8-21.9,11.4-27.2,17.2
	c-6.9,7.9-11.4,16.1-14,24.3c0,0.2-0.2,0.3-0.2,0.7c-0.2,0.7-0.8,2.7-0.8,3.2c-0.2,0.3-0.2,0.8-0.3,1.2c-0.2,0.7-0.3,1.3-0.5,2
	c0,0.2,0,0.3-0.2,0.5c-4.3,21.6,2.9,40.9,7.2,48.1c1.1,1.8,2,3.3,2.9,4.7c-9.9-53.5,18.5-79.1,50.7-79.8
	c16.9-0.3,33.8,6.5,41.9,20.2C157.7,268.6,157.2,264.4,153.7,256.7z"/>
<path class="st2" d="M229.7,336.8c-3.4-0.5-6.4-1.3-9.2-2.3v-11.8c6.6,2.1,12.8,3.2,18.7,3.2c5.1,0,8.9-1,11.4-3
	c2.5-2,3.7-4.9,3.7-8.7c0-2.1-0.4-3.9-1.1-5.4c-0.8-1.5-2-2.8-3.8-3.9c-1.8-1.1-4.2-2.2-7.3-3.3l-5-1.7
	c-12.2-4.2-18.3-11.9-18.3-23.2c0-5,1.1-9.4,3.3-13c2.2-3.6,5.5-6.4,9.9-8.3c4.4-1.9,9.8-2.9,16.2-2.9c2.9,0,5.8,0.2,8.7,0.6
	c2.9,0.4,5.4,0.9,7.5,1.6v11.7c-4.5-1.4-9.5-2.1-15-2.1c-11.1,0-16.7,3.8-16.7,11.4c0,2.1,0.4,3.8,1,5.1c0.7,1.4,1.9,2.6,3.5,3.7
	c1.6,1.1,3.9,2.1,6.8,3.1l5,1.7c6.3,2.1,11.2,5.1,14.4,8.9c3.3,3.8,4.9,8.7,4.9,14.8c0,5.1-1.1,9.5-3.4,13.2
	c-2.3,3.7-5.6,6.5-9.9,8.5c-4.3,2-9.6,2.9-15.6,2.9C236.2,337.6,233,337.4,229.7,336.8z"/>
<path class="st2" d="M277.4,267.2c-1.2-1.2-1.9-2.8-1.9-5s0.6-3.8,1.9-5c1.2-1.2,3.1-1.8,5.5-1.8c2.4,0,4.3,0.6,5.5,1.8
	c1.2,1.2,1.9,2.9,1.9,5c0,2.1-0.6,3.8-1.9,5c-1.2,1.2-3.1,1.8-5.6,1.8C280.5,269,278.7,268.4,277.4,267.2z"/>
<path class="st2" d="M290.2,275.4h-13.6v61.1h13.6V275.4z"/>
<path class="st2" d="M302.3,275.4h11.3l1,6.5h0.7c1.9-2.4,4.2-4.3,6.9-5.6s5.5-1.9,8.7-1.9c5.2,0,9.3,1.6,12.4,4.9
	c3,3.3,4.6,8.5,4.6,15.8v41.4h-13.6v-40.4c0-3.4-0.7-5.9-2.1-7.3c-1.4-1.5-3.3-2.2-5.9-2.2c-1.9,0-3.9,0.5-5.8,1.4
	c-1.9,0.9-3.5,2.4-4.7,4.4v44.2h-13.6L302.3,275.4z"/>
<path class="st2" d="M375.8,351.4c5.2,0,9-1.2,11.5-3.6c2.5-2.4,3.7-6.4,3.7-12.1v-5.4h-0.7c-1.3,2.1-3.1,3.8-5.4,5.1
	c-2.3,1.3-4.9,1.9-7.8,1.9c-3.7,0-7-1-10-3.1c-3-2-5.5-5.3-7.3-9.8c-1.9-4.5-2.8-10.3-2.8-17.3c0-10.9,2.4-19.1,7.3-24.5
	c4.9-5.4,12.3-8.2,22.2-8.2c3.1,0,6.2,0.3,9.5,0.8c3.3,0.5,6.1,1.2,8.6,2.1v56.1c0,10.1-2.3,17.5-6.8,22c-4.6,4.6-11.5,6.8-20.8,6.8
	c-0.5,0-0.7,0-1.1,0L375.8,351.4z M387.3,324.8c1.6-0.8,2.8-1.8,3.7-3.2v-35.9c-1.9-0.4-3.7-0.6-5.6-0.6c-4.8,0-8.4,1.6-10.9,4.8
	c-2.4,3.2-3.6,8.5-3.6,16c0,5.2,0.5,9.3,1.4,12.3s2.2,5,3.9,6.1c1.7,1.1,3.8,1.7,6.3,1.7C384.1,325.9,385.7,325.5,387.3,324.8z"/>
<path class="st2" d="M416.6,336.6V246h13.6v90.6L416.6,336.6L416.6,336.6z"/>
<path class="st2" d="M485.5,310.3h-32c0.2,4.2,0.8,7.4,1.9,9.8c1.1,2.3,2.8,4,5,5c2.2,1,5.2,1.5,9,1.5c3.8,0,8.3-0.7,13.3-2.1v11
	c-2.7,0.7-5.3,1.3-7.6,1.6c-2.4,0.3-4.8,0.5-7.3,0.5c-6.5,0-11.8-1.1-15.9-3.2c-4.1-2.2-7.1-5.6-9.1-10.2c-2-4.7-3-10.8-3-18.5
	c0-10.5,2.1-18.3,6.2-23.5c4.1-5.2,10-7.8,17.5-7.8c14.7,0,22.1,10.6,22.1,31.7L485.5,310.3L485.5,310.3z M458.1,285.4
	c-1.4,1-2.5,2.9-3.3,5.5c-0.8,2.6-1.2,6.2-1.3,10.8h19.2c0-4.6-0.4-8.2-1.2-10.8c-0.7-2.6-1.8-4.5-3.1-5.5c-1.4-1-3-1.6-5-1.6
	C461.3,283.8,459.5,284.3,458.1,285.4z"/>
<path class="st2" d="M503.6,336.8c-3.4-0.5-6.4-1.3-9.2-2.3v-11.8c6.6,2.1,12.8,3.2,18.7,3.2c5.1,0,8.9-1,11.4-3
	c2.5-2,3.7-4.9,3.7-8.7c0-2.1-0.4-3.9-1.1-5.4c-0.8-1.5-2-2.8-3.8-3.9c-1.8-1.1-4.2-2.2-7.3-3.3l-5-1.7
	c-12.2-4.2-18.3-11.9-18.3-23.2c0-5,1.1-9.4,3.3-13c2.2-3.6,5.5-6.4,9.9-8.3c4.4-1.9,9.8-2.9,16.2-2.9c2.9,0,5.8,0.2,8.7,0.6
	c2.9,0.4,5.4,0.9,7.5,1.6v11.7c-4.5-1.4-9.5-2.1-15-2.1c-11.1,0-16.7,3.8-16.7,11.4c0,2.1,0.4,3.8,1,5.1c0.7,1.4,1.9,2.6,3.5,3.7
	c1.6,1.1,3.9,2.1,6.8,3.1l5,1.7c6.3,2.1,11.2,5.1,14.4,8.9c3.3,3.8,4.9,8.7,4.9,14.8c0,5.1-1.1,9.5-3.4,13.2
	c-2.3,3.7-5.6,6.5-9.9,8.5c-4.3,2-9.6,2.9-15.6,2.9C510.1,337.6,506.9,337.4,503.6,336.8L503.6,336.8z"/>
<path class="st2" d="M582,325.2v11.3c-3,0.7-6,1.1-9.2,1.1c-6.4,0-11.2-1.7-14.6-5.1c-3.3-3.4-5-8.8-5-16.1v-30.2h-9.3v-10.8h9.3
	l2.4-21.8h11.2v21.8h14.7v10.8h-14.7v28.6c0,2.8,0.3,5,0.9,6.6c0.6,1.6,1.6,2.8,3,3.4c1.3,0.7,3.2,1,5.4,1
	C577.5,325.9,579.5,325.7,582,325.2L582,325.2z"/>
<path class="st2" d="M592.3,330c-4.2-5.1-6.3-13-6.3-23.8c0-21.2,8.2-31.8,24.5-31.8c7.8,0,13.9,2.6,18.1,7.8
	c4.2,5.2,6.4,13.1,6.4,23.9c0,21-8.2,31.6-24.5,31.6C602.6,337.7,596.5,335.1,592.3,330L592.3,330z M616.2,325.5
	c1.5-1.2,2.7-3.3,3.5-6.4c0.8-3.1,1.2-7.3,1.2-12.8c0-5.6-0.4-10-1.2-13.1c-0.8-3.1-2-5.3-3.5-6.5c-1.6-1.2-3.5-1.9-5.8-1.9
	c-2.3,0-4.3,0.6-5.8,1.8c-1.5,1.2-2.7,3.4-3.5,6.5c-0.8,3.1-1.2,7.4-1.2,12.9c0,5.6,0.4,9.9,1.2,13c0.8,3.1,2,5.2,3.5,6.5
	c1.5,1.2,3.5,1.8,5.9,1.8C612.8,327.3,614.7,326.7,616.2,325.5z"/>
<path class="st2" d="M644.4,275.4h11.2l1.1,8.4h0.7c1.5-3.1,3.5-5.5,6.1-6.9c2.5-1.5,5.5-2.2,8.7-2.2c1.3,0,2.6,0.1,3.9,0.3v12.7
	c-1.3-0.2-2.8-0.3-4.7-0.3c-2.7,0-5.3,0.6-7.7,1.9c-2.4,1.2-4.3,3-5.6,5.2v42.1h-13.6V275.4z"/>
<path class="st2" d="M725,310.3h-32c0.2,4.2,0.8,7.4,1.9,9.8c1.1,2.3,2.8,4,5,5c2.2,1,5.2,1.5,9,1.5c3.8,0,8.3-0.7,13.3-2.1v11
	c-2.7,0.7-5.3,1.3-7.6,1.6c-2.4,0.3-4.8,0.5-7.3,0.5c-6.5,0-11.8-1.1-15.9-3.2c-4.1-2.2-7.1-5.6-9.1-10.2c-2-4.7-3-10.8-3-18.5
	c0-10.5,2.1-18.3,6.2-23.5s10-7.8,17.5-7.8c14.7,0,22.1,10.6,22.1,31.7L725,310.3L725,310.3z M697.7,285.4c-1.4,1-2.5,2.9-3.3,5.5
	c-0.8,2.6-1.2,6.2-1.3,10.8h19.2c0-4.6-0.4-8.2-1.2-10.8c-0.7-2.6-1.8-4.5-3.1-5.5c-1.4-1-3-1.6-5-1.6
	C700.8,283.8,699.1,284.3,697.7,285.4L697.7,285.4z"/>
</svg>
