<?xml version="1.0" encoding="UTF-8"?>
<svg width="64px" height="64px" version="1.1" viewBox="0 0 24 24" xml:space="preserve" xmlns="http://www.w3.org/2000/svg"><defs><linearGradient id="paint0_linear_384_1197" x1="6.0133" x2="7.4616" y1="20.022" y2="19.166" gradientUnits="userSpaceOnUse"><stop stop-color="#909CA9" offset="0"/><stop stop-color="#EDEDEE" offset="1"/></linearGradient><linearGradient id="paint1_linear_384_1197" x1="6.0465" x2="7.2118" y1="3.8879" y2="3.8879" gradientUnits="userSpaceOnUse"><stop stop-color="#939FAB" offset="0"/><stop stop-color="#DCDEE1" offset="1"/></linearGradient><radialGradient id="paint2_radial_384_1197" cx="0" cy="0" r="1" gradientTransform="matrix(-1.4858 -.22319 .44649 -2.9723 11.927 9.2325)" gradientUnits="userSpaceOnUse"><stop stop-color="#EE352C" offset="0"/><stop stop-color="#A91D22" offset="1"/></radialGradient></defs><g transform="matrix(1.1729 0 0 1.1729 -2.2343 -2.0744)"><path d="m14.537 11.337-4.0053 1.3078-3.4845 1.5379-0.97484 0.2574c-0.24828 0.2361-0.5086 0.4753-0.79015 0.7175-0.30879 0.2664-0.59639 0.5086-0.81743 0.6842-0.2452 0.1938-0.6085 0.557-0.79315 0.7871-0.27551 0.3451-0.49348 0.7114-0.58733 0.993-0.16652 0.5086-0.08474 1.0232 0.23615 1.4986 0.41172 0.6054 1.2322 1.223 2.1888 1.6438 0.48744 0.215 1.3079 0.4905 1.9254 0.6449 1.0263 0.2603 3.0123 0.5419 4.1051 0.5843 0.221 0.0091 0.5177 0.0091 0.5298 0 0.0242-0.0152 0.1938-0.3391 0.3906-0.7417 0.6721-1.3715 1.1564-2.6581 1.4198-3.757 0.1574-0.666 0.2815-1.5531 0.3632-2.6036 0.0213-0.2936 0.0303-1.2775 0.0122-1.6106-0.0273-0.5449-0.0757-0.9869-0.1514-1.4198-0.0121-0.0636-0.0152-0.1211-0.0091-0.1241 0.0121-0.0091 0.0484-0.0212 0.5419-0.1635l-0.0999-0.2361v-1e-4zm-0.9143 0.5358c0.0364 0 0.1332 0.9294 0.1574 1.5168 0.0061 0.1241 3e-3 0.2058-3e-3 0.2058-0.0242 0-0.5116-0.2875-0.8597-0.5055-0.3028-0.1907-0.878-0.5722-0.9688-0.6449-0.0303-0.0211-0.0273-0.0242 0.221-0.1089 0.4207-0.1424 1.4198-0.4633 1.4531-0.4633zm-2.0404 0.6721c0.0272 0 0.0968 0.0394 0.2633 0.1423 0.6236 0.3905 1.4714 0.8628 1.8346 1.0203 0.112 0.0484 0.1241 0.0302-0.1332 0.2058-0.551 0.3754-1.2382 0.7448-2.0799 1.1171-0.1483 0.0666-0.2724 0.1181-0.2754 0.1181-6e-3 0 0.0121-0.0756 0.0363-0.1665 0.2028-0.7539 0.3179-1.5168 0.324-2.1283 3e-3 -0.3028 3e-3 -0.3028 0.0303-0.3118-0.0061 3e-3 -0.0031 3e-3 0 3e-3zm-0.4208 0.1605c0.0181 0.0181 6e-3 0.6963-0.0182 0.8809-0.0545 0.4421-0.1393 0.8538-0.2785 1.317-0.0333 0.1119-0.0637 0.2058-0.0696 0.2119-0.0122 0.0151-0.427-0.3906-0.5632-0.548-0.23615-0.2725-0.42078-0.5449-0.55702-0.8113-0.06963-0.1363-0.17859-0.4026-0.16953-0.4117 0.04843-0.0333 1.6438-0.6509 1.656-0.6388zm-1.98 0.778c0.00302 0 0.00604 0 0.00911 3e-3 0.00603 0.0061 0.02726 0.0545 0.04542 0.109 0.09685 0.2634 0.31479 0.6509 0.50254 0.8992 0.20586 0.2724 0.47534 0.563 0.69934 0.7538 0.0726 0.0605 0.1392 0.118 0.1483 0.1271 0.0182 0.0182 0.0242 0.0151-0.4693 0.2029-0.57208 0.2179-1.1958 0.4359-1.9102 0.666-0.17068 0.055-0.3412 0.1105-0.51156 0.1665-0.02729 0.0091-0.01819-0.0061 0.06052-0.1302 0.35419-0.554 0.89305-1.6408 1.1958-2.4098 0.05147-0.1332 0.10293-0.2664 0.11203-0.2967 0.01212-0.0424 0.02722-0.0575 0.06656-0.0787 0.02119-6e-3 0.04241-0.0121 0.05147-0.0121zm-0.60542 0.2513c0.00906 0.0061-0.14534 0.33-0.29672 0.6267-0.29367 0.5721-0.61457 1.1353-1.0444 1.8194-0.07265 0.1181-0.14226 0.2271-0.15136 0.2392-0.01512 0.0212-0.02121 0.0151-0.06964-0.0787-0.10293-0.2028-0.18772-0.4632-0.23312-0.7024-0.04543-0.2361-0.03633-0.6478 0.01516-0.9021 0.03931-0.1877 0.03633-0.1847 0.12714-0.2301 0.3875-0.1968 1.6409-0.7841 1.653-0.772zm5.2222 0.2119v0.1272c0 0.6751-0.0726 1.6015-0.1786 2.2766-0.0182 0.1181-0.0334 0.2149-0.0364 0.218 0 0-0.0877-0.0242-0.1907-0.0545-0.4541-0.1423-0.9475-0.3512-1.3926-0.5964-0.2937-0.1605-0.7205-0.4239-0.7084-0.436 3e-3 -3e-3 0.1302-0.0696 0.2785-0.1483 0.5934-0.3088 1.1625-0.6418 1.656-0.9718 0.1847-0.1242 0.4632-0.3239 0.5238-0.3784zm-7.508 0.8961c0.01211 0 0.00908 0.0242-0.00909 0.1332-0.01211 0.0787-0.02723 0.224-0.03325 0.3239-0.02428 0.442 0.04843 0.769 0.26639 1.217 0.06055 0.1242 0.10902 0.2271 0.10595 0.2301-0.02121 0.0182-2.0253 0.6055-2.655 0.7781-0.18768 0.0514-0.35113 0.0969-0.3633 0.0998-0.02115 0.0061-0.0242 0.0031-0.01512-0.0484 0.06962-0.445 0.4087-1.0263 0.88096-1.5167 0.31486-0.327 0.56615-0.5177 0.99604-0.7629 0.30879-0.1756 0.78409-0.4389 0.82041-0.4511 3e-5 -3e-3 0.00305-3e-3 0.00606-3e-3zm4.7228 0.8446c3e-3 -3e-3 0.0757 0.0364 0.1634 0.0878 0.6479 0.3755 1.5501 0.7236 2.319 0.9022l0.0697 0.0152-0.0969 0.0544c-0.4026 0.2241-1.7256 0.775-3.0788 1.2806-0.1969 0.0727-0.39059 0.1453-0.42697 0.1605-0.03633 0.0151-0.06964 0.0242-0.06964 0.0212 0-0.0031 0.05453-0.109 0.12411-0.2392 0.3784-0.7084 0.7599-1.5712 0.9537-2.1706 0.0242-0.0576 0.0393-0.109 0.0424-0.1121zm-0.4814 0.1575c0.0031 0.0031-0.0211 0.0666-0.0514 0.1392-0.2634 0.6388-0.60857 1.3352-1.0506 2.1162-0.11199 0.1998-0.20586 0.3603-0.20893 0.3603-0.00297 0-0.09383-0.0545-0.2028-0.1211-0.64185-0.3936-1.211-0.878-1.5833-1.3472l-0.05451-0.0666 0.27546-0.0757c0.98696-0.2694 1.8255-0.5601 2.658-0.9173 0.1181-0.0484 0.215-0.0878 0.218-0.0878zm2.9911 1.0444c3e-3 0.0697-0.1514 0.6933-0.2785 1.1444-0.106 0.3784-0.1969 0.6751-0.3633 1.1988-0.0727 0.2301-0.1362 0.4208-0.1393 0.4208-3e-3 0-0.0212-3e-3 -0.0393-9e-3 -0.8991-0.1635-1.7044-0.3906-2.4613-0.6933-0.2119-0.0848-0.51466-0.221-0.53282-0.2362-0.00603-0.0061 0.17562-0.0908 0.40572-0.1907 1.3774-0.6025 2.8064-1.2867 3.2968-1.5803 0.0575-0.0363 0.1029-0.0545 0.112-0.0545zm-6.9055 0.2362c0.00606 6e-3 -0.37842 0.5601-0.91732 1.3139-0.18769 0.2634-0.40565 0.5721-0.48738 0.6872-0.08175 0.115-0.20586 0.2967-0.2755 0.4057l-0.1272 0.1968-0.13624-0.1151c-0.16047-0.1332-0.43895-0.4178-0.56307-0.5752-0.26038-0.3239-0.43593-0.666-0.50557-0.9778-0.03331-0.1453-0.03331-0.218-0.00307-0.2271 0.0454-0.0121 0.85373-0.2028 1.6106-0.3784 0.42081-0.0969 0.90819-0.2119 1.0838-0.2543 0.17561-0.0425 0.31794-0.0757 0.32095-0.0757zm0.38749 0.1483 0.09685 0.109c0.436 0.4874 0.88101 0.8478 1.4199 1.1625 0.0969 0.0546 0.16954 0.103 0.16345 0.106-0.02114 0.0152-1.8709 0.672-2.7277 0.9688-0.48133 0.1695-0.87795 0.3057-0.88094 0.3057-0.00301 0-0.03028-0.0181-0.0606-0.0393l-0.05446-0.0394 0.08779-0.1271c0.28455-0.4118 0.64184-0.8628 1.4199-1.8013zm2.4159 1.7287c0.00297-3e-3 0.13618 0.0454 0.29965 0.106 0.39364 0.1483 0.70534 0.2421 1.1232 0.3481 0.5146 0.1302 1.2593 0.2573 1.6984 0.2936 0.0666 0.0061 0.1029 0.0122 0.0908 0.0213-0.0213 0.0121-0.4662 0.1604-0.7932 0.2633-0.5208 0.1635-2.1101 0.6327-3.4058 1.0051-0.23917 0.0697-0.44505 0.1272-0.45715 0.1302-0.03024 0.0061-0.13019-0.0212-0.13019-0.0333 0-6e-3 0.07265-0.0999 0.16047-0.2028 0.43591-0.5208 0.86887-1.102 1.2291-1.653 0.09988-0.1514 0.18469-0.2755 0.18469-0.2785zm-0.53287 0.0151c0.00301 3e-3 -0.21191 0.3481-0.58727 0.9415-0.16049 0.2513-0.33911 0.5359-0.4027 0.6358-0.06055 0.0968-0.15136 0.2482-0.20281 0.333l-0.08781 0.1544-0.0454-0.0121c-0.10901-0.0303-0.87493-0.2998-1.0778-0.3815-0.25129-0.0999-0.51164-0.221-0.70541-0.3239-0.24216-0.1302-0.54488-0.324-0.52069-0.33 0.00605-3e-3 0.42081-0.1151 0.92031-0.2513 1.326-0.3603 2.0616-0.5691 2.543-0.7205 0.08781-0.0272 0.16348-0.0484 0.1665-0.0454zm3.7692 0.884h3e-3c0.0121 0.0303-0.4783 1.3926-0.657 1.8225-0.0393 0.0969-0.0544 0.1211-0.0756 0.118-0.0515-0.0029-0.7629-0.1029-1.1959-0.1664-0.75377-0.1151-2.0192-0.3361-2.3371-0.4087l-0.07265-0.0152 0.45102-0.103c0.96881-0.2179 1.435-0.336 1.9072-0.4813 0.5965-0.1816 1.1868-0.4087 1.7832-0.6872 0.0938-0.0424 0.1726-0.0757 0.1938-0.0787z" fill="url(#paint0_linear_384_1197)"/><path d="m10.407 2.0002c-0.0666-0.00904-1.1413 0.37846-1.8346 0.65998-0.93549 0.3815-1.662 0.7448-2.1101 1.0596-0.16647 0.11812-0.37541 0.32699-0.40866 0.40871-0.01211 0.03028-0.01819 0.06661-0.01819 0.10293l0.40569 0.38449 0.96572 0.30879 2.2978 0.41174 2.6277 0.45109 0.0273-0.22705c-0.0091 0-0.0151-0.00302-0.0242-0.00302l-0.3452-0.05452-0.0695-0.1241c-0.3573-0.62972-0.7509-1.4108-0.9809-1.9376-0.1786-0.4087-0.3482-0.88093-0.442-1.22-0.0515-0.20586-0.0575-0.21796-0.0908-0.22098v-7e-5h-1e-4zm-0.0485 0.15444h0.0031c3e-3 0.00299 0.0151 0.08781 0.0273 0.18766 0.0514 0.42389 0.1453 0.83253 0.2936 1.2746 0.112 0.33303 0.112 0.31488-0.0181 0.27549-0.3088-0.08474-1.6923-0.32391-2.6944-0.46316-0.16046-0.02121-0.2967-0.04239-0.2967-0.0454-0.0121-0.01211 0.72353-0.39662 1.0475-0.54795 0.41475-0.19077 1.553-0.66607 1.6377-0.68119zm-2.9184 1.3563 0.11812 0.03931c0.64177 0.21801 2.2553 0.52682 3.1454 0.59947 0.0999 0.00909 0.1847 0.01819 0.1877 0.01819 3e-3 0.00301-0.0817 0.04843-0.1908 0.09987-0.4298 0.21495-0.90211 0.47834-1.2291 0.68119-0.09685 0.06052-0.18469 0.10899-0.19676 0.10899-0.01212 0-0.07567-0.01212-0.14227-0.02121l-0.1211-0.01819-0.3027-0.2967c-0.53283-0.51765-0.95063-0.91726-1.1111-1.0687zm-0.12105 0.09383 0.42686 0.53284c0.23308 0.29366 0.46923 0.58125 0.52074 0.6448 0.05142 0.06362 0.09383 0.1151 0.09081 0.11812-0.01212 0.00907-0.61755-0.10902-0.93851-0.18164-0.32998-0.07571-0.46621-0.11204-0.66904-0.17558l-0.16652-0.05452v-0.04241c0.00302-0.20285 0.26038-0.50557 0.69631-0.81433zm3.6268 0.72659c0.0121 0 0.0272 0.02723 0.0635 0.10897 0.103 0.22704 0.4239 0.83861 0.5026 0.95666 0.0243 0.0394 0.0666 0.04241-0.3602-0.02722-1.0263-0.16655-1.3563-0.22098-1.3563-0.22704 0-0.00302 0.03028-0.02422 0.06963-0.04543 0.31789-0.17555 0.63879-0.39961 0.92339-0.63878 0.0696-0.05753 0.1332-0.11202 0.1453-0.12112 3e-3 -0.00604 0.0091-0.00906 0.0121-0.00604z" fill="url(#paint1_linear_384_1197)"/><path d="m6.0752 4.086s-0.06656 0.10601-3e-3 0.26344c0.0394 0.09684 0.15442 0.21489 0.28457 0.33601 0 0 1.3472 1.3139 1.5107 1.5016 0.74471 0.85976 1.0687 1.7074 1.0989 2.876 0.01817 0.75079-0.12416 1.4108-0.47834 2.1767-0.6297 1.3745-1.9588 2.8912-4.0083 4.5745l0.29976-0.0999c0.19374-0.1454 0.45713-0.2997 1.0747-0.6388 1.4259-0.7811 3.0304-1.4986 4.9982-2.2373 2.8336-1.0657 7.4929-2.313 10.145-2.7186l0.2755-0.0424-0.0424-0.0666c-0.2421-0.37544-0.4087-0.60853-0.6085-0.85677-0.5812-0.72053-1.2866-1.3048-2.1494-1.7892-1.1868-0.66297-2.7217-1.1807-4.6652-1.5651-0.3664-0.07269-1.1716-0.21194-1.8256-0.31184-1.3865-0.21489-2.2826-0.36326-3.2696-0.5328-0.35417-0.06058-0.88402-0.15137-1.2352-0.22704-0.18164-0.0394-0.52976-0.12112-0.80223-0.21496-0.21796-0.08481-0.53284-0.16958-0.59945-0.42692zm0.78112 0.75689c0.00299-0.00299 0.05142 0.01512 0.11503 0.03632 0.11504 0.03931 0.26337 0.08474 0.43901 0.13321 0.13287 0.03655 0.26608 0.07187 0.3996 0.10595 0.18164 0.04538 0.33299 0.08778 0.336 0.08778 0.02124 0.02121 0.32701 0.99899 0.42994 1.3744 0.0393 0.14233 0.06964 0.26339 0.06661 0.26339-0.00311 0.00307-0.03637-0.04843-0.07571-0.11805-0.35422-0.62366-0.91428-1.2564-1.5622-1.765-0.08473-0.06049-0.14832-0.11499-0.14832-0.118zm1.4895 0.41172c0.01515 0 0.08176 0.00909 0.16345 0.02724 0.51467 0.11503 1.438 0.29063 2.0284 0.39054 0.0999 0.01512 0.1786 0.03332 0.1786 0.03934 0 0.00609-0.0363 0.02724-0.0818 0.05149-0.0998 0.05144-0.5025 0.29059-0.63566 0.38143-0.33607 0.22402-0.63878 0.46621-0.85677 0.68417-0.08779 0.08781-0.16351 0.16046-0.16351 0.16046s-0.0181-0.05144-0.03331-0.11506c-0.10892-0.42081-0.33601-1.0445-0.54187-1.4834-0.03331-0.06961-0.06058-0.1332-0.06058-0.13923 0 0.00604 0 0.00303 0.00307 0.00303zm2.6217 0.49952c0.0181 0.00603 0.0484 0.10898 0.109 0.33601 0.112 0.43901 0.1635 0.92944 0.1453 1.3866-0.0061 0.12716-0.0121 0.24521-0.0182 0.26038l-0.0091 0.03024-0.1574-0.05144c-0.3239-0.10293-0.8507-0.25737-1.3017-0.38449-0.25737-0.06964-0.46621-0.13321-0.46621-0.13926 0-0.01819 0.37541-0.39357 0.53585-0.53584 0.30569-0.26948 1.1352-0.91127 1.1625-0.90217zm0.2089 0.03024c0.0091-0.00903 1.2533 0.20586 1.8195 0.31486 0.4208 0.08173 1.0323 0.20889 1.0686 0.22406 0.0182 0.00603-0.0454 0.04235-0.2483 0.13316-0.7992 0.3603-1.3926 0.68418-1.9828 1.0778-0.1544 0.10293-0.2846 0.18769-0.2877 0.18769-3e-3 0-6e-3 -0.08777-6e-3 -0.19375 0-0.57518-0.1151-1.1565-0.327-1.6469-0.0212-0.04844-0.0394-0.09384-0.0363-0.09691zm3.2181 0.63579c0.0091 0.00907-0.0303 0.25432-0.0666 0.3996-0.109 0.45109-0.4026 1.1202-0.7629 1.7498-0.0636 0.11202-0.1211 0.20285-0.1272 0.20586-6e-3 0.00302-0.0877-0.04241-0.1816-0.0969-0.3512-0.20586-0.7508-0.3996-1.1867-0.58127-0.1211-0.05144-0.2271-0.09386-0.2301-0.09986-0.0212-0.01819 0.9536-0.66302 1.4683-0.97182 0.4087-0.24823 1.0747-0.61759 1.0868-0.60546zm0.2301 0.03631c0.0272 0 0.5782 0.15139 0.8658 0.23615 0.7114 0.21194 1.5288 0.51163 2.0616 0.75382l0.221 0.09994-0.1543 0.0363c-1.3018 0.29969-2.4159 0.64486-3.4906 1.0808-0.0878 0.03632-0.1666 0.0666-0.1725 0.0666-0.0061 0 0.0242-0.06962 0.0635-0.15441 0.3239-0.68721 0.5328-1.4047 0.5843-2.0163 3e-3 -0.05753 0.0121-0.10291 0.0212-0.10291zm-5.4856 1.2594c0.00906-0.00911 0.42989 0.09082 0.65694 0.15434 0.34511 0.09692 1.0777 0.34211 1.0777 0.3603 0 0.00301-0.0817 0.07265-0.1785 0.15744-0.3966 0.32999-0.77812 0.67809-1.2353 1.1201-0.13624 0.13022-0.25125 0.23617-0.25728 0.23617-0.00608 0-0.00906-0.01821-0.00608-0.04241 0.06962-0.50863 0.05452-1.1625-0.04236-1.8255-0.00912-0.0848-0.01818-0.15742-0.01515-0.16043zm8.843 0.0091c6e-3 0.00602-0.1938 0.32087-0.3209 0.49946-0.1816 0.26035-0.4481 0.60554-1.0506 1.3624-0.3178 0.39958-0.6751 0.85073-0.7931 1.002-0.1212 0.1514-0.221 0.2785-0.2241 0.2785-3e-3 0-0.0423-0.0544-0.0847-0.121-0.3391-0.5087-0.7448-0.9537-1.2262-1.3533-0.0908-0.07571-0.1906-0.15745-0.2239-0.18167-0.0333-0.02421-0.0606-0.04843-0.0606-0.05144 0-0.00906 0.5146-0.23012 0.9052-0.38751 0.6842-0.27854 1.6165-0.61154 2.3159-0.8265 0.3664-0.11502 0.7569-0.22704 0.763-0.22095zm0.2331 0.0605c0.012-3e-3 0.0847 0.03333 0.1725 0.08474 0.7357 0.42081 1.4562 0.96275 2.0254 1.5198 0.1604 0.15744 0.557 0.56917 0.5509 0.57218 0 0-0.1392 0.01211-0.3027 0.0242-1.2745 0.09695-2.9063 0.36635-4.4745 0.74475-0.1059 0.0242-0.1997 0.0454-0.2058 0.0454-6e-3 0 0.112-0.1181 0.2604-0.2604 0.9203-0.88697 1.3411-1.447 1.8376-2.4461 0.0696-0.1483 0.1301-0.27545 0.1362-0.28456-3e-3 0-3e-3 0 0 0zm-6.7421 0.69029c0.0425 0.00904 0.436 0.19378 0.7327 0.34208 0.2725 0.13618 0.6812 0.3542 0.7024 0.37234 3e-3 0.00301-0.1424 0.07871-0.3209 0.16652-0.5692 0.28457-1.0566 0.55398-1.5652 0.86274-0.1453 0.0879-0.2664 0.1605-0.2694 0.1605-0.0122 0-0.0091-0.0121 0.0726-0.1605 0.2725-0.4964 0.4904-1.0898 0.6146-1.668 0.0121-0.0454 0.0242-0.07564 0.0332-0.07564zm-0.3935 0.07263c0.0091 0.0091-0.0939 0.38144-0.1574 0.58428-0.1242 0.38449-0.333 0.86583-0.5358 1.2292-0.0485 0.0847-0.1212 0.2088-0.1605 0.2784l-0.0757 0.1211-0.16954-0.1634c-0.19676-0.1907-0.35725-0.3088-0.56307-0.4148-0.08179-0.0423-0.14534-0.0787-0.14534-0.0847 0-0.0242 0.51768-0.49348 0.91425-0.83255 0.2846-0.24523 0.884-0.72658 0.8931-0.7175zm2.4068 0.98998 0.1484 0.09684c0.339 0.22104 0.7386 0.51463 1.0444 0.77203 0.1725 0.1422 0.5055 0.442 0.5722 0.5146l0.0362 0.0394-0.2451 0.0696c-1.3866 0.3845-2.4583 0.7266-3.7086 1.1868-0.1393 0.0514-0.2573 0.0938-0.2664 0.0938-0.0181 0-0.0333 0.0151 0.2785-0.2725 0.7993-0.7356 1.5076-1.547 2.0344-2.3371zm-0.6327 0.15742c6e-3 0.00603-0.4087 0.59035-0.657 0.92025-0.2967 0.3936-0.8235 1.0536-1.1867 1.4834-0.1514 0.1787-0.2815 0.327-0.2876 0.3301-0.0091 3e-3 -0.0121-0.0424-0.0121-0.1121 0-0.3663-0.0939-0.7568-0.2574-1.0898-0.0696-0.1393-0.0817-0.1726-0.0665-0.1877 0.0575-0.0515 0.9384-0.554 1.4955-0.8537 0.3754-0.19984 0.9626-0.49651 0.9718-0.49045zm-3.8267 0.93845c0.0091 0 0.07873 0.0363 0.15746 0.0787 0.19374 0.106 0.36631 0.2241 0.52069 0.3512 0.00604 0.0061-0.07265 0.0697-0.17558 0.1453-0.28761 0.2059-0.72354 0.5359-0.9778 0.7387-0.26648 0.212-0.2755 0.218-0.24526 0.1726 0.19983-0.3058 0.29969-0.4783 0.40569-0.6993 0.09383-0.1968 0.18766-0.4299 0.25426-0.6328 0.02421-0.0878 0.0545-0.1544 0.06054-0.1544zm1.0203 0.7992c0.0151-0.0029 0.0333 0.0243 0.115 0.1454 0.1726 0.2573 0.3058 0.6024 0.3391 0.881l6e-3 0.0605-0.4147 0.1605c-0.74175 0.2876-1.4259 0.5722-1.8892 0.784-0.13014 0.0606-0.35721 0.1696-0.50553 0.2423-0.14836 0.0756-0.26945 0.1332-0.26945 0.1301 0-3e-3 0.09383-0.0726 0.20886-0.1574 0.90526-0.6569 1.6893-1.3775 2.2766-2.098 0.06359-0.0757 0.12114-0.1453 0.12714-0.1483zm-0.46926 0.1151c0.01212 0.0121-0.333 0.4026-0.56914 0.6418-0.58429 0.5964-1.1625 1.0627-1.88 1.5168-0.09081 0.0575-0.17253 0.1089-0.18164 0.115-0.0212 0.0121 0.00603-0.0182 0.3209-0.3603 0.19983-0.2149 0.35118-0.3966 0.52374-0.6206 0.11504-0.1483 0.13624-0.1695 0.30278-0.2876 0.44503-0.3209 1.4713-1.0172 1.4834-1.0051z" fill="url(#paint2_radial_384_1197)"/></g></svg>
