<?xml version="1.0" encoding="UTF-8" standalone="no"?>

<svg
   width="64px"
   height="64px"
   viewBox="0 0 22.439182 4.4037329"
>
  <g
     inkscape_label="Layer 1"
     inkscape_groupmode="layer"
     id="layer1"
     transform="translate(-325.31151,-200.1718)">
    <g
       transform="translate(554.52215,-217.57203)"
       id="g48604">
      <path
         inkscape_connector-curvature="0"
         id="path46407"
         style="fill:#ff5f02;fill-opacity:1;fill-rule:nonzero;stroke:none;stroke-width:0.14982837"
         d="m -229.07835,418.28896 h 0.7665 v 0.70774 h 0.8549 v 0.6781 h -0.8549 v 1.18532 c 0,0.30671 0.15901,0.40698 0.38325,0.40698 h 0.47165 v 0.67809 h -0.47165 c -0.78429,0 -1.14975,-0.34174 -1.14975,-1.08507 z" />
      <path
         inkscape_connector-curvature="0"
         id="path46409"
         style="fill:#ff5f02;fill-opacity:1;fill-rule:nonzero;stroke:none;stroke-width:0.14982837"
         d="m -225.62317,422.01527 c -0.94331,0 -1.5745,-0.61935 -1.5745,-1.53894 0,-0.91958 0.61934,-1.55078 1.53299,-1.55078 0.91366,0 1.50929,0.60156 1.50929,1.52115 0,0.0884 -0.006,0.18273 -0.0237,0.29485 h -2.21649 c 0.0706,0.41289 0.3245,0.60747 0.78429,0.60747 0.28892,0 0.5013,-0.12396 0.58377,-0.28891 h 0.79022 c -0.17681,0.57191 -0.67218,0.95516 -1.38585,0.95516 z m -0.76058,-1.89846 h 1.42682 c -0.0765,-0.3714 -0.30078,-0.5482 -0.70775,-0.5482 -0.38324,0 -0.63065,0.18867 -0.71907,0.5482 z" />
      <path
         inkscape_connector-curvature="0"
         id="path46411"
         style="fill:#ff5f02;fill-opacity:1;fill-rule:nonzero;stroke:none;stroke-width:0.14982837"
         d="m -223.73063,418.99616 h 0.73684 v 0.3536 c 0.27114,-0.27113 0.59563,-0.40696 0.90234,-0.3536 v 0.70775 c -0.38324,-0.0469 -0.63066,0.1299 -0.87269,0.44201 v 1.79819 h -0.76649 z" />
      <path
         inkscape_connector-curvature="0"
         id="path46413"
         style="fill:#ff5f02;fill-opacity:1;fill-rule:nonzero;stroke:none;stroke-width:0.14982837"
         d="m -221.13683,421.9797 c -0.54226,0 -0.97294,-0.31858 -0.97294,-0.97889 0,-0.54226 0.34174,-0.91366 1.10823,-0.91366 h 0.66625 v -0.0884 c 0,-0.27113 -0.17087,-0.38325 -0.59563,-0.38325 -0.28298,0 -0.50723,0.0297 -0.81393,0.11805 v -0.68996 c 0.2361,-0.0647 0.53095,-0.10619 0.87862,-0.10619 0.88455,0 1.2969,0.33581 1.2969,1.06135 v 1.94589 h -0.7487 v -0.17086 l -0.17088,0.0706 c -0.2183,0.0884 -0.44201,0.13584 -0.64846,0.13584 l 5.4e-4,-5.4e-4 z m 0.41883,-0.68996 0.38324,-0.16495 v -0.43607 h -0.58376 c -0.26521,0 -0.42476,0.12398 -0.42476,0.31856 0,0.23017 0.15901,0.34174 0.35954,0.34174 0.0825,0 0.1768,-0.0237 0.2652,-0.0587 l 5.4e-4,-5.4e-4 z" />
      <path
         inkscape_connector-curvature="0"
         id="path46415"
         style="fill:#ff5f02;fill-opacity:1;fill-rule:nonzero;stroke:none;stroke-width:0.14982837"
         d="m -216.85639,421.94465 v -0.19458 l -0.041,0.0178 c -0.27113,0.12991 -0.56005,0.19459 -0.83711,0.19459 -0.73685,0 -1.38585,-0.47758 -1.38585,-1.4915 0,-1.0139 0.64846,-1.49742 1.39178,-1.49742 0.27113,0 0.56005,0.0647 0.83118,0.19459 l 0.0237,0.0119 v -1.30391 h 0.7665 v 4.06859 z m -0.73685,-0.68996 c 0.16493,0 0.34766,-0.0415 0.53633,-0.1299 l 0.18273,-0.0884 v -1.13197 l -0.18273,-0.0884 c -0.18867,-0.0884 -0.3714,-0.12991 -0.53633,-0.12991 -0.42476,0 -0.74279,0.2652 -0.74279,0.78428 0,0.5191 0.31857,0.78429 0.74279,0.78429 z" />
      <path
         inkscape_connector-curvature="0"
         id="path46417"
         style="fill:#ff5f02;fill-opacity:1;fill-rule:nonzero;stroke:none;stroke-width:0.14982837"
         d="m -214.72184,421.9797 c -0.54226,0 -0.97294,-0.31858 -0.97294,-0.97889 0,-0.54226 0.34174,-0.91366 1.10824,-0.91366 h 0.66618 v -0.0884 c 0,-0.27113 -0.17081,-0.38325 -0.59557,-0.38325 -0.28298,0 -0.50723,0.0297 -0.81393,0.11805 v -0.68996 c 0.23609,-0.0647 0.53095,-0.10619 0.87861,-0.10619 0.88448,0 1.29696,0.33581 1.29696,1.06135 v 1.94589 h -0.74869 v -0.17086 l -0.17096,0.0706 c -0.2183,0.0884 -0.44199,0.13584 -0.64844,0.13584 l 5.4e-4,-5.4e-4 z m 0.41883,-0.68996 0.38325,-0.16495 v -0.43607 h -0.58376 c -0.26522,0 -0.42477,0.12398 -0.42477,0.31856 0,0.23017 0.15901,0.34174 0.35954,0.34174 0.0825,0 0.1768,-0.0237 0.2652,-0.0587 l 5.4e-4,-5.4e-4 z" />
      <path
         inkscape_connector-curvature="0"
         id="path46419"
         style="fill:#ff5f02;fill-opacity:1;fill-rule:nonzero;stroke:none;stroke-width:0.14982837"
         d="m -212.58779,418.28896 h 0.76652 v 0.70774 h 0.85492 v 0.6781 h -0.85492 v 1.18532 c 0,0.30671 0.15897,0.40698 0.38326,0.40698 h 0.47166 v 0.67809 h -0.47166 c -0.78435,0 -1.14978,-0.34174 -1.14978,-1.08507 z" />
      <path
         inkscape_connector-curvature="0"
         id="path46421"
         style="fill:#ff5f02;fill-opacity:1;fill-rule:nonzero;stroke:none;stroke-width:0.14982837"
         d="m -209.72832,421.9797 c -0.54222,0 -0.97283,-0.31858 -0.97283,-0.97889 0,-0.54226 0.34161,-0.91366 1.10813,-0.91366 h 0.66629 v -0.0884 c 0,-0.27113 -0.17081,-0.38325 -0.59557,-0.38325 -0.28303,0 -0.50732,0.0297 -0.81402,0.11805 v -0.68996 c 0.23613,-0.0647 0.53099,-0.10619 0.87859,-0.10619 0.88459,0 1.29692,0.33581 1.29692,1.06135 v 1.94589 h -0.74869 v -0.17086 l -0.17081,0.0706 c -0.2183,0.0884 -0.44199,0.13584 -0.64845,0.13584 l 4.5e-4,-5.4e-4 z m 0.41893,-0.68996 0.38326,-0.16495 v -0.43607 h -0.58388 c -0.2652,0 -0.42477,0.12398 -0.42477,0.31856 0,0.23017 0.15912,0.34174 0.35959,0.34174 0.0825,0 0.1768,-0.0237 0.2652,-0.0587 l 6e-4,-5.4e-4 z" />
      <path
         inkscape_connector-curvature="0"
         id="path46423"
         style="fill:#ff5f02;fill-opacity:1;fill-rule:nonzero;stroke:none;stroke-width:0.14982837"
         d="m -207.71762,421.6083 c 0,-0.22423 0.1768,-0.40104 0.40694,-0.40104 0.23013,0 0.40693,0.17681 0.40693,0.40104 0,0.22424 -0.18279,0.40697 -0.40693,0.40697 -0.2243,0 -0.40694,-0.18273 -0.40694,-0.40697 z" />
    </g>
  </g>
</svg>
