<?xml version="1.0" encoding="UTF-8"?>
<svg id="Brandmark" xmlns="http://www.w3.org/2000/svg" viewBox="0 0 1409 1408" width="64px" height="64px">
  <path d="m1406,704.33c0,286.14-171.17,532.29-416.61,641.57l-233.06-234.84c-9.73-9.81-15.19-23.06-15.19-36.87v-100.33c0-14.46,11.72-26.17,26.17-26.17h225.02l61.57,26.83c11.12,4.84,24.14.39,29.97-10.27l133.57-243.36c4.24-7.72,6.46-16.38,6.46-25.18v-57.25c0-6.54-2.68-12.82-7.39-17.34l-269.91-269.26c-2.22-2.16-5.04-3.73-8.11-4.45l-262.77-62.46c-8.21-1.95-15.83-5.86-22.21-11.4l-16.6-14.41-84.28-73.02c-2.91-2.52-7.42-2.39-10.28.2-32.54,29.48-50.18,53.74-58.69,85.91-14.2,50.25-2.03,94.81,18,121.83,1.24,1.7,2.49,3.34,3.79,4.84l100.51,100.7c4.91,4.84,7.59,11.45,7.59,18.39l.07,116.1c0,7.55-9.12,11.33-14.46,6l-163.82-163.82c-4.42-4.42-11.59-4.43-16.02-.01l-67.43,67.22c-4.44,4.43-4.44,11.61-.01,16.05l232.83,232.83c26.81,26.81,41.88,63.18,41.88,101.1v231.3c0,15.5,6.16,30.37,17.12,41.33l221.58,221.65c-41.88,9.81-85.19,15.9-129.62,17.8l-174.91-174.91c-24.38-24.38-38.08-57.45-38.08-91.93v-239.35c0-13.79-5.48-27.01-15.22-36.75l-229.4-229.4c-4.42-4.42-11.6-4.43-16.02,0l-67.9,67.74c-4.44,4.43-4.44,11.61,0,16.04l197.5,197.5c4.84,4.91,7.59,11.52,7.59,18.39v115.81c0,7.53-9.1,11.31-14.43,5.98L123.51,793.62c-4.1-4.09-11.1-1.2-11.11,4.59l-.32,138.66c-.02,8.7,3.43,17.04,9.58,23.2l429.15,429.21C228.9,1317.31-9.52,1023.96,3.51,677.25,16.86,322.15,300.18,28.71,654.69,4.22c409.95-28.32,751.31,296,751.31,700.1"/>
</svg>