<?xml version="1.0" encoding="UTF-8"?>
<svg id="Brand_mark_digital" data-name="Brand mark digital" xmlns="http://www.w3.org/2000/svg" xmlns:xlink="http://www.w3.org/1999/xlink" viewBox="0 0 1409 1408.14">
  <defs>
    <style>
      .cls-1 {
        fill: url(#linear-gradient);
      }

      .cls-2 {
        fill: #f5ff80;
      }

      .cls-3 {
        fill: url(#linear-gradient-2);
      }
    </style>
    <linearGradient id="linear-gradient" x1="615.28" y1="-126.71" x2="501.66" y2="-125.02" gradientTransform="translate(0 394.94) scale(1 -1)" gradientUnits="userSpaceOnUse">
      <stop offset="0" stop-color="#f5ff80" stop-opacity="0"/>
      <stop offset="1" stop-color="#f5ff80"/>
    </linearGradient>
    <linearGradient id="linear-gradient-2" x1="396.83" y1="-492.11" x2="255.25" y2="-492.11" gradientTransform="translate(0 394.94) scale(1 -1)" gradientUnits="userSpaceOnUse">
      <stop offset="0" stop-color="#f5ff80" stop-opacity="0"/>
      <stop offset=".96" stop-color="#f5ff80"/>
    </linearGradient>
  </defs>
  <path class="cls-1" d="m613.6,634.13l-.07-116.1c0-6.91-2.74-13.54-7.63-18.43l-100.51-100.7-70.12,77.36,163.87,163.86c5.34,5.34,14.47,1.55,14.47-6Z"/>
  <path class="cls-3" d="m391.57,914.04l-197.52-197.09-70.59,76.68,261.29,261.04c5.34,5.33,14.46,1.55,14.46-6v-116.19c0-6.92-2.75-13.55-7.64-18.44Z"/>
  <path class="cls-2" d="m654.69,4.29C300.18,28.78,16.86,322.22,3.51,677.32c-13.03,346.71,225.39,640.06,547.29,712.02L121.65,960.13c-6.15-6.15-9.6-14.5-9.58-23.2l.32-138.66c.01-5.79,7.02-8.69,11.11-4.59l70.59-76.68c-4.43-4.43-4.43-11.62,0-16.04l67.9-67.74c4.43-4.42,11.6-4.41,16.02,0l229.4,229.4c9.75,9.75,15.22,22.97,15.22,36.75v239.35c0,34.48,13.7,67.55,38.08,91.93l174.91,174.91c44.43-1.9,87.74-7.98,129.62-17.8l-221.58-221.65c-10.96-10.96-17.12-25.83-17.12-41.33v-231.3c0-37.92-15.06-74.29-41.88-101.1l-232.83-232.83c-4.43-4.43-4.43-11.62.01-16.05l67.43-67.22c4.43-4.42,11.6-4.41,16.02.01h0l70.12-77.36c-1.31-1.5-2.55-3.14-3.79-4.84-20.02-27.02-32.19-71.58-18-121.83,8.5-32.17,26.15-56.43,58.69-85.91,2.86-2.59,7.37-2.72,10.28-.2l84.28,73.02,16.6,14.41c6.38,5.53,14,9.45,22.21,11.4l262.77,62.46c3.07.72,5.89,2.29,8.11,4.45l269.91,269.26c4.71,4.51,7.39,10.8,7.39,17.34v57.25c0,8.8-2.22,17.47-6.46,25.18l-133.57,243.36c-5.82,10.66-18.85,15.12-29.97,10.27l-61.57-26.83h-225.02c-14.46,0-26.17,11.72-26.17,26.17v100.33c0,13.81,5.46,27.07,15.19,36.87l233.06,234.84c245.44-109.27,416.61-355.43,416.61-641.57,0-404.11-341.36-728.42-751.31-700.1Z"/>
</svg>